<?xml version="1.0" encoding="UTF-8"?>
<svg width="170px" height="158px" viewBox="0 0 170 158" version="1.1" xmlns="http://www.w3.org/2000/svg" xmlns:xlink="http://www.w3.org/1999/xlink">
    <!-- Generator: Sketch 53 (72520) - https://sketchapp.com -->
    <title>Final_VF_Tops_2.0</title>
    <desc>Created with Sketch.</desc>
    <g id="VF-Final" stroke="none" stroke-width="1" fill="none" fill-rule="evenodd">
        <g id="Final_VF_Tops_2.0" transform="translate(1.000000, 0.000000)">
            <g id="mannequin" transform="translate(20.000000, 8.000000)">
                <path d="M72.3831134,0.0124390244 C72.3831134,0.0124390244 72.276227,0.388536586 72.1517704,1.10341464 C72.0258496,1.8197561 71.8940724,2.88512195 71.901393,4.22487805 C71.9196958,5.55512196 72.0902741,7.19560977 72.7608755,8.87414636 C73.4241562,10.5504878 74.6577403,12.2092683 76.4513797,13.434878 C76.6673485,13.5731707 76.9074765,13.7853658 77.1073391,13.8739024 C77.3679659,14.0158536 77.6359134,14.1621951 77.902397,14.3034146 C78.4412207,14.6268292 78.9690628,14.8046342 79.5042261,15.0343902 C80.5877308,15.4763414 81.8074052,15.8473171 83.0570956,16.164878 C85.5777075,16.7890244 88.341376,17.1212195 91.2382861,17.5521951 C92.687107,17.765122 94.1798541,17.9802439 95.7084736,18.317561 C97.2341649,18.6453658 98.8301376,19.0573171 100.388041,19.9697561 C100.784106,20.1504878 101.146494,20.49 101.52206,20.76 L101.80099,20.9758536 C101.835398,21.0073171 101.773902,20.9429268 101.885181,21.0541464 L101.908608,21.0804878 L101.956194,21.132439 L102.058688,21.2392683 L102.457681,21.6578049 C102.991381,22.1860976 103.517026,22.86 104.049993,23.4717073 C104.599066,24.1068292 105.045646,24.7090244 105.548597,25.3295122 C106.042031,25.9441464 106.526679,26.5646342 106.997418,27.1873171 C108.889158,29.6882927 110.706224,32.2265854 112.492542,34.7297561 C114.286914,37.2256098 115.959756,39.744878 117.602583,42.1653658 C119.243946,44.5887805 120.778423,46.9653658 122.216994,49.224878 C123.675333,51.474878 124.995305,53.6414636 126.207658,55.6426827 C126.806514,56.6473173 127.381943,57.6102439 127.931016,58.5256098 C128.460322,59.4534145 128.960345,60.3329266 129.435477,61.1597561 C130.376222,62.8170734 131.158834,64.2834145 131.781849,65.5009757 C132.407061,66.7178046 132.874138,67.6836584 133.158924,68.3641462 C133.448835,69.035122 133.604772,69.39 133.604772,69.39 C133.604772,69.39 133.397589,69.0592682 133.010309,68.4387804 C132.64426,67.8087804 132.032226,66.93 131.282558,65.7936584 C130.527034,64.6639023 129.56945,63.3131705 128.49107,61.7568295 C127.395852,60.2107318 126.157143,58.4670734 124.807888,56.5646341 C122.07936,52.7787805 118.899861,48.365122 115.490482,43.6346342 C113.772249,41.2778049 112.000573,38.8478049 110.198881,36.3731707 C108.398653,33.9043902 106.555963,31.4012195 104.67008,28.9514634 C104.209591,28.3265854 103.740316,27.7163414 103.267381,27.1097561 C102.796642,26.5141464 102.322243,25.8680488 101.86029,25.325122 C101.385158,24.7609756 100.973719,24.1968292 100.415861,23.6334146 L100.02126,23.2112195 L99.920963,23.1043902 L99.874109,23.052439 L99.8499499,23.0282927 C99.9480508,23.1212195 99.8653235,23.0436586 99.8785016,23.0604878 L99.6998699,22.9229268 C99.4450995,22.7553658 99.260611,22.5278049 98.9523981,22.392439 C97.8637692,21.7368292 96.4896217,21.3029268 95.0935116,20.957561 C93.7025263,20.6019512 92.2595623,20.34 90.8283115,20.0839024 C87.9614174,19.5841464 85.1303962,19.062439 82.4853278,18.2590244 C79.846848,17.4695122 77.3518597,16.3170732 75.4506023,14.7680488 C73.4827238,13.212439 72.2513356,11.1395122 71.7139764,9.22756098 C71.1444045,7.30609757 71.1949188,5.56317075 71.3325534,4.1897561 C71.472384,2.80317073 71.7886503,1.76195122 72.0068151,1.06243902 C72.2242484,0.368780488 72.3831134,0.0124390244 72.3831134,0.0124390244 Z M133.598915,77.28 C132.526392,78.635122 131.425318,79.9587804 130.291298,81.2473173 C129.17485,82.5534145 128.007886,83.8082925 126.859225,85.0829266 L123.336372,88.8226827 C122.148177,90.054878 120.945341,91.2724393 119.73738,92.4834145 C117.312673,94.8995121 114.841844,97.2673173 112.339534,99.5985364 C111.088379,100.764878 109.822583,101.915122 108.544341,103.057317 C107.274883,104.201707 105.968821,105.313902 104.672277,106.432683 L104.762325,106.335366 C104.643724,106.467073 104.489252,106.658049 104.35601,106.83439 L103.950428,107.391951 C103.681016,107.765122 103.429907,108.155122 103.189779,108.553171 C102.959168,108.954878 102.734414,109.360976 102.533819,109.787561 C102.425469,109.994634 102.344938,110.213414 102.246105,110.424878 C102.146539,110.637805 102.053563,110.853658 101.978889,111.073902 C101.801722,111.513658 101.66848,111.96 101.536702,112.41439 C101.464225,112.642683 101.432745,112.874634 101.372713,113.10439 C101.315609,113.332683 101.265826,113.569024 101.235078,113.804634 L101.128924,114.516586 L101.084998,115.238049 C101.030091,115.724634 101.097444,116.205366 101.083534,116.705854 C100.945899,116.236098 100.763607,115.76122 100.69113,115.268049 L100.55862,114.520976 L100.500053,113.770244 C100.474429,113.513414 100.474429,113.263902 100.481018,113.009268 C100.486874,112.751707 100.48541,112.499268 100.511034,112.245366 C100.557156,111.739024 100.61426,111.223902 100.713093,110.724878 C100.797284,110.218536 100.927597,109.719512 101.079142,109.228536 C101.229222,108.736098 101.407853,108.253902 101.601127,107.774634 C101.799526,107.300488 102.012566,106.828536 102.257086,106.366829 C102.374222,106.13561 102.508928,105.910976 102.642902,105.683414 C102.780536,105.455122 102.912314,105.24439 103.095338,104.996342 L103.103391,104.986098 L103.183922,104.896829 C104.358206,103.650732 105.527366,102.397317 106.728738,101.177561 C107.92645,99.9541462 109.129286,98.7387804 110.348961,97.5373173 C112.78831,95.1409757 115.262068,92.7739023 117.779019,90.4602439 C119.044816,89.3056098 120.311344,88.1582925 121.596907,87.0285364 L125.48581,83.6729266 C126.810174,82.5819514 128.116969,81.4697561 129.469153,80.4139023 C130.826462,79.3302439 132.19768,78.2904879 133.598915,77.28 Z M96.6894843,51.9190244 C98.5124075,53.5807318 100.262853,55.3024393 102.003049,57.035122 C102.880834,57.8941462 103.723478,58.7853659 104.580764,59.6590243 C105.444639,60.5319514 106.28948,61.4187804 107.127732,62.3136584 L109.648343,64.9880486 L112.126494,67.7019514 C112.947175,68.6107318 113.789087,69.5019514 114.588538,70.4268295 L117.016173,73.1853659 L117.718255,73.9814636 L117.142094,74.9019514 C116.39023,76.1034145 115.64349,77.3107318 114.86161,78.4946341 L112.543789,82.0617075 C111.780212,83.2580486 110.972708,84.4243902 110.179846,85.6017075 C109.379664,86.7739023 108.605836,87.9614636 107.785155,89.1219514 L105.341414,92.6129266 L102.840568,96.065122 C101.998656,97.2080486 101.139174,98.3436584 100.278227,99.4778046 C99.408495,100.603902 98.5351023,101.73 97.622909,102.830488 C98.2364066,101.538292 98.8887057,100.273902 99.5432009,99.0065855 C100.20941,97.7480486 100.874154,96.4909757 101.557933,95.2441462 L103.632698,91.5212196 L105.763102,87.8341462 C106.47104,86.6019514 107.216315,85.3975607 107.944021,84.1785364 C108.677582,82.9639023 109.393574,81.7390243 110.155687,80.5441462 L112.412011,76.9360977 C113.157287,75.7280486 113.934775,74.5426827 114.708602,73.3536584 L114.834522,75.0709757 L112.453741,72.2773173 C111.651362,71.3487804 110.889249,70.3931705 110.107369,69.4507318 L107.773442,66.6131705 L105.485637,63.7353659 C104.71913,62.7775607 103.962874,61.8160977 103.219795,60.8385364 C102.473787,59.8602439 101.711674,58.9024393 100.989094,57.9117075 C99.5292911,55.9375607 98.0724169,53.9604879 96.6894843,51.9190244 Z M93.4777723,48.2085366 C93.4777723,48.2085366 93.5824623,48.5817073 93.7369348,49.2863414 C93.8899435,49.9909756 94.1103049,51.0285366 94.2962577,52.3668292 C94.473425,53.7043902 94.6674308,55.3390243 94.7179456,57.2297561 C94.7721212,59.1175607 94.7479616,61.2673173 94.455855,63.5941462 C94.1659444,65.9202439 93.6483511,68.4446341 92.6900357,71.0063416 C92.4550324,71.6465855 92.1739068,72.2831705 91.8839962,72.9256098 C91.5823718,73.5387804 91.276355,74.1607318 90.9688743,74.7863416 C90.3282889,76.0492682 89.8260697,77.2639023 89.3326362,78.5619514 C88.341376,81.1587804 87.6187955,83.9495121 87.2981372,86.8207318 C86.921839,89.6846341 86.9877278,92.6385364 87.5133739,95.4943902 C87.7952311,96.9160977 88.1297996,98.3312196 88.6320188,99.6804879 C88.7425656,100.022927 88.8736111,100.356586 89.0200303,100.679268 C89.1598609,100.999756 89.2982277,101.364878 89.4387904,101.640732 C89.7748228,102.327073 90.1137844,103.004634 90.4607983,103.619268 C91.1475059,104.88439 91.9381713,106.19122 92.6497703,107.488536 C93.3701543,108.793902 94.0736998,110.096342 94.7289271,111.406098 C95.386351,112.712195 95.9786176,114.027073 96.544529,115.321464 C97.0540689,116.637805 97.5672696,117.916829 97.9787085,119.195854 C98.4348049,120.45878 98.7627849,121.720976 99.1222447,122.928292 C99.4429035,124.145854 99.6866918,125.337805 99.9546398,126.47122 C100.158895,127.614878 100.358758,128.712439 100.546174,129.756586 C100.676488,130.80878 100.79948,131.803171 100.913687,132.739024 C101.136977,134.608536 101.189688,136.251951 101.287057,137.593902 C101.342697,140.292439 101.333911,141.826829 101.333911,141.826829 C101.333911,141.826829 101.074749,140.304878 100.686737,137.655366 C100.560816,136.999756 100.42611,136.26878 100.275298,135.47561 C100.114969,134.685366 100.000762,133.820488 99.7723473,132.920488 C99.56736,132.016098 99.3462664,131.053902 99.1156556,130.039024 C98.8513685,129.036586 98.5724395,127.981464 98.2803323,126.883902 C97.6002137,124.712927 96.8681165,122.367805 95.8856414,119.971464 C94.9251294,117.567805 93.7567019,115.104878 92.4081779,112.621464 C91.0611183,110.123414 89.4871087,107.69122 87.959953,104.97439 C87.5580318,104.278536 87.2124817,103.602439 86.8749845,102.929268 C86.6707294,102.533414 86.5374878,102.182195 86.3676412,101.806098 C86.1999906,101.43878 86.0469824,101.064146 85.9152047,100.681464 C85.3265984,99.1734145 84.9276049,97.5973173 84.649408,96.0080486 C84.1076556,92.825122 84.0747115,89.5785364 84.5220228,86.4614636 C84.9839765,83.3458537 85.8676181,80.3692682 87.0228685,77.6356098 C87.6063501,76.2731705 88.2886652,74.915122 88.9658551,73.7465855 C89.3004236,73.1487804 89.6305996,72.5575607 89.9571153,71.9736584 C90.2514184,71.3963416 90.539133,70.8226827 90.7909743,70.2387804 C91.8129826,67.9126827 92.4952977,65.5660977 92.9213781,63.3541462 C93.3533158,61.1421954 93.5963725,59.0692682 93.6959377,57.2209757 C93.8028236,55.3741462 93.8145374,53.7512196 93.7720755,52.4165854 C93.6981337,49.7356098 93.4777723,48.2085366 93.4777723,48.2085366 Z M54.970173,0.0124390244 C54.970173,0.0124390244 55.2322636,0.573658537 55.5499943,1.69609756 C55.8633318,2.81121951 56.2315772,4.51609756 56.0990673,6.75073173 C56.0251256,7.86292682 55.7820689,9.10097561 55.2710652,10.3829268 C55.0053137,11.0180488 54.6744056,11.6612195 54.2622344,12.2882927 C53.8354219,12.9095122 53.333935,13.5102439 52.7555778,14.0721951 C52.4598103,14.3414634 52.1618466,14.6297561 51.8302064,14.8763414 C51.6588956,15.0102439 51.4846564,15.1390244 51.3111493,15.2721951 L50.8177155,15.6043902 C50.4963247,15.8239024 50.0746365,16.0602439 49.6998025,16.2695122 C49.3176476,16.4678049 48.923047,16.6734146 48.5181971,16.8497561 C46.8951368,17.5741464 45.1168718,18.077561 43.280039,18.5004878 C41.4366174,18.9197561 39.5309674,19.2695122 37.6018903,19.637561 C35.6815984,20.0187805 33.7290942,20.4636586 31.9435083,21.2326829 C30.1637791,22.0017073 28.6036792,23.1146342 27.596313,24.7236586 C26.561127,26.4065854 25.7843715,28.5073171 25.0456851,30.642439 C23.5953998,34.9412195 22.3896351,39.54 21.1948519,44.2134146 C20.0183711,48.8956098 18.9121717,53.6831705 17.8513623,58.4831705 C16.7912851,63.2846341 15.7275473,68.0875607 14.7260378,72.8275607 C13.7252605,77.5668295 12.7420535,82.235122 11.7881303,86.7512196 C10.8342072,91.2687804 9.91249638,95.6370734 9.039104,99.7785364 C8.14082031,103.916342 7.29231924,107.82878 6.51043904,111.440488 C5.7022033,115.050732 4.94301816,118.351464 4.25265015,121.275366 C3.546176,124.196342 2.90266224,126.737561 2.33967922,128.821464 C1.76498263,130.903171 1.26276371,132.525366 0.873287803,133.61561 C0.489668685,134.710976 0.19390127,135.255366 0.19390127,135.255366 C0.19390127,135.255366 0.451599612,134.69122 0.755420096,133.579024 C1.06802576,132.466098 1.44212761,130.819756 1.87479727,128.712439 C2.74452917,124.494878 3.83974712,118.438536 5.11140057,111.163171 C5.75271803,107.525854 6.44747861,103.587073 7.18250457,99.4170734 C7.93144038,95.25 8.72283784,90.8553659 9.54278711,86.3107318 C10.3620043,81.7646341 11.2463782,77.0729266 12.1812667,72.3109757 C13.1161553,67.5490243 14.0605611,62.7087804 15.1001397,57.8846341 C16.1389862,53.0604878 17.2217584,48.2436586 18.3843294,43.5117073 C19.5439719,38.7804878 20.7973229,34.1487805 22.3252105,29.7058536 C22.711758,28.5929268 23.1144117,27.4953658 23.5763653,26.4073171 C24.0302658,25.3404878 24.5522513,24.197561 25.2082107,23.1870732 C25.8993109,22.1158536 26.7917378,21.1778049 27.7800695,20.4329268 C28.7698654,19.6880488 29.8431204,19.145122 30.9090544,18.7221951 C33.051904,17.885122 35.1640055,17.4929268 37.1538466,17.1578049 C39.145152,16.8226829 41.0493378,16.6104878 42.8305311,16.2907317 C46.3951142,15.6709756 49.4874942,14.675122 51.6728055,12.8670732 C52.7431321,11.975122 53.5601532,10.9331707 54.1370457,9.85756098 C54.7014929,8.77170734 55.0338654,7.66609757 55.2168896,6.64097561 C55.5924556,4.5804878 55.4313941,2.87926829 55.2988847,1.74731707 C55.1495369,0.607317075 54.970173,0.0124390244 54.970173,0.0124390244 Z M33.8755138,48.2085366 C33.8755138,48.2085366 33.6551524,49.7341464 33.5856031,52.4085366 C33.5402131,53.7439023 33.554855,55.3660977 33.6617413,57.2129266 C33.7627707,59.0575607 34.0058271,61.1304879 34.4370326,63.3460977 C34.8631134,65.5587804 35.5454283,67.9060977 36.5674365,70.2307318 C36.8178138,70.8146341 37.1033319,71.3882925 37.3990993,71.9656098 C37.7263469,72.5495121 38.0557909,73.1392682 38.3903594,73.7385364 C39.0690138,74.9107318 39.7513288,76.265122 40.3348105,77.6268295 C41.4907926,80.3590243 42.372238,83.3407318 42.8356558,86.4526827 C43.2822353,89.5697561 43.2492909,92.8170734 42.7082709,95.9992682 C42.4286096,97.5885364 42.0310806,99.1646341 41.4424742,100.672683 C41.3114287,101.054634 41.1598845,101.43 40.9922342,101.79878 C40.8216554,102.178536 40.6891458,102.524634 40.4841584,102.920488 C40.143001,103.595122 39.7974509,104.27122 39.3977257,104.967073 C37.869106,107.682439 36.2965604,110.114634 34.950233,112.612683 C33.599513,115.095366 32.4332816,117.559024 31.4713054,119.962683 C30.4866342,122.359024 29.7545366,124.704146 29.0780784,126.875122 C28.7881678,127.97561 28.5085065,129.027073 28.242023,130.030244 C28.0114123,131.047317 27.7903189,132.006586 27.5845994,132.911707 C27.3583813,133.811707 27.2412457,134.676586 27.0823805,135.466829 C26.9323005,136.26 26.7924698,136.98878 26.6709417,137.646586 C26.2851262,140.296098 26.0244995,141.818049 26.0244995,141.818049 C26.0244995,141.818049 26.0164464,140.283658 26.0720858,137.585122 C26.1694549,136.243171 26.2207017,134.599756 26.4447235,132.729512 C26.5603949,131.79439 26.6826552,130.794878 26.8122365,129.747805 C27.0003856,128.703658 27.1951235,127.606098 27.4030392,126.462439 C27.6709869,125.329024 27.9111149,124.137073 28.23397,122.919512 C28.5905015,121.715122 28.9206775,120.45 29.3775063,119.187073 C29.787481,117.907317 30.3014135,116.628292 30.8116855,115.312683 C31.3775969,114.018292 31.9698638,112.706342 32.6280195,111.397317 C33.2825147,110.089756 33.9853284,108.785854 34.7079087,107.479756 C35.423168,106.182439 36.2101729,104.877073 36.8946841,103.610488 C37.2453589,102.995854 37.5813916,102.316098 37.9166923,101.631951 C38.0601834,101.353171 38.1970857,100.988049 38.3369163,100.670488 C38.4818716,100.347805 38.6143813,100.014878 38.7241959,99.6709757 C39.2286111,98.3224393 39.5631797,96.9109757 39.8457694,95.4856098 C40.3670229,92.6312196 40.4336437,89.6773173 40.0595418,86.8119514 C39.7352226,83.9414636 39.0163029,81.1507318 38.0235785,78.5539023 C37.5264843,77.2565855 37.0279258,76.0375607 36.3880726,74.7775607 C36.0798595,74.1526827 35.7745749,73.53 35.4729506,72.9168295 C35.18304,72.2743902 34.9070392,71.6378046 34.665447,70.9975607 C33.704935,68.4358537 33.1902704,65.9114636 32.8996277,63.5853659 C32.6075208,61.254878 32.5804331,59.1087804 32.6375368,57.2209757 C32.6880515,55.3309757 32.8820574,53.6992682 33.0599571,52.3580488 C33.2459098,51.0197561 33.4655391,49.9821951 33.6178154,49.277561 C33.7730201,48.5795122 33.8755138,48.2085366 33.8755138,48.2085366 Z M31.0305826,76.2804879 C31.0305826,76.2804879 30.958105,76.5760977 30.8255953,77.1321954 C30.687961,77.6853659 30.5049366,78.5056098 30.2318642,79.5343902 C29.7040218,81.5992682 28.9316589,84.5421954 27.9257569,88.0463416 C27.4257342,89.8002439 26.8869104,91.7004879 26.275609,93.6973173 C25.675289,95.6963416 25.053006,97.8087804 24.3553171,99.9768295 C23.6620207,102.147805 22.9833662,104.398536 22.2212527,106.667561 C21.4715848,108.936586 20.708007,111.241464 19.9444293,113.543414 C19.1493713,115.840976 18.3543134,118.131951 17.5717011,120.39 C16.8029986,122.653902 15.9669432,124.853414 15.2011691,126.997317 C14.4361272,129.141951 13.6476582,131.198049 12.9067754,133.150244 C12.1776062,135.106098 11.4535618,136.944878 10.7807641,138.63878 C9.44981073,142.033902 8.27186577,144.839268 7.43581035,146.795122 C6.59755861,148.759024 6.08655454,149.863902 6.08655454,149.863902 C6.08655454,149.863902 6.35523435,148.673414 6.88234457,146.609268 C7.41091904,144.54439 8.18181777,141.600732 9.18771981,138.096586 C9.68481403,136.342683 10.2272983,134.443171 10.8371356,132.44561 C11.4367235,130.447317 12.0619349,128.334146 12.7588917,126.166829 C13.4529202,123.997317 14.12645,121.742195 14.8944203,119.476829 C15.6455524,117.207073 16.4091302,114.902195 17.17344,112.600976 C17.968498,110.303414 18.7657522,108.012439 19.5476324,105.755122 C20.3221916,103.492683 21.1523902,101.290976 21.9196285,99.1485364 C22.6832062,97.0031705 23.4760679,94.9521954 24.2147543,92.9985364 C24.9439235,91.0397561 25.6694322,89.2024393 26.3400336,87.51 C27.6724511,84.1126827 28.849664,81.3058537 29.6835231,79.3492682 C30.094962,78.3665855 30.447833,77.604878 30.6747832,77.0780486 C30.9068582,76.5578046 31.0305826,76.2804879 31.0305826,76.2804879 Z" id="Combined-Shape" fill="#000000" fill-rule="nonzero" opacity="0.5"></path>
                <path d="M86.051375,95.5785364 C84.949568,89.1943902 85.918865,81.4514636 90.3678221,73.4780486 C96.469123,62.5478046 93.4770402,48.1968292 93.4770402,48.1968292 L93.4909504,48.2092683 C93.4894861,48.2041464 93.4865579,48.1939024 93.4865579,48.1939024 L88.1817788,41.0239024 C88.1817788,41.0239024 71.4892224,56.9743902 63.6850624,56.9743902 C55.8794381,56.9743902 39.5251106,41.0239024 39.5251106,41.0239024 L33.8857631,48.1939024 C33.8857631,48.1939024 31.9369194,57.5575607 34.402624,66.9204879 C34.4985288,67.2856098 34.6010224,67.65 34.7115691,68.0136584 C34.7891715,68.2756098 34.8770232,68.5375607 34.9634107,68.7987804 C35.055655,69.0775607 35.153024,69.3556098 35.2533214,69.6336584 C35.33312,69.8546341 35.4136507,70.0756098 35.5000382,70.2958537 C35.6610997,70.704878 35.8331426,71.1109757 36.0139707,71.514878 C36.1120718,71.7292682 36.2123691,71.9429266 36.3155949,72.1558537 C36.4642107,72.4624393 36.6201475,72.7668295 36.7834053,73.0704879 C36.856615,73.205122 36.9210396,73.3419514 36.9971778,73.4758537 C41.4446704,81.4507318 42.4139676,89.1958537 41.313625,95.5807318 C47.7114256,97.0829266 56.7272068,98.8529266 63.6857941,98.8529266 C70.638525,98.8478046 79.6528423,97.0785364 86.051375,95.5785364 Z" id="mannequin_0" fill="#808285"></path>
            </g>
            <g id="tops" transform="translate(5.328841, 7.555256)" fill="#808285">
                <g id="length" transform="translate(39.957925, 111.721780)">
                    <path d="M74.8259548,18.9439748 C73.0816814,11.1994741 69.6203909,4.57528762 67.2132338,0.222963645 C62.9280309,1.38780488 48.6900841,5.22296364 38.2132338,5.22296364 C27.7304049,5.22296364 10.7132338,1.22296364 9.21323384,0.722963645 C8.71323384,0.722963645 3.47291713,11.1994741 1.72864374,18.9432384 C9.55919067,20.9570442 26.2149837,24.8491749 38.2799149,24.8491749 C50.3418568,24.8506476 66.9961552,20.9614621 74.8259548,18.9439748 Z" id="length_1"></path>
                    <path d="M74.2545789,17.8680166 C72.5345605,10.1242522 69.9965025,4.59825127 67.6263231,0.247399908 C63.3837092,1.416659 48.5699034,5.28670041 38.2527382,5.28670041 C27.9282098,5.28670041 13.0923148,1.40782329 8.86810861,0.242982052 C8.54560515,0.83423838 8.22089277,1.44537506 7.89691671,2.08080994 C7.88145421,2.11099862 7.86672803,2.14265992 7.85126553,2.17137598 C7.70915785,2.45485504 7.561896,2.74127934 7.419052,3.03433042 C7.37340083,3.13078693 7.32480442,3.23092499 7.27915324,3.32590888 C7.16797055,3.55563737 7.05531523,3.78610216 6.94634146,4.01803958 C6.88228256,4.15572941 6.81895996,4.28826507 6.75490106,4.42669121 C6.66065347,4.62623102 6.56640589,4.83534284 6.47289462,5.04298205 C6.39926369,5.20423378 6.32931431,5.3654855 6.25494708,5.52673723 C6.17542568,5.71081454 6.09222273,5.90151864 6.01196503,6.0892775 C5.93244363,6.27924528 5.84776806,6.46774045 5.76824666,6.65844455 C5.707133,6.80349747 5.64749195,6.95296825 5.58711459,7.10317533 C5.23442246,7.96907501 4.88688449,8.86884491 4.54965486,9.81868385 C4.51799356,9.90630465 4.48485964,9.99245283 4.45319834,10.0815462 C4.34569719,10.3893235 4.23893235,10.7029913 4.13290382,11.0173953 C4.09756098,11.1234238 4.06295444,11.2228256 4.02908422,11.3266452 C3.92158306,11.649885 3.81776346,11.9826967 3.71247124,12.3155085 C3.68375518,12.4090198 3.65430281,12.5032674 3.62705936,12.597515 C3.51955821,12.9502071 3.41279337,13.3073171 3.30676484,13.6703175 C3.28982973,13.7343764 3.26921307,13.7991717 3.25227796,13.8624942 C3.07703636,14.4839393 2.90400368,15.1208468 2.74054303,15.7724804 C2.70078233,15.9219512 2.66617579,16.0802577 2.63156926,16.2312011 C2.50345145,16.7458813 2.37754257,17.2635067 2.25752416,17.8002761 C2.2531063,17.8216291 2.24721583,17.845191 2.24206167,17.8680166 C2.24279798,17.8680166 2.24279798,17.8680166 2.24353428,17.8680166 C1.3687989,21.8072711 0.699493787,26.3127474 0.379935573,31.5353889 C0.379935573,31.5353889 22.0583525,34.9526001 38.2542108,35.1985274 C54.450069,35.4429821 76.1122872,31.5353889 76.1122872,31.5353889 C75.7919926,26.3149563 75.1307869,21.8065347 74.2545789,17.8680166 Z" id="length_2"></path>
                </g>
                <g id="top_core" transform="translate(44.914864, 41.772402)">
                    <path d="M55.6214319,54.9463415 C54.5132864,48.5220433 55.4881599,40.7304188 59.9627112,32.7068569 C66.0991125,21.7078693 63.0898166,7.26663599 63.0898166,7.26663599 L63.1038065,7.27915324 C63.1023338,7.27399908 63.0993886,7.26369075 63.0993886,7.26369075 L57.7640918,0.0485964105 C57.7640918,0.0485964105 40.9755046,16.0994017 33.126448,16.0994017 C25.2759187,16.0994017 8.82750641,0.0485964105 8.82750641,0.0485964105 L3.15571626,7.26369075 C3.15571626,7.26369075 1.19566103,16.6862402 3.67555059,26.1080534 C3.7720071,26.4754717 3.8750904,26.8421537 3.98627309,27.2080994 C4.06432187,27.4716981 4.15267898,27.7352968 4.23956347,27.9981592 C4.33233844,28.2786931 4.43026757,28.5584906 4.53114194,28.8382881 C4.61139964,29.0606535 4.69239366,29.2830189 4.77927815,29.504648 C4.94126619,29.9162448 5.11429886,30.3248965 5.29616725,30.7313392 C5.39483269,30.9470778 5.49570705,31.1620801 5.59952666,31.3763461 C5.74899744,31.6848596 5.90583131,31.9911643 6.07002827,32.2967326 C6.14365919,32.4322135 6.20845441,32.5699034 6.28503057,32.704648 C10.7581093,40.7296825 11.7329827,48.5235159 10.6263099,54.9485504 C17.0609164,56.4601933 26.1285649,58.2413254 33.1271843,58.2413254 C40.1199132,58.2361712 49.186089,56.4557754 55.6214319,54.9463415 Z" id="top_core_0"></path>
                    <path d="M6.89322201,34.8158569 C10.888436,42.4705279 11.743291,49.87559 10.6822694,56.0245086 C10.2706725,58.406469 9.5829597,60.6109789 8.6677273,62.5533627 C7.49184143,65.05166 5.69892841,67.7841036 3.79630531,71.2742095 C8.01609362,72.4375781 22.8556702,76.3208731 33.1824075,76.3208731 C43.5091447,76.3208731 58.3494576,72.439787 62.5685096,71.2742095 C60.6658865,67.7914667 58.8715009,65.05166 57.6963513,62.5533627 C56.7818552,60.606561 56.0911972,58.406469 55.6832818,56.0245086 C54.6244691,49.87559 55.4793242,42.4793636 59.4723292,34.8180659 C53.3631714,36.5962527 41.6602722,39.6431004 33.1853527,39.6431004 C24.7089606,39.6423641 13.0009072,36.5933075 6.89322201,34.8158569 Z" id="top_core_1"></path>
                    <path d="M62.2330386,53.4746696 C61.9330481,46.8449412 61.8236802,41.2464664 63.7104727,24.8044179 C60.4759713,26.4216685 42.0185838,32.3646835 33.4695988,32.4810203 C24.9198713,32.3646835 9.91878723,28.9746105 3.87219775,27.2302939 C5.7589902,43.9418842 5.21990665,48.2545526 4.70467394,53.4746696 C3.53448694,65.3305029 2.75547863,72.8948261 1.40403655,76.4239563 C5.57568578,77.5644994 22.9535973,76.1677207 33.3337121,76.3076195 L33.3337121,76.3120373 C33.3374248,76.3120373 33.340395,76.3120373 33.3433652,76.3120373 L33.3433652,76.323082 C33.3871757,76.323082 33.428016,76.3201367 33.472569,76.3186641 C33.5148944,76.3201367 33.5579623,76.323082 33.6002877,76.323082 L33.6002877,76.3120373 C33.6032579,76.3120373 33.6062281,76.3120373 33.6091983,76.3120373 L33.6091983,76.3076195 C43.9900556,76.1691933 61.3679671,77.5644994 65.5403589,76.4239563 C64.1822339,72.8948261 62.774358,65.3572283 62.2330386,53.4746696 Z" id="top_core_2"></path>
                    <path d="M65.5222668,50.7687332 C65.2343699,46.5084478 62.9694826,34.8305831 63.2367629,26.9093682 C57.2498324,28.649267 42.1687463,32.368365 33.6835185,32.4942739 C25.2004996,32.368365 10.1186773,28.649267 4.13174676,26.9093682 C4.3975544,34.8305831 2.13340346,46.5084478 1.84624285,50.7687332 C1.51784893,56.5406614 2.3594504,65.0811124 0.475971337,79.6931694 C4.61329301,80.8337124 62.7530077,80.8337124 66.891802,79.6931694 C65.0075866,65.082585 65.851397,56.5377161 65.5222668,50.7687332 Z" id="top_core_3"></path>
                </g>
                <g id="sleeves" transform="translate(0.000000, 38.090855)">
                    <path d="M100.536296,59.7060548 C99.4281507,53.2817566 100.403024,45.4901321 104.877575,37.4665702 C111.013977,26.4675827 108.004681,12.0263494 108.004681,12.0263494 L108.018671,12.0388666 C108.017198,12.0337124 108.014253,12.0234041 108.014253,12.0234041 L102.678956,4.80830978 C102.678956,4.80830978 85.8903688,20.8591151 78.0413122,20.8591151 C70.190783,20.8591151 53.7423707,4.80830978 53.7423707,4.80830978 L48.0705805,12.0234041 C48.0705805,12.0234041 46.1105253,21.4459536 48.5904148,30.8677667 C48.6868713,31.2351851 48.7899546,31.6018671 48.9011373,31.9678128 C48.9791861,32.2314115 49.0675432,32.4950102 49.1544277,32.7578726 C49.2472027,33.0384064 49.3451318,33.3182039 49.4460062,33.5980014 C49.5262639,33.8203668 49.6072579,34.0427322 49.6941424,34.2643613 C49.8561304,34.6759582 50.0291631,35.0846098 50.2110315,35.4910525 C50.3096969,35.7067911 50.4105713,35.9217934 50.5143909,36.1360594 C50.6638617,36.444573 50.8206955,36.7508777 50.9848925,37.056446 C51.0585234,37.1919269 51.1233187,37.3296167 51.1998948,37.4643613 C55.6729735,45.4893958 56.647847,53.2832292 55.5411742,59.7082638 C61.9757807,61.2199066 71.0434291,63.0010387 78.0420485,63.0010387 C85.0347775,62.9958846 94.1009533,61.2154888 100.536296,59.7060548 Z" id="sleeves_0"></path>
                    <path d="M48.6351719,28.9177043 L47.623483,31.8997568 C38.2436395,31.6037604 32.5563868,28.1556242 29.5956873,25.5895865 C31.0992308,18.4871475 32.6101374,11.743291 34.0812833,5.84766288 C40.6373808,9.64480968 48.787062,10.4266649 48.787062,10.4266649 C48.787062,10.4266649 46.287818,19.6372625 48.652107,28.9604102 C48.6513707,28.9663007 48.6388535,28.9390573 48.632963,28.9213858 L48.6351719,28.9177043 Z M137.272395,13.6687397 C131.607232,20.7638157 124.219841,22.8608244 119.461811,23.4255736 L108.199961,10.4186707 C108.198488,10.4164618 108.19407,10.4032082 108.19407,10.4032082 C108.19407,10.4032082 117.639445,10.9451318 127.881507,0.0941423969 C130.968115,4.43394912 134.24101,9.16473605 137.272395,13.6687397 Z" id="sleeves_1"></path>
                    <path d="M137.218487,13.6687397 C134.187101,9.16473605 130.914207,4.43394912 127.827598,0.0941423969 C117.585537,10.9451318 108.140162,10.4032082 108.140162,10.4032082 C108.140162,10.4032082 108.14458,10.4164618 108.146052,10.4186707 L119.407902,23.4255736 C119.407902,23.4255736 119.407902,23.4255736 119.409375,23.4255736 L127.022812,32.2200513 C130.799343,29.0038525 137.981303,24.5712708 146.339149,27.8404839 C144.151575,24.1626192 140.861008,19.0806127 137.218487,13.6687397 Z M48.6563671,28.957465 C46.2920781,19.6343173 49.0566038,10.1571231 48.787062,10.1571231 C48.5175202,10.1571231 40.6416409,9.64186444 34.0855434,5.84471764 C32.6143975,11.7403458 31.1042272,18.4842022 29.6006837,25.5859049 C28.5669055,30.4698442 27.5353363,35.5187167 26.5229111,40.5845244 C30.8973243,41.2251134 37.8756689,42.8424298 43.671159,46.3538886 L47.6277431,31.8960752 L48.6357504,28.916968 L48.6342778,28.9206495 C48.6409046,28.9390573 48.6556308,28.9633555 48.6563671,28.957465 Z" id="sleeves_2"></path>
                    <path d="M148.484754,31.7274604 C148.484754,31.7274604 151.253277,35.9928999 149.029623,39.0316481 C143.444718,32.6993886 135.149458,34.4068898 130.42088,36.1460522 L119.407902,23.4255736 L108.146052,10.4186707 C108.14458,10.4164618 108.140162,10.4032082 108.140162,10.4032082 C108.140162,10.4032082 117.585537,10.9451318 127.827598,0.0941423969 C130.914207,4.43394912 134.187101,9.16473605 137.218487,13.6687397 C140.862481,19.083558 144.151575,24.1626192 146.339149,27.8434291 C147.276471,29.4250214 148.01278,30.7489054 148.484754,31.7274604 Z M48.5123661,29.4965486 C48.5116297,29.502439 48.4969036,29.4781408 48.4902768,29.4597331 L48.4917494,29.4560515 L47.483742,32.4351588 L43.671159,46.3538886 L37.171159,66.8538886 C31.6503123,63.5787851 25.7199132,62.1290382 22.2938663,61.9177174 C23.5927158,55.2533824 24.9688778,48.1811321 26.37891,41.1236079 C27.3913352,36.0578003 28.4229045,31.0089277 29.4566827,26.1249885 C30.9602262,19.0232858 32.4703964,12.2794294 33.9415423,6.3838012 C40.4976399,10.180948 48.787062,10.1571231 48.787062,10.1571231 C48.787062,10.1571231 46.9002695,20.6692525 48.5123661,29.4965486 Z" id="sleeves_3"></path>
                    <path d="M48.5123661,29.4965486 C48.5116297,29.502439 48.4969036,29.4781408 48.4902768,29.45237 L47.4822694,32.4314772 L43.171159,46.8538886 L36.671159,66.8538886 L27.5643679,91.230925 C23.9542436,88.9093419 20.1504701,88.2164749 16.9909671,88.1730327 C18.4790481,81.4394846 20.2962593,72.164197 22.2938663,61.9177174 C23.5927158,55.2519098 24.9688778,48.1811321 26.37891,41.1236079 C27.3913352,36.0578003 28.4229045,31.0089277 29.4566827,26.1249885 C30.9602262,19.0232858 32.4703964,12.2794294 33.9415423,6.3838012 C40.4976399,10.180948 48.3364407,10.4039445 48.787062,10.4266649 C49.2376833,10.4493853 46.9002695,19.8606272 48.5123661,29.4965486 Z M148.354428,31.7274604 C148.354428,31.7274604 151.12295,35.9928999 148.899297,39.0301755 C148.742463,39.2459141 148.564276,39.4579712 148.354428,39.657511 L123.377345,63.5720991 C122.150654,59.947985 119.537493,58.2912892 117.159214,57.5468805 L130.582131,36.4847545 L130.290553,36.1460522 L119.279048,23.4255736 C119.277575,23.4255736 119.277575,23.4255736 119.277575,23.4255736 L108.015725,10.4186707 C108.014253,10.4164618 108.009835,10.4032082 108.009835,10.4032082 C108.009835,10.4032082 117.45521,10.9451318 127.697272,0.0941423969 C130.78388,4.43394912 134.056775,9.16473605 137.08816,13.6687397 C140.732154,19.083558 144.021248,24.1626192 146.208823,27.8434291 C147.146144,29.4250214 147.882453,30.7489054 148.354428,31.7274604 Z" id="sleeves_4"></path>
                    <path d="M149.053922,38.995569 C149.064966,39.0088226 149.07822,39.0220761 149.092946,39.0338571 C148.953783,39.4174742 135.499205,66.7419105 138.199987,83.0482151 C138.199987,83.0482151 114.013701,83.9987903 111.98885,63.8732496 L129.130866,38.9690619 L130.712458,36.4847545 L130.42088,36.1460522 L119.409375,23.4255736 C119.407902,23.4255736 119.407902,23.4255736 119.407902,23.4255736 L108.146052,10.4186707 C108.14458,10.4164618 108.140162,10.4032082 108.140162,10.4032082 C108.140162,10.4032082 117.585537,10.9451318 127.827598,0.0941423969 C130.914207,4.43394912 134.187101,9.16473605 137.218487,13.6687397 C140.862481,19.083558 144.151575,24.1626192 146.339149,27.8434291 C147.276471,29.4250214 148.01278,30.7489054 148.484754,31.7274604 C148.484754,31.7274604 151.22677,35.957557 149.053922,38.995569 Z M48.787062,10.1571231 C48.787062,10.1571231 46.9002695,19.8606272 48.5079482,29.4980212 C48.5072119,29.5039116 48.4946946,29.4774045 48.4888042,29.4553152 L47.4807968,32.4344225 L44.171159,43.8538886 C39.5220542,63.5329498 36.129608,81.9075318 33.9938203,98.9776346 C33.9938203,98.9776346 10.1616988,105.420341 0.0374465847,90.3709158 C0.0374465847,90.3709158 23.1148511,52.0025771 26.4127802,40.9461574 C27.4134245,35.9414634 28.4317402,30.9514956 29.4537374,26.1249885 C30.9572809,19.0232858 32.4681875,12.2794294 33.9393334,6.3838012 C40.4954309,10.180948 48.787062,10.1571231 48.787062,10.1571231 Z" id="sleeves_5"></path>
                </g>
                <g id="shoulder" transform="translate(33.870225, 14.528959)">
                    <path d="M66.6660706,83.2679508 C65.5579252,76.8436526 66.5327986,69.0520281 71.0073499,61.0284662 C77.1437512,50.0294787 74.1344553,35.5882453 74.1344553,35.5882453 L74.1484452,35.6007626 C74.1469726,35.5956084 74.1440273,35.5853001 74.1440273,35.5853001 L68.8087305,28.3702058 C68.8087305,28.3702058 52.0201433,44.4210111 44.1710867,44.4210111 C36.3205575,44.4210111 19.8721452,28.3702058 19.8721452,28.3702058 L14.200355,35.5853001 C14.200355,35.5853001 12.2402998,45.0078496 14.7201893,54.4296627 C14.8166458,54.7970811 14.9197291,55.1637631 15.0309118,55.5297088 C15.1089606,55.7933075 15.1973177,56.0569062 15.2842022,56.3197686 C15.3769772,56.6003024 15.4749063,56.8800999 15.5757807,57.1598974 C15.6560384,57.3822628 15.7370324,57.6046282 15.8239169,57.8262573 C15.9859049,58.2378542 16.1589376,58.6465058 16.340806,59.0529485 C16.4394714,59.2686871 16.5403458,59.4836894 16.6441654,59.6979554 C16.7936362,60.006469 16.9504701,60.3127737 17.114667,60.618342 C17.1882979,60.7538229 17.2530932,60.8915127 17.3296693,61.0262573 C21.802748,69.0512918 22.7776215,76.8451252 21.6709487,83.2701598 C28.1055552,84.7818026 37.1732036,86.5629347 44.171823,86.5629347 C51.164552,86.5577806 60.2307278,84.7773848 66.6660706,83.2679508 Z" id="shoulder_0"></path>
                    <path d="M64.9056604,31.8160279 L56.9829728,0.720951943 L59.973861,2.47115903 C59.973861,2.47115903 63.183433,12.2537637 64.2105844,15.7166261 C65.3489185,19.5586878 69.3397147,27.828177 69.3397147,27.828177 L64.9056604,31.8160279 Z M24.3054632,31.8881862 L19.866991,27.8289133 C19.866991,27.8289133 23.5117218,19.5594241 24.6493196,15.7173624 C25.676471,12.2545 28.9677733,2.17000855 28.9677733,2.17000855 L31.8769312,0.721688252 L24.3054632,31.8881862 Z" id="shoulder_1"></path>
                    <path d="M24.4970087,31.8160279 C17.6996253,34.2158657 14.3009335,35.249118 14.3009335,34.9157846 C14.3009335,34.4157846 15.6355269,13.6593781 15.5052002,16.7820656 C15.3711919,19.9018079 15.9462494,5.51211623 15.9462494,5.51211623 C15.9462494,5.51211623 23.1341003,4.01961738 24.0839393,3.86720137 C28.5135757,3.1537177 32.4160147,0.721688252 32.4160147,0.721688252 L24.4970087,31.8160279 Z M64.3665768,32.3551114 L56.4262705,0.565380317 C56.4262705,0.565380317 60.3795346,2.86873315 64.7820656,4.06942344 C67.7470252,4.87804878 72.8849385,6.21466044 72.8849385,6.21466044 C72.8849385,6.21466044 73.4916574,20.4401552 73.3591217,17.3204129 C73.2273223,14.1977253 74.4855697,34.7971862 74.4855697,34.7971862 L64.3665768,32.3551114 Z" id="shoulder_2"></path>
                    <g id="shoulder_3">
                        <path d="M83.252297,9.41470396 C85.6426512,12.2435721 89.9740079,17.9965892 94.3793833,24.1943856 C85.3529682,35.9760699 74.6919466,34.5034514 74.6919466,34.5034514 C74.6919466,34.5034514 74.6742752,34.4865163 74.649977,34.4563277 C74.6499283,34.4556659 74.6498795,34.4550041 74.6498307,34.4543422 C73.8519339,33.5357244 59.9311672,20.9110619 56.9991717,0.181868385 C57.1920847,0.326921307 57.3894156,0.469765301 57.5963185,0.60819144 C65.214174,5.68651634 77.6651634,4.04749195 82.1058445,8.17376898 C82.4018408,8.44988495 82.7957662,8.87179015 83.2589047,9.4085596 C83.2567016,9.41060748 83.254499,9.41265561 83.252297,9.41470396 Z M7.2313339,9.34358412 C7.64685322,8.75731034 8.13527142,7.7253194 10.1388732,6.60616659 C14.2452699,4.31256328 23.0353297,4.65789231 31.4660706,0.49038196 C31.6906449,0.382144501 31.8703044,0.209111827 32.0632174,0.0640589047 C29.1268161,20.8161988 15.1811189,33.4453751 14.4094668,34.3414634 C14.4119455,34.3078021 14.4144582,34.2738307 14.4170017,34.2395525 L14.2298074,34.4784169 C14.2202354,34.4865163 14.2143449,34.495352 14.2062455,34.5034514 C14.2062455,34.5034514 6.21360857,34.9916245 0.082361449,29.9442246 C2.40026297,20.6578923 4.61949905,13.4656236 6.56114654,10.2884491 C6.76584051,9.95121951 6.99483269,9.63902439 7.23045165,9.34302807 L7.2313339,9.34358412 Z" id="shoulder_3_1"></path>
                        <path d="M64.9056604,31.8160279 L56.9829728,0.720951943 L59.973861,2.47115903 C59.973861,2.47115903 63.183433,12.2537637 64.2105844,15.7166261 C65.3489185,19.5586878 69.3397147,27.828177 69.3397147,27.828177 L64.9056604,31.8160279 Z M24.3054632,31.8881862 L19.866991,27.8289133 C19.866991,27.8289133 23.5117218,19.5594241 24.6493196,15.7173624 C25.676471,12.2545 28.9677733,2.17000855 28.9677733,2.17000855 L31.8769312,0.721688252 L24.3054632,31.8881862 Z" id="shoulder_1"></path>
                    </g>
                    <path d="M82.9606666,9.48672671 C74.1720794,17.6560778 73.9865295,29.5747157 74.3539478,34.5352311 C73.5815594,33.6391427 59.6358622,21.0099665 56.7009335,0.260035501 C56.8938466,0.405088423 57.0911774,0.547932417 57.2980803,0.686358556 C64.9159358,5.76468345 77.3669253,4.12565906 81.8076063,8.2519361 C82.1036027,8.52805207 82.4975281,8.94995727 82.9606666,9.48672671 Z M6.80093353,10.4729406 C7.26407205,9.93617119 7.62044573,8.80078233 9.84557228,7.55789231 C13.951969,5.264289 22.7420288,5.60961804 31.1727697,1.44210769 C31.397344,1.33387023 31.5770035,1.16083755 31.7699165,1.01578463 C28.8335152,21.7679245 14.887818,34.3971008 14.1161659,35.2931891 C14.4813753,30.33341 15.5873118,18.6430281 6.80093353,10.4729406 Z" id="shoulder_3_for_sleeves_0"></path>
                </g>
                <g id="neckline" transform="translate(47.321018, 0.000000)">
                    <path d="M53.2152784,97.7969101 C52.107133,91.3726119 53.0820064,83.5809874 57.5565578,75.5574255 C63.692959,64.558438 60.6836631,50.1172047 60.6836631,50.1172047 L60.697653,50.1297219 C60.6961804,50.1245677 60.6932352,50.1142594 60.6932352,50.1142594 L55.3579383,42.8991651 C55.3579383,42.8991651 38.5693511,58.9499704 30.7202945,58.9499704 C22.8697653,58.9499704 6.42135297,42.8991651 6.42135297,42.8991651 L0.749562816,50.1142594 C0.749562816,50.1142594 -1.21049241,59.5368089 1.26939715,68.958622 C1.36585366,69.3260404 1.46893695,69.6927224 1.58011965,70.0586681 C1.65816843,70.3222668 1.74652554,70.5858655 1.83341003,70.8487279 C1.926185,71.1292617 2.02411413,71.4090592 2.1249885,71.6888567 C2.2052462,71.9112221 2.28624022,72.1335875 2.37312471,72.3552166 C2.53511275,72.7668135 2.70814542,73.1754651 2.89001381,73.5819078 C2.98867925,73.7976464 3.08955361,74.0126487 3.19337322,74.2269147 C3.34284399,74.5354283 3.49967786,74.841733 3.66387483,75.1473013 C3.73750575,75.2827822 3.80230097,75.420472 3.87887713,75.5552166 C8.35195582,83.5802511 9.32682927,91.3740845 8.22015647,97.7991191 C14.654763,99.3107619 23.7224114,101.091894 30.7210308,101.091894 C37.7137598,101.08674 46.7799356,99.3063441 53.2152784,97.7969101 Z" id="neckline_0"></path>
                    <path d="M48.5713745,28.7317857 C47.2705891,30.8717875 39.3662197,43.289193 30.9793009,43.289193 C22.592382,43.289193 14.6872633,30.8650438 13.3894751,28.7295378 C10.3210902,35.7399919 6.35014135,41.9447439 6.35014135,41.9447439 C6.35014135,41.9447439 22.9917591,58.4625251 30.9793009,58.4625251 C38.9683412,58.4625251 56.0501413,42.1285267 56.0501413,42.1285267 C56.0501413,42.1285267 54.3501413,40.4447439 48.5713745,28.7317857 Z" id="neckline_1"></path>
                    <path d="M48.8501413,29.4447439 C45.3501413,21.9447439 44.3501413,15.4447439 44.3501413,15.4447439 C44.2124515,15.3423969 43.0991782,15.4691736 42.9754783,15.3638814 C41.6007889,16.834291 36.2448228,21.8407205 30.7195582,21.8407205 C25.183249,21.8407205 20.2934192,16.8463349 18.9562816,15.353836 C18.8340543,15.458392 17.9797318,15.3438696 17.8501413,15.4447439 C17.1594833,17.7832621 16.0855302,22.6912695 13.3501413,28.9447439 C10.6147525,35.1982184 6.85014135,41.4447439 6.35014135,41.9447439 C6.31779633,42.3180593 16.7458287,58.7601078 31.11564,58.7601078 C45.4869239,58.7601078 55.5361252,41.7789757 55.5361252,41.509434 C55.5361252,41.2398922 52.3501413,36.9447439 48.8501413,29.4447439 Z" id="neckline_2"></path>
                    <path d="M18.6490644,15.4013773 C19.8495846,14.1854315 20.8625318,12.7089327 21.3749969,11.4447439 C23.4417287,12.8379355 26.962622,14.7285257 30.8757823,14.7285257 L30.9502734,14.7285257 C34.8214333,14.7285257 38.3114207,12.8775373 40.3884545,11.4867219 C40.9005275,12.7434754 41.9350893,14.1922772 43.152167,15.4028587 C43.5046878,15.4276964 44.2399313,15.3628231 44.3501413,15.4447439 C44.3501413,15.4447439 45.3501413,21.9447439 48.8501413,29.4447439 C52.3501413,36.9447439 55.5361252,41.2398922 55.5361252,41.509434 C55.5361252,41.7789757 45.4869239,58.7601078 31.11564,58.7601078 C16.7458287,58.7601078 6.31779633,42.3180593 6.35014135,41.9447439 C6.85014135,41.4447439 10.6147525,35.1982184 13.3501413,28.9447439 C16.0855302,22.6912695 17.1594833,17.7832621 17.8501413,15.4447439 C17.9370259,15.3771122 18.3496844,15.4063034 18.6490644,15.4013773 Z" id="neckline_3"></path>
                    <path d="M55.0287228,40.9052708 C55.385115,41.3066102 55.5361252,41.4309024 55.5361252,41.509434 C55.5361252,41.5137741 55.5335197,41.522447 55.5283327,41.535312 C55.8078341,41.8511154 55.9254565,41.9069561 55.9254565,41.9069561 C55.9254565,41.9069561 45.735194,59.3803734 31.470434,59.3803734 C26.3062471,59.3803734 21.7196751,57.0898125 17.9694186,54.1673373 C10.8284503,49.188555 6.35014135,41.9447439 6.35014135,41.9447439 C9.2481143,37.9692744 11.6088971,33.8970482 13.4324896,29.7280652 C15.3308776,25.3880898 16.6301966,21.078047 17.478474,18.0650429 C17.8386976,16.271746 18.0908079,14.8267869 18.3501413,13.9447439 C20.8501413,11.9447439 21.8148096,10.6464277 22.3501413,7.94474394 C23.0729682,4.29681925 22.3501413,0.444743935 22.3501413,0.444743935 C22.3501413,0.444743935 26.940393,2.85645125 31.2378057,2.85645125 C35.5352184,2.85645125 39.1461062,0.444743935 39.5501413,0.444743935 C39.7964361,0.444743935 38.8501413,4.44474394 39.3501413,7.44474394 C40.3271077,10.8641263 41.3040741,12.374582 44.1459978,14.3073076 C44.2566319,14.3113493 44.3315206,14.3516402 44.3501413,14.4447439 C44.8501413,16.9447439 47.0229639,25.2752689 48.6264426,28.7804195 C52.065847,36.3004293 54.0238308,39.5297853 55.0287228,40.9052708 Z" id="neckline_4"></path>
                </g>
            </g>
            <g id="tops_HL" transform="translate(5.328841, 7.555256)">
                <g id="length_HL" transform="translate(38.592992, 74.444744)">
                    <g id="length_0_HL" transform="translate(1.078167, 0.000000)">
                        <path d="M74.2520804,53.514878 C72.5419006,45.8195122 70.0183601,40.3280488 67.661738,36.0043902 C63.4433917,37.1663415 48.7143212,41.0121951 38.4561702,41.0121951 C28.1906982,41.0121951 13.4396644,37.157561 9.2396207,36 C8.91896197,36.587561 8.59610693,37.194878 8.27398401,37.8263415 C8.25860997,37.8563415 8.24396801,37.8878049 8.22859397,37.9163415 C8.08729912,38.1980488 7.94087962,38.4826829 7.7988527,38.7739024 C7.75346261,38.8697561 7.7051442,38.9692683 7.65975416,39.0636585 C7.54920743,39.2919512 7.43719651,39.5209756 7.32884604,39.7514634 C7.26515354,39.8882927 7.20219315,40.02 7.1385007,40.157561 C7.0447922,40.3558537 6.95108369,40.5636585 6.85810731,40.77 C6.78489754,40.9302439 6.71534827,41.0904878 6.64140642,41.2507317 C6.56233988,41.4336585 6.47961289,41.6231707 6.39981423,41.8097561 C6.32074769,41.9985366 6.23655651,42.1858536 6.15748997,42.3753658 C6.09672585,42.5195122 6.03742597,42.6680488 5.97739397,42.817317 C5.62671922,43.6778049 5.28116917,44.5719512 4.94586849,45.5158536 C4.91438829,45.6029268 4.8814439,45.6885366 4.84996371,45.7770732 C4.74307746,46.0829268 4.63692332,46.3946342 4.53150127,46.7070732 C4.49636059,46.812439 4.461952,46.9112195 4.42827551,47.0143902 C4.32138927,47.3356098 4.21816351,47.6663414 4.11347356,47.9970732 C4.08492175,48.09 4.05563785,48.1836585 4.02855024,48.277317 C3.921664,48.6278049 3.81550985,48.9826829 3.7100878,49.3434146 C3.69324956,49.4070732 3.67275083,49.4714634 3.65591259,49.5343902 C3.48167337,50.1519512 3.30963044,50.784878 3.14710478,51.432439 C3.10757151,51.5809756 3.07316293,51.7382927 3.03875434,51.8882927 C2.91136937,52.3997561 2.78618068,52.9141464 2.66684878,53.447561 C2.6624562,53.4687805 2.65659942,53.4921951 2.65147473,53.514878 C2.65220683,53.514878 2.65220683,53.514878 2.65293893,53.514878 C1.78320702,57.4295122 1.11773034,61.9068292 0.8,67.0968292 C0.8,67.0968292 22.3544164,70.4926829 38.4576344,70.7370732 C54.5608523,70.98 76.0991627,67.0968292 76.0991627,67.0968292 C75.7806999,61.9090244 75.1232766,57.4287805 74.2520804,53.514878 Z" id="length_0_1_HL" fill="#582ADF" opacity="0.300000012"></path>
                        <path d="M12.1089201,0 C16.1196192,7.6802437 16.9777876,15.1100446 15.9126535,21.2795052 C15.4994613,23.6694235 14.8090829,25.8812983 13.8903032,27.8301712 C12.7098597,30.3368146 10.9099975,33.0783868 9,36.5801527 C13.2361439,37.7474075 28.1332374,41.6436762 38.5000001,41.6436762 C48.8667628,41.6436762 63.7645956,37.749624 68,36.5801527 C66.090003,33.0857747 64.2886621,30.3368146 63.108958,27.8301712 C62.190917,25.8768658 61.4975824,23.6694235 61.088086,21.2795052 C60.0251692,15.1100446 60.8833375,7.6891089 64.8918194,0.00221632844 C58.7589829,1.78634374 47.0107243,4.84337029 38.5029568,4.84337029 C29.9937109,4.84263155 18.2402781,1.78338867 12.1089201,0 Z" id="top_core_1_HL_" fill="#808285"></path>
                    </g>
                    <g id="length_1_HL" transform="translate(0.460916, 2.695418)">
                        <path d="M76.5637453,53.514878 C74.781258,45.8195122 72.1510205,40.3280488 69.6947589,36.0043902 C65.2980582,37.1663415 49.9462329,41.0121951 39.2543606,41.0121951 C28.5548577,41.0121951 13.1801406,37.157561 8.80251635,36 C8.46829996,36.587561 8.13179439,37.194878 7.7960519,37.8263415 C7.78002784,37.8563415 7.76476681,37.8878049 7.74874275,37.9163415 C7.60147386,38.1980488 7.44886365,38.4826829 7.30083174,38.7739024 C7.25352253,38.8697561 7.20316117,38.9692683 7.15585202,39.0636585 C7.0406313,39.2919512 6.92388449,39.5209756 6.81095289,39.7514634 C6.74456742,39.8882927 6.67894503,40.02 6.61255962,40.157561 C6.51488906,40.3558537 6.4172185,40.5636585 6.32031101,40.77 C6.24400588,40.9302439 6.17151603,41.0904878 6.09444787,41.2507317 C6.01203835,41.4336585 5.92581361,41.6231707 5.84264101,41.8097561 C5.76023148,41.9985366 5.67248064,42.1858536 5.59007112,42.3753658 C5.52673785,42.5195122 5.46493073,42.6680488 5.40236054,42.817317 C5.03685903,43.6778049 4.6766989,44.5719512 4.32722149,45.5158536 C4.29441029,45.6029268 4.26007298,45.6885366 4.22726179,45.7770732 C4.11585632,46.0829268 4.00521391,46.3946342 3.89533455,46.7070732 C3.8587081,46.812439 3.82284469,46.9112195 3.78774434,47.0143902 C3.67633888,47.3356098 3.56874867,47.6663414 3.45963236,47.9970732 C3.42987336,48.09 3.39935132,48.1836585 3.37111843,48.277317 C3.25971296,48.6278049 3.14907055,48.9826829 3.03919119,49.3434146 C3.02164101,49.4070732 3.00027558,49.4714634 2.98272541,49.5343902 C2.80111924,50.1519512 2.62180222,50.784878 2.45240488,51.432439 C2.41120011,51.5809756 2.37533671,51.7382927 2.33947331,51.8882927 C2.20670241,52.3997561 2.07622067,52.9141464 1.95184334,53.447561 C1.94726503,53.4687805 1.94116062,53.4921951 1.93581926,53.514878 C1.03084063,57.4295122 0.630355565,61.87469 0.299191375,67.06469 C0.299191375,67.06469 22.4718142,70.4926829 39.2558867,70.7370732 C56.0399592,70.98 78.4889235,67.0968292 78.4889235,67.0968292 C78.1569958,61.9090244 77.4717763,57.4287805 76.5637453,53.514878 Z" id="length_1_1_HL" fill="#582ADF" opacity="0.300000012"></path>
                        <path d="M76.309973,54.1266846 C74.9622642,46.309973 73.0550184,40.3251219 70.5463945,36 C66.0805613,37.157561 50.3862811,41.0129268 39.4678097,41.0129268 C28.5431077,41.0129268 12.8464909,37.1560976 8.38221544,36 C5.42048518,40.1105121 3.8032345,46.0404313 2.18598383,53.5876011 C10.3466046,55.5888206 26.8943165,59.3809756 39.4678097,59.3809756 C52.0381876,59.382439 68.1501315,56.1315627 76.309973,54.1266846 Z" id="length_1_2_HL" fill="#582ADF"></path>
                        <path d="M11.2790171,0 C15.5457546,7.6802437 16.4587075,15.1100446 15.3255765,21.2795052 C14.8860066,23.6694235 14.1515552,25.8812983 13.1741216,27.8301712 C11.9183201,30.3368146 10.0035567,33.0783868 7.97162718,36.5801527 C12.4782016,37.7474075 28.3263083,41.6436762 39.3548732,41.6436762 C50.383438,41.6436762 66.2323311,37.749624 70.7381189,36.5801527 C68.7061898,33.0857747 66.7898535,30.3368146 65.5348384,27.8301712 C64.5581907,25.8768658 63.8205944,23.6694235 63.3849563,21.2795052 C62.2541841,15.1100446 63.1671369,7.6891089 67.4315157,0.00221632844 C60.9071659,1.78634374 48.4089121,4.84337029 39.3580186,4.84337029 C30.3055523,4.84263155 17.801794,1.78338867 11.2790171,0 Z" id="top_core_1_HL_" fill="#808285"></path>
                    </g>
                    <path d="M72.7277628,40.3800539 C72.5558191,39.2071426 72.458221,38.4932615 72.458221,37.9541779 C68.2156071,39.123437 49.9348366,42.5637368 39.6176714,42.5637368 C29.2931431,42.5637368 12.261942,38.3103938 8.03773585,37.1455526 C7.7152324,37.7368089 7.82262836,38.9359937 7.49865229,39.5714286 C7.49111143,39.5861512 5.08464204,45.2453503 3.72506739,51.7008086 C2.29684195,58.4822309 1.90858258,66.1367996 1.74486884,68.8124252 C1.74486884,68.8124252 23.4232858,72.2296364 39.619144,72.4755637 C55.8150023,72.7200184 77.4772204,68.8124252 77.4772204,68.8124252 C77.2943913,65.8325208 76.8263665,58.1247921 75.6927224,51.7008086 C74.884097,47.1185984 72.939966,41.8275943 72.7277628,40.3800539 Z" id="length_2_HL" fill="#582ADF"></path>
                </g>
                <g id="top_core_HL" transform="translate(44.592992, 67.983827)" fill="#582ADF">
                    <path d="M7.2141819,6.46091644 C11.2598349,14.0677457 12.1254823,21.4265262 11.0510655,27.5370138 C10.6342723,29.9040872 9.9378771,32.094819 9.01109003,34.0250629 C7.82035884,36.5077456 6.00481054,39.2231115 4.07816712,42.6914045 C8.35122962,43.8475017 23.3781536,47.7065265 33.8352643,47.7065265 C44.2923749,47.7065265 59.3200446,43.849697 63.5923612,42.6914045 C61.6657182,39.2304288 59.8486784,36.5077456 58.658693,34.0250629 C57.7326511,32.0904288 57.033274,29.9040872 56.6202088,27.5370138 C55.5480285,21.4265262 56.4136759,14.0765262 60.4570923,6.46311158 C54.2708072,8.23018476 42.4201607,11.2579896 33.8382467,11.2579896 C25.2548415,11.2572579 13.3989757,8.22725794 7.2141819,6.46091644 Z" id="top_core_0_HL" opacity="0.300000012"></path>
                    <path d="M6.73322232,8.07816712 C10.8538588,15.7584108 11.7355505,23.1882117 10.64122,29.3576723 C10.2167018,31.7475906 9.50739943,33.9594654 8.56343497,35.9083384 C7.35063435,38.4149817 5.50143606,41.1565539 3.53908356,44.6583198 C7.89134448,45.8255746 23.1967826,49.7218433 33.847709,49.7218433 C44.4986354,49.7218433 59.804833,45.8277911 64.1563342,44.6583198 C62.1939822,41.1639418 60.3432647,38.4149817 59.1312237,35.9083384 C58.1880183,33.9550329 57.4756787,31.7475906 57.0549575,29.3576723 C55.9629051,23.1882117 56.8445967,15.767276 60.9629552,8.08038344 C54.6620113,9.86451085 42.5917209,12.9215374 33.8507467,12.9215374 C25.1082537,12.9207987 13.0326472,9.86155578 6.73322232,8.07816712 Z" id="top_core_1_HL"></path>
                    <path d="M62.5343529,27.1584282 C62.2335424,20.4262918 61.8760108,16.3827493 63.7628032,0.479784367 C57.6981972,2.25104505 42.2646447,5.72236071 33.6922923,5.84049462 C25.1191954,5.72236071 9.98764527,2.25104505 3.9245283,0.479784367 C6.35040431,15.574124 5.15029773,20.4262918 4.84874275,27.1584282 C4.30594375,39.2252817 2.89421961,46.8785634 1.53908356,50.4622075 C5.7221354,51.6203681 23.1475469,50.2020139 33.5560341,50.3440736 L33.5560341,50.3485596 C33.559757,50.3485596 33.5627353,50.3485596 33.5657137,50.3485596 L33.5657137,50.359775 C33.6096439,50.359775 33.6505958,50.3567845 33.6952707,50.3552889 C33.7377117,50.3567845 33.7808973,50.359775 33.8233384,50.359775 L33.8233384,50.3485596 C33.8263168,50.3485596 33.8292951,50.3485596 33.8322734,50.3485596 L33.8322734,50.3440736 C44.2415052,50.2035095 61.6669166,51.6203681 65.8507132,50.4622075 C64.4888761,46.8785634 63.0771517,39.2245345 62.5343529,27.1584282 Z" id="top_core_2_HL"></path>
                    <path d="M65.2021978,24.1898255 C64.9136108,19.8705337 62.643295,8.03092653 62.9112159,0 C58.9726108,1.82749326 42.3952538,9.10512129 33.3044451,9.10512129 C24.2136364,9.10512129 7.36890258,1.01886792 3.66453755,0 C3.93098228,8.03092653 1.66140464,19.8705337 1.37355577,24.1898255 C1.04437475,30.0416971 1.88799337,38.700436 0,53.5148752 C4.14723797,54.6712155 62.4263012,54.6712155 66.5750156,53.5148752 C64.6862839,38.7019291 65.5321166,30.0387107 65.2021978,24.1898255 Z" id="top_core_3_HL"></path>
                </g>
                <g id="sleeves_HL" transform="translate(0.132075, 36.444744)" fill="#582ADF">
                    <path d="M48.1750851,29.9240526 C48.1743525,29.9299362 48.1597027,29.905666 48.1523777,29.8836022 L48.1531102,29.8799249 L47.1503258,32.8555947 L42.3129348,47.1955873 C42.3136673,47.1955873 42.3136673,47.1955873 42.3136673,47.1955873 L35.6831307,66.8470696 L27.3356279,91.5871971 C23.7442094,89.2682925 19.9601448,88.5762252 16.8170127,88.5328332 C18.2973832,81.8070545 20.1051787,72.5424688 22.0924352,62.3078125 C23.3845548,55.6496962 24.7535862,48.5870769 26.157045,41.5376961 C26.1563124,41.5376961 26.1563124,41.5376961 26.1563124,41.5376961 C27.1634918,36.4777336 28.1897161,31.4346867 29.2181378,26.5563828 C30.7138907,19.4628743 32.2162361,12.7267993 33.6797593,6.83797372 C40.2018868,10.6307392 47.7319261,11.39194 47.7319261,11.39194 C47.7319261,11.39194 45.8230465,20.6116623 48.1750851,29.9240526 Z M147.49982,32.6908518 C147.49982,32.6908518 150.253998,36.9513696 148.041866,39.9851407 C147.885844,40.2006304 147.708581,40.4124428 147.49982,40.6117523 L122.652155,64.4987468 C121.43182,60.8788142 118.832199,59.2240298 116.466242,58.4804801 L129.81961,37.4426567 L129.529542,37.1043452 L118.575093,24.3985441 C118.573628,24.3985441 118.573628,24.3985441 118.573628,24.3985441 L107.370131,11.4066491 C107.368666,11.4044428 107.364271,11.3912045 107.364271,11.3912045 C107.364271,11.3912045 116.760705,11.9325028 126.949698,1.09403377 C130.020313,5.42883302 133.27625,10.1541614 136.291927,14.6529681 C139.917041,20.0615385 143.189092,25.1347392 145.365332,28.8113021 C146.297797,30.3910694 147.030291,31.7134259 147.49982,32.6908518 Z" id="sleeves_0_HL" opacity="0.3"></path>
                    <g id="sleeves_1_HL" transform="translate(16.539084, 0.460916)">
                        <path d="M31.6360015,29.4631361 C31.635269,29.4690198 31.6206191,29.4447496 31.6132942,29.4226858 L31.6140267,29.4190085 L30.6112422,32.3946783 L25.7738512,46.7346708 C25.7745837,46.7346708 25.7745837,46.7346708 25.7745837,46.7346708 L19.1440471,66.3861532 L10.7965444,91.1262806 C7.2051258,88.8073761 3.42106129,88.1153087 0.277929113,88.0719168 C1.75829969,81.346138 3.56609512,72.0815524 5.55335161,61.846896 C6.84547123,55.1887798 8.21450265,48.1261605 9.61796139,41.0767796 C9.61722887,41.0767796 9.61722887,41.0767796 9.61722887,41.0767796 C10.6244083,36.0168171 11.6506325,30.9737703 12.6790542,26.0954663 C14.1748072,19.0019578 15.6771525,12.2658828 17.1406758,6.37705728 C23.6628032,10.1698228 31.1928426,10.9310235 31.1928426,10.9310235 C31.1928426,10.9310235 29.283963,20.1507458 31.6360015,29.4631361 Z M130.960736,32.2299353 C130.960736,32.2299353 133.714914,36.4904532 131.502782,39.5242243 C131.346761,39.7397139 131.169497,39.9515263 130.960736,40.1508359 L106.113071,64.0378303 C104.892736,60.4178977 102.293115,58.7631133 99.9271587,58.0195636 L113.280527,36.9817402 L112.990458,36.6434288 L102.036009,23.9376276 C102.034544,23.9376276 102.034544,23.9376276 102.034544,23.9376276 L90.8310474,10.9457327 C90.8295822,10.9435263 90.8251873,10.9302881 90.8251873,10.9302881 C90.8251873,10.9302881 100.221621,11.4715864 110.410614,0.633117331 C113.481229,4.96791658 116.737166,9.69324493 119.752844,14.1920517 C123.377957,19.600622 126.650008,24.6738228 128.826249,28.3503856 C129.758713,29.930153 130.491208,31.2525094 130.960736,32.2299353 Z" id="sleeves_0_HL_" opacity="0.3"></path>
                        <path d="M31.7799814,29.2424417 L30.7716145,32.2023904 C21.4225704,31.908588 15.7539923,28.4860104 12.8030146,25.9389928 C14.301621,18.8891991 15.8075664,12.19533 17.2738817,6.3434019 C23.8084517,10.1124032 32.115903,11.0727763 32.115903,11.0727763 C32.115903,11.0727763 30.2291105,20.2371968 31.7968609,29.2848311 C31.7961271,29.2906779 31.7836509,29.2636364 31.7799814,29.2424417 Z M120.623828,14.1065068 C114.977267,21.148992 106.939172,23.7197604 102.196765,24.2803235 C98.9622642,20.5067385 95.1886792,16.0143756 90.8760108,10.8032345 C90.8745434,10.801042 100.613671,11.0616639 110.822102,0.291105121 C113.898575,4.59874397 117.602397,9.63588803 120.623828,14.1065068 Z" id="sleeves_1_1_HL"></path>
                    </g>
                    <g id="sleeves_2_HL" transform="translate(16.539084, 0.460916)">
                        <path d="M31.6360015,29.4631361 C31.635269,29.4690198 31.6206191,29.4447496 31.6132942,29.4226858 L31.6140267,29.4190085 L30.6112422,32.3946783 L25.7738512,46.7346708 C25.7745837,46.7346708 25.7745837,46.7346708 25.7745837,46.7346708 L19.1440471,66.3861532 L10.7965444,91.1262806 C7.2051258,88.8073761 3.42106129,88.1153087 0.277929113,88.0719168 C1.75829969,81.346138 3.56609512,72.0815524 5.55335161,61.846896 C6.84547123,55.1887798 8.21450265,48.1261605 9.61796139,41.0767796 C9.61722887,41.0767796 9.61722887,41.0767796 9.61722887,41.0767796 C10.6244083,36.0168171 11.6506325,30.9737703 12.6790542,26.0954663 C14.1748072,19.0019578 15.6771525,12.2658828 17.1406758,6.37705728 C23.6628032,10.1698228 31.1928426,10.9310235 31.1928426,10.9310235 C31.1928426,10.9310235 29.283963,20.1507458 31.6360015,29.4631361 Z M130.960736,32.2299353 C130.960736,32.2299353 133.714914,36.4904532 131.502782,39.5242243 C131.346761,39.7397139 131.169497,39.9515263 130.960736,40.1508359 L106.113071,64.0378303 C104.892736,60.4178977 102.293115,58.7631133 99.9271587,58.0195636 L113.280527,36.9817402 L112.990458,36.6434288 L102.036009,23.9376276 C102.034544,23.9376276 102.034544,23.9376276 102.034544,23.9376276 L90.8310474,10.9457327 C90.8295822,10.9435263 90.8251873,10.9302881 90.8251873,10.9302881 C90.8251873,10.9302881 100.221621,11.4715864 110.410614,0.633117331 C113.481229,4.96791658 116.737166,9.69324493 119.752844,14.1920517 C123.377957,19.600622 126.650008,24.6738228 128.826249,28.3503856 C129.758713,29.930153 130.491208,31.2525094 130.960736,32.2299353 Z" id="sleeves_0_HL_" opacity="0.3"></path>
                        <path d="M120.256065,13.7681941 C125.287511,21.3153639 128.432165,26.4366577 129.690027,29.1320755 C121.873315,27.7843666 113.511318,31.0610098 109.743935,34.2533693 C107.666862,31.8748749 106.139459,30.0779297 105.161725,28.8625337 C101.961137,24.883965 97.2210587,18.8899631 90.9414888,10.8805281 C90.9400196,10.8783356 90.9952142,10.927126 90.9356125,10.8651803 C90.8760108,10.8032345 100.335308,11.0616639 110.552561,0.291105121 C113.631693,4.59874397 117.232022,9.29757534 120.256065,13.7681941 Z M31.5815251,29.2819077 C31.578388,29.3617141 31.5768194,29.4016173 31.5768194,29.4016173 L25.916442,47.4609164 C20.1349899,43.9754855 13.838211,42.4363799 9.47439353,41.8005391 C10.4843664,36.7722806 11.5407247,30.7830767 12.5719989,25.9353386 C14.0719004,18.8862757 15.5784128,12.1924066 17.0459952,6.3404785 C23.5862124,10.1094798 31.4066789,10.5963694 31.8463612,10.8032345 C32.2860435,11.0100997 30.2291105,19.967655 31.5815251,29.2819077 Z" id="sleeves_2_1_HL"></path>
                    </g>
                    <g id="sleeves_3_HL" transform="translate(16.539084, 1.078167)">
                        <path d="M31.6360015,28.8458854 C31.635269,28.8517691 31.6206191,28.8274989 31.6132942,28.8054351 L31.6140267,28.8017578 L30.6112422,31.7774276 L25.7738512,46.1174201 C25.7745837,46.1174201 25.7745837,46.1174201 25.7745837,46.1174201 L19.1440471,65.7689025 L10.7965444,90.50903 C7.2051258,88.1901254 3.42106129,87.498058 0.277929113,87.4546661 C1.75829969,80.7288873 3.56609512,71.4643017 5.55335161,61.2296453 C6.84547123,54.5715291 8.21450265,47.5089098 9.61796139,40.459529 C9.61722887,40.459529 9.61722887,40.459529 9.61722887,40.459529 C10.6244083,35.3995665 11.6506325,30.3565196 12.6790542,25.4782156 C14.1748072,18.3847072 15.6771525,11.6486322 17.1406758,5.75980661 C23.6628032,9.55257208 31.1928426,10.3137729 31.1928426,10.3137729 C31.1928426,10.3137729 29.283963,19.5334952 31.6360015,28.8458854 Z M130.960736,31.6126847 C130.960736,31.6126847 133.714914,35.8732025 131.502782,38.9069736 C131.346761,39.1224633 131.169497,39.3342757 130.960736,39.5335852 L106.113071,63.4205797 C104.892736,59.800647 102.293115,58.1458627 99.9271587,57.402313 L113.280527,36.3644895 L112.990458,36.0261781 L102.036009,23.320377 C102.034544,23.320377 102.034544,23.320377 102.034544,23.320377 L90.8310474,10.328482 C90.8295822,10.3262757 90.8251873,10.3130374 90.8251873,10.3130374 C90.8251873,10.3130374 100.221621,10.8543357 110.410614,0.0158666572 C113.481229,4.3506659 116.737166,9.07599425 119.752844,13.574801 C123.377957,18.9833713 126.650008,24.0565721 128.826249,27.733135 C129.758713,29.3129023 130.491208,30.6352588 130.960736,31.6126847 Z" id="sleeves_0_HL_" opacity="0.3"></path>
                        <path d="M131.274512,31.7563211 C130.802538,30.7777661 130.066228,29.4538821 129.128907,27.8722898 C126.941332,24.1914799 123.652239,19.1124186 120.008244,13.6976004 C116.976859,9.19359674 113.703964,4.46280981 110.617356,0.12300309 C100.375294,10.9739925 90.9299191,10.4320689 90.9299191,10.4320689 C90.9299191,10.4320689 90.934337,10.4453225 90.9358096,10.4475314 L102.19766,23.4544343 L113.787062,36.8706199 C118.51564,35.1314575 126.185984,33.3665768 131.819381,39.0605088 C134.043035,36.0217606 131.274512,31.7563211 131.274512,31.7563211 Z M31.841207,29.5254092 C30.2291105,20.6981132 32.115903,10.1859838 32.115903,10.1859838 C32.115903,10.1859838 23.8264808,10.2098087 17.2703833,6.41266189 C15.7992374,12.3082901 14.2890671,19.0521465 12.7855236,26.1538492 C11.7517454,31.0377884 10.7201762,36.086661 9.70775097,41.1524686 C8.29771876,48.2099928 6.73011636,55.8127539 5.43126685,62.4770889 C8.85731379,62.6884097 13.6570508,63.7841956 19.1778976,67.0592992 L25.950733,46.8205772 L30.812583,32.4640195 L31.8205904,29.4849122 L31.8191177,29.4885938 C31.8257445,29.5070015 31.8404707,29.5312997 31.841207,29.5254092 Z" id="sleeves_3_1_HL"></path>
                    </g>
                    <path d="M48.1750851,31.0022197 C48.1743525,31.0081033 48.1597027,30.9838331 48.1523777,30.9617694 L48.1531102,30.958092 L47.1503258,33.9337618 L42.3129348,48.2737544 C42.3136673,48.2737544 42.3136673,48.2737544 42.3136673,48.2737544 L35.6831307,67.9252367 L27.3356279,92.6653642 C23.7442094,90.3464597 19.9601448,89.6543923 16.8170127,89.6110003 C18.2973832,82.8852216 20.1051787,73.620636 22.0924352,63.3859796 C23.3845548,56.7278633 24.7535862,49.665244 26.157045,42.6158632 C26.1563124,42.6158632 26.1563124,42.6158632 26.1563124,42.6158632 C27.1634918,37.5559007 28.1897161,32.5128538 29.2181378,27.6345499 C30.7138907,20.5410414 32.2162361,13.8049664 33.6797593,7.91614084 C40.2018868,11.7089063 47.7319261,12.4701071 47.7319261,12.4701071 C47.7319261,12.4701071 45.8230465,21.6898294 48.1750851,31.0022197 Z M148.038903,33.2299353 C148.038903,33.2299353 150.793081,37.4904532 148.580949,40.5242243 C148.424928,40.7397139 148.247665,40.9515263 148.038903,41.1508359 L123.191238,65.0378303 C121.970903,61.4178977 119.371282,59.7631133 117.005326,59.0195636 L130.358694,37.9817402 L130.068625,37.6434288 L119.114176,24.9376276 C119.112711,24.9376276 119.112711,24.9376276 119.112711,24.9376276 L107.909214,11.9457327 C107.907749,11.9435263 107.903354,11.9302881 107.903354,11.9302881 C107.903354,11.9302881 117.299788,12.4715864 127.488782,1.63311733 C130.559397,5.96791658 133.815333,10.6932449 136.831011,15.1920517 C140.456124,20.600622 143.728175,25.6738228 145.904416,29.3503856 C146.83688,30.930153 147.569375,32.2525094 148.038903,33.2299353 Z" id="sleeves_4_HL"></path>
                    <path d="M148.612004,40.8907422 C148.622946,40.9039602 148.636075,40.9171781 148.650664,40.9289274 C148.512801,41.3115132 135.183846,68.5624968 137.859411,84.8249672 C137.859411,84.8249672 113.898951,85.7729871 111.893006,65.7015473 L128.874968,40.8643063 L130.441794,38.3866772 L130.152937,38.0488854 L119.244246,25.3626016 C119.242787,25.3626016 119.242787,25.3626016 119.242787,25.3626016 L108.086088,12.3906635 C108.084629,12.3884605 108.080253,12.3752426 108.080253,12.3752426 C108.080253,12.3752426 117.437437,12.9157094 127.583869,2.09388933 C130.641658,6.4220299 133.883994,11.1400997 136.887075,15.6319958 C140.497046,21.0322581 143.75543,26.0976659 145.92258,29.7685812 C146.851149,31.3459218 147.580584,32.666247 148.048151,33.6421715 C148.048151,33.6421715 150.764565,37.8608969 148.612004,40.8907422 Z M47.615914,12.9150605 C47.615914,12.9150605 45.7171962,22.1206204 48.0550335,31.4201746 C48.054304,31.4260492 48.0419036,31.3996133 48.0353388,31.3812551 L48.0360682,31.3775835 L47.0374725,34.3486823 L43.1277041,45.9679847 L43.1758469,45.9826713 C43.1758469,45.9826713 36.8501918,75.1766916 33.6764228,100.713015 C33.6764228,100.713015 10.0668198,107.138402 0.0370969466,92.1294325 C0.0370969466,92.1294325 22.8990296,53.8642344 26.1661663,42.8375362 C27.1574676,37.8462957 28.1662753,32.8697418 29.1787303,28.0562092 C30.6682353,20.9735971 32.1650347,14.2478693 33.6224446,8.36808958 C40.1173284,12.155029 47.615914,12.9150605 47.615914,12.9150605 Z" id="sleeves_5_HL"></path>
                </g>
                <g id="shoulder_HL" transform="translate(32.671159, 13.983827)" fill="#582ADF">
                    <path d="M85.0457261,10.1334385 C87.5034883,13.039774 91.9569894,18.9503354 96.4865962,25.317856 C87.2056362,37.4221773 76.2439738,35.9092316 76.2439738,35.9092316 C76.2439738,35.9092316 76.2258038,35.8918328 76.2008205,35.8608174 C76.2007706,35.8601375 76.2007201,35.8594576 76.2006702,35.8587775 C75.3802725,34.9150037 61.0669403,21.9446198 58.0522623,0.647765223 C58.2506157,0.796790363 58.4535114,0.943546085 58.6662491,1.08576297 C66.4989281,6.30315584 79.3010352,4.6192474 83.8669433,8.85852097 C84.1712872,9.14219825 84.5763209,9.57565714 85.05252,10.1271258 C85.0502552,10.1292298 85.0479904,10.131334 85.0457261,10.1334385 Z M7.43525752,10.060371 C7.86249447,9.45804237 8.36468608,8.39779075 10.4247894,7.24799035 C14.6469865,4.89157761 23.684926,5.24636334 32.3534138,0.964727324 C32.5843211,0.853525823 32.7690469,0.675754716 32.9674001,0.526729575 C29.9481923,21.8471589 15.6092265,34.8221802 14.8158138,35.7428076 C14.8183623,35.7082245 14.8209459,35.6733228 14.8235612,35.638106 L14.631088,35.8835116 C14.621246,35.8918328 14.6151894,35.9009104 14.6068616,35.9092316 C14.6068616,35.9092316 6.38883233,36.4107731 0.084684043,31.2251521 C2.46795038,21.6845172 4.74976892,14.2952909 6.74617085,11.0311108 C6.95663719,10.6846463 7.19208695,10.3639018 7.43435038,10.0597998 L7.43525752,10.060371 Z" id="shoulder_0_HL" opacity="0.300000012"></path>
                    <g id="shoulder_1_HL" transform="translate(0.000000, 0.460916)">
                        <path d="M85.0457261,9.67252204 C87.5034883,12.5788576 91.9569894,18.4894189 96.4865962,24.8569396 C87.2056362,36.9612608 76.2439738,35.4483152 76.2439738,35.4483152 C76.2439738,35.4483152 76.2258038,35.4309163 76.2008205,35.3999009 C76.2007706,35.3992211 76.2007201,35.3985411 76.2006702,35.3978611 C75.3802725,34.4540873 61.0669403,21.4837033 58.0522623,0.186848781 C58.2506157,0.335873921 58.4535114,0.482629643 58.6662491,0.624846528 C66.4989281,5.8422394 79.3010352,4.15833096 83.8669433,8.39760452 C84.1712872,8.68128181 84.5763209,9.1147407 85.05252,9.66620935 C85.0502552,9.66831336 85.0479904,9.67041753 85.0457261,9.67252204 Z M7.43525752,9.59945455 C7.86249447,8.99712593 8.36468608,7.93687431 10.4247894,6.78707391 C14.6469865,4.43066116 23.684926,4.7854469 32.3534138,0.503810882 C32.5843211,0.392609381 32.7690469,0.214838274 32.9674001,0.065813133 C29.9481923,21.3862424 15.6092265,34.3612638 14.8158138,35.2818912 C14.8183623,35.2473081 14.8209459,35.2124064 14.8235612,35.1771895 L14.631088,35.4225951 C14.621246,35.4309163 14.6151894,35.439994 14.6068616,35.4483152 C14.6068616,35.4483152 6.38883233,35.9498567 0.084684043,30.7642357 C2.46795038,21.2236007 4.74976892,13.8343745 6.74617085,10.5701944 C6.95663719,10.2237298 7.19208695,9.90298534 7.43435038,9.59888332 L7.43525752,9.59945455 Z" id="shoulder_0_HL" opacity="0.300000012"></path>
                        <path d="M65.7677658,31.0814634 L57.8903961,0.180731708 L60.8641764,1.92 C60.8641764,1.92 64.0553897,11.6414634 65.0766658,15.0826829 C66.2084886,18.9007317 70.1764574,27.1185366 70.1764574,27.1185366 L65.7677658,31.0814634 Z M25.9358018,31.1531708 L21.5227177,27.1192683 C21.5227177,27.1192683 25.1466006,18.9014634 26.2776913,15.0834146 C27.2989674,11.6421951 30.5714435,1.62073171 30.5714435,1.62073171 L33.463961,0.181463414 L25.9358018,31.1531708 Z" id="shoulder_1_1_HL"></path>
                    </g>
                    <g id="shoulder_2_HL" transform="translate(0.000000, 0.539084)">
                        <path d="M85.0457261,10.1334385 C87.5034883,13.039774 91.9569894,18.9503354 96.4865962,25.317856 C87.2056362,37.4221773 76.2439738,35.9092316 76.2439738,35.9092316 C76.2439738,35.9092316 76.2258038,35.8918328 76.2008205,35.8608174 C76.2007706,35.8601375 76.2007201,35.8594576 76.2006702,35.8587775 C75.3802725,34.9150037 61.0669403,21.9446198 58.0522623,0.647765223 C58.2506157,0.796790363 58.4535114,0.943546085 58.6662491,1.08576297 C66.4989281,6.30315584 79.3010352,4.6192474 83.8669433,8.85852097 C84.1712872,9.14219825 84.5763209,9.57565714 85.05252,10.1271258 C85.0502552,10.1292298 85.0479904,10.131334 85.0457261,10.1334385 Z M7.43525752,10.060371 C7.86249447,9.45804237 8.36468608,8.39779075 10.4247894,7.24799035 C14.6469865,4.89157761 23.684926,5.24636334 32.3534138,0.964727324 C32.5843211,0.853525823 32.7690469,0.675754716 32.9674001,0.526729575 C29.9481923,21.8471589 15.6092265,34.8221802 14.8158138,35.7428076 C14.8183623,35.7082245 14.8209459,35.6733228 14.8235612,35.638106 L14.631088,35.8835116 C14.621246,35.8918328 14.6151894,35.9009104 14.6068616,35.9092316 C14.6068616,35.9092316 6.38883233,36.4107731 0.084684043,31.2251521 C2.46795038,21.6845172 4.74976892,14.2952909 6.74617085,11.0311108 C6.95663719,10.6846463 7.19208695,10.3639018 7.43435038,10.0597998 L7.43525752,10.060371 Z" id="shoulder_0_HL" opacity="0.300000012"></path>
                        <path d="M25.6960752,31.8220761 L15.9252515,35.0655184 C15.9252515,35.0655184 16.8345934,13.6654263 16.7042666,16.7881139 C16.5702584,19.9078562 17.1453159,5.51816449 17.1453159,5.51816449 C17.1453159,5.51816449 24.3331668,4.02566564 25.2830057,3.87324962 C29.7126422,3.15976596 33.6150812,0.727736506 33.6150812,0.727736506 L25.6960752,31.8220761 Z M65.5656433,32.3611597 L57.6253369,0.571428571 C57.6253369,0.571428571 61.578601,2.87478141 65.9811321,4.0754717 C68.9460916,4.88409704 74.084005,6.2207087 74.084005,6.2207087 C74.084005,6.2207087 74.6907238,20.4462034 74.5581882,17.3264611 C74.4263888,14.2037736 75.6846361,34.8032345 75.6846361,34.8032345 L65.5656433,32.3611597 Z" id="shoulder_2_1_HL"></path>
                    </g>
                    <path d="M75.9395545,35.0545002 C75.944478,35.0606524 75.9493524,35.0667444 75.9541779,35.0727763 C73.9775382,34.8930818 70.6943878,33.9892096 66.1047268,32.3611597 L60.6377027,10.9041063 C59.7246461,8.22524985 58.9649461,5.34764556 58.4413032,2.28364623 L58.1820393,1.26608376 L58.2865324,1.32723098 C58.2560841,1.12791701 58.2266453,0.927838994 58.1982381,0.727000197 C58.3911511,0.872053119 58.588482,1.01489711 58.7953849,1.15332325 C66.4132404,6.23164815 78.8642298,4.59262376 83.3049109,8.7189008 C83.6009072,8.99501676 83.9948327,9.41692196 84.4579712,9.95369141 C84.4557681,9.95573929 84.4535655,9.95778742 84.4513635,9.95983578 C86.8417176,12.7887039 91.1730743,18.5417211 95.5784498,24.7395175 C86.9063694,36.0587081 76.7254976,35.1437748 75.9395545,35.0545002 Z M30.6249379,11.356138 L25.726468,31.5197513 C19.4991191,33.8884346 16.0260557,35.0727763 15.3072776,35.0727763 C15.3130196,35.0659903 15.3187625,35.0592043 15.3245062,35.0524184 C14.4723541,35.0868423 7.05236795,35.2401423 1.28142791,30.4893564 C3.59932943,21.2030241 5.81856551,14.0107554 7.760213,10.833581 C7.96490698,10.4963513 8.19389915,10.1841562 8.42951811,9.88815988 L8.43040037,9.88871593 C8.84591969,9.30244215 9.33433788,8.27045121 11.3379396,7.1512984 C15.4443363,4.85769509 24.2343962,5.20302413 32.6651371,1.03551377 C32.8897114,0.927276313 33.0693709,0.754243639 33.2622839,0.609190717 C32.7142474,4.48227507 31.7827265,8.07241402 30.6249379,11.356138 Z" id="shoulder_3_HL"></path>
                    <path d="M83.9188876,9.95369141 C75.1303004,18.1230425 74.9447505,30.0416804 75.3121688,35.0021958 C74.5397804,34.1061074 60.5940832,21.4769312 57.6591546,0.727000197 C57.8520676,0.872053119 58.0493985,1.01489711 58.2563014,1.15332325 C65.8741569,6.23164815 78.3251463,4.59262376 82.7658274,8.7189008 C83.0618237,8.99501676 83.4557491,9.41692196 83.9188876,9.95369141 Z M8.2933009,10.0663467 C8.75643942,9.52957728 9.1128131,8.39418842 11.3379396,7.1512984 C15.4443363,4.85769509 24.2343962,5.20302413 32.6651371,1.03551377 C32.8897114,0.927276313 33.0693709,0.754243639 33.2622839,0.609190717 C30.3258826,21.3613306 16.3801854,33.9905069 15.6085333,34.8865952 C15.9737427,29.9268161 17.0796792,18.2364342 8.2933009,10.0663467 Z" id="shoulder_3_for_sleeves_0_HL"></path>
                </g>
                <g id="neckline_HL" transform="translate(53.671159, 0.444744)" fill="#582ADF">
                    <path d="M42.346674,26.2880487 C40.4307746,22.1209756 38.5373982,18.3338634 37.2423177,13.3077659 C37.1759148,13.2584339 34.3151395,11.2345789 33.1827673,7.87271351 C32.050395,4.51084811 33.2461036,0.053882577 33.1827673,0 C31.8159411,1.46121948 29.5883289,1.63900415 24.0946689,1.63900415 C18.5900273,1.63900415 17.5202513,1.4831707 16.1907621,0 C16.1307805,0.0512822008 16.9369745,3.96362584 16.1907621,6.93477385 C15.4445497,9.90592185 13.1646306,12.258013 13.0993764,12.3087805 C12.4126689,14.6326829 10.6959001,20.07 7.97615765,26.2843902 L0.5,41 C0.5,41 10.5,52.5 24.5,57.5 C38,53.5 49,41 49,41 C49,41 48.0006634,38.5880487 42.346674,26.2880487 Z" id="neckline_0_HL" opacity="0.300000012"></path>
                    <g id="neckline_1_HL">
                        <path d="M42.346674,26.2880487 C40.4307746,22.1209756 38.5373982,18.3338634 37.2423177,13.3077659 C37.1759148,13.2584339 34.3151395,11.2345789 33.1827673,7.87271351 C32.050395,4.51084811 33.2461036,0.053882577 33.1827673,0 C31.8159411,1.46121948 29.5883289,1.63900415 24.0946689,1.63900415 C18.5900273,1.63900415 17.5202513,1.4831707 16.1907621,0 C16.1307805,0.0512822008 16.9369745,3.96362584 16.1907621,6.93477385 C15.4445497,9.90592185 13.1646306,12.258013 13.0993764,12.3087805 C12.4126689,14.6326829 10.6959001,20.07 7.97615765,26.2843902 L0.5,41 C0.5,41 10.5,51 24.5,56 C38,52 49,41 49,41 C49,41 48.0006634,38.5880487 42.346674,26.2880487 Z" id="neckline_0_1" opacity="0.300000012"></path>
                        <path d="M43,27.5 C41.7371198,29.5568266 32.628596,42.0719574 24.4860743,42.0719574 C16.3435525,42.0719574 8.25997034,30.0525055 7,28 C4.02102865,34.7379796 0.47752918,40.9564027 0.47752918,40.9564027 C0.47752918,40.9564027 16.7452174,57 24.5,57 C32.2562375,57 49.1736565,41.5435973 49,41 C48.8263435,40.4564027 48.6182163,39.6061818 43,27.5 Z" id="1-1"></path>
                    </g>
                    <g id="neckline_2_HL">
                        <path d="M37.2423177,13.3077659 C37.1759148,13.2584339 34.3151395,11.2345789 33.1827673,7.87271351 C32.050395,4.51084811 33.2461036,0.053882577 33.1827673,0 C31.8159411,1.46121948 29.5883289,1.63900415 24.0946689,1.63900415 C18.5900273,1.63900415 17.5202513,1.4831707 16.1907621,0 C16.1307805,0.0512822008 16.9369745,3.96362584 16.1907621,6.93477385 C15.4445497,9.90592185 13.1646306,12.258013 13.0993764,12.3087805 C12.4126689,14.6326829 11.5,19 25.5,24 C39,20 38.5373982,18.3338634 37.2423177,13.3077659 Z" id="neckline_0_2" opacity="0.300000012"></path>
                        <path d="M43,27.5 C41.0873615,23.3190366 38.7928763,19.0428512 37.5,14 C37.3633307,13.8979536 30.6075259,20.4678293 25.1232161,20.4678293 C19.6279435,20.4678293 12.6286298,13.8994219 12.5,14 C11.8144613,16.3316488 9.71511337,21.7648951 7,28 L0.5,41 C0.5,41 10.8569944,58.9356295 25.1202927,58.9356295 C39.3850526,58.9356295 49.5753152,41.4622122 49.5753152,41.4622122 C49.5753152,41.4622122 48.6443663,39.841 43,27.5 Z" id="neckline_2_2"></path>
                    </g>
                    <g id="neckline_3_HL" transform="translate(-0.000075, 0.000000)">
                        <path d="M40.500075,27 C38.5841757,22.8329269 38.5374733,18.3338634 37.2423927,13.3077659 C37.1759899,13.2584339 34.3152145,11.2345789 33.1828423,7.87271351 C32.05047,4.51084811 33.2461787,0.053882577 33.1828423,0 C31.8160161,1.46121948 29.588404,1.63900415 24.0947439,1.63900415 C18.5901023,1.63900415 17.5203263,1.4831707 16.1908371,0 C16.1308555,0.0512822008 16.9370495,3.96362584 16.1908371,6.93477385 C15.4446247,9.90592185 13.1647056,12.258013 13.0994514,12.3087805 C12.4127439,14.6326829 11.7198175,20.2856098 9.00007504,26.5 L0.500075036,41 C0.500075036,41 10.500075,52.5 24.500075,57.5 C38.000075,53.5 49.000075,41 49.000075,41 C49.000075,41 46.1540645,39.3 40.500075,27 Z" id="neckline_0_HL" opacity="0.300000012"></path>
                        <path d="M11.500075,15 C12.7061278,13.7816271 14.5106663,12.268627 15.0249306,11 C17.0916624,12.3931915 20.6125557,14.2837817 24.5257159,14.2837817 L24.6002071,14.2837817 C28.471367,14.2837817 31.9613544,12.4327933 34.0383882,11.0419779 C34.5521029,12.3027605 36.7779249,13.7870742 38.000075,15 C38.000075,15 39.000075,21.5 42.500075,29 C46.000075,36.5 49.1860589,40.7951482 49.1860589,41.06469 C49.1860589,41.3342318 39.1368576,58.3153639 24.7655737,58.3153639 C10.3957624,58.3153639 -0.0322699777,41.8733154 7.50357345e-05,41.5 C0.500075036,41 4.26468617,34.7534745 7.00007504,28.5 C9.7354639,22.2465255 10.809417,17.3385182 11.500075,15 Z" id="neckline_3_1_HL"></path>
                    </g>
                    <path d="M12,13.5 C14.5,11.5 15.4646683,10.2016838 16,7.5 C16.7228269,3.85207531 16,3.55271368e-15 16,3.55271368e-15 C16,3.55271368e-15 20.5902517,2.41170732 24.8876644,2.41170732 C29.1850771,2.41170732 32.7959649,3.59007115e-15 33.2,3.55271368e-15 C33.4462947,3.55271368e-15 32.5,4 33,7 C33.9769664,10.4193824 34.9539328,11.9298381 37.7958564,13.8625637 C37.9064905,13.8666054 37.9813793,13.9068963 38,14 C38.5,16.5 40.6728225,24.830525 42.2763013,28.3356756 C47.9206675,40.6766756 49.5753152,41.4622122 49.5753152,41.4622122 C49.5753152,41.4622122 39.3850526,58.9356295 25.1202927,58.9356295 C10.8569944,58.9356295 1,41.4622122 1,41.4622122 L7.96428412,28.3320049 C10.6793975,22.0969 11.3144613,15.8316488 12,13.5 Z" id="neckline_4_HL"></path>
                </g>
            </g>
            <g id="Points" transform="translate(36.000000, 19.000000)" fill-rule="nonzero">
                <g id="length_points" transform="translate(9.000000, 104.000000)">
                    <polygon id="Polygon" fill="#1B1B1D" points="8.70967742 0 16.2524793 4.38174274 16.2524793 13.1452282 8.70967742 17.526971 1.16687552 13.1452282 1.16687552 4.38174274"></polygon>
                    <path d="M8.70967742,4.80794037 L5.30970964,6.78303985 L5.30970964,10.7439311 L8.70967742,12.7190306 L12.1096452,10.7439311 L12.1096452,6.78303985 L8.70967742,4.80794037 Z" id="Polygon" stroke="#FFFFFF" stroke-width="2"></path>
                </g>
                <g id="top_core_points" transform="translate(39.000000, 80.000000)">
                    <polygon id="Polygon" fill="#1B1B1D" points="8.70967742 0 16.2524793 4.38174274 16.2524793 13.1452282 8.70967742 17.526971 1.16687552 13.1452282 1.16687552 4.38174274"></polygon>
                    <path d="M8.70967742,4.80794037 L5.30970964,6.78303985 L5.30970964,10.7439311 L8.70967742,12.7190306 L12.1096452,10.7439311 L12.1096452,6.78303985 L8.70967742,4.80794037 Z" id="Polygon" stroke="#FFFFFF" stroke-width="2"></path>
                </g>
                <g id="sleeves_points" transform="translate(107.000000, 55.000000)">
                    <polygon id="Polygon" fill="#1B1B1D" points="8.70967742 0 16.2524793 4.38174274 16.2524793 13.1452282 8.70967742 17.526971 1.16687552 13.1452282 1.16687552 4.38174274"></polygon>
                    <path d="M8.70967742,4.80794037 L5.30970964,6.78303985 L5.30970964,10.7439311 L8.70967742,12.7190306 L12.1096452,10.7439311 L12.1096452,6.78303985 L8.70967742,4.80794037 Z" id="Polygon" stroke="#FFFFFF" stroke-width="2"></path>
                </g>
                <g id="shoulder_points" transform="translate(0.000000, 8.000000)">
                    <polygon id="Polygon" fill="#1B1B1D" points="8.70967742 0 16.2524793 4.38174274 16.2524793 13.1452282 8.70967742 17.526971 1.16687552 13.1452282 1.16687552 4.38174274"></polygon>
                    <path d="M8.70967742,4.80794037 L5.30970964,6.78303985 L5.30970964,10.7439311 L8.70967742,12.7190306 L12.1096452,10.7439311 L12.1096452,6.78303985 L8.70967742,4.80794037 Z" id="Polygon" stroke="#FFFFFF" stroke-width="2"></path>
                </g>
                <g id="neckline_points" transform="translate(39.000000, 0.000000)">
                    <polygon id="Polygon" fill="#1B1B1D" points="8.70967742 0 16.2524793 4.38174274 16.2524793 13.1452282 8.70967742 17.526971 1.16687552 13.1452282 1.16687552 4.38174274"></polygon>
                    <path d="M8.70967742,4.80794037 L5.30970964,6.78303985 L5.30970964,10.7439311 L8.70967742,12.7190306 L12.1096452,10.7439311 L12.1096452,6.78303985 L8.70967742,4.80794037 Z" id="Polygon" stroke="#FFFFFF" stroke-width="2"></path>
                </g>
            </g>
            <g id="selected_points" transform="translate(31.000000, 23.000000)" fill-rule="nonzero">
                <polygon id="Polygon" fill="#582ADF" opacity="0.100000001" points="13.7903226 0 25.7330923 6.93775934 25.7330923 20.813278 13.7903226 27.7510373 1.8475529 20.813278 1.8475529 6.93775934"></polygon>
                <polygon id="Polygon" fill="#582ADF" points="13.7903226 5.1120332 21.3331245 9.49377593 21.3331245 18.2572614 13.7903226 22.6390041 6.24752068 18.2572614 6.24752068 9.49377593"></polygon>
                <path d="M13.7903226,9.91997356 L10.3903548,11.895073 L10.3903548,15.8559643 L13.7903226,17.8310638 L17.1902904,15.8559643 L17.1902904,11.895073 L13.7903226,9.91997356 Z" id="Polygon" stroke="#FFFFFF" stroke-width="2"></path>
            </g>
            <g id="tops_touch" transform="translate(0.477089, 0.547170)">
                <path d="M117.022911,118.95283 C102.25491,119.742666 91.0882432,120.242666 83.5229111,120.45283 C75.1237409,120.389066 56.4797994,121.2446 49.5229111,119.45283 C45.0480266,122.937789 42.3813599,126.104455 41.5229111,128.95283 C39.999455,134.007731 39.0932643,142.695978 38.804339,155.01757 C65.5735945,155.535956 79.1128198,155.795148 79.4220149,155.795148 L126.662231,155.01757 C121.236018,141.307744 118.022911,129.286164 117.022911,118.95283 Z" id="length_touch" stroke="#686868" fill="#417505" fill-rule="nonzero" stroke-linecap="square"></path>
                <g id="sleeves_touch" transform="translate(0.000000, 31.266846)" fill="#4A90E2">
                    <path d="M35.8490566,15.9033378 C35.656844,20.5507989 2.74750901,103.400464 4.26325641e-14,107.277628 C0.107360704,107.45723 2.74531607,117.744961 7.27762803,121.832884 C11.232212,125.399725 21.3943501,124.604936 22.4032628,124.425471 C23.0174156,124.315703 28.484441,124.090787 38.804339,123.750724 C39.3913217,110.405839 40.1308457,102.050925 41.0229111,98.6859838 C43.2571118,90.258401 47.3265233,91.6006292 48.5229111,87.1859838 C50.6898704,71.4494788 51.90649,61.8821481 52.1727697,58.4839918 C53.0435037,47.3720293 54.7123956,37.6456171 54.7947669,37.1967655 C56.06469,30.458221 56.8566311,28.3652648 58.3007034,22.3072776 C59.0134785,19.2664766 38.5611025,15.8711457 35.8490566,15.9033378 Z" id="left-sleeve" stroke="#686868" fill-rule="nonzero"></path>
                    <path d="M166.522911,48.1859838 C161.304901,20.9144677 142.170166,13.0602824 139.083558,8.72047566 C137.931193,9.94135294 129.308892,-1.87231974 128.301887,0.354901058 C122.911051,12.2779567 112.867551,25.9433857 112.862323,25.8525541 C112.856433,25.7502071 112.866741,25.8658076 112.868214,25.8680166 C115.059822,36.7157572 116.340754,44.714828 116.711012,49.8652291 C117.19471,56.5936233 117.19471,66.4127455 116.711012,79.3225955 C117.600664,88.1650964 119.130956,107.149156 127.782235,113.464519 C138.821277,121.522929 159.568733,115.78463 159.568733,115.78463 C156.867951,99.4783249 171.740921,75.4574999 166.522911,48.1859838 Z" id="right-sleeve" stroke="#979797"></path>
                </g>
                <g id="shoulder_touch" transform="translate(20.579515, 15.867925)" fill="#50E3C2" fill-rule="nonzero" stroke="#686868">
                    <path d="M107.722372,15.3989218 C104.984144,20.8739804 102.924231,24.7374126 101.542634,26.9892183 C95.7668075,36.4029838 91.7335297,41.6778358 91.7578627,42.3530997 C89.6603208,42.3087942 78.3557092,18.5730801 77.5336927,8.92991914 C77.493214,8.45505857 82.9351195,4.05967745 92.2783906,6.23039905 C95.1985749,6.90884528 100.346569,9.96501954 107.722372,15.3989218 Z" id="right-shoulder"></path>
                    <path d="M33.4920403,31.3020324 C18.315877,34.4458251 10.7359064,36.2428094 10.7521284,36.6929853 C9.67353043,36.6702025 8.29028883,31.7402275 5.99877885,25.6415094 C3.83400535,19.880093 0.737944919,13.0752906 0.338625721,8.39083558 C0.298146959,7.91597502 12.8153936,-0.991426782 21.3181859,1.58490566 C25.9792864,1.58490566 43.0612041,-3.03004528 46.8181859,7.08490566 C51.1515192,18.7515723 46.7094707,26.8239479 33.4920403,31.3020324 Z" id="left-shoulder" transform="translate(24.380791, 18.613654) scale(-1, 1) translate(-24.380791, -18.613654) "></path>
                </g>
                <path d="M113.396989,62.9683556 C112.945968,61.5133288 117.638457,64.6187487 84.9647809,64.6187487 C52.2911051,64.6187487 57.0567392,61.2946942 56.6037736,62.8732891 C55.740077,66.0284868 53.894719,74.573974 52.909079,83.5963448 C51.9973275,91.9423524 49.7319135,113.669495 49.5229111,118.95283 C57.6896701,120.762897 72.6630435,119.888415 82.5229111,119.95283 C92.3894183,119.888415 109.356152,120.262897 117.522911,118.45283 C117.522911,112.817763 116.848896,92.0212544 116.626441,84.097035 C116.368117,74.8950689 114.286832,66.2325534 113.396989,62.9683556 Z" id="top_core_touch" stroke="#686868" fill="#50E3C2" fill-rule="nonzero" stroke-linecap="square"></path>
                <path d="M103.538472,41.7789757 C99.8397123,34.1405646 97.8515964,28.3903399 97.574124,24.5283019 C97.3445491,24.7297635 101.704682,22.5848976 103.538472,17.9084648 C106.6891,9.87390032 108.408593,0.612677065 107.284908,0.612677065 C102.774808,0.612677065 64.5939386,1.13020704e-13 60.3773585,0.612677065 C58.5217282,0.882303659 59.9932415,9.73084348 62.6530231,17.9084648 C64.0482794,22.1982447 69.7763998,24.1553869 69.541779,23.9490369 C69.3256106,26.4327095 65.2354786,37.3182013 62.2345908,44.3996552 C58.3144944,53.6502446 56.4032227,62.9413204 56.06469,63.1632923 C56.9792188,63.8057421 67.3433796,64.690027 84.3665768,64.690027 C100.468044,64.690027 113.101017,63.3865166 114.022747,62.7440668 C113.432264,62.3328989 103.732899,41.9588617 103.538472,41.7789757 Z" id="neckline_touch" stroke="#686868" fill="#BD10E0" fill-rule="nonzero" stroke-linejoin="bevel"></path>
            </g>
        </g>
    </g>
</svg>