<?xml version="1.0" encoding="UTF-8"?>
<svg width="201px" height="231px" viewBox="0 0 201 231" version="1.1" xmlns="http://www.w3.org/2000/svg" xmlns:xlink="http://www.w3.org/1999/xlink">
    <!-- Generator: Sketch 53.2 (72643) - https://sketchapp.com -->
    <title>Final_VF_Pants_2.0</title>
    <desc>Created with Sketch.</desc>
    <defs>
        <ellipse id="path-1" cx="100.061576" cy="131" rx="100.061576" ry="100"></ellipse>
    </defs>
    <g id="VF-Final" stroke="none" stroke-width="1" fill="none" fill-rule="evenodd">
        <g id="Final_VF_Pants_2.0">
            <g id="mannequin_pants" transform="translate(61.000000, 6.000000)" fill-rule="nonzero">
                <path d="M27.0738889,0.24 C27.0738889,0.24 27.3072222,7.25555556 25.8933333,11.4377778 C24.8538889,14.5161111 23.795,17.9411111 21.6116667,24.5 C19.1961111,31.7566667 16.7994444,44.3138889 16.7994444,61.7222222 C16.7994444,77.0772222 18.9283333,87.7288889 18.9294444,96.9072222 C18.9294444,97.8322222 18.1072222,108.400556 17.99,109.247778 C17.3672222,113.727778 15.2205556,133.660556 13.335,150.254444 C12.1661111,160.561111 10.7111111,175.258333 10.6538889,175.758889 C10.4338889,177.645556 10.1327778,180.591111 8.09611111,186.632778 C6.05944444,192.675556 5.46388889,199.737222 5.00777778,200.452222 C5.00777778,200.452222 3.72777778,202.137222 2.63166667,202.967222 C1.41444444,203.890556 -0.898333333,207.206667 4.12166667,206.123889 C7.775,205.333889 9.93111111,205.278889 12.2466667,203.856111 C14.5611111,202.434444 15.1288889,196.020556 16.6116667,192.548333 C18.0938889,189.073889 23.68,188.941667 24.9105556,184.630556 C26.1438889,180.316667 20.5427778,177.365 20.555,174.133889 C20.5616667,172.525 32.7433333,130.174444 33.6961111,122.618333 C34.65,115.063333 32.5566667,109.243333 34.8211111,102.491111 C37.085,95.7416667 44.1,60.2388889 43.5138889,51.8061111 L46.5955556,52.405 C46.5955556,52.405 46.7855556,68.3766667 48.7188889,75.0166667 C50.6522222,81.6561111 54.3938889,103.841111 53.1988889,113.300556 C52.0066667,122.76 54.1388889,136.637222 54.4294444,146.373333 C54.4405556,146.708889 54.4544444,147.04 54.4666667,147.375 C54.8438889,157.161111 56.3577778,165.605 55.1177778,173.798333 C55.1044444,173.890556 55.0938889,173.982778 55.0805556,174.075 C55.0805556,174.075 52.7727778,188.878889 52.4883333,192.82 C52.3127778,195.257778 51.9394444,197.932778 51.9394444,198.641111 C51.9394444,199.347222 51.6344444,203.191111 52.3444444,204.203333 C53.0505556,205.213333 53.9016667,205.422778 54.3411111,205.48 C56.3677778,205.738333 60.1872222,204.245556 61.8422222,201.921111 C62.4911111,200.864444 62.8783333,198.287778 62.7016667,196.525 C62.5244444,194.731111 61.9872222,187.155 61.9872222,185.088333 C61.9872222,183.022778 62.5138889,183.021667 62.7861111,181.676111 C63.0544444,180.329444 62.5705556,177.766667 62.6605556,177.048333 C62.6955556,176.755 63.3666667,174.497222 64.1427778,167.995556 C64.705,164.975 65.3722222,161.062778 65.8683333,157.110556 C66.9183333,148.802778 68.8361111,140.341667 69.0822222,129.373889 C69.3272222,118.407222 65.9961111,113.263889 68.0983333,101.109444 C70.1983333,88.9544444 75.0377778,47.5333333 74.1055556,35.44 C72.7211111,17.4605556 61.61,9.68277778 64.5722222,0.978888889 C64.5744444,0.981666667 47.3288889,6.90611111 27.0738889,0.24 Z" id="single-line" fill="#FFFFFF"></path>
                <path d="M26.7444444,0.0894444444 C26.9527778,2.19777778 26.9911111,4.32277778 26.8822222,6.45277778 C26.8205556,7.51777778 26.7144444,8.58388889 26.5316667,9.65055556 C26.4338889,10.1833333 26.3266667,10.7172222 26.1711111,11.2466667 L25.7388889,12.7766667 C24.5766667,16.8361111 23.32,20.8838889 22.03,24.8811111 C20.7772222,28.8594444 19.8694444,32.9438889 19.1055556,37.0688889 C18.3866667,41.1994444 17.8205556,45.3677778 17.4616667,49.5577778 C17.1105556,53.7488889 16.9694444,57.965 16.9977778,62.1694444 C17.0222222,66.39 17.2022222,70.5838889 17.545,74.7861111 C17.8794444,78.9855556 18.3433333,83.175 18.7588889,87.3855556 C18.9611111,89.4916667 19.1433333,91.6072222 19.2422222,93.7333333 C19.2922222,94.8066667 19.3255556,95.84 19.3183333,96.9538889 C19.2605556,98.0072222 19.21,99.0588889 19.1283333,100.123333 C18.9788889,102.248889 18.8627778,104.365 18.5727778,106.456667 C18.4355556,107.499444 18.3194444,108.597778 18.2088889,109.630556 L17.8377778,112.775 C17.3394444,116.968889 16.9083333,121.161667 16.4411111,125.356111 L13.7711111,150.545 L11.1761111,175.753333 C10.9561111,177.868333 10.4872222,180.019444 9.86444444,182.056667 C9.71888889,182.573889 9.55222222,183.081111 9.38277778,183.585 C9.21333333,184.091111 9.05055556,184.597778 8.86277778,185.098889 C8.50166667,186.103889 8.12611111,187.1 7.80888889,188.074444 C7.17333333,190.063889 6.70722222,192.113889 6.29277778,194.173333 C6.08611111,195.203333 5.89611111,196.240556 5.71055556,197.278889 L5.42666667,198.841111 L5.26722222,199.628889 C5.23722222,199.760556 5.20611111,199.895 5.16833333,200.033333 C5.11833333,200.181667 5.10555556,200.294444 4.98444444,200.506667 L4.97722222,200.518333 L4.96555556,200.53 C4.36944444,201.281111 3.74611111,201.983333 3.03277778,202.64 C2.85944444,202.801111 2.65055556,202.957778 2.47666667,203.103333 C2.29555556,203.240556 2.15166667,203.376111 1.99277778,203.54 C1.68833333,203.857222 1.41777778,204.220556 1.22111111,204.595 C1.02444444,204.962222 0.922222222,205.401111 1.09,205.593333 C1.24,205.816111 1.71111111,205.893889 2.13166667,205.890556 C3.00888889,205.887778 3.91111111,205.635556 4.83777778,205.466111 C6.67388889,205.083889 8.54166667,204.863333 10.2338889,204.204444 C10.6577778,204.042778 11.0633333,203.842778 11.4566667,203.618889 C11.885,203.396111 12.1566667,203.156667 12.4227778,202.803889 C12.9438889,202.105 13.27,201.237778 13.5394444,200.364444 C14.05,198.598889 14.3477778,196.762222 14.7716667,194.917222 C14.9916667,193.996111 15.2461111,193.075 15.6216667,192.153889 L15.7844444,191.809444 C15.8438889,191.693333 15.9255556,191.56 15.9977778,191.436667 C16.1466667,191.205556 16.3072222,190.991667 16.4788889,190.79 C16.825,190.385 17.2288889,190.059444 17.6311111,189.760556 C19.2727778,188.615 21.0522222,188.029444 22.4344444,186.906111 C23.1177778,186.353889 23.6727778,185.666667 23.9794444,184.862222 C24.2983333,184.078333 24.38,183.183889 24.1405556,182.388889 C23.9211111,181.577222 23.4505556,180.834444 22.9022222,180.137222 C22.3511111,179.435556 21.7133333,178.776667 21.0944444,178.043889 C20.4822222,177.308333 19.8361111,176.521111 19.43,175.426111 C19.3311111,175.154444 19.2433333,174.863889 19.2027778,174.551667 C19.1744444,174.401111 19.17,174.239444 19.1633333,174.077222 L19.1605556,174.018333 C19.1566667,174.058889 19.1633333,173.892778 19.1633333,173.895 L19.1716667,173.808333 L19.2133333,173.518333 C19.3127778,173 19.4216667,172.555 19.5327778,172.090556 C20.4266667,168.429444 21.4888889,164.856667 22.5261111,161.264444 C23.57,157.674444 24.6405556,154.096111 25.6466667,150.498889 C26.6533333,146.901111 27.6027778,143.289444 28.5516667,139.678889 C29.4883333,136.063889 30.3905556,132.443333 31.2305556,128.813333 C31.6433333,127.000556 32.0555556,125.178889 32.3677778,123.377222 C32.4427778,122.926111 32.515,122.486667 32.5477778,122.048333 C32.5844444,121.589444 32.6522222,121.107778 32.6677778,120.666111 C32.7238889,119.775 32.7488889,118.859444 32.7411111,117.944444 C32.725,116.108889 32.6133333,114.259444 32.5455556,112.378333 C32.4783333,110.501111 32.4411111,108.576111 32.6811111,106.652222 L32.7711111,105.931667 L32.8994444,105.214444 C32.9744444,104.735556 33.0961111,104.262778 33.2122222,103.791111 C33.315,103.316667 33.4838889,102.857222 33.6227778,102.391667 C33.7566667,101.95 33.9211111,101.495 34.0411111,101.066111 C34.5588889,99.3205556 35.01,97.4983333 35.4455556,95.6955556 C37.1638889,88.4455556 38.6516667,81.1244444 39.9927778,73.7861111 C40.655,70.1166667 41.28,66.4366667 41.81,62.7477778 C42.0738889,60.9044444 42.3155556,59.0561111 42.5061111,57.2066667 C42.6838889,55.3611111 42.8516667,53.4977778 42.7872222,51.6822222 L42.7694444,51.1672222 L43.2555556,51.2683333 L43.2572222,51.2683333 C43.7872222,51.2783333 44.3061111,51.355 44.8194444,51.4505556 C45.3316667,51.555 45.8411111,51.6772222 46.3355556,51.8727778 L46.6944444,52.0138889 L46.6522222,52.2516667 L46.6522222,52.2522222 C46.7116667,56.0711111 46.8655556,59.9 47.15,63.7105556 C47.2961111,65.6155556 47.445,67.5205556 47.74,69.4061111 C48.0216667,71.2927778 48.3488889,73.1616667 48.9005556,74.9688889 C49.4466667,76.8283333 49.8772222,78.7044444 50.2916667,80.5822222 C50.705,82.4611111 51.0838889,84.3438889 51.4355556,86.2361111 C52.1416667,90.015 52.7311111,93.8161111 53.2027778,97.6366667 C53.6772222,101.459444 53.9944444,105.307778 54.0027778,109.198889 C53.9933333,110.174444 53.9705556,111.152222 53.8972222,112.136111 L53.6088889,115.016111 C53.47,116.861667 53.4111111,118.759444 53.3961111,120.655 C53.3872222,124.450556 53.5405556,128.27 53.755,132.091667 L54.4205556,143.580556 C54.5077778,145.508333 54.555,147.413889 54.6661111,149.325556 C54.7788889,151.228333 54.9322222,153.137778 55.1172222,155.042778 C55.4705556,158.855 55.8927778,162.677778 55.9888889,166.556667 C56.0288889,168.490556 55.9844444,170.441667 55.7994444,172.39 L55.6366667,173.850556 C55.5711111,174.326667 55.4661111,174.793333 55.385,175.266667 L54.8638889,178.091111 C54.1811111,181.859444 53.4866667,185.63 52.9311111,189.413333 C52.7838889,190.36 52.665,191.303889 52.5561111,192.248889 L52.2555556,195.113333 L51.9272222,197.963333 C51.8705556,198.888889 51.8294444,199.873333 51.82,200.811667 C51.825,201.749444 51.8272222,202.730556 52.0822222,203.573333 C52.1527778,203.796667 52.2283333,203.897778 52.3955556,204.105 C52.47,204.208333 52.5461111,204.280556 52.62,204.35 C52.6905556,204.426111 52.7694444,204.497778 52.8588889,204.560556 C53.2,204.826667 53.6055556,205.002222 54.0327778,205.057778 C54.9238889,205.151111 55.8477778,204.953333 56.7355556,204.672778 C57.62,204.378333 58.4716667,203.969444 59.2544444,203.467222 C60.0255556,202.969444 60.7633333,202.32 61.2672222,201.631111 C61.7038889,200.852778 61.8894444,199.906667 62.0233333,198.981111 C62.1472222,198.043889 62.1827778,197.112778 62.0822222,196.170556 C62.0016667,195.215 61.9122222,194.262222 61.8505556,193.304444 L61.6305556,190.434444 C61.5633333,189.477222 61.5088889,188.522222 61.3927778,187.567222 C61.3072222,186.602778 61.1727778,185.657222 61.1511111,184.659444 C61.1394444,184.208333 61.1988889,183.616667 61.3527778,183.112222 C61.5305556,182.576111 61.7722222,182.186667 61.8922222,181.783333 C61.955,181.566667 62.0072222,181.378889 62.0311111,181.146111 C62.0472222,180.951111 62.0666667,180.72 62.0611111,180.492778 C62.0472222,180.036667 62.0072222,179.569444 61.9377778,179.101667 C61.8761111,178.630556 61.7988889,178.163889 61.7411111,177.669444 C61.7183333,177.414444 61.685,177.185556 61.715,176.838333 C61.7694444,176.537778 61.8188889,176.352222 61.8683333,176.103889 L62.1577778,174.687778 L62.4011111,173.282778 L62.6394444,171.878889 L62.8294444,170.461111 L63.0194444,169.041667 L63.1138889,168.335556 L63.1622222,167.979444 L63.1861111,167.804444 L63.2211111,167.590556 L63.7227778,164.762222 C64.04,162.881111 64.3538889,160.998333 64.6205556,159.106111 L65.4194444,153.416667 L66.3022222,147.728333 C66.8922222,143.945556 67.4211111,140.165556 67.7405556,136.363889 L67.9488889,133.512778 C68.0066667,132.562222 68.0283333,131.608333 68.0672222,130.656667 C68.175,128.752778 68.125,126.848333 67.9994444,124.973889 C67.7394444,121.192222 66.8466667,117.485556 66.3444444,113.619444 C65.7922222,109.759444 65.8872222,105.756111 66.5027778,101.895556 L67.4272222,96.2266667 C67.7338889,94.3416667 68.0172222,92.4511111 68.2961111,90.56 C69.4216667,82.9927778 70.4044444,75.3933333 71.1661111,67.7761111 C71.9272222,60.1605556 72.4972222,52.5194444 72.7983333,44.8938889 C72.9194444,41.0833333 73.035,37.2672222 72.6016667,33.57 C72.1644444,29.8461111 71.2705556,26.1861111 69.9638889,22.6516667 C68.6938889,19.0994444 66.9927778,15.6988889 65.4727778,12.1438889 C64.7205556,10.3677778 64.0261111,8.52444444 63.6727778,6.58388889 C63.5083333,5.61388889 63.4294444,4.62222222 63.5188889,3.64333333 C63.6,2.66333333 63.8505556,1.71055556 64.2305556,0.828888889 C64.0005556,1.76444444 63.9072222,2.71555556 63.9488889,3.65222222 C63.9994444,4.59055556 64.1666667,5.515 64.43,6.40888889 C64.9511111,8.20555556 65.7888889,9.90277778 66.6455556,11.5966667 C68.4061111,14.9644444 70.275,18.3655556 71.6905556,22.0005556 C73.1066667,25.6277778 74.1211111,29.4488889 74.565,33.3411111 C74.8077778,35.2772222 74.8811111,37.265 74.8533333,39.1933333 C74.8338889,41.1294444 74.7555556,43.055 74.6583333,44.9788889 C74.2361111,52.665 73.4338889,60.2938889 72.6794444,67.93 L71.4911111,79.3766667 C71.0855556,83.19 70.6938889,87.0072222 70.2377778,90.8205556 C70.0116667,92.7266667 69.7766667,94.6311111 69.5227778,96.5383333 C69.2777778,98.4344444 68.95,100.375 68.6777778,102.226111 C68.1066667,105.939444 68.0144444,109.662778 68.2955556,113.419444 C68.5766667,117.176111 69.1483333,121.015556 69.3027778,124.893333 C69.3461111,125.855556 69.3716667,126.853333 69.3616667,127.806667 L69.35,129.253333 L69.285,130.698333 C69.2361111,131.659444 69.2083333,132.625 69.1427778,133.583333 L68.9083333,136.465 C68.5377778,140.296111 68.0277778,144.112222 67.4466667,147.902778 L66.5838889,153.577222 L65.8138889,159.274444 C65.5477778,161.180556 65.2572222,163.080556 64.9266667,164.976111 L64.4216667,167.808333 L64.0333333,170.631667 L63.8383333,172.062222 L63.595,173.487778 L63.35,174.912222 L63.0605556,176.312778 L62.91,176.981111 C62.8966667,177.110556 62.8983333,177.363333 62.9066667,177.585556 L62.9605556,179.015 C62.9694444,179.502778 62.995,179.992222 62.9788889,180.492778 C62.9733333,180.744444 62.9672222,180.991111 62.94,181.275 C62.9172222,181.518333 62.8488889,181.795556 62.7905556,182.043333 C62.6594444,182.565556 62.4177778,183.021667 62.3194444,183.402778 C62.215,183.819444 62.1666667,184.186667 62.1461111,184.692778 L62.0861111,187.528333 C62.1027778,189.442778 62.2572222,191.352222 62.37,193.258889 C62.43,194.214444 62.5205556,195.168889 62.5927778,196.122222 C62.6966667,197.087778 62.6677778,198.081667 62.5422222,199.047222 C62.405,200.007778 62.23,200.987778 61.7388889,201.893889 C61.1161111,202.761667 60.3811111,203.385556 59.5511111,203.932778 C58.7233333,204.462222 57.8288889,204.887222 56.9005556,205.195556 C55.9688889,205.486111 54.9766667,205.708889 53.9511111,205.600556 C53.4294444,205.535 52.9211111,205.313889 52.5105556,204.99 C52.4061111,204.914444 52.3061111,204.825 52.2127778,204.725556 C52.1116667,204.628333 52.0194444,204.531111 51.9538889,204.438333 L51.8438889,204.296111 L51.7861111,204.225556 C51.7494444,204.173333 51.7416667,204.156667 51.7177778,204.121111 C51.6411111,203.993889 51.5905556,203.866111 51.5477778,203.738889 C51.2555556,202.736667 51.2594444,201.770556 51.2461111,200.801111 C51.2511111,199.822778 51.2861111,198.892222 51.335,197.906667 C51.4116667,196.941111 51.5133333,195.995 51.6011111,195.04 C51.7877778,193.155556 51.86,191.208889 52.0944444,189.306667 C52.5011111,185.487222 52.9294444,181.676111 53.38,177.863889 L53.7227778,175.005 L53.9005556,173.581667 L54.1122222,172.190556 C54.3622222,170.331111 54.4827778,168.448333 54.5172222,166.553889 C54.6027778,162.763889 54.3605556,158.942222 54.1244444,155.115556 C54.02,153.201111 53.8811111,151.286667 53.79,149.363333 C53.69,147.447778 53.6461111,145.522778 53.5261111,143.624444 C53.3055556,139.810556 52.8633333,136.003889 52.4722222,132.187222 C52.0916667,128.369444 51.7188889,124.536667 51.62,120.671111 C51.5677778,118.737222 51.6133333,116.798333 51.7522222,114.826111 L52.0427778,111.987222 C52.1238889,111.065 52.155,110.123889 52.1716667,109.183889 C52.2105556,105.412222 51.8972222,101.606667 51.5566667,97.8122222 C51.1916667,94.0166667 50.6977778,90.2272222 50.1338889,86.4488889 C49.5488889,82.6783333 48.9211111,78.8922222 47.9822222,75.2172222 C47.4688889,73.3388889 47.1894444,71.4116667 46.9622222,69.5044444 C46.75,67.59 46.54,65.68 46.3972222,63.7644444 C46.0977778,59.9333333 45.9266667,56.1027778 45.8522222,52.26 L45.8522222,52.2594444 L46.165,52.6361111 C45.6333333,52.6316667 45.1138889,52.555 44.6027778,52.4611111 C44.0888889,52.3566667 43.58,52.2366667 43.0861111,52.0444444 L43.0861111,52.0444444 L43.5544444,51.6305556 C43.6738889,53.5483333 43.5444444,55.4227778 43.3866667,57.2933333 C43.2238889,59.1622222 43.0066667,61.0255556 42.7733333,62.8833333 C42.2988889,66.5988889 41.7294444,70.2966667 41.1211111,73.9877778 C39.8888889,81.3683333 38.5166667,88.7205556 36.8988889,96.0366667 C36.485,97.8716667 36.0672222,99.6827778 35.5511111,101.530556 C35.4261111,102.005 35.2733333,102.426667 35.1511111,102.885 C35.0366667,103.317778 34.8883333,103.741667 34.8105556,104.183333 C34.7166667,104.621111 34.6144444,105.056667 34.5605556,105.502778 L34.4594444,106.167222 L34.395,106.839444 C34.0227778,110.422778 34.5427778,114.136667 34.4883333,117.942778 C34.4822222,118.895 34.4438889,119.845556 34.3672222,120.818889 C34.34,121.311111 34.2705556,121.755 34.2244444,122.224444 C34.1788889,122.718333 34.0916667,123.201667 34.005,123.67 C33.6522222,125.545 33.2116667,127.362222 32.7677778,129.185556 C31.8727778,132.826667 30.9044444,136.437778 29.9488889,140.052778 L27.0766667,150.892222 C26.1383333,154.509444 25.2461111,158.138889 24.3333333,161.760556 L22.9655556,167.19 L21.5788889,172.596111 C21.4711111,173.037778 21.3588889,173.498889 21.2783333,173.9 C21.2538889,173.940556 21.2566667,174.101111 21.2794444,174.257778 C21.295,174.408333 21.3338889,174.571111 21.3861111,174.738889 C21.6055556,175.415 22.0705556,176.162778 22.565,176.926667 C23.0622222,177.692778 23.5983333,178.488889 24.0733333,179.349444 C24.5444444,180.212222 24.9611111,181.149444 25.1322222,182.172222 C25.5044444,184.260556 24.4911111,186.317222 23.0083333,187.603333 C21.5383333,188.927222 19.7677778,189.737778 18.4116667,190.828333 C17.7327778,191.372222 17.1877778,191.967222 16.8866667,192.696667 C16.5344444,193.497778 16.2622222,194.375 15.9811111,195.252778 C15.4127778,197.010556 14.9216667,198.83 14.2283333,200.606111 C14.0588889,201.052778 13.8738889,201.495 13.6588889,201.926667 C13.4477778,202.359444 13.2111111,202.791667 12.8966667,203.185 C12.7316667,203.381667 12.5827778,203.567222 12.3572222,203.745556 C12.16,203.917778 11.9383333,204.036111 11.7344444,204.151111 C11.3144444,204.387222 10.8788889,204.598333 10.4288889,204.766111 C8.62222222,205.455 6.73777778,205.657222 4.92388889,206.029444 C4.01777778,206.198889 3.105,206.470556 2.10555556,206.485 C1.85833333,206.490556 1.6,206.467778 1.33611111,206.408889 C1.07833333,206.348333 0.779444444,206.227778 0.571111111,205.953333 C0.36,205.678889 0.327777778,205.323889 0.377222222,205.053889 C0.422222222,204.773889 0.522777778,204.53 0.636666667,204.301667 C0.866666667,203.848333 1.16555556,203.456667 1.49888889,203.091111 C1.66,202.917222 1.855,202.727778 2.04222222,202.577778 C2.22444444,202.419444 2.38833333,202.294444 2.55333333,202.133889 C3.20333333,201.511111 3.80777778,200.8 4.35777778,200.075556 L4.34166667,200.101111 C4.35333333,200.082778 4.39944444,199.934444 4.42611111,199.831111 C4.45611111,199.711667 4.48388889,199.588333 4.50722222,199.464444 L4.64555556,198.696111 L4.89222222,197.136111 C5.05611111,196.092222 5.22333333,195.046111 5.40944444,194.001111 C5.77944444,191.912222 6.22277778,189.832778 6.78555556,187.771667 C7.06611111,186.723889 7.38111111,185.724444 7.65444444,184.716111 C7.80333333,184.215 7.92444444,183.706111 8.05388889,183.199444 C8.18222222,182.693333 8.31444444,182.187778 8.42055556,181.678333 C8.87888889,179.635 9.21944444,177.63 9.42888889,175.542778 C9.86555556,171.349444 10.2761111,167.151667 10.7394444,162.953889 L12.1294444,150.364444 L15.0872222,125.202222 C15.585,121.006111 16.0461111,116.801667 16.5738889,112.613889 L16.9666667,109.473333 C17.0972222,108.411111 17.1505556,107.401667 17.1933333,106.340556 C17.2433333,104.225556 17.4583333,102.132222 17.6111111,100.048333 C17.7,99.0083333 17.7616667,97.9516667 17.83,96.8966667 C17.845,95.9005556 17.8222222,94.8244444 17.7827778,93.7866667 C17.7005556,91.6938889 17.5538889,89.5983333 17.3888889,87.4988889 C17.0477778,83.2994444 16.6483333,79.0872222 16.3722222,74.8655556 C16.1077778,70.645 15.9283333,66.3994444 15.9211111,62.1733333 C15.9238889,57.9338889 16.0327778,53.7055556 16.2605556,49.4722222 C16.4938889,45.2416667 16.865,41.01 17.4888889,36.8016667 C18.1194444,32.6011111 18.9711111,28.4011111 20.3333333,24.3455556 C21.665,20.3161111 23.0477778,16.3461111 24.5116667,12.3766667 C24.6916667,11.8827778 24.8877778,11.3833333 25.055,10.8944444 C25.2261111,10.42 25.3661111,9.92666667 25.5027778,9.43055556 C25.7633333,8.43222222 25.9427778,7.40388889 26.1016667,6.36888889 C26.4488889,4.305 26.6238889,2.20166667 26.7444444,0.0894444444 Z" id="outerline" fill="#808285"></path>
                <path d="M73.665,57.9088889 C74.0672222,53.6094444 74.4266667,49.3027778 74.6644444,44.9788889 C74.7611111,43.0561111 74.8377778,41.1305556 74.8588889,39.1933333 C74.8894444,37.2677778 74.8133333,35.28 74.5711111,33.3438889 C74.1272222,29.4522222 73.1127778,25.6294444 71.6966667,22.0033333 C71.34,21.0888889 70.9555556,20.1872222 70.5511111,19.3011111 C65.0594444,21.3166667 58.1544444,22.3027778 45.7161111,22.2005556 C34.1733333,22.1061111 26.2138889,19.9138889 22.3283333,18.5344444 C21.6561111,20.4644444 20.9977778,22.4011111 20.3527778,24.3522222 C18.99,28.4077778 18.1383333,32.6077778 17.5077778,36.8083333 C16.8838889,41.015 16.5127778,45.2466667 16.2794444,49.4794444 C16.1727778,51.46 16.0944444,53.4427778 16.0383333,55.4244444 C19.2005556,57.4805556 28.3755556,62.0333333 43.3155556,58.1538889 C43.3427778,57.8688889 43.375,57.5861111 43.4,57.3005556 C43.5433333,55.6155556 43.6483333,53.9261111 43.5861111,52.2061111 C43.925,52.31 44.2688889,52.3977778 44.6161111,52.4677778 C45.0294444,52.545 45.4494444,52.5972222 45.875,52.6216667 C45.8966667,53.6533333 46.0116667,56.9094444 46.0477778,57.9383333 C49.66,60.1394444 61.0927778,62.2911111 73.665,57.9088889 Z" id="default_pants" fill="#808285"></path>
            </g>
            <g id="pants" transform="translate(67.300000, 1.000000)" fill="#808285" fill-rule="nonzero">
                <g id="ankle" transform="translate(0.000000, 112.656716)">
                    <path d="M22.9681642,34.0413433 L20.8663433,41.9952388 C19.9319552,45.5881045 19.0461642,49.1975373 18.1393881,52.7986866 L16.7797761,58.1957164 L16.0519254,61.0369851 C10.0236866,62.829 5.79850746,60.6377164 4.05343284,59.4183731 C4.24008955,57.609791 4.42840299,55.796791 4.62776119,53.986 L6.00946269,41.4717164 L7.1139403,32.0759254 C11.3827463,33.4327761 15.6051642,34.1324627 22.9681642,34.0413433 Z M61.7281493,33.7994627 L60.9909104,39.0192239 L60.1343881,44.6592388 L59.3684328,50.3218955 C59.102806,52.2160746 58.8150896,54.1041791 58.4870597,55.9889701 L57.9845224,58.8048358 L57.7426418,60.5559851 C53.6168657,62.1740448 50.2101045,61.6963582 47.9713284,60.9326119 C48.0613433,59.8154328 48.1187761,58.6927313 48.1397612,57.5656119 C48.224806,53.7982388 47.9840299,49.9993881 47.7493284,46.1944627 C47.6427463,44.2903433 47.5046866,42.3900896 47.4157761,40.4776866 C47.3180299,38.5735672 47.2732985,36.6600597 47.1545672,34.7730597 C47.1219851,34.2191642 47.0767015,33.6652687 47.0363881,33.1113731 C50.6717761,33.994403 55.2967761,34.2014925 61.7281493,33.7994627 Z" id="ankle_1_knees_1_thigh_1"></path>
                    <path d="M26.7,33.8432836 C26.0333333,39.1766169 25.3666667,43.6766169 24.7,47.3432836 C22.3666667,52.6766169 20.0333333,57.8432836 17.7,62.8432836 C16.467854,63.3053383 15.7936616,63.2601978 14.2,63.3432836 C10.6200487,63.5299249 5.40752795,63.6870246 4.2,62.8432836 C4.38665672,61.0347015 4.87497015,55.796791 5.07432836,53.986 L7.2,30.8432836 C14.6552239,32.5 18.9686567,33.5671642 26.7,33.8432836 Z M63.7,33.8432836 C63.7,38.8432836 63.7,43.8432836 63.2,46.8432836 C62.8080183,49.1951739 61.3106053,53.8170644 58.7077612,60.7089552 C54.5819851,62.3270149 49.073403,61.4727015 46.8346269,60.7089552 C46.8640511,60.3437693 45.0705098,52.8964324 43.7,46.8432836 C43.2359328,44.7936318 43.6765521,34.3414799 43.7,34.3432836 C50.2,34.8432836 59.2,34.8432836 63.7,33.8432836 Z" id="ankle_1_knees_1_thigh_2"></path>
                    <path d="M26.0761642,22.1560597 C26.0761642,22.1560597 22.7925522,40.8609403 21.8868806,46.6042239 C20.981209,52.3475075 19.5564328,63.0946269 19.3222836,65.1958955 C19.3222836,65.1958955 14.0671791,70.2146418 3.61771642,63.5640299 L8.27253731,22.1571642 C8.41335821,20.9692985 15.2528358,26.2956418 26.0761642,22.1560597 Z M45.9617313,21.9793433 C45.9617313,21.9793433 48.546209,25.6020299 62.8055672,21.9202537 C62.8055672,21.9202537 62.4532388,34.8216567 62.109194,42.4624328 C61.7651493,50.103209 61.3730597,66.1170299 61.3730597,66.1170299 C61.3730597,66.1170299 52.3522388,71.732194 45.311194,65.6111791 C45.311194,65.6111791 46.3731493,34.549403 46.2781642,40.8973881 C46.1831791,47.2453731 45.9617313,21.9793433 45.9617313,21.9793433 Z" id="ankle_2_knees_1_thigh_1"></path>
                    <path d="M26.6195672,31.3254328 C26.6195672,31.3254328 25.7729851,44.7481493 25.1688358,66.6411045 C25.1688358,66.6411045 14.0677313,70.2146418 3.6188209,63.5640299 L7.41380597,29.4721194 C7.41435821,29.4704627 15.7962388,35.4650149 26.6195672,31.3254328 Z M43.9488209,31.3254328 C43.9488209,31.3254328 50.5160448,35.007209 64.7759552,31.3254328 L65.6926716,65.3792388 C65.6926716,65.3792388 55.5944328,71.4881045 42.3633433,66.0259104 L43.9488209,31.3254328 Z" id="ankle_2_knees_2_thigh_1"></path>
                    <path d="M27.2,29.3432836 C27.8264179,29.2155522 24.7,64.3432836 24.2,64.3432836 C24.2,63.8432836 14.3483582,69.4994925 3.9,62.8477761 L7.637,29.4710149 C7.63644776,29.4704627 16.3761194,33.4828657 27.2,29.3432836 Z M43.2,29.8432836 C44.8209552,30.2155522 49.9400896,33.5250597 64.2,29.8432836 L65.2,64.8432836 C63.8709104,65.0440149 56.1962687,71.1940299 41.7,64.8432836 L43.2,29.8432836 Z" id="ankle_2_knees_1_thigh_2"></path>
                    <path d="M27.0017164,28.0992537 C27.0017164,28.0992537 25.7525522,38.6884328 32.6549851,64.7817164 C32.6549851,64.7817164 13.8667164,74.3724478 1.10834328,61.8824627 C1.10834328,61.8824627 3.36037313,54.2212537 4.85970149,46.512 C6.35902985,38.8038507 7.82301493,25.9902537 7.82301493,25.9902537 C7.82301493,25.9902537 16.1783881,32.2388358 27.0017164,28.0992537 Z M43.9659403,28.5658955 C43.9659403,28.5658955 51.8933284,36.1950746 64.798597,28.5658955 C64.798597,28.5658955 65.2851194,36.607597 67.0798955,43.8424776 C68.8746716,51.0784627 72.8778507,63.9086269 72.8778507,63.9086269 C72.8778507,63.9086269 51.9844478,76.7929104 34.5889254,64.6436567 C34.5889254,64.6436567 39.4801045,53.257597 41.3085672,46.6036716 C43.5578358,38.4123134 43.9659403,28.5658955 43.9659403,28.5658955 Z" id="ankle_3_knees_2_thigh_1"></path>
                    <path d="M37.7772778,62.8779399 C32.7796696,65.4726128 15.6417856,72.8036987 0.7,60.5380746 C0.7,60.5380746 4.46185075,36.2390149 5.39402985,27.9565373 C6.32455224,19.6740597 8.49043284,0.138059701 8.49043284,0.138059701 C8.49043284,0.138059701 17.3306716,3.96949254 31.5900299,0.287716418 C31.5900299,0.287716418 32.1306716,11.6870299 33.0048657,18.8451493 C33.4088614,22.1531672 34.7654664,31.6369289 36.1079316,40.8818895 C37.1160944,35.1012039 38.0469887,29.415208 38.4062836,26.2209552 C39.3384627,17.9384776 41.1404179,1.29952239 41.1404179,1.29952239 C41.1404179,1.29952239 51.655597,4.54723881 65.914403,0.865462687 C65.914403,0.865462687 67.5319104,19.8790448 68.4828657,27.8771194 C69.4349254,35.8762985 74.1173582,59.5391791 74.1173582,59.5391791 C74.1173582,59.5391791 54.6203031,71.4991414 37.7772778,62.8779399 Z" id="ankle_3_knees_2_thigh_2"></path>
                </g>
                <g id="knees" transform="translate(5.522388, 94.567164)">
                    <path d="M58.1562687,0.996895522 L56.6845522,13.2020448 C56.1146418,16.8921045 56.0229701,19.0926567 56.3057164,22.8291045 C56.5823881,26.5616866 57.1539552,30.3804179 57.3063731,34.2350448 C57.3494478,35.1915224 57.3748507,36.1816866 57.3660149,37.1293284 L57.3544179,38.5684627 L57.2903582,40.0037313 C57.241209,40.960209 57.213597,41.917791 57.1484328,42.8726119 L56.9153881,45.7354179 C56.7182388,47.7930597 54.4454478,63.8884478 54.1776119,65.9328358 C47.8136119,67.3487761 46.1175075,66.7333582 42.6776119,65.4328358 C42.4384925,62.1978209 40.9137164,44.7308955 40.5801642,41.4920149 C40.2046418,37.6970299 39.8324328,33.891 39.7330299,30.0435522 C39.6811194,28.121209 39.726403,26.1966567 39.8644627,24.2334478 L40.1543881,21.4115075 C40.2322537,20.4936866 40.2659403,19.5592985 40.2819552,18.6249104 C40.3233731,14.8757612 40.0102537,11.0929254 39.6711791,7.32113433 C39.5010896,5.5760597 39.1763731,3.08877612 38.9593433,1.34646269 C38.9621045,1.38125373 38.9670746,1.41604478 38.9714925,1.45028358 C43.2121343,2.78559701 50.3205522,3.70231343 58.1562687,0.996895522 Z M5.94926866,0.449074627 C5.92662687,-0.125253731 17.5280597,4.11152239 26.0170746,1.27467164 C25.7724328,2.44541791 25.3604627,4.38653731 25.1025672,5.55562687 C24.6911493,7.37856716 24.2758657,9.18162687 23.7617313,11.0156119 C23.6380299,11.4866716 23.4856119,11.9074776 23.3641194,12.3619701 C23.2503582,12.7921642 23.1056716,13.2135224 23.025597,13.6525522 C22.9322687,14.0877164 22.8334179,14.5201194 22.778194,14.9641194 L22.6765821,15.624597 L22.6125224,16.2922537 C22.2425224,19.8547463 22.7605224,23.5453582 22.7052985,27.330403 C22.6992239,28.2763881 22.6622239,29.2212687 22.5849104,30.188791 C22.558403,30.6764179 22.4893731,31.1165522 22.4435373,31.585403 C22.3977015,32.0763433 22.3093433,32.5573433 22.2259552,33.0228806 C21.8741791,34.8866866 21.4362537,36.6930597 20.9950149,38.5055075 C20.1053582,42.1237761 19.1450149,45.7133284 18.1929552,49.3078507 L14.1776119,63.9328358 C6.81847761,65.3084627 3.90765672,64.1453284 0.67761194,62.4328358 L3.42001493,34.5492687 C3.91592537,30.378209 4.37428358,26.1988657 4.89891045,22.0360896 L5.28934328,18.9148358 C5.41801493,17.8589552 5.47213433,16.8538806 5.51355224,15.800209 C5.56435821,13.6994925 5.77807463,11.6175522 5.92883582,9.54610448 C6.01885075,8.51231343 6.08014925,7.45974627 6.14752239,6.41270149 C6.16408955,5.42253731 5.98847761,1.479 5.94926866,0.449074627 Z" id="knees_1_thigh_1"></path>
                    <path d="M38.1776119,62.9328358 C37.6839104,55.4947313 38.9582388,1.34701493 38.9582388,1.34701493 C38.9626567,1.38180597 50.3211045,3.70231343 58.1568209,0.996895522 C59.720209,46.2854478 59.1776119,62.9328358 59.1776119,62.9328358 C51.9228507,66.0623731 43.1776119,64.9328358 38.1776119,62.9328358 Z M23.164209,16.2933582 C23.1106418,37.3259254 19.6781642,61.9328358 19.6776119,61.9328358 C12.3184776,63.3079104 3.90765672,62.1453284 0.67761194,60.4328358 L3.42001493,34.5492687 C3.91592537,30.378209 4.37428358,26.1988657 4.89891045,22.0360896 L5.28934328,18.9148358 C5.41801493,17.8589552 5.47213433,16.8538806 5.51355224,15.800209 C5.56435821,13.6994925 5.77807463,11.6175522 5.92883582,9.54610448 C6.01885075,8.51231343 6.08014925,7.45974627 6.14752239,6.41270149 C6.16408955,5.42253731 5.98847761,1.479 5.94926866,0.449074627 C5.92662687,-0.124701493 17.5291642,4.11152239 26.0159701,1.27577612 C25.7713284,2.44652239 25.3593582,4.38764179 25.1014627,5.55673134 C24.6900448,7.37967164 23.6573582,13.2146269 23.5772836,13.6536567 C23.4839552,14.0888209 23.3851045,14.5212239 23.3298806,14.9652239 L23.2282687,15.6257015 L23.164209,16.2933582 Z" id="knees_2_thigh_1"></path>
                    <path d="M38.1776119,64.9328358 C38.7778955,53.5782537 33.6776119,4.93283582 34.6776119,4.43283582 C35.6776119,3.93283582 52.1776119,5.43283582 60.6776119,3.43283582 C60.4252388,10.3910448 57.6776119,64.9328358 57.6776119,64.9328358 C50.4222985,68.0623731 48.8888358,69.2662537 38.1776119,64.9328358 Z M3.97761194,1.93283582 C11.4776119,3.43283582 19.6776119,4.43283582 27.6776119,2.93283582 C28.1776119,3.93283582 19.6776119,65.4328358 19.1776119,65.4328358 C11.8190299,66.8073582 4.00655255,65.1269254 0.777612254,63.4144328 C0.776507776,63.4144328 3.20061194,15.1622687 3.97761194,1.93283582 Z" id="knees_1_thigh_2"></path>
                    <path d="M32.5776119,65.3384328 C32.8585573,60.0242499 35.966882,49.3772864 35.5175573,38.3928583 C35.0068297,25.9073398 34.1776119,3.43283582 34.6776119,4.43283582 C34.6814776,4.46707463 52.840791,5.13714925 60.6776119,2.43283582 C60.5693164,5.41866592 60.4976204,27.1845759 60.239058,37.405236 C60.1089725,42.5473605 60.9381596,47.6182842 61.2940299,51.9328358 C61.8792115,59.0275474 62.1788041,64.0820896 62.1788041,64.0820896 C54.9234907,67.2116269 43.2888358,69.6718507 32.5776119,65.3384328 Z M4.17761194,1.93283582 C8.67761194,2.93283582 19.1776119,7.43283582 27.6776119,5.43283582 C27.5689572,5.9504719 26.9134979,25.6718841 25.6005129,36.6124607 C25.0371939,41.3063718 25.6426147,45.1967404 25.9309143,48.619403 C26.4904497,55.2621478 27.5280588,60.0842063 28.229269,65.1865672 C20.8706869,66.5610896 3.70655255,65.1269254 0.477612254,63.4144328 C0.476507776,63.4144328 3.17761194,4.43283582 4.17761194,1.93283582 Z" id="knees_2_thigh_2"></path>
                </g>
                <g id="thigh" transform="translate(6.074627, 22.880597)">
                    <path d="M66.9854627,45.2145522 C64.8709403,31.5814328 63.3014776,20.0584179 61.6756866,12.5048955 C60.7164478,8.04832836 59.3844478,4.98616418 58.8603731,3.64808955 C58.5052836,2.73910448 58.1236866,1.8428209 57.7216567,0.962 C52.2638806,2.96552239 45.4001045,3.94574627 33.0354776,3.84413433 C21.5621642,3.75025373 13.6496866,1.5711194 9.7878806,0.199910448 C9.11967164,2.11838806 8.46526866,4.04349254 7.8241194,5.98295522 C6.46947761,10.0142985 5.62289552,14.1892239 4.99610448,18.3647015 C4.43889552,22.1232388 3.81873134,27.1916866 3.3968209,30.6862537 C2.96386567,34.287403 1.33531343,41.3737313 0.0237462687,47.103209 C0.0237462687,47.103209 17.4397015,54.2469701 31.4439254,48.5329552 L31.8835075,33.9140896 C31.9039403,33.9185075 31.9238209,33.9256866 31.9442537,33.9295522 C31.9508806,33.9306567 31.956403,33.931209 31.9630299,33.9323134 L33.5021194,34.0819701 L32.6284776,48.6660448 C34.7590149,49.4883284 51.3427463,53.1910896 66.9854627,45.2145522 Z" id="thigh_0"></path>
                    <path d="M61.9214328,15.9192836 C61.480194,12.0508507 60.471806,8.25089552 59.0641493,4.64643284 C58.7090597,3.73744776 58.3274627,2.84116418 57.9254328,1.96034328 C52.4676567,3.96386567 45.6027761,4.94408955 33.2387015,4.84247761 C21.7653881,4.74859701 13.8529104,2.56891045 9.99110448,1.19825373 C9.32234328,3.11673134 8.6679403,5.04183582 8.02679104,6.98129851 C6.67214925,11.0126418 5.82556716,15.1875672 5.19877612,19.3630448 C4.57861194,23.544597 4.20971642,27.751 3.97777612,31.9585075 C3.75135821,36.1665672 3.64422388,40.3691045 3.64091045,44.5832388 C3.64864179,48.7824627 3.82756716,53.0043284 4.08932836,57.2002388 C4.36379104,61.397806 4.76029851,65.5848806 5.10047761,69.757597 C5.22583582,71.334791 5.328,72.9097761 5.41083582,74.4853134 C9.43941791,75.9437761 16.7477463,77.5695672 25.2356567,74.7327164 C26.5212687,68.6199851 27.6594328,62.4829552 28.6849403,56.3271493 C29.290194,52.6569701 29.8551343,48.9801642 30.3278507,45.289 C30.5608955,43.4423134 30.7757164,41.5917612 30.9375224,39.7323731 C31.08,38.0579851 31.1854776,36.3786269 31.1219701,34.6683433 C31.4604925,34.7721642 31.8012239,34.8594179 32.1474776,34.929 C32.5583433,35.0057612 32.9758358,35.0576716 33.3977463,35.0819701 C33.4783731,38.7836269 33.6434925,42.4758955 33.9328657,46.1648507 C34.0753433,48.0689701 34.2835373,49.9675672 34.4939403,51.8705821 C34.7203582,53.7675224 34.9975821,55.6821343 35.5078507,57.5492537 C36.4416866,61.2028657 37.0662687,64.9658209 37.6466716,68.7138657 C37.9542687,70.7665373 38.2331493,72.8225224 38.4888358,74.8812687 C42.7311343,76.2165821 49.5866269,77.3337612 57.4223433,74.6283433 C57.4858507,74.1031642 57.5570896,73.5779851 57.6194925,73.052806 C58.0717761,69.2638955 58.4594478,65.4694627 58.8653433,61.6766866 L60.0454776,50.2989104 C60.7959701,42.7094925 61.5956119,35.1239403 62.0136567,27.4848209 C62.1097463,25.5735224 62.1859552,23.6594627 62.2058358,21.733806 C62.236209,19.821403 62.1616567,17.8454925 61.9214328,15.9192836 Z" id="thigh_1"></path>
                    <path d="M60.0073731,76.2894776 C61.0682239,65.7643582 62.3068955,47.9148955 62.6189104,37.7929104 C63.1065373,21.9734776 62.0053731,17.636194 62.0053731,17.636194 L61.8849851,17.7002537 C61.840806,17.1038358 61.7872388,16.5085224 61.713791,15.9181791 C61.269791,12.0508507 60.2619552,8.25089552 58.8537463,4.64643284 C58.4986567,3.73744776 58.1159552,2.84116418 57.7150299,1.96034328 C52.2572537,3.96386567 45.3918209,4.94408955 33.0282985,4.84247761 C21.5538806,4.74859701 13.6425075,2.56891045 9.78070149,1.19825373 C9.11304478,3.11673134 8.45753731,5.04183582 7.81528358,6.98129851 C6.46174627,11.0126418 5.61626866,15.1875672 4.98837313,19.3630448 C4.4300597,23.1215821 4.08270149,26.8983433 3.84965672,30.6751045 L3.83861194,30.674 C3.83861194,30.674 3.83750746,30.7408209 3.83529851,30.8672836 C3.81431343,31.2306567 3.78559701,31.5934776 3.76571642,31.9585075 C3.54150746,36.1665672 3.43216418,40.3691045 3.43050746,44.5832388 C3.43161194,45.4745522 3.44320896,46.3669701 3.46143284,47.2621493 C3.22783582,54.5522537 3.90929851,66.4822687 3.31508955,76.2900299 C6.78756716,78.2339104 14.1997164,81.387194 26.8636567,79.0396269 C29.116791,62.8750448 31.8763284,34.9146418 31.8763284,34.9146418 C31.8967612,34.9190597 31.9166418,34.9262388 31.9370746,34.9301045 C31.9437015,34.931209 31.9486716,34.9317612 31.9552985,34.9328657 L34.0510448,77.9224478 C37.5351194,79.4687164 47.6885821,85.4489104 60.0073731,76.2894776 Z" id="thigh_2"></path>
                </g>
                <g id="rise" transform="translate(13.805970, 0.000000)">
                    <path d="M52.352791,29.2622687 C52.0540299,28.3400299 51.7271045,27.4271791 51.3747761,26.5270299 C51.0202388,25.6180448 50.6375373,24.7217612 50.2360597,23.8409403 C44.7782836,25.8444627 37.9128507,26.8246866 25.5493284,26.7230746 C14.0749104,26.629194 6.16353731,24.4495075 2.30173134,23.0788507 C1.63407463,24.9973284 0.978567164,26.9224328 0.336313433,28.8618955 C0.334656716,28.8679701 0.332447761,28.8734925 0.330791045,28.8795672 C4.95855224,30.9935373 24.9479403,38.7315075 52.352791,29.2622687 Z" id="rise_0"></path>
                    <path d="M45.3847654,10.9619403 C45.3739372,10.9652537 45.3641917,10.9685672 45.3533635,10.9724328 C44.959215,10.0214776 44.6170919,8.77976119 44.3940299,8 C44.2732948,7.58747761 44.2624167,2.22110448 44.7253247,0.830567164 C26.745548,7.61702985 9.39402985,1.5 6.39402985,0.5 C6.39402985,2 6.39402985,3 6.39402985,5 C6.39402985,5.46811319 6.41942807,6.64999326 6.39402985,8 C6.3651715,9.53392554 6.2797253,11.2466251 6.17835975,11.6886866 C6.09931349,11.9609403 6.01701874,12.2304328 5.92443716,12.4938507 C5.76147192,12.9798209 5.57143604,13.4762836 5.39439406,13.9672239 C4.81670664,15.5665075 3.96181587,18.0830597 3.28396709,20.0810597 C3.25743786,20.1561642 3.23307429,20.2323731 3.20600365,20.3080299 C3.05061818,20.7674925 2.90443674,21.1943731 2.7755805,21.5726567 C2.77882897,21.573209 2.78261886,21.5743134 2.78478451,21.5754179 C2.30292715,23.0007463 1.82323544,24.4255224 1.35599622,25.8635522 C1.35437198,25.8707313 1.35220633,25.8751493 1.35058209,25.8812239 C5.88545544,27.995194 24.5264212,35.9692388 51.3940299,26.5 C51.2453512,26.0284143 45.5488366,11.327465 45.3847654,10.9619403 Z" id="rise_1"></path>
                </g>
            </g>
            <g id="pants_HL" transform="translate(68.000000, 0.000000)">
                <g id="ankle_HL" transform="translate(0.000000, 22.880597)" fill-rule="nonzero">
                    <g id="ankle_0_HL" transform="translate(4.417910, 0.198254)">
                        <path d="M40.1712712,73.6910975 C40.1626876,73.6884042 40.1541146,73.68571 40.1455522,73.6830149 C39.8898657,71.6242687 39.3896866,69.4738209 39.0820896,67.4211493 C38.5016866,63.6731045 37.5159254,60.0747612 36.5820896,56.4211493 C36.0718209,54.5540299 35.8085075,52.8180896 35.5820896,50.9211493 C35.3716866,49.0181343 35.2245672,46.8252687 35.0820896,44.9211493 C34.7927164,41.232194 35.1350896,37.5853731 35.0544627,33.8837164 C34.6325522,33.8594179 34.2150597,33.8075075 33.804194,33.7307463 C33.4579403,33.6611642 33.117209,33.5739104 32.7786866,33.4700896 C32.842194,35.1803731 32.7367164,36.8597313 32.5942388,38.5341194 C32.4324328,40.3935075 32.2176119,42.2440597 31.9845672,44.0907463 C31.5118507,47.7819104 30.9469104,51.4587164 30.3416567,55.1288955 C29.3579365,61.0338656 28.2705535,66.9215585 27.0487988,72.7870999 C27.0730751,72.779119 27.0973263,72.7710809 27.1215522,72.7629851 C26.8769104,73.9337313 26.4649403,75.8748507 26.2070448,77.0439403 C25.7956269,78.8668806 25.3803433,80.6699403 24.866209,82.5039254 C24.7425075,82.9749851 24.5900896,83.395791 24.468597,83.8502836 C24.3548358,84.2804776 24.2101493,84.7018358 24.1300746,85.1408657 C24.0367463,85.5760299 23.9378955,86.0084328 23.8826716,86.4524328 L23.7810597,87.1129104 L23.717,87.7805672 C23.347,91.3430597 23.865,95.0336716 23.8097761,98.8187164 C23.8037015,99.7647015 23.7667015,100.709582 23.6893881,101.677104 C23.6628806,102.164731 23.5938507,102.604866 23.5480149,103.073716 C23.5021791,103.564657 23.4138209,104.045657 23.3304328,104.511194 C22.9786567,106.375 22.5407313,108.181373 22.0994925,109.993821 C21.2098358,113.61209 20.2494925,117.201642 19.2974328,120.796164 L18.5497015,123.618104 C11.1905672,124.993731 5.92,123.363522 2.68995522,121.65103 L4.52449254,106.037582 C5.02040299,101.866522 5.47876119,97.6871791 6.00338806,93.524403 L6.3938209,90.4031493 C6.52249254,89.3472687 6.57661194,88.342194 6.61802985,87.2885224 C6.66883582,85.187806 6.88255224,83.1058657 7.03331343,81.0344179 C7.12332836,80.0006269 7.18462687,78.9480597 7.252,77.9010149 C7.26407182,77.1795224 7.17410717,74.8899521 7.10922719,73.3021109 C7.09529682,73.297092 7.08140514,73.2920748 7.06755224,73.2870597 C6.98471642,71.7115224 6.88255224,70.1365373 6.75719403,68.5593433 C6.41701493,64.3866269 6.02050746,60.1995522 5.74604478,56.0019851 C5.48428358,51.8060746 5.30535821,47.584209 5.29762687,43.3849851 C5.3009403,39.1708507 5.40807463,34.9683134 5.63449254,30.7602537 C5.86643284,26.5527463 6.23532836,22.3463433 6.85549254,18.164791 C7.48228358,13.9893134 8.32886567,9.81438806 9.68350746,5.78304478 C10.3246567,3.84358209 10.9790597,1.91847761 11.6478209,0 C15.5096269,1.37065672 23.4221045,3.55034328 34.8954179,3.64422388 C47.2594925,3.74583582 53.1243134,3.42467164 58.5820896,1.42114925 C58.7732235,1.83991118 60.8686983,5.73005849 62.0820896,9.92114925 C63.420937,14.5455694 63.7664627,24.3752687 63.6703731,26.2865672 C63.2523284,33.9256866 62.4526866,41.5112388 61.702194,49.1006567 L60.5220597,60.4784328 C60.1161642,64.271209 59.7284925,68.0656418 59.276209,71.8545522 C59.2503373,72.0722865 59.2229468,72.2900208 59.1952183,72.5077551 C59.2170552,72.5002678 59.2388979,72.4927525 59.2607463,72.485209 L58.6289851,77.5370896 C58.3854478,79.4207761 58.0590746,81.3502985 57.7890299,83.1903582 C57.2191194,86.8804179 57.1274478,90.5809701 57.410194,94.3174179 C57.6868657,98.05 58.2584328,101.868731 58.4108507,105.723358 C58.4539254,106.679836 58.4793284,107.67 58.4704925,108.617642 L58.4588955,110.056776 L58.3948358,111.492045 C58.3456866,112.448522 58.3180746,113.406104 58.2529104,114.360925 L58.0198657,117.223731 C57.8227164,119.281373 57.3499254,121.376761 57.0820896,123.421149 C50.7180896,124.83709 46.0567164,123.988104 42.6168209,122.687582 C42.3777015,119.452567 42.018194,116.219209 41.6846418,112.980328 C41.3091194,109.185343 40.9369104,105.379313 40.8375075,101.531866 C40.785597,99.6095224 40.8308806,97.6849701 40.9689403,95.7217612 L41.2588657,92.8998209 C41.3367313,91.982 41.3704179,91.0476119 41.3864328,90.1132239 C41.4278507,86.3640746 41.1147313,82.5812388 40.7756567,78.8094478 C40.6318722,77.3342562 40.3775899,75.328675 40.1712712,73.6910975 Z" id="ankle_0_HL_1" fill="#808285"></path>
                        <path d="M17.6716418,122.719526 L15.7079541,130.72224 C14.8349746,134.337158 14.0073984,137.968744 13.1602163,141.591996 L11.889959,147.022152 L11.2099431,149.880859 C5.57788442,151.683873 1.63038709,149.47914 0,148.252313 C0.174389505,146.43263 0.350326845,144.608502 0.536583091,142.786597 L1.82747818,130.195505 L2.85936874,120.742045 C6.84762576,122.107223 10.7925434,122.811205 17.6716418,122.719526 Z M57.0820896,122.921149 L55.6355688,128.345944 L54.8306876,134.023507 L54.1109131,139.723863 C53.8613013,141.630652 53.5909318,143.531327 53.2826794,145.428666 L52.8104409,148.263278 L52.5831437,150.026086 C48.7061176,151.654918 45.5047558,151.174051 43.4009592,150.40522 C43.485547,149.280603 43.5395171,148.150428 43.559237,147.015804 C43.6391543,143.22335 43.4128949,139.399208 43.192344,135.568952 C43.0921879,133.652155 42.9624521,131.739251 42.8789022,129.814116 C42.7870492,127.89732 42.7450148,125.971073 42.6334419,124.07151 C42.6028243,123.513927 42.1199724,122.478732 42.0820896,121.921149 C45.4982939,122.810058 51.0384747,123.325856 57.0820896,122.921149 Z" id="ankle_0_HL_0" fill="#582ADF" opacity="0.300000012"></path>
                    </g>
                    <path d="M22.2681642,124.817463 L20.1663433,132.771358 C19.2319552,136.364224 18.3461642,139.973657 17.4393881,143.574806 L16.0797761,148.971836 L15.3519254,151.813104 C9.32368657,153.605119 5.09850746,151.413836 3.35343284,150.194493 C3.54008955,148.38591 3.72840299,146.57291 3.92776119,144.762119 L5.30946269,132.247836 L6.4139403,122.852045 C10.6827463,124.208896 14.9051642,124.908582 22.2681642,124.817463 Z M61.0281493,124.575582 L60.2909104,129.795343 L59.4343881,135.435358 L58.6684328,141.098015 C58.402806,142.992194 58.1150896,144.880299 57.7870597,146.76509 L57.2845224,149.580955 L57.0426418,151.332104 C52.9168657,152.950164 49.5101045,152.472478 47.2713284,151.708731 C47.3613433,150.591552 47.4187761,149.468851 47.4397612,148.341731 C47.524806,144.574358 47.2840299,140.775507 47.0493284,136.970582 C46.9427463,135.066463 46.8046866,133.166209 46.7157761,131.253806 C46.6180299,129.349687 46.5732985,127.436179 46.4545672,125.549179 C46.4219851,124.995284 46.3767015,124.441388 46.3363881,123.887493 C49.9717761,124.770522 54.5967761,124.977612 61.0281493,124.575582 Z" id="ankle_1_knees_1_thigh_1_HL" fill="#582ADF"></path>
                    <path d="M26,124.619403 C25.3333333,129.952736 24.6666667,134.452736 24,138.119403 C21.6666667,143.452736 19.3333333,148.619403 17,153.619403 C15.767854,154.081458 15.0936616,154.036317 13.5,154.119403 C9.92004875,154.306044 4.70752795,154.463144 3.5,153.619403 C3.68665672,151.810821 4.17497015,146.57291 4.37432836,144.762119 L6.5,121.619403 C13.9552239,123.276119 18.2686567,124.343284 26,124.619403 Z M63,124.619403 C63,129.619403 63,134.619403 62.5,137.619403 C62.1080183,139.971293 60.6106053,144.593184 58.0077612,151.485075 C53.8819851,153.103134 48.373403,152.248821 46.1346269,151.485075 C46.1640511,151.119889 44.3705098,143.672552 43,137.619403 C42.5359328,135.569751 42.9765521,125.117599 43,125.119403 C49.5,125.619403 58.5,125.619403 63,124.619403 Z" id="ankle_1_knees_1_thigh_2_HL" fill="#582ADF"></path>
                    <path d="M25.3761642,112.932179 C25.3761642,112.932179 22.0925522,131.63706 21.1868806,137.380343 C20.281209,143.123627 18.8564328,153.870746 18.6222836,155.972015 C18.6222836,155.972015 13.3671791,160.990761 2.91771642,154.340149 L7.57253731,112.933284 C7.71335821,111.745418 14.5528358,117.071761 25.3761642,112.932179 Z M45.2617313,112.755463 C45.2617313,112.755463 47.846209,116.378149 62.1055672,112.696373 C62.1055672,112.696373 61.7532388,125.597776 61.409194,133.238552 C61.0651493,140.879328 60.6730597,156.893149 60.6730597,156.893149 C60.6730597,156.893149 51.6522388,162.508313 44.611194,156.387299 C44.611194,156.387299 45.6731493,125.325522 45.5781642,131.673507 C45.4831791,138.021493 45.2617313,112.755463 45.2617313,112.755463 Z" id="ankle_2_knees_1_thigh_1_HL" fill="#582ADF"></path>
                    <path d="M25.9195672,122.101552 C25.9195672,122.101552 25.0729851,135.524269 24.4688358,157.417224 C24.4688358,157.417224 13.3677313,160.990761 2.9188209,154.340149 L6.71380597,120.248239 C6.71435821,120.246582 15.0962388,126.241134 25.9195672,122.101552 Z M43.2488209,122.101552 C43.2488209,122.101552 49.8160448,125.783328 64.0759552,122.101552 L64.9926716,156.155358 C64.9926716,156.155358 54.8944328,162.264224 41.6633433,156.80203 L43.2488209,122.101552 Z" id="ankle_2_knees_2_thigh_1_HL" fill="#582ADF"></path>
                    <path d="M26.5,120.119403 C27.1264179,119.991672 24,155.119403 23.5,155.119403 C23.5,154.619403 13.6483582,160.275612 3.2,153.623896 L6.937,120.247134 C6.93644776,120.246582 15.6761194,124.258985 26.5,120.119403 Z M42.5,120.619403 C44.1209552,120.991672 49.2400896,124.301179 63.5,120.619403 L64.5,155.619403 C63.1709104,155.820134 55.4962687,161.970149 41,155.619403 L42.5,120.619403 Z" id="ankle_2_knees_1_thigh_2_HL" fill="#582ADF"></path>
                    <path d="M26.1933731,117.875373 C26.1933731,117.875373 24.944209,128.464552 31.8466418,154.557836 C31.8466418,154.557836 13.0583731,164.148567 0.3,151.658582 C0.3,151.658582 2.55202985,143.997373 4.05135821,136.288119 C5.55068657,128.57997 6.5,117.619403 7.5,115.119403 C13.4853284,117.472433 16,120.619403 26.1933731,117.875373 Z M42.9659403,118.342015 C42.9659403,118.342015 50.8933284,125.971194 63.798597,118.342015 C63.798597,118.342015 64.2851194,126.383716 66.0798955,133.618597 C67.8746716,140.854582 71.8778507,153.684746 71.8778507,153.684746 C71.8778507,153.684746 50.9844478,166.56903 33.5889254,154.419776 C33.5889254,154.419776 38.4801045,143.033716 40.3085672,136.379791 C42.5578358,128.188433 42.9659403,118.342015 42.9659403,118.342015 Z" id="ankle_3_knees_2_thigh_1_HL" fill="#582ADF"></path>
                    <path d="M37.2269357,153.628226 C32.2941488,156.199553 15.0916797,163.620776 0.1,151.314194 C0.1,151.314194 3.86185075,127.015134 4.79402985,118.732657 C5.72455224,110.450179 7.89043284,90.9141791 7.89043284,90.9141791 C7.89043284,90.9141791 16.7306716,94.7456119 30.9900299,91.0638358 C30.9900299,91.0638358 31.5306716,102.463149 32.4048657,109.621269 C32.8134173,112.966592 34.1961849,122.627734 35.5533424,131.97068 C36.5823498,126.083114 37.5405124,120.248904 37.9062836,116.997075 C38.8384627,108.714597 40.6404179,92.0756418 40.6404179,92.0756418 C40.6404179,92.0756418 51.155597,95.3233582 65.414403,91.6415821 C65.414403,91.6415821 67.0319104,110.655164 67.9828657,118.653239 C68.9349254,126.652418 73.6173582,150.315299 73.6173582,150.315299 C73.6173582,150.315299 54.0814278,162.299108 37.2269357,153.628226 Z" id="ankle_3_knees_2_thigh_2_HL" fill="#582ADF"></path>
                </g>
                <g id="knees_HL" transform="translate(4.522388, 24.880597)" fill-rule="nonzero">
                    <g id="knees_0_HL" transform="translate(0.656716, 0.198254)">
                        <path d="M57.3283582,72.6972687 L56.7054716,76.7784037 C56.4653554,78.7119547 56.1435669,80.692555 55.8773156,82.5813242 C55.3154109,86.3690662 55.225027,90.1675786 55.5038014,94.0029366 C55.7765865,97.8343266 56.3401247,101.754146 56.4904015,105.710812 C56.532871,106.692609 56.5579172,107.708985 56.5492055,108.681712 L56.5377714,110.158943 L56.4746115,111.632206 C56.4261527,112.614003 56.3989286,113.596934 56.3346798,114.577031 L56.1049087,117.51562 C55.9105289,119.627731 54.084969,134.822643 53.8208955,136.921149 C47.5462931,138.374572 45.7124695,137.756099 42.3208955,136.421149 C42.0851351,133.100498 40.3280187,116.484506 39.999152,113.159887 C39.6289047,109.264442 39.2619244,105.35766 39.1639177,101.408363 C39.1127365,99.4351323 39.1573839,97.4596338 39.2935043,95.4444553 L39.5793569,92.5478133 C39.6561288,91.6056961 39.6893422,90.6465732 39.7051321,89.6874502 C39.7459682,85.8390545 39.4372473,81.9560804 39.1029358,78.0844435 C38.9352356,76.2931737 39.0423394,74.4857042 38.8283582,72.6972687 C38.8310806,72.7329807 39.2436384,72.507998 38.8283582,72.4211493 C43.0094301,73.7918108 49.6027131,75.4743037 57.3283582,72.6972687 Z M5.28234539,72.7215595 C5.26817268,72.3472825 9.80694071,74.0339864 15.2863899,74.2695635 C18.4377396,74.4050489 21.9197833,73.784794 24.9758226,72.7215595 C24.7346174,73.9232974 24.4410087,75.0721626 24.186736,76.2721999 C23.7810974,78.1433966 23.3716475,79.9941865 22.8647354,81.8767203 C22.7427716,82.3602498 22.5924947,82.7921952 22.4727088,83.258719 C22.3605457,83.700301 22.2178916,84.1328133 22.1389418,84.583465 C22.0469245,85.0301488 21.9494623,85.4739982 21.8950142,85.9297517 L21.7948296,86.6077133 L21.7316698,87.293044 C21.3668673,90.9498419 21.8775908,94.7381508 21.8231427,98.6233923 C21.8171534,99.5944193 21.7806731,100.564312 21.7044457,101.557447 C21.6783106,102.057982 21.6102505,102.509768 21.5650585,102.99103 C21.5198666,103.494966 21.4327496,103.988699 21.3505329,104.46656 C21.0036983,106.379704 20.5719246,108.233895 20.1368841,110.094321 C19.2597247,113.808372 18.3128717,117.492946 17.374186,121.182621 L13.8208955,134.921149 C6.56513778,136.333191 3.50556662,135.178974 0.320895522,133.421149 L2.80876686,106.033354 C3.29771107,101.751879 3.74963054,97.4619012 4.26688777,93.1889292 L4.65183605,89.9850504 C4.77870019,88.9012188 4.83205936,87.8695381 4.87289545,86.787974 C4.92298773,84.6316479 5.13370199,82.494595 5.28234539,80.3683124 C5.37109584,79.3071552 5.43153326,78.2267247 5.49795998,77.1519628 C5.51429442,76.1355873 5.32100356,73.7787488 5.28234539,72.7215595 Z" id="knees_0_HL_1" fill="#582ADF" opacity="0.200000003"></path>
                        <path d="M61.8169552,14.7210299 C61.3757164,10.852597 60.3673284,7.05264179 58.9596716,3.4481791 C58.6045821,2.53919403 58.2229851,1.64291045 57.8209552,0.762089552 C52.3631791,2.76561194 45.4982985,3.74583582 33.1342239,3.64422388 C21.6609104,3.55034328 13.7484328,1.37065672 9.88662687,0 C9.21786567,1.91847761 8.56346269,3.84358209 7.92231343,5.78304478 C6.56767164,9.81438806 5.72108955,13.9893134 5.09429851,18.164791 C4.47413433,22.3463433 4.10523881,26.5527463 3.87329851,30.7602537 C3.6468806,34.9683134 3.53974627,39.1708507 3.53643284,43.3849851 C3.54416418,47.584209 3.72308955,51.8060746 3.98485075,56.0019851 C4.25931343,60.1995522 4.6558209,64.3866269 4.996,68.5593433 C5.12135821,70.1365373 5.22352239,71.7115224 5.30635821,73.2870597 C9.3349403,74.7455224 16.6432687,76.3713134 25.1311791,73.5344627 C26.416791,67.4217313 27.5549552,61.2847015 28.5804627,55.1288955 C29.1857164,51.4587164 29.7506567,47.7819104 30.2233731,44.0907463 C30.4564179,42.2440597 30.6712388,40.3935075 30.8330448,38.5341194 C30.9755224,36.8597313 31.081,35.1803731 31.0174925,33.4700896 C31.3560149,33.5739104 31.6967463,33.6611642 32.043,33.7307463 C32.4538657,33.8075075 32.8713582,33.8594179 33.2932687,33.8837164 C33.3738955,37.5853731 33.5390149,41.2776418 33.8283881,44.966597 C33.9708657,46.8707164 34.1790597,48.7693134 34.3894627,50.6723284 C34.6158806,52.5692687 34.8931045,54.4838806 35.4033731,56.351 C36.337209,60.0046119 36.961791,63.7675672 37.542194,67.5156119 C37.849791,69.5682836 38.1286716,71.6242687 38.3843582,73.6830149 C42.6266567,75.0183284 49.4821493,76.1355075 57.3178657,73.4300896 C57.3813731,72.9049104 57.4526119,72.3797313 57.5150149,71.8545522 C57.9672985,68.0656418 58.3549701,64.271209 58.7608657,60.4784328 L59.941,49.1006567 C60.6914925,41.5112388 61.4911343,33.9256866 61.9091791,26.2865672 C62.0052687,24.3752687 62.0814776,22.461209 62.1013582,20.5355522 C62.1317313,18.6231493 62.0571791,16.6472388 61.8169552,14.7210299 Z" id="thigh_0_HL_2" fill="#808285"></path>
                    </g>
                    <path d="M58.4562687,71.6834627 L56.9845522,83.8886119 C56.4146418,87.5786716 56.3229701,89.7792239 56.6057164,93.5156716 C56.8823881,97.2482537 57.4539552,101.066985 57.6063731,104.921612 C57.6494478,105.87809 57.6748507,106.868254 57.6660149,107.815896 L57.6544179,109.25503 L57.5903582,110.690299 C57.541209,111.646776 57.513597,112.604358 57.4484328,113.559179 L57.2153881,116.421985 C57.0182388,118.479627 54.7454478,134.575015 54.4776119,136.619403 C48.1136119,138.035343 46.4175075,137.419925 42.9776119,136.119403 C42.7384925,132.884388 41.2137164,115.417463 40.8801642,112.178582 C40.5046418,108.383597 40.1324328,104.577567 40.0330299,100.730119 C39.9811194,98.8077761 40.026403,96.8832239 40.1644627,94.9200149 L40.4543881,92.0980746 C40.5322537,91.1802537 40.5659403,90.2458657 40.5819552,89.3114776 C40.6233731,85.5623284 40.3102537,81.7794925 39.9711791,78.0077015 C39.8010896,76.2626269 39.4763731,73.7753433 39.2593433,72.0330299 C39.2621045,72.0678209 39.2670746,72.1026119 39.2714925,72.1368507 C43.5121343,73.4721642 50.6205522,74.3888806 58.4562687,71.6834627 Z M6.24926866,71.1356418 C6.22662687,70.5613134 17.8280597,74.7980896 26.3170746,71.9612388 C26.0724328,73.1319851 25.6604627,75.0731045 25.4025672,76.242194 C24.9911493,78.0651343 24.5758657,79.868194 24.0617313,81.7021791 C23.9380299,82.1732388 23.7856119,82.5940448 23.6641194,83.0485373 C23.5503582,83.4787313 23.4056716,83.9000896 23.325597,84.3391194 C23.2322687,84.7742836 23.1334179,85.2066866 23.078194,85.6506866 L22.9765821,86.3111642 L22.9125224,86.9788209 C22.5425224,90.5413134 23.0605224,94.2319254 23.0052985,98.0169701 C22.9992239,98.9629552 22.9622239,99.9078358 22.8849104,100.875358 C22.858403,101.362985 22.7893731,101.803119 22.7435373,102.27197 C22.6977015,102.76291 22.6093433,103.24391 22.5259552,103.709448 C22.1741791,105.573254 21.7362537,107.379627 21.2950149,109.192075 C20.4053582,112.810343 19.4450149,116.399896 18.4929552,119.994418 L14.4776119,134.619403 C7.11847761,135.99503 4.20765672,134.831896 0.97761194,133.119403 L3.72001493,105.235836 C4.21592537,101.064776 4.67428358,96.8854328 5.19891045,92.7226567 L5.58934328,89.601403 C5.71801493,88.5455224 5.77213433,87.5404478 5.81355224,86.4867761 C5.86435821,84.3860597 6.07807463,82.3041194 6.22883582,80.2326716 C6.31885075,79.1988806 6.38014925,78.1463134 6.44752239,77.0992687 C6.46408955,76.1091045 6.28847761,72.1655672 6.24926866,71.1356418 Z" id="knees_1_thigh_1_HL" fill="#582ADF"></path>
                    <path d="M38.4776119,133.619403 C37.9839104,126.181299 39.2582388,72.0335821 39.2582388,72.0335821 C39.2626567,72.0683731 50.6211045,74.3888806 58.4568209,71.6834627 C60.020209,116.972015 59.4776119,133.619403 59.4776119,133.619403 C52.2228507,136.74894 43.4776119,135.619403 38.4776119,133.619403 Z M23.464209,86.9799254 C23.4106418,108.012493 19.9781642,132.619403 19.9776119,132.619403 C12.6184776,133.994478 4.20765672,132.831896 0.97761194,131.119403 L3.72001493,105.235836 C4.21592537,101.064776 4.67428358,96.8854328 5.19891045,92.7226567 L5.58934328,89.601403 C5.71801493,88.5455224 5.77213433,87.5404478 5.81355224,86.4867761 C5.86435821,84.3860597 6.07807463,82.3041194 6.22883582,80.2326716 C6.31885075,79.1988806 6.38014925,78.1463134 6.44752239,77.0992687 C6.46408955,76.1091045 6.28847761,72.1655672 6.24926866,71.1356418 C6.22662687,70.5618657 17.8291642,74.7980896 26.3159701,71.9623433 C26.0713284,73.1330896 25.6593582,75.074209 25.4014627,76.2432985 C24.9900448,78.0662388 23.9573582,83.901194 23.8772836,84.3402239 C23.7839552,84.7753881 23.6851045,85.207791 23.6298806,85.651791 L23.5282687,86.3122687 L23.464209,86.9799254 Z" id="knees_2_thigh_1_HL" fill="#582ADF"></path>
                    <path d="M38.4776119,135.619403 C39.0778955,124.264821 33.9776119,75.619403 34.9776119,75.119403 C35.9776119,74.619403 52.4776119,76.119403 60.9776119,74.119403 C60.7252388,81.0776119 57.9776119,135.619403 57.9776119,135.619403 C50.7222985,138.74894 49.1888358,139.952821 38.4776119,135.619403 Z M4.27761194,72.619403 C11.7776119,74.119403 19.9776119,75.119403 27.9776119,73.619403 C28.4776119,74.619403 19.9776119,136.119403 19.4776119,136.119403 C12.1190299,137.493925 4.30655255,135.813493 1.07761225,134.101 C1.07650778,134.101 3.50061194,85.8488358 4.27761194,72.619403 Z" id="knees_1_thigh_2_HL" fill="#582ADF"></path>
                    <path d="M32.8776119,136.025 C33.1585573,130.710817 36.266882,120.063854 35.8175573,109.079425 C35.3068297,96.5939069 34.4776119,74.119403 34.9776119,75.119403 C34.9814776,75.1536418 53.140791,75.8237164 60.9776119,73.119403 C60.8693164,76.1052331 60.7976204,97.871143 60.539058,108.091803 C60.4089725,113.233928 61.2381596,118.304851 61.5940299,122.619403 C62.1792115,129.714115 62.4788041,134.768657 62.4788041,134.768657 C55.2234907,137.898194 43.5888358,140.358418 32.8776119,136.025 Z M4.47761194,72.619403 C8.97761194,73.619403 19.4776119,78.119403 27.9776119,76.119403 C27.8689572,76.6370391 27.2134979,96.3584513 25.9005129,107.299028 C25.3371939,111.992939 25.9426147,115.883308 26.2309143,119.30597 C26.7904497,125.948715 27.8280588,130.770773 28.529269,135.873134 C21.1706869,137.247657 4.00655255,135.813493 0.777612254,134.101 C0.776507776,134.101 3.47761194,75.119403 4.47761194,72.619403 Z" id="knees_2_thigh_2_HL" fill="#582ADF"></path>
                </g>
                <g id="thigh_HL" transform="translate(5.074627, 23.880597)" fill="#582ADF">
                    <g id="thigh_0_HL" transform="translate(0.023746, 0.119403)">
                        <path d="M61.8987888,15.5196885 C61.4619666,11.7590745 60.4636721,8.06502961 59.0701053,4.56102855 C58.71857,3.67737822 58.3407926,2.80607536 57.9427869,1.94980423 C52.5396405,3.89748553 45.7434741,4.85038914 33.503158,4.75160928 C22.144687,4.66034527 14.3114096,2.54140974 10.4882585,1.20895522 C9.82619125,3.07396207 9.17833853,4.94541108 8.54360688,6.83081812 C7.20252441,10.749802 6.3644162,14.8083661 5.74389904,18.8674671 C5.12994241,22.9324734 4.76473936,27.0216378 4.53512067,31.1118759 C4.3109691,35.2026508 4.20490713,39.2880573 4.20162687,43.3847376 C4.20928082,47.4669229 4.38641524,51.5711191 4.64555633,55.6500834 C4.91727177,59.7306582 5.30981038,63.801033 5.64658445,67.8574497 C5.77068789,69.3906851 5.87182945,70.921773 5.95383612,72.4533978 C9.94209402,73.871211 17.1772695,75.4516889 25.58022,72.6939053 C26.8529635,66.7515447 27.9797352,60.7855628 28.9949778,54.8013281 C29.5941733,51.2334422 30.1534588,47.6591142 30.6214435,44.0708282 C30.8521556,42.2756114 31.0648263,40.4766368 31.2250127,38.6690726 C31.3660641,37.0413521 31.470486,35.4088001 31.4076142,33.7461846 C31.7427481,33.8471119 32.0800689,33.9319337 32.4228568,33.9995764 C32.8296099,34.0741982 33.2429235,34.1246618 33.6606109,34.1482831 C33.7404307,37.7467692 33.9038973,41.336129 34.190374,44.9222677 C34.3314255,46.7733165 34.5375356,48.6189968 34.7458325,50.468972 C34.9699841,52.3130418 35.2444331,54.1742907 35.7495942,55.9893707 C36.6740828,59.5411512 37.2924131,63.1992274 37.8670065,66.8428087 C38.1715246,68.8382694 38.4476138,70.8369512 38.700741,72.8383172 C42.9005761,74.1364135 49.6874484,75.2224552 57.444733,72.5924412 C57.5076048,72.0818996 57.5781306,71.571358 57.6399089,71.0608164 C58.0876654,67.3775084 58.4714566,63.6888319 58.8732893,60.001766 L60.041611,48.9411051 C60.7845915,41.5632153 61.5762293,34.1890835 61.9900896,26.7628775 C62.0852173,24.9048496 62.1606635,23.0441376 62.1803451,21.1721517 C62.2104142,19.3130502 62.1366082,17.3922112 61.8987888,15.5196885 Z" id="thigh_defualt" opacity="0.300000012"></path>
                        <path d="M67.3633433,45.2145522 C65.2488209,31.5814328 63.6793582,20.0584179 62.0535672,12.5048955 C61.0943284,8.04832836 60.4257015,4.95747761 59.9016269,3.61940299 C59.5465373,2.71041791 58.8036567,1.50022388 58.4016269,0.619402985 C52.9438507,2.62292537 45.7779851,3.94574627 33.4133582,3.84413433 C21.9400448,3.75025373 14.0275672,1.5711194 10.1657612,0.199910448 C9.49755224,2.11838806 8.84314925,4.04349254 8.202,5.98295522 C6.84735821,10.0142985 6.00077612,14.1892239 5.37398507,18.3647015 C4.81677612,22.1232388 4.19661194,27.1916866 3.77470149,30.6862537 C3.34174627,34.287403 1.71319403,41.3737313 0.401626866,47.103209 C0.401626866,47.103209 17.8175821,54.2469701 31.821806,48.5329552 L32.2613881,33.9140896 C32.2818209,33.9185075 32.3017015,33.9256866 32.3221343,33.9295522 C32.3287612,33.9306567 32.3342836,33.931209 32.3409104,33.9323134 L33.88,34.0819701 L33.0063582,48.6660448 C35.1368955,49.4883284 51.7206269,53.1910896 67.3633433,45.2145522 Z" id="thigh_0_HL_1" fill-rule="nonzero"></path>
                    </g>
                    <path d="M62.2214328,15.9192836 C61.780194,12.0508507 60.771806,8.25089552 59.3641493,4.64643284 C59.0090597,3.73744776 58.6274627,2.84116418 58.2254328,1.96034328 C52.7676567,3.96386567 45.9027761,4.94408955 33.5387015,4.84247761 C22.0653881,4.74859701 14.1529104,2.56891045 10.2911045,1.19825373 C9.62234328,3.11673134 8.9679403,5.04183582 8.32679104,6.98129851 C6.97214925,11.0126418 6.12556716,15.1875672 5.49877612,19.3630448 C4.87861194,23.544597 4.50971642,27.751 4.27777612,31.9585075 C4.05135821,36.1665672 3.94422388,40.3691045 3.94091045,44.5832388 C3.94864179,48.7824627 4.12756716,53.0043284 4.38932836,57.2002388 C4.66379104,61.397806 5.06029851,65.5848806 5.40047761,69.757597 C5.52583582,71.334791 5.628,72.9097761 5.71083582,74.4853134 C9.73941791,75.9437761 17.0477463,77.5695672 25.5356567,74.7327164 C26.8212687,68.6199851 27.9594328,62.4829552 28.9849403,56.3271493 C29.590194,52.6569701 30.1551343,48.9801642 30.6278507,45.289 C30.8608955,43.4423134 31.0757164,41.5917612 31.2375224,39.7323731 C31.38,38.0579851 31.4854776,36.3786269 31.4219701,34.6683433 C31.7604925,34.7721642 32.1012239,34.8594179 32.4474776,34.929 C32.8583433,35.0057612 33.2758358,35.0576716 33.6977463,35.0819701 C33.7783731,38.7836269 33.9434925,42.4758955 34.2328657,46.1648507 C34.3753433,48.0689701 34.5835373,49.9675672 34.7939403,51.8705821 C35.0203582,53.7675224 35.2975821,55.6821343 35.8078507,57.5492537 C36.7416866,61.2028657 37.3662687,64.9658209 37.9466716,68.7138657 C38.2542687,70.7665373 38.5331493,72.8225224 38.7888358,74.8812687 C43.0311343,76.2165821 49.8866269,77.3337612 57.7223433,74.6283433 C57.7858507,74.1031642 57.8570896,73.5779851 57.9194925,73.052806 C58.3717761,69.2638955 58.7594478,65.4694627 59.1653433,61.6766866 L60.3454776,50.2989104 C61.0959701,42.7094925 61.8956119,35.1239403 62.3136567,27.4848209 C62.4097463,25.5735224 62.4859552,23.6594627 62.5058358,21.733806 C62.536209,19.821403 62.4616567,17.8454925 62.2214328,15.9192836 Z" id="thigh_1_HL" fill-rule="nonzero"></path>
                    <path d="M60.3073731,76.2894776 C61.3682239,65.7643582 62.6068955,47.9148955 62.9189104,37.7929104 C63.4065373,21.9734776 62.3053731,17.636194 62.3053731,17.636194 L62.1849851,17.7002537 C62.140806,17.1038358 62.0872388,16.5085224 62.013791,15.9181791 C61.569791,12.0508507 60.5619552,8.25089552 59.1537463,4.64643284 C58.7986567,3.73744776 58.4159552,2.84116418 58.0150299,1.96034328 C52.5572537,3.96386567 45.6918209,4.94408955 33.3282985,4.84247761 C21.8538806,4.74859701 13.9425075,2.56891045 10.0807015,1.19825373 C9.41304478,3.11673134 8.75753731,5.04183582 8.11528358,6.98129851 C6.76174627,11.0126418 5.91626866,15.1875672 5.28837313,19.3630448 C4.7300597,23.1215821 4.38270149,26.8983433 4.14965672,30.6751045 L4.13861194,30.674 C4.13861194,30.674 4.13750746,30.7408209 4.13529851,30.8672836 C4.11431343,31.2306567 4.08559701,31.5934776 4.06571642,31.9585075 C3.84150746,36.1665672 3.73216418,40.3691045 3.73050746,44.5832388 C3.73161194,45.4745522 3.74320896,46.3669701 3.76143284,47.2621493 C3.52783582,54.5522537 4.20929851,66.4822687 3.61508955,76.2900299 C7.08756716,78.2339104 14.4997164,81.387194 27.1636567,79.0396269 C29.416791,62.8750448 32.1763284,34.9146418 32.1763284,34.9146418 C32.1967612,34.9190597 32.2166418,34.9262388 32.2370746,34.9301045 C32.2437015,34.931209 32.2486716,34.9317612 32.2552985,34.9328657 L34.3510448,77.9224478 C37.8351194,79.4687164 47.9885821,85.4489104 60.3073731,76.2894776 Z" id="thigh_2_HL" fill-rule="nonzero"></path>
                </g>
                <g id="rise_HL" transform="translate(12.805970, 0.000000)" fill="#582ADF">
                    <g id="rise_0_HL" transform="translate(0.694030, 0.925373)">
                        <path d="M50.5438651,25.4172114 C50.3105161,24.7810751 50.0614663,24.1541582 49.8075437,23.5306986 C49.7940084,23.4926687 49.7745175,23.4488767 49.7577337,23.4102706 C49.6483683,23.1452138 49.5411686,22.8778522 49.4285547,22.6151003 C49.4231406,22.6174051 49.4171851,22.6191337 49.4123124,22.6214386 C48.2639759,20.0394398 46.6467122,14.9094314 45.5,12.5746269 C45.1334636,11.8042336 44.0779634,8.51600403 44,8.07462687 C43.8532771,6.6248815 44.0370921,2.52552465 44.5,1.07462687 C26.5202234,8.15567647 5.26238349,0.0746268657 6,0.574626866 C5.88251343,2.76537881 6.40681331,7.06491019 6.09333531,9.21244635 C5.9655619,10.0952007 5.51835495,12.1977924 5.32777766,13.0649891 C5.2487314,13.3490608 5.16643665,13.6302515 5.07385507,13.9051038 C4.91088983,14.412169 4.72085395,14.9301821 4.54381197,15.4424332 C3.96612455,17.1111385 3.11123378,19.7369293 2.433385,21.8216585 C2.40685577,21.9000231 2.3824922,21.9795402 2.35542156,22.058481 C2.20003609,22.5378881 2.05385465,22.9832987 1.92499841,23.3780028 C1.92824688,23.378579 1.93203677,23.3797315 1.93420242,23.3808839 C1.45234506,24.8680829 0.972653347,26.3547058 0.505414128,27.8551576 C0.503789889,27.8626484 0.501624238,27.8672581 0.5,27.8735964 C5.03487335,30.0793298 24.6323913,38.1531899 51.5,28.2729102 C51.2087199,27.3089102 50.888745,26.3570106 50.5438651,25.4172114 Z" id="rise_default" opacity="0.300000012"></path>
                        <path d="M51.5,28.954409 C51.2071081,27.9283095 50.8866054,26.9126553 50.5411987,25.911133 C50.1936265,24.8997799 49.8184433,23.9025586 49.424853,22.9225414 C44.0742978,25.1516965 37.34374,26.2423112 25.2231057,26.129256 C13.9741088,26.0248027 6.21815885,23.5996442 2.43222012,22.0746269 C1.77767988,24.2091596 1.13505021,26.3510655 0.505413898,28.5089466 C0.503789728,28.5157053 0.501624169,28.5218496 0.5,28.5286084 C5.03684635,30.8806496 24.6335322,39.4900545 51.5,28.954409 Z" id="rise_0_HL_1" fill-rule="nonzero"></path>
                    </g>
                    <path d="M45.6847654,11.9619403 C45.6739372,11.9652537 45.6641917,11.9685672 45.6533635,11.9724328 C45.259215,11.0214776 44.9170919,9.77976119 44.6940299,9 C44.5732948,8.58747761 44.5624167,3.22110448 45.0253247,1.83056716 C27.045548,8.61702985 9.69402985,2.5 6.69402985,1.5 C6.69402985,3 6.69402985,4 6.69402985,6 C6.69402985,6.46811319 6.71942807,7.64999326 6.69402985,9 C6.6651715,10.5339255 6.5797253,12.2466251 6.47835975,12.6886866 C6.39931349,12.9609403 6.31701874,13.2304328 6.22443716,13.4938507 C6.06147192,13.9798209 5.87143604,14.4762836 5.69439406,14.9672239 C5.11670664,16.5665075 4.26181587,19.0830597 3.58396709,21.0810597 C3.55743786,21.1561642 3.53307429,21.2323731 3.50600365,21.3080299 C3.35061818,21.7674925 3.20443674,22.1943731 3.0755805,22.5726567 C3.07882897,22.573209 3.08261886,22.5743134 3.08478451,22.5754179 C2.60292715,24.0007463 2.12323544,25.4255224 1.65599622,26.8635522 C1.65437198,26.8707313 1.65220633,26.8751493 1.65058209,26.8812239 C6.18545544,28.995194 24.8264212,36.9692388 51.6940299,27.5 C51.5453512,27.0284143 45.8488366,12.327465 45.6847654,11.9619403 Z" id="rise_1_HL" fill-rule="nonzero"></path>
                </g>
            </g>
            <g id="pants_points" transform="translate(49.000000, 11.000000)" fill-rule="nonzero">
                <g id="ankle_point" transform="translate(0.000000, 139.229299)">
                    <polygon id="Polygon" fill="#1B1B1D" points="8.70967742 0.770700637 16.2524793 5.15244338 16.2524793 13.9159289 8.70967742 18.2976716 1.16687552 13.9159289 1.16687552 5.15244338"></polygon>
                    <path d="M8.70967742,5.57864101 L5.30970964,7.55374049 L5.30970964,11.5146317 L8.70967742,13.4897312 L12.1096452,11.5146317 L12.1096452,7.55374049 L8.70967742,5.57864101 Z" id="Polygon" stroke="#FFFFFF" stroke-width="2"></path>
                    <polygon id="Polygon" fill="#1B1B1D" points="104.709677 9.77070064 112.252479 14.1524434 112.252479 22.9159289 104.709677 27.2976716 97.1668755 22.9159289 97.1668755 14.1524434"></polygon>
                    <path d="M104.709677,14.578641 L101.30971,16.5537405 L101.30971,20.5146317 L104.709677,22.4897312 L108.109645,20.5146317 L108.109645,16.5537405 L104.709677,14.578641 Z" id="Polygon" stroke="#FFFFFF" stroke-width="2"></path>
                </g>
                <g id="knees_point" transform="translate(87.878981, 99.598726)">
                    <polygon id="Polygon" fill="#1B1B1D" points="8.83069653 0.401273885 16.3734984 4.78301662 16.3734984 13.5465021 8.83069653 17.9282448 1.28789462 13.5465021 1.28789462 4.78301662"></polygon>
                    <path d="M8.83069653,5.20921426 L5.43072875,7.18431374 L5.43072875,11.145205 L8.83069653,13.1203045 L12.2306643,11.145205 L12.2306643,7.18431374 L8.83069653,5.20921426 Z" id="Polygon" stroke="#FFFFFF" stroke-width="2"></path>
                </g>
                <g id="thigh_point" transform="translate(4.649682, 54.579618)">
                    <polygon id="Polygon" fill="#1B1B1D" points="9.05999589 0.420382166 16.6027978 4.8021249 16.6027978 13.5656104 9.05999589 17.9473531 1.51719399 13.5656104 1.51719399 4.8021249"></polygon>
                    <path d="M9.05999589,5.22832254 L5.66002811,7.20342202 L5.66002811,11.1643133 L9.05999589,13.1394128 L12.4599637,11.1643133 L12.4599637,7.20342202 L9.05999589,5.22832254 Z" id="Polygon" stroke="#FFFFFF" stroke-width="2"></path>
                </g>
                <g id="rise_point" transform="translate(47.426752, 0.000000)">
                    <polygon id="Polygon" fill="#1B1B1D" points="9.28292583 1.42108547e-14 16.8257277 4.38174274 16.8257277 13.1452282 9.28292583 17.526971 1.74012392 13.1452282 1.74012392 4.38174274"></polygon>
                    <path d="M9.28292583,4.80794037 L5.88295805,6.78303985 L5.88295805,10.7439311 L9.28292583,12.7190306 L12.6828936,10.7439311 L12.6828936,6.78303985 L9.28292583,4.80794037 Z" id="Polygon" stroke="#FFFFFF" stroke-width="2"></path>
                </g>
            </g>
            <g id="touches_pants" transform="translate(14.000000, 0.000000)" fill="#F8E71C" stroke="#4A4A4A">
                <rect id="rise_TA" x="0.5" y="0.5" width="165" height="35"></rect>
                <rect id="thigh_TA" x="0.5" y="35.5" width="165" height="63"></rect>
                <rect id="knees_TA" x="0.5" y="98.5" width="165" height="47"></rect>
                <rect id="ankle_TA" x="0.5" y="145.5" width="165" height="57"></rect>
            </g>
            <mask id="mask-2" fill="white">
                <use xlink:href="#path-1"></use>
            </mask>
            <use id="Mask" fill="#01070D" fill-rule="nonzero" opacity="0.0199999996" xlink:href="#path-1"></use>
        </g>
    </g>
</svg>