<?xml version="1.0" encoding="UTF-8" standalone="no"?>
<svg width="363px" height="42px" viewBox="0 0 363 42" version="1.1" xmlns="http://www.w3.org/2000/svg" xmlns:xlink="http://www.w3.org/1999/xlink">
    <!-- Generator: Sketch 50.2 (55047) - http://www.bohemiancoding.com/sketch -->
    <title>all about filter buttons-v1</title>
    <desc>Created with Sketch.</desc>
    <defs>
        <linearGradient x1="30.51101%" y1="8.35332622%" x2="100%" y2="110.275902%" id="linearGradient-1">
            <stop stop-color="#FFC543" offset="0%"></stop>
            <stop stop-color="#E46B60" offset="24.636349%"></stop>
            <stop stop-color="#7E57CE" offset="71.7398832%"></stop>
            <stop stop-color="#F76B1C" offset="100%"></stop>
        </linearGradient>
    </defs>
    <g id="Color-Palette-&amp;-Filter-Buttons" stroke="none" stroke-width="1" fill="none" fill-rule="evenodd">
        <g id="iPhone-8-Copy-6" transform="translate(-7.000000, -408.000000)">
            <g id="all-about-filter-buttons-v1" transform="translate(7.000000, 408.000000)">
                <g id="filter_button" transform="translate(5.000000, 5.000000)">
                    <g id="filter_button_0">
                        <g id="details_0" transform="translate(194.000000, 0.000000)">
                            <g id="Rectangle_14" fill="#FFFFFF" stroke="#DBDBDB">
                                <rect id="Rectangle-path" x="0.5" y="0.5" width="91" height="32" rx="16"></rect>
                            </g>
                            <g id="details" transform="translate(38.000000, 7.000000)" fill="#707070" font-family="CenturyGothic, Century Gothic, Arial" font-size="13" font-weight="normal">
                                <text>
                                    <tspan x="0" y="13">details</tspan>
                                </text>
                            </g>
                            <path d="M11.8535714,24.4580357 C10.5728932,24.4521248 9.53893206,23.4101831 9.54286811,22.1294972 C9.54680416,20.8488114 10.5871503,19.8132448 11.8678407,19.815206 C13.148531,19.8171672 14.1857006,20.8559153 14.1857143,22.1366071 C14.1857209,22.7541492 13.9396723,23.3462431 13.5019999,23.7819047 C13.0643275,24.2175664 12.4711069,24.4608859 11.8535714,24.4580357 Z M11.8535714,18.6696429 C10.5728932,18.663732 9.53893206,17.6217902 9.54286811,16.3411044 C9.54680416,15.0604186 10.5871503,14.024852 11.8678407,14.0268132 C13.148531,14.0287744 14.1857006,15.0675224 14.1857143,16.3482143 C14.1857209,16.9657563 13.9396723,17.5578503 13.5019999,17.9935119 C13.0643275,18.4291735 12.4711069,18.6724931 11.8535714,18.6696429 Z M11.8535714,12.9008929 C10.5714818,12.9008929 9.53214286,11.8615539 9.53214286,10.5794643 C9.53214286,9.29737469 10.5714818,8.25803571 11.8535714,8.25803571 C13.135661,8.25803571 14.175,9.29737469 14.175,10.5794643 C14.1705912,11.8597232 13.1338304,12.896484 11.8535714,12.9008929 Z M17.58125,24.4580357 C16.2991604,24.4580357 15.2598214,23.4186967 15.2598214,22.1366071 C15.2598214,20.8545175 16.2991604,19.8151786 17.58125,19.8151786 C18.8633396,19.8151786 19.9026786,20.8545175 19.9026786,22.1366071 C19.9026786,23.4186967 18.8633396,24.4580357 17.58125,24.4580357 Z M17.58125,18.6696429 C16.2991604,18.6696429 15.2598214,17.6303039 15.2598214,16.3482143 C15.2598214,15.0661247 16.2991604,14.0267857 17.58125,14.0267857 C18.8633396,14.0267857 19.9026786,15.0661247 19.9026786,16.3482143 C19.9026786,17.6303039 18.8633396,18.6696429 17.58125,18.6696429 Z M17.58125,12.9008929 C16.3005718,12.894982 15.2666106,11.8530402 15.2705467,10.5723544 C15.2744827,9.29166856 16.3148289,8.25610195 17.5955192,8.25806316 C18.8762096,8.26002437 19.9133792,9.29877242 19.9133929,10.5794643 C19.9133994,11.1970063 19.6673508,11.7891003 19.2296785,12.2247619 C18.7920061,12.6604235 18.1987854,12.9037431 17.58125,12.9008929 Z M23.3089286,24.4580357 C22.026839,24.4580357 20.9875,23.4186967 20.9875,22.1366071 C20.9875,20.8545175 22.026839,19.8151786 23.3089286,19.8151786 C24.5910182,19.8151786 25.6303571,20.8545175 25.6303571,22.1366071 C25.6303571,23.4186967 24.5910182,24.4580357 23.3089286,24.4580357 Z M23.3089286,18.6696429 C22.026839,18.6696429 20.9875,17.6303039 20.9875,16.3482143 C20.9875,15.0661247 22.026839,14.0267857 23.3089286,14.0267857 C24.5910182,14.0267857 25.6303571,15.0661247 25.6303571,16.3482143 C25.6303571,17.6303039 24.5910182,18.6696429 23.3089286,18.6696429 Z M23.3089286,12.9008929 C22.026839,12.9008929 20.9875,11.8615539 20.9875,10.5794643 C20.9875,9.29737469 22.026839,8.25803571 23.3089286,8.25803571 C24.5910182,8.25803571 25.6303571,9.29737469 25.6303571,10.5794643 C25.6303571,11.8615539 24.5910182,12.9008929 23.3089286,12.9008929 Z M11.8535714,8.78482143 C10.8673487,8.78482143 10.0678571,9.58431295 10.0678571,10.5705357 C10.0678571,11.5567585 10.8673487,12.35625 11.8535714,12.35625 C12.8397942,12.35625 13.6392857,11.5567585 13.6392857,10.5705357 C13.6339179,9.58654493 12.8375622,8.79018921 11.8535714,8.78482143 Z M23.3089286,14.5535714 C22.3227058,14.5535714 21.5232143,15.3530629 21.5232143,16.3392857 C21.5232143,17.3255085 22.3227058,18.125 23.3089286,18.125 C24.2951513,18.125 25.0946429,17.3255085 25.0946429,16.3392857 C25.0946429,15.8656848 24.9065056,15.4114814 24.5716193,15.076595 C24.2367329,14.7417086 23.7825294,14.5535714 23.3089286,14.5535714 Z M17.58125,20.3392857 C16.5950272,20.3392857 15.7955357,21.1387772 15.7955357,22.125 C15.7955357,23.1112228 16.5950272,23.9107143 17.58125,23.9107143 C18.5674728,23.9107143 19.3669643,23.1112228 19.3669643,22.125 C19.3669643,21.1387772 18.5674728,20.3392857 17.58125,20.3392857 Z M17.5,4 C10.5964406,4 5,9.59644063 5,16.5 C5,23.4035594 10.5964406,29 17.5,29 C24.4035594,29 30,23.4035594 30,16.5 C30,13.1847939 28.6830395,10.00537 26.3388348,7.66116524 C23.99463,5.3169605 20.8152061,4 17.5,4 Z" id="details_ellipse" fill="#3D3D3D" fill-rule="nonzero"></path>
                        </g>
                        <g id="patterns_0" transform="translate(97.000000, 0.000000)">
                            <g id="Rectangle_14" fill="#FFFFFF" stroke="#DBDBDB">
                                <rect id="Rectangle-path" x="0.5" y="0.5" width="91" height="32" rx="16"></rect>
                            </g>
                            <g id="patterns" transform="translate(34.000000, 7.000000)" fill="#707070" font-family="CenturyGothic, Century Gothic, Arial" font-size="13" font-weight="normal">
                                <text>
                                    <tspan x="0" y="13">patterns</tspan>
                                </text>
                            </g>
                            <g id="pattern_icon" transform="translate(5.000000, 4.000000)" fill="#3D3D3D" fill-rule="nonzero">
                                <path d="M1.61113333,16.8098667 C2.27153333,11.4062 5.02666667,9.67286667 7.49233333,8.13626667 C10.0108667,6.5676 12.1888,5.1896 11.9270667,0.0303333333 C10.7781402,0.112433729 9.64690836,0.358759762 8.56786667,0.7618 C8.67793333,4.8594 6.7366,6.07446667 4.85333333,7.24793333 C2.86346667,8.48726667 0.988,9.65813333 0.866666667,14.2818 C1.02141774,15.149227 1.2710733,15.9970096 1.61113333,16.8098667 Z" id="Path_23"></path>
                                <path d="M4.27613333,6.32753333 C6.032,5.23293333 7.4516,4.3342 7.4828,1.22806667 C4.24744717,2.81631232 1.88117976,5.75534528 1.02006667,9.25513333 C1.84760133,8.02587008 2.96612014,7.02018562 4.27613333,6.32753333 Z" id="Path_24"></path>
                                <path d="M4.60026667,21.06 C5.02753333,15.301 7.55473333,13.2903333 10.0056667,11.3446667 C12.6680667,9.23086667 15.1831333,7.228 15.0418667,0.201066667 C14.3712604,0.0771631996 13.691418,0.00990373677 13.0095333,0 C13.2903333,5.78413333 10.6400667,7.45333333 8.06953333,9.05753333 C5.46086667,10.6825333 2.769,12.3690667 2.56186667,18.6168667 C3.13195343,19.5166013 3.81722762,20.3379397 4.60026667,21.06 Z" id="Path_25"></path>
                                <path d="M17.5933333,14.729 C20.0252,12.7772667 22.3184,10.92 22.1962,4.44426667 C21.5403783,3.6465638 20.7861532,2.93514609 19.9515333,2.327 C19.9186,9.4016 17.1686667,11.609 14.5028,13.7514 C11.9938,15.7646667 9.62606667,17.6696 9.45273333,23.7960667 C10.4742598,24.0897294 11.5299325,24.2479492 12.5926667,24.2666667 C12.8778,18.5302 15.2715333,16.5940667 17.5933333,14.729 Z" id="Path_26"></path>
                                <path d="M21.6692667,17.2605333 C19.9281333,18.3213333 18.4175333,19.2538667 18.2416,22.9805333 C21.637942,21.2742028 24.0422739,18.0793266 24.7416,14.3433333 C24.0281803,15.5979065 22.9590892,16.6130153 21.6692667,17.2605333 Z" id="Path_27"></path>
                                <path d="M21.1042,16.3349333 C22.9692667,15.1978667 24.7320667,14.1249333 24.5171333,9.13553333 L24.5726,9.13553333 C24.2891898,8.02197793 23.8479191,6.95469802 23.2622,5.96613333 C23.0022,11.7546 20.6067333,13.6994 18.2736667,15.5722667 C16.0532667,17.3524 13.9585333,19.0493333 13.6803333,24.232 C14.8640415,24.1502138 16.0292304,23.8943979 17.1383333,23.4728 C17.2042,18.7113333 19.2755333,17.4486 21.1042,16.3349333 Z" id="Path_28"></path>
                                <path d="M13.8216,12.9055333 C16.4909333,10.7666 19.0103333,8.7386 18.863,1.61806667 C18.0039874,1.12149453 17.0870852,0.732611566 16.133,0.4602 C16.211,7.80606667 13.4004,10.0368667 10.6799333,12.1966 C8.203,14.1630667 5.86473333,16.0316 5.642,21.9197333 C6.48753164,22.5408499 7.41016151,23.0495053 8.38673333,23.4329333 C8.65453333,17.0716 11.2796667,14.9482667 13.8216,12.9055333 Z" id="Path_29"></path>
                            </g>
                        </g>
                        <g id="solid_0">
                            <g id="Rectangle_14" fill="#FFFFFF" stroke="#DBDBDB">
                                <rect id="Rectangle-path" x="0.5" y="0.5" width="91" height="32" rx="16"></rect>
                            </g>
                            <g id="Solid" transform="translate(41.000000, 7.000000)" fill="#707070" font-family="CenturyGothic, Century Gothic, Arial" font-size="13" font-weight="normal">
                                <text id="solid">
                                    <tspan x="0" y="13">solid</tspan>
                                </text>
                            </g>
                            <circle id="solid_eclipse" fill="#3D3D3D" fill-rule="nonzero" cx="17.5" cy="16.5" r="12.5"></circle>
                        </g>
                    </g>
                    <g id="filter_button_1">
                        <g id="color_palette_closed" transform="translate(293.000000, 0.000000)">
                            <rect id="color_pallete_closed_button" fill="#F3F3F3" fill-rule="nonzero" x="0" y="0" width="61" height="32" rx="16"></rect>
                            <g id="color_palette_arrow_closed" opacity="0.72" transform="translate(44.500000, 13.861000) scale(1, -1) rotate(90.000000) translate(-44.500000, -13.861000) translate(40.500000, 7.361000)" fill="#000000" fill-rule="nonzero">
                                <path d="M6.763,6.624 L1.58,11.807 C1.250286,12.136714 0.715714014,12.136714 0.386000031,11.807 C0.0562860472,11.477286 0.0562860334,10.942714 0.386,10.613 L4.972,6.027 L0.386,1.441 C0.172712423,1.22771245 0.0894141349,0.91683905 0.167482797,0.625482816 C0.245551458,0.334126582 0.473126582,0.106551458 0.764482816,0.0284827966 C1.05583905,-0.0495858651 1.36671245,0.033712423 1.58,0.247 L6.763,5.43 C6.92140424,5.58829709 7.01040382,5.80305833 7.01040382,6.027 C7.01040382,6.25094167 6.92140424,6.46570291 6.763,6.624 Z" id="arrow_point_closed"></path>
                            </g>
                            <circle id="color_0" stroke="#3D3D3D" fill="url(#linearGradient-1)" cx="16.5" cy="15.5" r="12"></circle>
                        </g>
                        <g id="details_1" transform="translate(193.000000, 0.000000)">
                            <g id="Path_464" fill="#6D6D6D" fill-rule="nonzero" stroke="#1D1D1D">
                                <path d="M77.5307018,32.5 L14.4692982,32.5 C10.7379665,32.5 7.22997204,30.8357038 4.59151235,27.8137085 C1.95306484,24.7916992 0.5,20.7737514 0.5,16.5 C0.5,12.2262486 1.95306484,8.20830078 4.59151235,5.18629107 C7.22997204,2.16429531 10.7379665,0.5 14.4692982,0.5 L77.5307018,0.5 C81.2620335,0.5 84.770028,2.16429531 87.4084857,5.18629107 C90.0469374,8.20830078 91.5,12.2262486 91.5,16.5 C91.5,20.7737514 90.0469374,24.7916992 87.4084857,27.8137085 C84.770028,30.8357038 81.2620335,32.5 77.5307018,32.5 Z" id="Shape"></path>
                            </g>
                            <g id="Details" transform="translate(37.000000, 7.000000)" fill="#FFFFFF" font-family="CenturyGothic, Century Gothic, Arial" font-size="13" font-weight="normal">
                                <text id="details">
                                    <tspan x="0" y="13">details</tspan>
                                </text>
                            </g>
                            <g id="advanced-filter" transform="translate(3.996000, 4.000000)" fill="#FFFFFF" fill-rule="nonzero">
                                <path d="M7.39310345,19.7525862 C6.15658654,19.7468791 5.15827923,18.7408664 5.16207955,17.5043422 C5.16587988,16.2678179 6.17035202,15.2679605 7.40688065,15.2698541 C8.64340928,15.2717477 9.64481442,16.2746768 9.64482759,17.5112069 C9.64483394,18.1074544 9.40726977,18.6791313 8.98468957,19.0997701 C8.56210936,19.5204089 7.98934456,19.7553381 7.39310345,19.7525862 Z M7.39310345,14.1637931 C6.15658654,14.158086 5.15827923,13.1520733 5.16207955,11.9155491 C5.16587988,10.6790248 6.17035202,9.6791674 7.40688065,9.68106098 C8.64340928,9.68295456 9.64481442,10.6858837 9.64482759,11.9224138 C9.64483394,12.5186613 9.40726977,13.0903382 8.98468957,13.510977 C8.56210936,13.9316158 7.98934456,14.166545 7.39310345,14.1637931 Z M7.39310345,8.59396552 C6.15522384,8.59396552 5.15172414,7.59046582 5.15172414,6.35258621 C5.15172414,5.1147066 6.15522384,4.1112069 7.39310345,4.1112069 C8.63098306,4.1112069 9.63448276,5.1147066 9.63448276,6.35258621 C9.63022597,7.58869831 8.62921555,8.58970873 7.39310345,8.59396552 Z M12.9232759,19.7525862 C11.6853963,19.7525862 10.6818966,18.7490865 10.6818966,17.5112069 C10.6818966,16.2733273 11.6853963,15.2698276 12.9232759,15.2698276 C14.1611555,15.2698276 15.1646552,16.2733273 15.1646552,17.5112069 C15.1646552,18.7490865 14.1611555,19.7525862 12.9232759,19.7525862 Z M12.9232759,14.1637931 C11.6853963,14.1637931 10.6818966,13.1602934 10.6818966,11.9224138 C10.6818966,10.6845342 11.6853963,9.68103448 12.9232759,9.68103448 C14.1611555,9.68103448 15.1646552,10.6845342 15.1646552,11.9224138 C15.1646552,13.1602934 14.1611555,14.1637931 12.9232759,14.1637931 Z M12.9232759,8.59396552 C11.686759,8.58825846 10.6884516,7.58224571 10.692252,6.34572147 C10.6960523,5.10919723 11.7005244,4.10933982 12.9370531,4.1112334 C14.1735817,4.11312698 15.1749868,5.11605613 15.175,6.35258621 C15.1750064,6.94883366 14.9374422,7.52051061 14.514862,7.94114941 C14.0922818,8.36178821 13.519517,8.59671743 12.9232759,8.59396552 Z M18.4534483,19.7525862 C17.2155687,19.7525862 16.212069,18.7490865 16.212069,17.5112069 C16.212069,16.2733273 17.2155687,15.2698276 18.4534483,15.2698276 C19.6913279,15.2698276 20.6948276,16.2733273 20.6948276,17.5112069 C20.6948276,18.7490865 19.6913279,19.7525862 18.4534483,19.7525862 Z M18.4534483,14.1637931 C17.2155687,14.1637931 16.212069,13.1602934 16.212069,11.9224138 C16.212069,10.6845342 17.2155687,9.68103448 18.4534483,9.68103448 C19.6913279,9.68103448 20.6948276,10.6845342 20.6948276,11.9224138 C20.6948276,13.1602934 19.6913279,14.1637931 18.4534483,14.1637931 Z M18.4534483,8.59396552 C17.2155687,8.59396552 16.212069,7.59046582 16.212069,6.35258621 C16.212069,5.1147066 17.2155687,4.1112069 18.4534483,4.1112069 C19.6913279,4.1112069 20.6948276,5.1147066 20.6948276,6.35258621 C20.6948276,7.59046582 19.6913279,8.59396552 18.4534483,8.59396552 Z M7.39310345,4.61982759 C6.44088836,4.61982759 5.66896552,5.39175043 5.66896552,6.34396552 C5.66896552,7.2961806 6.44088836,8.06810345 7.39310345,8.06810345 C8.34531853,8.06810345 9.11724138,7.2961806 9.11724138,6.34396552 C9.11205869,5.39390545 8.34316351,4.62501028 7.39310345,4.61982759 Z M18.4534483,10.1896552 C17.5012332,10.1896552 16.7293103,10.961578 16.7293103,11.9137931 C16.7293103,12.8660082 17.5012332,13.637931 18.4534483,13.637931 C19.4056634,13.637931 20.1775862,12.8660082 20.1775862,11.9137931 C20.1775862,11.4565233 19.9959365,11.0179821 19.6725979,10.6946435 C19.3492593,10.3713049 18.9107181,10.1896552 18.4534483,10.1896552 Z M12.9232759,15.7758621 C11.9710608,15.7758621 11.1991379,16.5477849 11.1991379,17.5 C11.1991379,18.4522151 11.9710608,19.2241379 12.9232759,19.2241379 C13.8754909,19.2241379 14.6474138,18.4522151 14.6474138,17.5 C14.6474138,16.5477849 13.8754909,15.7758621 12.9232759,15.7758621 Z M12.8448276,-9.80058946e-16 C6.17932198,-4.04274315e-15 0.775862069,5.40345992 0.775862069,12.0689655 C0.775862069,18.7344711 6.17932198,24.137931 12.8448276,24.137931 C19.5103332,24.137931 24.9137931,18.7344711 24.9137931,12.0689655 C24.9137931,8.86807685 23.642245,5.79828824 21.3788749,3.53491816 C19.1155049,1.27154807 16.0457163,-7.10542736e-15 12.8448276,-7.10542736e-15 Z" id="Path_33"></path>
                            </g>
                        </g>
                        <g id="patterns_1" transform="translate(96.000000, 0.000000)">
                            <g id="Rectangle_14" fill="#6D6D6D" stroke="#1D1D1D">
                                <rect id="Rectangle-path" x="0.5" y="0.5" width="92" height="32" rx="16"></rect>
                            </g>
                            <text id="patterns" fill="#FFFFFF" font-family="CenturyGothic, Century Gothic, Arial" font-size="13" font-weight="normal">
                                <tspan x="34" y="20">patterns</tspan>
                            </text>
                            <g id="pattern_icon" transform="translate(4.000000, 4.000000)" fill="#FFFFFF" fill-rule="nonzero">
                                <path d="M1.61113333,16.8098667 C2.27153333,11.4062 5.02666667,9.67286667 7.49233333,8.13626667 C10.0108667,6.5676 12.1888,5.1896 11.9270667,0.0303333333 C10.7781402,0.112433729 9.64690836,0.358759762 8.56786667,0.7618 C8.67793333,4.8594 6.7366,6.07446667 4.85333333,7.24793333 C2.86346667,8.48726667 0.988,9.65813333 0.866666667,14.2818 C1.02141774,15.149227 1.2710733,15.9970096 1.61113333,16.8098667 Z" id="Path_23"></path>
                                <path d="M4.27613333,6.32753333 C6.032,5.23293333 7.4516,4.3342 7.4828,1.22806667 C4.24744717,2.81631232 1.88117976,5.75534528 1.02006667,9.25513333 C1.84760133,8.02587008 2.96612014,7.02018562 4.27613333,6.32753333 Z" id="Path_24"></path>
                                <path d="M4.60026667,21.06 C5.02753333,15.301 7.55473333,13.2903333 10.0056667,11.3446667 C12.6680667,9.23086667 15.1831333,7.228 15.0418667,0.201066667 C14.3712604,0.0771631996 13.691418,0.00990373677 13.0095333,0 C13.2903333,5.78413333 10.6400667,7.45333333 8.06953333,9.05753333 C5.46086667,10.6825333 2.769,12.3690667 2.56186667,18.6168667 C3.13195343,19.5166013 3.81722762,20.3379397 4.60026667,21.06 Z" id="Path_25"></path>
                                <path d="M17.5933333,14.729 C20.0252,12.7772667 22.3184,10.92 22.1962,4.44426667 C21.5403783,3.6465638 20.7861532,2.93514609 19.9515333,2.327 C19.9186,9.4016 17.1686667,11.609 14.5028,13.7514 C11.9938,15.7646667 9.62606667,17.6696 9.45273333,23.7960667 C10.4742598,24.0897294 11.5299325,24.2479492 12.5926667,24.2666667 C12.8778,18.5302 15.2715333,16.5940667 17.5933333,14.729 Z" id="Path_26"></path>
                                <path d="M21.6692667,17.2605333 C19.9281333,18.3213333 18.4175333,19.2538667 18.2416,22.9805333 C21.637942,21.2742028 24.0422739,18.0793266 24.7416,14.3433333 C24.0281803,15.5979065 22.9590892,16.6130153 21.6692667,17.2605333 Z" id="Path_27"></path>
                                <path d="M21.1042,16.3349333 C22.9692667,15.1978667 24.7320667,14.1249333 24.5171333,9.13553333 L24.5726,9.13553333 C24.2891898,8.02197793 23.8479191,6.95469802 23.2622,5.96613333 C23.0022,11.7546 20.6067333,13.6994 18.2736667,15.5722667 C16.0532667,17.3524 13.9585333,19.0493333 13.6803333,24.232 C14.8640415,24.1502138 16.0292304,23.8943979 17.1383333,23.4728 C17.2042,18.7113333 19.2755333,17.4486 21.1042,16.3349333 Z" id="Path_28"></path>
                                <path d="M13.8216,12.9055333 C16.4909333,10.7666 19.0103333,8.7386 18.863,1.61806667 C18.0039874,1.12149453 17.0870852,0.732611566 16.133,0.4602 C16.211,7.80606667 13.4004,10.0368667 10.6799333,12.1966 C8.203,14.1630667 5.86473333,16.0316 5.642,21.9197333 C6.48753164,22.5408499 7.41016151,23.0495053 8.38673333,23.4329333 C8.65453333,17.0716 11.2796667,14.9482667 13.8216,12.9055333 Z" id="Path_29"></path>
                            </g>
                        </g>
                        <g id="solid_1">
                            <g id="Rectangle_14" fill="#6D6D6D" stroke="#1D1D1D">
                                <rect id="Rectangle-path" x="0.5" y="0.5" width="91" height="32" rx="16"></rect>
                            </g>
                            <text id="solid" fill="#FFFFFF" font-family="CenturyGothic, Century Gothic, Arial" font-size="13" font-weight="normal">
                                <tspan x="41" y="21">solid</tspan>
                            </text>
                            <circle id="solid_eclipse" fill="#FFFFFF" fill-rule="nonzero" cx="17.5" cy="16.5" r="12.5"></circle>
                        </g>
                    </g>
                </g>
                <g id="filter_button_touch_area" fill="#A6A4A7" fill-opacity="0.632057964" stroke="#000000">
                    <rect id="filter_button_touch_area_0" x="0.5" y="0.5" width="98" height="41"></rect>
                    <rect id="filter_button_touch_area_1" x="98.5" y="0.5" width="98" height="41"></rect>
                    <rect id="filter_button_touch_area_2" x="196.5" y="0.5" width="98" height="41"></rect>
                    <rect id="filter_button_touch_area_3" x="294.5" y="0.5" width="68" height="41"></rect>
                </g>
            </g>
        </g>
    </g>
</svg>
