<?xml version="1.0" encoding="UTF-8"?>
<svg width="10px" height="18px" viewBox="0 0 10 18" version="1.1" xmlns="http://www.w3.org/2000/svg" xmlns:xlink="http://www.w3.org/1999/xlink">
    <!-- Generator: Sketch 53.2 (72643) - https://sketchapp.com -->
    <title>baseline-favorite_border-24px</title>
    <desc>Created with Sketch.</desc>
    <g id="Page-1" stroke="none" stroke-width="1" fill="none" fill-rule="evenodd">
        <g id="Design-2.0" transform="translate(-318.000000, -513.000000)">
            <g id="Like-Copy-2" transform="translate(321.000000, 522.000000) scale(-1, 1) translate(-321.000000, -522.000000) translate(297.000000, 498.000000)">
                <g id="baseline-favorite_border-24px" transform="translate(12.000000, 12.000000)">
                    <polygon id="Path" points="0 0 24 0 24 24 0 24"></polygon>
                    <g id="flaticon1549280528-svg" transform="translate(10.000000, 12.000000) scale(-1, 1) translate(-10.000000, -12.000000) translate(6.000000, 4.000000)" fill="#000000" fill-rule="nonzero" stroke="#000000">
                        <path d="M7.86501186,7.66778243 L0.747225296,0.133054393 C0.579636364,-0.0443514644 0.31086166,-0.0443514644 0.143272727,0.133054393 C-0.0243162055,0.310460251 -0.0243162055,0.594979079 0.143272727,0.772384937 L6.95750198,7.98577406 L0.143272727,15.1991632 C-0.0243162055,15.376569 -0.0243162055,15.6610879 0.143272727,15.8384937 C0.225486166,15.925523 0.336158103,15.9723849 0.443667984,15.9723849 C0.551177866,15.9723849 0.661849802,15.9288703 0.744063241,15.8384937 L7.8618498,8.30376569 C8.02943874,8.12970711 8.02943874,7.841841 7.86501186,7.66778243 Z" id="Path"></path>
                    </g>
                </g>
            </g>
        </g>
    </g>
</svg>