<?xml version="1.0" encoding="UTF-8"?>
<svg width="49px" height="91px" viewBox="0 0 49 91" version="1.1" xmlns="http://www.w3.org/2000/svg" xmlns:xlink="http://www.w3.org/1999/xlink">
    <!-- Generator: Sketch 53.2 (72643) - https://sketchapp.com -->
    <title>Group 6 Copy 3</title>
    <desc>Created with Sketch.</desc>
    <defs>
        <polygon id="path-1" points="3.63797881e-12 0.0410891019 60.8226268 0.0410891019 60.8226268 70.7208248 3.63797881e-12 70.7208248"></polygon>
    </defs>
    <g id="👖-main-flow-" stroke="none" stroke-width="1" fill="none" fill-rule="evenodd">
        <g id="99-10" transform="translate(-251.000000, -377.000000)">
            <g id="Group-6-Copy-3" transform="translate(270.118374, 420.773898) rotate(153.000000) translate(-270.118374, -420.773898) translate(232.618374, 381.773898)">
                <g id="Group-3" transform="translate(0.678041, 6.821327)">
                    <mask id="mask-2" fill="white">
                        <use xlink:href="#path-1"></use>
                    </mask>
                    <g id="Clip-2"></g>
                    <path d="M58.3540524,2.07541668 C57.4303381,2.21110653 56.053481,2.40436178 54.349354,2.69218874 C53.5263381,2.86899674 52.6171476,3.06499319 51.6256556,3.27812221 C50.6341635,3.49125122 49.5594016,3.71260386 48.4459095,4.06073743 C47.3246714,4.38282951 46.1308143,4.72479535 44.8720841,5.08526436 C43.6588619,5.5156342 42.3817349,5.96793372 41.0494175,6.4407923 C38.4515921,7.47011635 35.6862587,8.65774522 32.9644968,10.1160685 C30.204973,11.533959 27.4928937,13.2204879 24.9086238,15.1071251 L23.9190683,15.8047629 L22.9943857,16.5579101 C22.381481,17.0636632 21.7647032,17.5735281 21.1450206,18.0861342 C20.5001635,18.584349 19.9676238,19.1524646 19.3886079,19.6972799 C18.8183063,20.2448364 18.2460683,20.7965048 17.6718937,21.350229 C16.6242429,22.506334 15.5872429,23.6795715 14.6005921,24.8719975 L13.246973,26.7175166 C12.7938302,27.3315475 12.3261635,27.9394106 11.9717825,28.5870213 C11.2281635,29.8678513 10.3654492,31.109619 9.81063968,32.4288259 C9.4988619,33.0778072 9.18805238,33.7254179 8.87917937,34.3709726 C8.59838571,35.0220098 8.38730635,35.6853825 8.13846508,36.3371049 C7.91189365,36.9922539 7.63206825,37.6350675 7.45003651,38.2902165 C7.2883381,38.9467361 7.12663968,39.6005145 6.96687778,40.250181 L6.71416349,41.2185132 L6.65122698,41.4597396 L6.6192746,41.5789822 C6.63863968,41.4844105 6.62217937,41.5714439 6.62508413,41.5584231 L6.6192746,41.589947 L6.60959206,41.6543654 L6.52632222,42.1628597 C6.42271905,42.8337707 6.28135397,43.5348349 6.25617937,44.1276214 C6.00830635,46.5864861 6.04897302,49.0988043 6.4469254,51.3760638 C6.79259206,53.675253 7.44132222,55.8072284 8.27208413,57.7116835 C9.10575079,59.6133974 10.0449571,61.3273384 11.1516714,62.7383759 C11.2785127,62.9206663 11.4034175,63.1002155 11.5263857,63.2763382 C11.668719,63.4442372 11.8081476,63.6087098 11.9446714,63.7697558 C12.2225603,64.0952744 12.4888302,64.4077723 12.7454175,64.70862 C13.3166873,65.2870151 13.8405127,65.8181244 14.3139889,66.2992066 C14.8484651,66.7432825 15.3258143,67.1476108 15.7344175,67.5101357 C16.1362429,67.8781431 16.5680841,68.122796 16.8653381,68.3674489 C17.4917984,68.8396222 17.825846,69.0911281 17.825846,69.0911281 L17.9246079,69.1658261 C18.4184175,69.5372599 18.3932429,70.1218228 17.867481,70.4706417 C17.4366079,70.7577833 16.7994968,70.7961603 16.3134333,70.5939961 C16.3134333,70.5939961 15.8535127,70.4027967 14.9898302,70.0436983 C14.100973,69.6989913 12.9129254,69.0822192 11.4450524,68.2235354 C10.7769571,67.755474 9.97524286,67.2627416 9.20644921,66.6610462 C8.83754444,66.349919 8.45411587,66.025771 8.05713175,65.6906582 C7.85960794,65.5207032 7.65821111,65.348007 7.45294127,65.1718843 C7.26897302,64.9868527 7.08016349,64.7983946 6.88941746,64.6071952 C5.31116349,63.0885653 3.93430635,61.1916486 2.75981429,59.048023 C1.60081429,56.8975444 0.748750794,54.4702037 0.331433333,51.8770198 C-0.0587730159,49.2667033 -0.142042857,46.5652417 0.285925397,43.6773778 C0.370163492,42.929713 0.533798413,42.2930672 0.67225873,41.612562 L0.779734921,41.1061236 L0.817496825,40.9265744 L0.858163492,40.7949964 L0.939496825,40.5318403 L1.26579841,39.4757894 C1.4933381,38.7726693 1.72281429,38.0640667 1.95229048,37.3520376 C2.20887778,36.6461763 2.56422698,35.9560769 2.86825873,35.2543273 C3.19746508,34.5573749 3.47244921,33.8453458 3.85297302,33.1579876 C4.25576667,32.4774824 4.66049683,31.7949213 5.06522698,31.1109896 C5.81175079,29.7253084 6.8632746,28.4348842 7.80732222,27.1149919 C8.26143333,26.4475075 8.82689365,25.8238824 9.37783016,25.1968308 L11.0228937,23.3197878 C12.2012587,22.1115999 13.4261,20.9328799 14.6548143,19.7808868 C15.3112905,19.2264772 15.9638937,18.6741236 16.6135921,18.1251964 C17.2710365,17.5817517 17.8810365,17.0150067 18.6004492,16.5215891 C19.293719,16.0137801 19.9831159,15.5087123 20.6676714,15.0077563 L21.6814333,14.2546091 L22.7610365,13.5590272 C24.2105127,12.6496311 25.5544492,11.6943197 27.0610524,10.9144457 C28.5279571,10.1051037 29.9009413,9.25669943 31.3978619,8.58167667 C34.2745444,7.11924157 37.1841476,5.93709511 39.9107508,4.9187359 C41.2943857,4.43354188 42.6199254,3.96890692 43.8805921,3.52688694 C45.1867667,3.15476779 46.4251635,2.80183711 47.5890048,2.4701508 C48.7344492,2.1117377 49.8818302,1.88558794 50.9256079,1.64778805 C51.9713222,1.40998815 52.9298937,1.19206202 53.796481,0.994694958 C55.5228778,0.675344089 56.8764968,0.481403539 57.7973063,0.31144857 C58.7181159,0.152458437 59.2099889,0.0674809526 59.2099889,0.0674809526 C59.9100365,-0.0531322514 60.6149254,0.251141968 60.7853381,0.745930225 C60.9557508,1.24140378 60.525846,1.74098916 59.8267667,1.86091706 C59.8132111,1.86365827 59.793846,1.86639948 59.7793222,1.86914069 C59.7793222,1.86914069 59.2835762,1.94041213 58.3540524,2.07541668 Z" id="Fill-1" fill="#582ADF" mask="url(#mask-2)"></path>
                </g>
                <path d="M58.6616179,1.36686477 L59.3731846,1.80413834 C59.8844165,2.08708006 60.4136029,2.35684711 60.9720836,2.59963746 C61.5286743,2.84368254 62.1126693,3.05761408 62.7051691,3.26025305 C63.3014487,3.45724573 63.9194629,3.62161543 64.537477,3.77971146 C65.1649409,3.92588756 65.7999646,4.05136061 66.4434931,4.14922959 C67.0889115,4.24584383 67.7447247,4.30105197 68.392978,4.35312329 C69.0440663,4.39641149 69.6989345,4.39954832 70.3443529,4.39829359 C70.9916613,4.38825574 71.6304649,4.35876958 72.2617087,4.31548137 C73.4845073,4.2320418 74.5778442,4.82239248 74.704471,5.6342031 C74.7762891,6.09845337 74.5164208,6.53509957 74.0524377,6.83937171 L73.5223063,7.18254049 L70.8640896,8.9040307 C69.9767573,9.46803204 69.0875352,10.0238776 68.1803585,10.5665486 C67.2816865,11.1148658 66.331041,11.6249137 65.2868428,12.0872819 C64.7642712,12.3181523 64.2237451,12.540867 63.64353,12.7447607 C63.3401928,12.8388654 63.0557551,12.9455175 62.7410781,13.0364855 C62.6768198,13.045896 62.5303485,13.1224345 62.6050016,13.0233108 C62.6078366,12.9605743 62.706114,12.8909368 62.7165088,12.568471 C62.7146188,12.410375 62.6040567,12.1813867 62.4235663,12.0446211 C62.1485784,11.8187696 62.3479682,11.9831393 62.2874898,11.9335774 L62.2912697,11.9417332 L62.2922147,11.9473794 L62.2317362,11.9097375 C62.0323463,11.7792456 61.7129445,11.7001975 61.577813,11.688905 C61.1941529,11.6449894 60.9635788,11.6989428 60.7915932,11.7497594 C60.4901459,11.8589209 60.3984833,11.9335774 60.2406723,12.121787 C60.1896436,12.2378495 59.9874188,12.3802615 60.1915336,12.8319644 C60.252012,12.9379892 60.3569044,13.0433865 60.4797512,13.1224345 C60.5827536,13.1889352 60.6800861,13.2341055 60.799153,13.2736296 C60.9390094,13.3162904 60.9739735,13.3187998 61.0420118,13.3313472 C61.1072151,13.3407576 61.1724184,13.3470313 61.2357318,13.3489134 C60.5373947,13.3006063 60.0299428,12.8846631 60.1027059,12.4210402 C60.176414,11.9567899 60.8019879,11.6198948 61.50127,11.6682019 C61.5749781,11.6719661 61.6505761,11.6794945 61.7242842,11.6907871 C61.8027172,11.7045891 61.8471311,11.7077259 61.9954923,11.7547783 C62.122119,11.7974392 62.2298463,11.8463736 62.3394634,11.9172659 C62.4679801,12.0019602 62.5775973,12.1130039 62.6446906,12.2246749 C62.8610901,12.7020998 62.6428007,12.8714884 62.5728725,13.0107635 C62.3734826,13.243516 62.2185066,13.355187 61.8442962,13.485679 C61.6335666,13.5446513 61.3633035,13.6055058 60.9408994,13.5546892 C60.7849784,13.5421419 60.448567,13.4543107 60.2331125,13.3175451 L60.1641293,13.2748843 L60.1603494,13.2742569 L60.1518446,13.2723748 L60.1433398,13.2704927 C60.0771915,13.2184214 60.2746915,13.3821637 59.9978136,13.1544302 C59.7719644,12.973749 59.6415577,12.6908072 59.6434477,12.4800125 C59.6623472,12.0508947 59.8447275,11.8840156 59.9401701,11.73533 C60.1083757,11.5508846 60.0771915,11.5521393 60.1178255,11.4812471 C60.2340575,11.2579051 60.372024,11.0452282 60.5052655,10.8281599 C60.7934831,10.4071978 61.1317845,10.0119577 61.5050499,9.63491119 C62.2525257,8.88144555 63.1464727,8.21079211 64.1424772,7.61479514 C64.8014402,7.21453612 65.589235,6.79650175 66.5058615,6.36069204 L65.4673331,6.06332092 L64.4486493,5.74901093 L63.44792,5.41650736 C62.785492,5.19191061 62.1466884,4.94096451 61.5088298,4.69190051 C60.875696,4.43656286 60.2652417,4.16177689 59.6538424,3.88761828 C59.0547278,3.60091237 58.4603381,3.31106963 57.8810679,3.00742486 L56.9975156,2.52999992 C56.7338674,2.37566807 56.4636043,2.22698251 56.1895614,2.07955168 C55.6414754,1.78469002 55.5573726,1.25142957 56.0005662,0.887557736 C56.4447048,0.524313266 57.2488792,0.467850395 57.7960201,0.762712055 C57.8470488,0.78968876 57.8990225,0.822939117 57.9415464,0.854307379 C58.1768453,1.02808755 58.4159242,1.19998562 58.6616179,1.36686477 Z" id="Fill-4" fill="#582ADF"></path>
            </g>
        </g>
    </g>
</svg>