<?xml version="1.0" encoding="UTF-8"?>
<svg width="37px" height="111px" viewBox="0 0 37 111" version="1.1" xmlns="http://www.w3.org/2000/svg" xmlns:xlink="http://www.w3.org/1999/xlink">
    <!-- Generator: Sketch 53.2 (72643) - https://sketchapp.com -->
    <title>Group 6</title>
    <desc>Created with Sketch.</desc>
    <defs>
        <polygon id="path-1" points="0.041498982 0.0260106949 14.9835813 0.0260106949 14.9835813 17 0.041498982 17"></polygon>
    </defs>
    <g id="👖-main-flow-" stroke="none" stroke-width="1" fill="none" fill-rule="evenodd">
        <g id="99-14" transform="translate(-238.000000, -246.000000)">
            <g id="Group-6" transform="translate(255.247662, 301.616993) rotate(19.000000) translate(-255.247662, -301.616993) translate(220.747662, 254.616993)">
                <path d="M2.96636641,0.592949088 C2.96636641,0.592949088 3.83097208,1.95354365 5.38705979,4.30119364 C6.92188671,6.66621754 9.19881661,9.96834687 11.9303226,13.9415436 C14.7195364,17.8647903 17.9309289,22.4786501 21.5240032,27.2977392 C25.0917671,32.1374598 29.0260266,37.1910967 32.97446,42.2317032 C34.9456394,44.7520065 36.9178312,47.2712239 38.8586381,49.7524358 C40.7933704,52.2390771 42.6774818,54.6996575 44.4856618,57.0939999 C46.2827052,59.4981151 48.0190035,61.8229619 49.6662089,64.0261912 C51.2911411,66.2489662 52.806732,68.3664118 54.1583112,70.3644118 C55.5372256,72.3374368 56.7298549,74.2094759 57.8090934,75.849139 C58.8478351,77.5235498 59.7620493,78.9775292 60.4758045,80.2078194 C61.2057585,81.4239933 61.7423405,82.4153922 62.1108609,83.0864596 C62.4692572,83.7672998 62.6606043,84.1310661 62.6606043,84.1310661 C62.9866032,84.7445824 62.7871567,85.5253226 62.2141276,85.8749726 C61.7625888,86.1507835 61.2077833,86.0704291 60.8362256,85.7229509 C60.8362256,85.7229509 60.544649,85.4482259 59.9969304,84.9302661 C59.459336,84.4036194 58.6666121,83.6359096 57.7048142,82.6151922 C56.7247928,81.6118487 55.5908838,80.3424672 54.2858759,78.8906596 C53.0183276,77.4073618 51.5655066,75.7514107 50.0742137,73.8641694 C48.5464737,72.0095042 46.9630507,69.9354933 45.3117956,67.723577 C43.6868634,65.4899434 41.9617017,63.1433792 40.2233786,60.6773695 C38.4901176,58.2070162 36.7052233,55.6487075 34.9456394,53.0067869 C33.1658071,50.3811543 31.4112853,47.6686521 29.6415772,44.9702663 C26.1274715,39.5539489 22.6477881,34.1137424 19.3118681,29.0763935 C16.0113828,24.0097262 12.8151766,19.3763207 10.1616269,15.3347142 C7.43518304,11.3528306 5.20178715,7.99749362 3.58799156,5.69653602 C1.99646919,3.37603277 1.06099421,2.07081756 1.06099421,2.07081756 C0.665138458,1.51919582 0.761318245,0.726511044 1.27663942,0.301936046 C1.79196059,-0.122638952 2.53001391,-0.0183954745 2.92688208,0.533226262 C2.94004352,0.551686045 2.95421739,0.573403436 2.96636641,0.592949088" id="Fill-1" fill="#582ADF"></path>
                <g id="Group-5" transform="translate(53.197291, 76.948746)">
                    <mask id="mask-2" fill="white">
                        <use xlink:href="#path-1"></use>
                    </mask>
                    <g id="Clip-4"></g>
                    <path d="M12.422316,4.72819786 C12.4668081,5.805755 12.5973185,6.87894071 12.7881404,7.93464071 C12.9740188,8.99252643 13.2320733,10.0351121 13.5880106,11.0394479 C13.9152751,12.0525264 14.3542645,13.0207979 14.7912763,13.9672121 C15.2322431,14.9201836 14.8901478,16.0862621 14.0289773,16.5736764 C13.8253021,16.6884264 13.6097623,16.7550907 13.3952112,16.7769479 L12.6843254,16.8490764 C10.5358484,17.0632764 8.35968741,17.0862264 6.24482673,16.6753121 C5.18591331,16.4873407 4.14183062,16.1835264 3.15014981,15.6720693 C2.65282633,15.4239907 2.17033357,15.1179907 1.70267153,14.7617193 C1.47131229,14.5759336 1.24390792,14.3770336 1.01946969,14.1726693 C0.797997603,13.9551907 0.58146909,13.7191336 0.374827724,13.4535693 C-0.12348447,12.8098764 -0.0552631579,11.841605 0.527089783,11.290805 C0.659577549,11.1640336 0.809862179,11.0700479 0.966079097,11.0099407 L0.980909817,11.0044764 C2.14264956,10.5542193 3.19068711,10.4536764 4.21499551,10.4372836 C5.23732648,10.4274479 6.21813143,10.571705 7.19201538,10.7837193 C9.140772,11.1716836 10.706896,12.9005836 10.6179117,11.7355979 L10.4221462,8.25594071 C10.3697443,7.10406929 10.3400829,5.95656929 10.3133876,4.81016214 L10.4626835,3.09109786 C10.4547738,2.49986214 10.6011036,1.92829786 10.6011036,1.37968357 L10.6011036,1.36984786 C10.6011036,0.666047857 10.876955,0.0649764286 11.5146759,0.0278192857 C12.1504195,-0.00933785714 12.6052282,0.530533571 12.6398332,1.23324071 C12.6427994,1.31739071 12.5498602,1.40481929 12.539973,1.483505 C12.3936433,2.60914786 12.3768351,3.62659786 12.422316,4.72819786 Z" id="Fill-3" fill="#582ADF" mask="url(#mask-2)"></path>
                </g>
            </g>
        </g>
    </g>
</svg>