<?xml version="1.0" encoding="UTF-8"?>
<svg width="70px" height="178px" viewBox="0 0 70 178" version="1.1" xmlns="http://www.w3.org/2000/svg" xmlns:xlink="http://www.w3.org/1999/xlink">
    <!-- Generator: Sketch 53.2 (72643) - https://sketchapp.com -->
    <title>Group 6 Copy 3</title>
    <desc>Created with Sketch.</desc>
    <defs>
        <polygon id="path-1" points="3.63797881e-12 0.074654847 116.659792 0.074654847 116.659792 128.492766 3.63797881e-12 128.492766"></polygon>
    </defs>
    <g id="👖-main-flow-" stroke="none" stroke-width="1" fill="none" fill-rule="evenodd">
        <g id="99-09" transform="translate(-41.000000, -233.000000)">
            <g id="Group-6-Copy-3" transform="translate(88.721743, 316.862197) scale(-1, 1) rotate(136.000000) translate(-88.721743, -316.862197) translate(16.721743, 245.362197)">
                <g id="Group-3" transform="translate(0.114301, 13.844302)">
                    <mask id="mask-2" fill="white">
                        <use xlink:href="#path-1"></use>
                    </mask>
                    <g id="Clip-2"></g>
                    <path d="M114.6587,3.39604435 C114.6587,3.39604435 113.707843,3.52553752 111.924986,3.77082749 C110.153271,4.01736257 107.512414,4.3684883 104.243843,4.89144152 C102.665271,5.21268421 100.921414,5.56879045 99.0197,5.95602485 C97.1179857,6.34325926 95.0565571,6.74543519 92.9208429,7.37795955 C90.7702714,7.9631691 88.4804143,8.58448733 86.0661286,9.23942398 C83.7391286,10.0213635 81.2895571,10.8431472 78.7341286,11.7022846 C73.7514143,13.5724649 68.4474143,15.7302695 63.2269857,18.3798991 C57.9341286,20.9560663 52.7322714,24.0203231 47.7755571,27.4481569 L45.8775571,28.7156959 L44.1039857,30.0840902 C42.9284143,31.0029937 41.7454143,31.9293679 40.5568429,32.8607227 C39.3199857,33.7659298 38.2985571,34.7981399 37.1879857,35.7880156 C36.0941286,36.7828718 34.9965571,37.7851988 33.8952714,38.7912612 C31.8858429,40.89179 29.8968429,43.0234469 28.0044143,45.1899673 L25.4081286,48.5430936 C24.5389857,49.6587271 23.6419857,50.7631545 22.9622714,51.9397992 C21.5359857,54.266941 19.8812714,56.5231106 18.8171286,58.9199795 C18.2191286,60.0991145 17.6229857,61.2757593 17.0305571,62.4486686 C16.4919857,63.631539 16.0871286,64.8368216 15.6098429,66.0209371 C15.1752714,67.2112783 14.6385571,68.3792071 14.2894143,69.5695482 C13.9792714,70.7623796 13.6691286,71.9502305 13.3627,73.1306106 L12.8779857,74.8899747 L12.7572714,75.3282593 L12.6959857,75.5449113 C12.7331286,75.3730838 12.7015571,75.5312149 12.7071286,75.5075575 L12.6959857,75.5648333 L12.6774143,75.6818752 L12.5177,76.6057593 C12.3189857,77.8247383 12.0478429,79.0985029 11.9995571,80.1755375 C11.5241286,84.6430521 11.6021286,89.2076866 12.3654143,93.3452427 C13.0284143,97.5226428 14.2727,101.396232 15.8661286,104.856439 C17.4651286,108.311666 19.2665571,111.425728 21.3892714,113.989443 C21.6325571,114.320647 21.8721286,114.64687 22.1079857,114.966868 C22.3809857,115.271924 22.6484143,115.570754 22.9102714,115.863359 C23.4432714,116.454794 23.9539857,117.022572 24.4461286,117.569183 C25.5418429,118.62007 26.5465571,119.585043 27.4547,120.459122 C28.4798429,121.265964 29.3954143,122.000589 30.1791286,122.659261 C30.9498429,123.327894 31.7781286,123.772404 32.3482714,124.216914 C33.5498429,125.074807 34.1905571,125.531768 34.1905571,125.531768 L34.3799857,125.667487 C35.3271286,126.342346 35.2788429,127.404439 34.2704143,128.038208 C33.4439857,128.559916 32.2219857,128.629643 31.2897,128.262331 C31.2897,128.262331 30.4075571,127.914941 28.7509857,127.262494 C27.0461286,126.636195 24.7674143,125.515581 21.9519857,123.955438 C20.6705571,123.105016 19.1328429,122.20977 17.6582714,121.116549 C16.9507,120.551261 16.2152714,119.962316 15.4538429,119.353449 C15.0749857,119.044658 14.6887,118.730886 14.2949857,118.410888 C13.9421286,118.074704 13.5799857,117.732294 13.2141286,117.384904 C10.1869857,114.625703 7.54612857,111.179192 5.29341429,107.284436 C3.07041429,103.377229 1.43612857,98.9669898 0.6357,94.2554303 C-0.112728571,89.5127427 -0.272442857,84.6044532 0.548414286,79.3574893 C0.709985714,77.999056 1.02384286,76.8423333 1.28941429,75.6059225 L1.49555714,74.6857739 L1.56798571,74.3595507 L1.64598571,74.1204864 L1.80198571,73.6423577 L2.42784286,71.7236174 C2.86427143,70.4461174 3.30441429,69.1586564 3.74455714,67.8649698 C4.2367,66.5824893 4.91827143,65.3286467 5.50141429,64.0536369 C6.13284286,62.7873431 6.66027143,61.4936564 7.39012857,60.2447943 C8.1627,59.0083835 8.93898571,57.7682373 9.71527143,56.5256009 C11.1471286,54.0079547 13.1639857,51.6633811 14.9747,49.2652671 C15.8457,48.0525136 16.9302714,46.9194483 17.9869857,45.7801574 L21.1422714,42.3697554 C23.4024143,40.174597 25.7517,38.032979 28.1084143,35.9399211 C29.3675571,34.9326135 30.6192714,33.9290414 31.8654143,32.9316949 C33.1264143,31.9443095 34.2964143,30.9145897 35.6762714,30.0180984 C37.0059857,29.0954596 38.3282714,28.1778012 39.6412714,27.2676135 L41.5857,25.8992193 L43.6564143,24.6354157 C46.4365571,22.9831326 49.0142714,21.2474259 51.9039857,19.8304717 C54.7175571,18.3599771 57.3509857,16.8185102 60.2221286,15.5920604 C65.7397,12.93496 71.3204143,10.7871165 76.5501286,8.93685819 C79.2039857,8.05530848 81.7464143,7.21111257 84.1644143,6.40800585 C86.6697,5.73190205 89.0449857,5.09066179 91.2772714,4.48802047 C93.4742714,3.8368192 95.6749857,3.42592739 97.6769857,2.99386842 C99.6827,2.56180945 101.521271,2.16585916 103.183414,1.80726267 C106.4947,1.22703363 109.090986,0.874662768 110.857129,0.565871345 C112.623271,0.277001949 113.5667,0.122606238 113.5667,0.122606238 C114.909414,-0.0965360624 116.261414,0.456300195 116.588271,1.35528168 C116.915129,2.25550828 116.090557,3.16320565 114.7497,3.38110283 C114.7237,3.38608333 114.686557,3.39106384 114.6587,3.39604435" id="Fill-1" fill="#582ADF" mask="url(#mask-2)"></path>
                </g>
                <path d="M112.263837,2.41470739 L113.64952,3.25561809 C114.645077,3.79973679 115.675598,4.31851958 116.763165,4.78542409 C117.847052,5.25474154 118.984306,5.66614836 120.138121,6.05583869 C121.299297,6.43467077 122.502799,6.75076633 123.7063,7.05479717 C124.928203,7.33590506 126.164828,7.57719938 127.418015,7.76540895 C128.674883,7.95120558 129.951993,8.05737508 131.214381,8.15751222 C132.48229,8.24075876 133.757559,8.24679112 135.014427,8.24437818 C136.274975,8.22507463 137.51896,8.16837046 138.748225,8.08512392 C141.129464,7.9246632 143.258594,9.05995298 143.505183,10.6211272 C143.645039,11.5139162 143.13898,12.3536205 142.235434,12.9387592 L141.203073,13.5986992 L136.026545,16.9092572 C134.298583,17.9938752 132.566939,19.062809 130.800332,20.106407 C129.050287,21.1608632 127.19903,22.1417246 125.165591,23.0308942 C124.147952,23.4748757 123.095348,23.9031731 121.965456,24.2952764 C121.374746,24.4762471 120.820841,24.6813473 120.208049,24.8562857 C120.082915,24.8743828 119.797681,25.0215723 119.943058,24.8309498 C119.948579,24.7103026 120.139961,24.5763843 120.160204,23.9562579 C120.156523,23.652227 119.941218,23.2118649 119.589737,22.9488541 C119.054234,22.5145243 119.44252,22.8306199 119.324746,22.7353086 L119.332107,22.7509927 L119.333947,22.761851 L119.216173,22.6894627 C118.827888,22.4385166 118.205895,22.2865012 117.942744,22.2647847 C117.195616,22.1803317 116.746603,22.2840882 116.411684,22.3818124 C115.824655,22.5917385 115.646154,22.7353086 115.338838,23.0972501 C115.239467,23.3204473 114.84566,23.5943164 115.243147,24.4629759 C115.360921,24.6668696 115.565185,24.8695569 115.804413,25.0215723 C116.004996,25.1494583 116.194539,25.2363242 116.426406,25.312332 C116.698758,25.394372 116.766846,25.3991979 116.899341,25.4233273 C117.026316,25.4414244 117.153291,25.4534891 117.276586,25.4571085 C115.916666,25.3642102 114.92847,24.5643196 115.070167,23.672737 C115.213703,22.7799481 116.431926,22.1320728 117.793686,22.2249711 C117.937223,22.2322099 118.08444,22.2466876 118.227977,22.2684041 C118.380715,22.2949465 118.467205,22.3009788 118.756119,22.3914642 C119.002708,22.4735043 119.212493,22.5676091 119.425958,22.7039403 C119.676227,22.866814 119.889692,23.0803595 120.020347,23.2951114 C120.441757,24.2132363 120.016667,24.5389837 119.880491,24.8068204 C119.492205,25.2544213 119.19041,25.4691733 118.461685,25.7201194 C118.051316,25.8335277 117.525015,25.9505554 116.702438,25.8528312 C116.398803,25.8287018 115.743686,25.6597958 115.324116,25.396785 L115.189781,25.3147449 L115.18242,25.3135384 L115.165858,25.309919 L115.149296,25.3062996 C115.020481,25.2061625 115.405086,25.5210515 114.865903,25.0831023 C114.426091,24.7356385 114.172141,24.1915198 114.175822,23.7861454 C114.212626,22.9609188 114.567788,22.6399974 114.75365,22.3540636 C115.081208,21.9993609 115.020481,22.0017739 115.09961,21.8654426 C115.325957,21.4359387 115.594628,21.0269448 115.854099,20.6095056 C116.415364,19.7999632 117.074162,19.0398861 117.801047,18.3147967 C119.256658,16.8658243 120.997502,15.5761061 122.93709,14.4299581 C124.220334,13.6602292 125.75446,12.856317 127.53947,12.0182214 L125.517072,11.4463538 L123.53332,10.8419115 L121.584531,10.2024816 C120.29454,9.77056475 119.050554,9.28797611 117.808408,8.80900689 C116.575463,8.31797294 115.386684,7.78953838 114.196064,7.26231029 C113.029367,6.71095277 111.871871,6.15356289 110.743819,5.56963063 L109.023217,4.65150574 C108.509797,4.35471372 107.983495,4.06877995 107.449833,3.78525913 C106.382507,3.21821747 106.218728,2.19271661 107.081789,1.49296308 C107.946691,0.794416022 109.512715,0.685833578 110.5782,1.25287523 C110.677571,1.30475351 110.778783,1.36869651 110.861593,1.42902009 C111.319807,1.76321272 111.785381,2.09378594 112.263837,2.41470739 Z" id="Fill-4" fill="#582ADF"></path>
            </g>
        </g>
    </g>
</svg>