<?xml version="1.0" encoding="UTF-8"?>
<svg width="53px" height="145px" viewBox="0 0 53 145" version="1.1" xmlns="http://www.w3.org/2000/svg" xmlns:xlink="http://www.w3.org/1999/xlink">
    <!-- Generator: Sketch 53.2 (72643) - https://sketchapp.com -->
    <title>Group 6 Copy 3</title>
    <desc>Created with Sketch.</desc>
    <defs>
        <polygon id="path-1" points="3.63797881e-12 0.0706038088 76.7761026 0.0706038088 76.7761026 121.520291 3.63797881e-12 121.520291"></polygon>
    </defs>
    <g id="👖-main-flow-" stroke="none" stroke-width="1" fill="none" fill-rule="evenodd">
        <g id="99-10" transform="translate(-11.000000, -541.000000)">
            <g id="Group-6-Copy-3" transform="translate(48.067675, 611.589487) scale(-1, 1) rotate(153.000000) translate(-48.067675, -611.589487) translate(1.067675, 545.089487)">
                <g id="Group-3" transform="translate(0.424066, 10.528824)">
                    <mask id="mask-2" fill="white">
                        <use xlink:href="#path-1"></use>
                    </mask>
                    <g id="Clip-2"></g>
                    <path d="M73.6600333,3.56620894 C72.4940333,3.79936615 70.7560333,4.13143855 68.6049222,4.62601446 C67.5660333,4.92982538 66.4183667,5.26660802 65.1668111,5.63282971 C63.9152556,5.99905139 62.5585889,6.37940382 61.1530333,6.97760516 C59.7377,7.53105915 58.2307,8.11866244 56.6418111,8.73805988 C55.1103667,9.47756863 53.4982556,10.2547593 51.8164778,11.0672769 C48.5372556,12.8359746 45.0465889,14.876689 41.6109222,17.3825403 C38.1275889,19.8189154 34.7041444,22.7168947 31.4420333,25.958722 L30.1929222,27.1574798 L29.0257,28.4516201 C28.2520333,29.3206607 27.4734778,30.1967666 26.6912556,31.0775827 C25.8772556,31.9336701 25.2050333,32.9098687 24.4741444,33.8460303 C23.7542556,34.786902 23.0319222,35.7348392 22.3071444,36.686309 C20.9847,38.6728556 19.6757,40.6888412 18.4302556,42.7377986 L16.7215889,45.9089722 C16.1495889,46.9640675 15.5592556,48.0085647 15.1119222,49.1213605 C14.1732556,51.3222233 13.0842556,53.4559651 12.3839222,55.7227713 C11.9903667,56.8379223 11.5980333,57.9507181 11.2081444,59.0599812 C10.8537,60.1786648 10.5872556,61.3185445 10.2731444,62.4384057 C9.98714444,63.5641546 9.63392222,64.6687075 9.40414444,65.7944565 C9.20003333,66.9225606 8.99592222,68.0459544 8.79425556,69.1622829 L8.47525556,70.8261776 L8.39581111,71.2406793 L8.35547778,71.445575 C8.37992222,71.2830715 8.35914444,71.4326219 8.36281111,71.4102482 L8.35547778,71.464416 L8.34325556,71.5751068 L8.23814444,72.4488576 C8.10736667,73.6016905 7.92892222,74.8063361 7.89714444,75.824927 C7.58425556,80.0500183 7.63558889,84.3669595 8.13792222,88.279997 C8.57425556,92.2307164 9.39314444,95.8941109 10.4418111,99.1665548 C11.4941444,102.434288 12.6797,105.37937 14.0767,107.80397 C14.2368111,108.117201 14.3944778,108.425722 14.5497,108.728356 C14.7293667,109.016858 14.9053667,109.299473 15.0777,109.5762 C15.4284778,110.135542 15.7645889,110.67251 16.0884778,111.18946 C16.8095889,112.183322 17.4708111,113.095932 18.0684778,113.92258 C18.7431444,114.68564 19.3457,115.380402 19.8614778,116.003332 C20.3687,116.635682 20.9138111,117.056072 21.2890333,117.476462 C22.0798111,118.287802 22.5014778,118.719967 22.5014778,118.719967 L22.6261444,118.848321 C23.2494778,119.486559 23.2177,120.491019 22.5540333,121.090398 C22.0101444,121.583797 21.2059222,121.64974 20.5923667,121.302359 C20.5923667,121.302359 20.0118111,120.97382 18.9215889,120.356777 C17.7995889,119.764464 16.2999222,118.704658 14.4470333,117.229174 C13.6037,116.424899 12.5917,115.578232 11.6212556,114.544333 C11.1555889,114.00972 10.6715889,113.452733 10.1704778,112.876906 C9.92114444,112.58487 9.66692222,112.288125 9.40781111,111.985491 C9.17558889,111.66755 8.93725556,111.34372 8.69647778,111.015181 C6.70425556,108.405704 4.96625556,105.146213 3.4837,101.4628 C2.0207,97.7676115 0.945144444,93.596688 0.418366667,89.1407946 C-0.0741888889,84.6554621 -0.1793,80.0135139 0.360922222,75.0512689 C0.467255556,73.7665491 0.673811111,72.6725943 0.848588889,71.5032756 L0.984255556,70.6330575 L1.03192222,70.3245363 L1.08325556,70.0984445 L1.18592222,69.6462608 L1.59781111,67.8316382 C1.88503333,66.6234599 2.1747,65.4058611 2.46436667,64.1823745 C2.78825556,62.969486 3.23681111,61.7836814 3.62058889,60.5778582 C4.03614444,59.380278 4.38325556,58.1567914 4.86358889,56.975697 C5.37203333,55.8063782 5.88292222,54.6335268 6.39381111,53.4583202 C7.33614444,51.0772905 8.66347778,48.8599418 9.85514444,46.591958 C10.4283667,45.4450129 11.1421444,44.3734318 11.8375889,43.2959628 L13.9141444,40.0706213 C15.4015889,37.9945801 16.9477,35.969174 18.4987,33.9896928 C19.3273667,33.0370454 20.1511444,32.0879306 20.9712556,31.1447037 C21.8011444,30.2108973 22.5711444,29.2370538 23.4792556,28.3892094 C24.3543667,27.5166362 25.2245889,26.6487732 26.0887,25.7879756 L27.3683667,24.4938353 L28.7311444,23.2986102 C30.5608111,21.7359858 32.2572556,20.0944648 34.1590333,18.7543996 C36.0107,17.3636993 37.7438111,15.9058779 39.6333667,14.7459796 C43.2645889,12.233063 46.9373667,10.2017691 50.3791444,8.45191239 C52.1257,7.61819872 53.7989222,6.81981189 55.3902556,6.0602846 C57.0390333,5.4208686 58.6022556,4.81442433 60.0713667,4.24448447 C61.5172556,3.62861971 62.9655889,3.24002435 64.2831444,2.83141044 C65.6031444,2.42279654 66.8131444,2.04833192 67.9070333,1.70919415 C70.0862556,1.16045041 71.7949222,0.827200447 72.9572556,0.535165148 C74.1195889,0.261970836 74.7404778,0.115953186 74.7404778,0.115953186 C75.6241444,-0.0912976714 76.5139222,0.431539719 76.7290333,1.28173926 C76.9441444,2.13311636 76.4014778,2.99155883 75.5190333,3.19763213 C75.5019222,3.20234238 75.4774778,3.20705262 75.4591444,3.21176287 C75.4591444,3.21176287 74.8333667,3.33422929 73.6600333,3.56620894 Z" id="Fill-1" fill="#582ADF" mask="url(#mask-2)"></path>
                </g>
                <path d="M73.141341,1.59456631 L74.0401622,2.33456773 C74.6859287,2.81339218 75.3543747,3.26992104 76.059824,3.68079701 C76.7628859,4.09379637 77.5005638,4.45583437 78.2489846,4.79876185 C79.00218,5.13213409 79.7828294,5.41029818 80.5634789,5.67784532 C81.3560648,5.92522026 82.1582,6.13755926 82.9710781,6.30318368 C83.7863435,6.46668472 84.6147391,6.56011388 85.4335854,6.64823456 C86.2560127,6.72149152 87.0832146,6.72679999 87.89848,6.7246766 C88.7161327,6.70768948 89.5230425,6.65778982 90.3204031,6.58453286 C91.8649908,6.44332743 93.246048,7.44238243 93.4059975,8.81621578 C93.4967152,9.60187008 93.1684605,10.3408098 92.5823766,10.8557319 L91.9127369,11.4364791 L88.5549895,14.3497702 C87.4341488,15.304234 86.3109208,16.2448958 85.1650133,17.163262 C84.0298488,18.0911834 82.8290333,18.9543414 81.5100461,19.7368107 C80.8499557,20.1275144 80.1671859,20.5044162 79.4342826,20.849467 C79.0511198,21.0087213 78.6918301,21.1892094 78.2943434,21.3431552 C78.213175,21.3590806 78.0281587,21.4886074 78.1224573,21.3208596 C78.1260383,21.2146901 78.2501783,21.096842 78.2633085,20.5511307 C78.2609211,20.2835836 78.1212637,19.8960649 77.8932759,19.6646154 C77.5459227,19.2824052 77.7977836,19.5605693 77.7213897,19.4766954 L77.7261644,19.4904974 L77.727358,19.5000527 L77.6509642,19.436351 C77.3991033,19.2155184 76.9956484,19.0817448 76.8249559,19.0626343 C76.3403326,18.9883157 76.0490811,19.0796215 75.8318362,19.1656187 C75.4510607,19.3503537 75.3352763,19.4766954 75.1359361,19.7952039 C75.0714788,19.9916175 74.816037,20.2326222 75.0738661,20.9970426 C75.15026,21.1764691 75.2827555,21.3548339 75.4379305,21.4886074 C75.5680387,21.6011471 75.690985,21.6775891 75.8413854,21.7444759 C76.0180461,21.8166712 76.0622113,21.820918 76.1481543,21.8421519 C76.2305164,21.8580773 76.3128785,21.8686942 76.3928533,21.8718793 C75.5107433,21.7901288 74.8697514,21.086225 74.9616627,20.3016324 C75.0547677,19.5159781 75.8449663,18.9458479 76.72827,19.0275984 C76.821375,19.0339686 76.9168672,19.0467089 77.0099722,19.0658194 C77.1090455,19.0891767 77.1651472,19.0944852 77.3525508,19.1741123 C77.5125004,19.2463076 77.6485769,19.3291198 77.7870407,19.4490913 C77.9493776,19.5924201 78.0878414,19.7803402 78.1725908,19.9693219 C78.4459375,20.7772718 78.1702035,21.0639294 78.0818731,21.2996257 C77.8300122,21.6935146 77.634253,21.8824963 77.1615662,22.1033288 C76.8953815,22.2031282 76.5539966,22.3061126 76.0204334,22.2201153 C75.8234806,22.1988814 75.3985399,22.0502441 75.1263869,21.8187946 L75.0392502,21.7465993 L75.0344756,21.7455376 L75.0237327,21.7423525 L75.0129898,21.7391675 C74.9294341,21.6510468 75.1789077,21.9281492 74.8291672,21.5427539 C74.543884,21.2369857 74.3791598,20.7581613 74.3815471,20.4014317 C74.4054201,19.6752324 74.6357953,19.3928215 74.7563543,19.1411998 C74.9688246,18.8290614 74.9294341,18.8311848 74.9807612,18.7112133 C75.1275806,18.3332499 75.301854,17.9733352 75.4701591,17.6059888 C75.8342235,16.8935914 76.2615514,16.2247236 76.7330446,15.5866449 C77.6772246,14.3115492 78.8064208,13.1765972 80.0645317,12.1679869 C80.8969061,11.4906255 81.8920153,10.7831827 83.0498592,10.0456586 L81.738034,9.54241516 L80.4512754,9.01050596 L79.1871963,8.44780761 C78.3504452,8.06772079 77.5435354,7.64304279 76.7378192,7.22154987 C75.9380713,6.78944 75.1669711,6.32441758 74.3946773,5.86045686 C73.6379009,5.37526224 72.8870928,4.88475915 72.1553832,4.37089876 L71.0393171,3.56294886 C70.7062878,3.30177189 70.3649028,3.05015017 70.0187433,2.80065184 C69.3264242,2.30165519 69.2201891,1.39921443 69.7800126,0.783431321 C70.3410298,0.168709909 71.356829,0.0731573582 72.0479544,0.572154014 C72.1124117,0.617806899 72.1780626,0.674076735 72.231777,0.727161485 C72.5289967,1.021251 72.8309911,1.31215544 73.141341,1.59456631 Z" id="Fill-4" fill="#582ADF"></path>
            </g>
        </g>
    </g>
</svg>