<?xml version="1.0" encoding="UTF-8"?>
<svg width="27px" height="17px" viewBox="0 0 27 17" version="1.1" xmlns="http://www.w3.org/2000/svg" xmlns:xlink="http://www.w3.org/1999/xlink">
    <!-- Generator: Sketch 53.2 (72643) - https://sketchapp.com -->
    <title>deconstruction</title>
    <desc>Created with Sketch.</desc>
    <g id="Page-1" stroke="none" stroke-width="1" fill="none" fill-rule="evenodd">
        <g id="Yesplz_buttons-(1)" transform="translate(-816.000000, -146.000000)" stroke="#4A4A4A">
            <g id="pants/jeans" transform="translate(798.000000, 23.170200)">
                <g id="deconstruction" transform="translate(19.919700, 124.000000)">
                    <path d="M0,3.0394774 C5,1.2330258 8.8333333,0.3298 11.5,0.3298 C14.1666667,0.3298 18.1666667,1.2330258 23.5,3.0394774 C22.1666667,4.8888423 21.5,6.5447563 21.5,8.0072194 C21.5,9.4696824 22,10.9750588 23,12.5233484 C19.6666667,13.7276495 16.1666667,14.3298 12.5,14.3298 C8.8333333,14.3298 4.6666667,13.8781871 0,12.9749613 C1,10.7993513 1.5,8.9928996 1.5,7.5556065 C1.5,6.1183133 1,4.6129369 0,3.0394774 Z" id="Path-2" stroke-width="1.5"></path>
                    <path d="M1.5,3.3298 C5.9099569,2.6631333 9.2432903,2.3298 11.5,2.3298 C13.7567097,2.3298 17.1417743,2.6631333 21.6551938,3.3298" id="Line" stroke-linecap="square"></path>
                    <path d="M1.5,5.3298 C5.9099569,4.6631333 9.2432903,4.3298 11.5,4.3298 C13.7567097,4.3298 17.1417743,4.6631333 21.6551938,5.3298" id="Line" stroke-linecap="square"></path>
                    <path d="M1,12.2298 C5.4099569,11.5631333 8.7432903,11.2298 11,11.2298 C13.2567097,11.2298 16.6417743,11.5631333 21.1551938,12.2298" id="Line" stroke-linecap="square" transform="translate(11.077597, 11.729800) scale(-1, 1) rotate(-180.000000) translate(-11.077597, -11.729800) "></path>
                </g>
            </g>
        </g>
    </g>
</svg>