<?xml version="1.0" encoding="UTF-8"?>
<svg width="43px" height="43px" viewBox="0 0 43 43" version="1.1" xmlns="http://www.w3.org/2000/svg" xmlns:xlink="http://www.w3.org/1999/xlink">
    <!-- Generator: Sketch 50.2 (55047) - http://www.bohemiancoding.com/sketch -->
    <title>Details-On</title>
    <desc>Created with Sketch.</desc>
    <defs></defs>
    <g id="Page-1" stroke="none" stroke-width="1" fill="none" fill-rule="evenodd">
        <g id="Presets-Copy-2" transform="translate(-525.000000, -705.000000)" fill="#FFFFFF" fill-rule="nonzero">
            <g id="Preset-1" transform="translate(131.000000, 483.000000)">
                <g id="Website-Preset-Filters-On" transform="translate(387.000000, 91.000000)">
                    <g id="Preset-Details-Off" transform="translate(0.794393, 126.390593)">
                        <path d="M17.9937503,39.7972284 C15.7909838,39.7870617 14.0125706,37.9949218 14.0193406,35.7921422 C14.0261106,33.5893626 15.815506,31.808188 18.0182934,31.8115613 C20.2210809,31.8149346 22.0050126,33.6015812 22.005036,35.8043712 C22.0050474,36.8665435 21.5818438,37.8849451 20.8290473,38.6342831 C20.0762509,39.3836211 19.0559113,39.8021307 17.9937503,39.7972284 Z M17.9937503,29.8411927 C15.7909838,29.8310259 14.0125706,28.0388861 14.0193406,25.8361065 C14.0261106,23.6333269 15.815506,21.8521523 18.0182934,21.8555256 C20.2210809,21.8588989 22.0050126,23.6455455 22.005036,25.8483355 C22.0050474,26.9105078 21.5818438,27.9289094 20.8290473,28.6782474 C20.0762509,29.4275854 19.0559113,29.846095 17.9937503,29.8411927 Z M17.9937503,19.9189427 C15.7885562,19.9189427 14.0008932,18.1312796 14.0008932,15.9260855 C14.0008932,13.7208914 15.7885562,11.9332284 17.9937503,11.9332284 C20.1989444,11.9332284 21.9866075,13.7208914 21.9866075,15.9260855 C21.9790243,18.1281309 20.1957957,19.9113595 17.9937503,19.9189427 Z M27.8453575,39.7972284 C25.6401634,39.7972284 23.8525003,38.0095653 23.8525003,35.8043712 C23.8525003,33.5991771 25.6401634,31.8115141 27.8453575,31.8115141 C30.0505516,31.8115141 31.8382146,33.5991771 31.8382146,35.8043712 C31.8382146,38.0095653 30.0505516,39.7972284 27.8453575,39.7972284 Z M27.8453575,29.8411927 C25.6401634,29.8411927 23.8525003,28.0535296 23.8525003,25.8483355 C23.8525003,23.6431414 25.6401634,21.8554784 27.8453575,21.8554784 C30.0505516,21.8554784 31.8382146,23.6431414 31.8382146,25.8483355 C31.8382146,28.0535296 30.0505516,29.8411927 27.8453575,29.8411927 Z M27.8453575,19.9189427 C25.6425909,19.9087759 23.8641778,18.1166361 23.8709478,15.9138565 C23.8777178,13.7110769 25.6671131,11.9299023 27.8699006,11.9332756 C30.072688,11.9366489 31.8566197,13.7232955 31.8566432,15.9260855 C31.8566545,16.9882578 31.4334509,18.0066594 30.6806545,18.7559974 C29.927858,19.5053354 28.9075184,19.923845 27.8453575,19.9189427 Z M37.6969646,39.7972284 C35.4917705,39.7972284 33.7041075,38.0095653 33.7041075,35.8043712 C33.7041075,33.5991771 35.4917705,31.8115141 37.6969646,31.8115141 C39.9021587,31.8115141 41.6898218,33.5991771 41.6898218,35.8043712 C41.6898218,38.0095653 39.9021587,39.7972284 37.6969646,39.7972284 Z M37.6969646,29.8411927 C35.4917705,29.8411927 33.7041075,28.0535296 33.7041075,25.8483355 C33.7041075,23.6431414 35.4917705,21.8554784 37.6969646,21.8554784 C39.9021587,21.8554784 41.6898218,23.6431414 41.6898218,25.8483355 C41.6898218,28.0535296 39.9021587,29.8411927 37.6969646,29.8411927 Z M37.6969646,19.9189427 C35.4917705,19.9189427 33.7041075,18.1312796 33.7041075,15.9260855 C33.7041075,13.7208914 35.4917705,11.9332284 37.6969646,11.9332284 C39.9021587,11.9332284 41.6898218,13.7208914 41.6898218,15.9260855 C41.6898218,18.1312796 39.9021587,19.9189427 37.6969646,19.9189427 Z M17.9937503,12.8392998 C16.2974472,12.8392998 14.9223218,14.2144252 14.9223218,15.9107284 C14.9223218,17.6070315 16.2974472,18.982157 17.9937503,18.982157 C19.6900535,18.982157 21.0651789,17.6070315 21.0651789,15.9107284 C21.0559463,14.2182642 19.6862145,12.8485324 17.9937503,12.8392998 Z M37.6969646,22.7615498 C36.0006615,22.7615498 34.625536,24.1366752 34.625536,25.8329784 C34.625536,27.5292815 36.0006615,28.904407 37.6969646,28.904407 C39.3932678,28.904407 40.7683932,27.5292815 40.7683932,25.8329784 C40.7683932,25.0183849 40.4447972,24.237155 39.8687926,23.6611504 C39.292788,23.0851458 38.5115581,22.7615498 37.6969646,22.7615498 Z M27.8453575,32.7129784 C26.1490543,32.7129784 24.7739289,34.0881038 24.7739289,35.784407 C24.7739289,37.4807101 26.1490543,38.8558355 27.8453575,38.8558355 C29.5416606,38.8558355 30.916786,37.4807101 30.916786,35.784407 C30.916786,34.0881038 29.5416606,32.7129784 27.8453575,32.7129784 Z M27.7056075,4.60940695 C15.8314854,4.60940695 6.20560748,14.2352848 6.20560748,26.109407 C6.20560748,37.9835291 15.8314854,47.609407 27.7056075,47.609407 C39.5797296,47.609407 49.2056075,37.9835291 49.2056075,26.109407 C49.2056075,20.4072524 46.9404354,14.9386433 42.9084033,10.9066112 C38.8763711,6.87457902 33.407762,4.60940695 27.7056075,4.60940695 Z" id="Details-On"></path>
                    </g>
                </g>
            </g>
        </g>
    </g>
</svg>