<?xml version="1.0" encoding="UTF-8"?>
<svg width="32px" height="32px" viewBox="0 0 32 32" version="1.1" xmlns="http://www.w3.org/2000/svg" xmlns:xlink="http://www.w3.org/1999/xlink">
    <!-- Generator: Sketch 50.2 (55047) - http://www.bohemiancoding.com/sketch -->
    <title>detail_0-2</title>
    <desc>Created with Sketch.</desc>
    <defs></defs>
    <g id="Page-1" stroke="none" stroke-width="1" fill="none" fill-rule="evenodd">
        <g id="Home-–-Semi-final" transform="translate(-550.000000, -2837.000000)" fill="#FFFFFF" fill-rule="nonzero" stroke="#707070">
            <g id="Home_Semi_final_" transform="translate(-1.000000, 0.000000)">
                <g id="editor's-pick-lists" transform="translate(298.000000, 2392.000000)">
                    <g id="Group_567" transform="translate(40.000000, 446.000000)">
                        <g id="Group_565-2" transform="translate(213.000000, 0.000000)">
                            <path d="M9.224,24.55 C7.89492499,24.5444814 6.75467775,23.6012306 6.50015375,22.2967428 C6.24562975,20.992255 6.94765925,19.6895499 8.17717637,19.1848139 C9.4066935,18.6800778 10.8215419,19.1137714 11.5569955,20.22083 C12.2924491,21.3278887 12.1438421,22.8002344 11.202,23.738 C10.6769086,24.2609746 9.9650892,24.5531876 9.224,24.55 Z M9.224,17.604 C7.89492499,17.5984814 6.75467775,16.6552306 6.50015375,15.3507428 C6.24562975,14.046255 6.94765925,12.7435499 8.17717637,12.2388139 C9.4066935,11.7340778 10.8215419,12.1677714 11.5569955,13.27483 C12.2924491,14.3818887 12.1438421,15.8542344 11.202,16.792 C10.6761918,17.313415 9.96449361,17.6041391 9.224,17.6 L9.224,17.604 Z M9.224,10.681 C7.68533469,10.681 6.438,9.43366531 6.438,7.895 C6.438,6.35633469 7.68533469,5.109 9.224,5.109 C10.7626653,5.109 12.01,6.35633469 12.01,7.895 C12.01,9.43366531 10.7626653,10.681 9.224,10.681 Z M16.1,24.55 C14.5613347,24.55 13.314,23.3026653 13.314,21.764 C13.314,20.2253347 14.5613347,18.978 16.1,18.978 C17.6386653,18.978 18.886,20.2253347 18.886,21.764 C18.886,22.5028931 18.5924758,23.2115231 18.0699995,23.7339995 C17.5475231,24.2564758 16.8388931,24.55 16.1,24.55 Z M16.1,17.604 C14.5613347,17.604 13.314,16.3566653 13.314,14.818 C13.314,13.2793347 14.5613347,12.032 16.1,12.032 C17.6386653,12.032 18.886,13.2793347 18.886,14.818 C18.8837931,16.355103 17.6371046,17.6000016 16.1,17.6 L16.1,17.604 Z M16.1,10.681 C14.7720002,10.6746131 13.633257,9.73145289 13.3796486,8.4278782 C13.1260401,7.1243035 13.8281288,5.82301234 15.056873,5.3192148 C16.2856171,4.81541726 17.6991392,5.24928666 18.4336454,6.35568839 C19.1681517,7.46209012 19.019278,8.93318624 18.078,9.87 C17.5528072,10.392702 16.8409671,10.6845636 16.1,10.681 Z M22.973,24.55 C21.4343347,24.55 20.187,23.3026653 20.187,21.764 C20.187,20.2253347 21.4343347,18.978 22.973,18.978 C24.5116653,18.978 25.759,20.2253347 25.759,21.764 C25.7590002,22.5032398 25.4652015,23.2121731 24.9422925,23.7347069 C24.4193835,24.2572408 23.7102396,24.5505307 22.971,24.55 L22.973,24.55 Z M22.973,17.604 C21.4343347,17.604 20.187,16.3566653 20.187,14.818 C20.187,13.2793347 21.4343347,12.032 22.973,12.032 C24.5116653,12.032 25.759,13.2793347 25.759,14.818 C25.7567924,16.3558841 24.5088853,17.6011056 22.971,17.6 L22.973,17.604 Z M22.973,10.681 C21.4343347,10.681 20.187,9.43366531 20.187,7.895 C20.187,6.35633469 21.4343347,5.109 22.973,5.109 C24.5116653,5.109 25.759,6.35633469 25.759,7.895 C25.7590002,8.63423979 25.4652015,9.34317306 24.9422925,9.86570694 C24.4193835,10.3882408 23.7102396,10.6815307 22.971,10.681 L22.973,10.681 Z M9.224,5.742 C8.04045378,5.742 7.081,6.70145378 7.081,7.885 C7.081,9.06854622 8.04045378,10.028 9.224,10.028 C10.4075462,10.028 11.367,9.06854622 11.367,7.885 C11.367,7.31664106 11.1412203,6.77156063 10.7393298,6.36967017 C10.3374394,5.96777971 9.79235894,5.742 9.224,5.742 Z M22.97,12.664 C21.9470568,12.6634875 21.0662316,13.3857116 20.8662821,14.3889231 C20.6663326,15.3921345 21.2029586,16.39687 22.1479321,16.7885818 C23.0929056,17.1802936 24.1829865,16.849863 24.7514256,15.9993984 C25.3198646,15.1489338 25.2083124,14.0153479 24.485,13.292 C24.0834894,12.8903143 23.5389454,12.66444 22.971,12.664 L22.97,12.664 Z M16.1,19.607 C14.9164538,19.607 13.957,20.5664538 13.957,21.75 C13.957,22.9335462 14.9164538,23.893 16.1,23.893 C17.2835462,23.893 18.243,22.9335462 18.243,21.75 C18.243,20.5664538 17.2835462,19.607 16.1,19.607 Z M16,0 C8.84390752,0.000380016281 2.68461231,5.05571031 1.28887335,12.0743692 C-0.106865617,19.0930281 3.64968171,26.1202348 10.2611732,28.8584531 C16.8726647,31.5966715 24.4977206,29.2832748 28.4731861,23.3330367 C32.4486515,17.3827985 31.6673115,9.45293152 26.607,4.393 C23.7937915,1.58000278 19.9783282,-0.000211264665 16,0 Z" id="detail_0-2"></path>
                        </g>
                    </g>
                </g>
            </g>
        </g>
    </g>
</svg>