<?xml version="1.0" encoding="UTF-8"?>
<svg width="48px" height="48px" viewBox="0 0 48 48" version="1.1" xmlns="http://www.w3.org/2000/svg" xmlns:xlink="http://www.w3.org/1999/xlink">
    <!-- Generator: Sketch 50.2 (55047) - http://www.bohemiancoding.com/sketch -->
    <title>instagram_icon</title>
    <desc>Created with Sketch.</desc>
    <defs></defs>
    <g id="Page-1" stroke="none" stroke-width="1" fill="none" fill-rule="evenodd">
        <g id="Favorites-VisualFilters-Copy-2" transform="translate(-952.000000, -267.000000)" fill="#3D3D3D" fill-rule="nonzero">
            <g id="Group-4" transform="translate(720.000000, 260.000000)">
                <g id="Group_133" transform="translate(232.000000, 7.000000)">
                    <g id="instagram_icon">
                        <path d="M31.1537143,12.7697143 L16.848,12.7697143 C15.7486396,12.7706232 14.6946673,13.2082143 13.9179452,13.9862225 C13.141223,14.7642306 12.705376,15.8189254 12.7062857,16.9182857 L12.7062857,31.224 C12.7091193,33.5102309 14.5617691,35.3628807 16.848,35.3657143 L31.1537143,35.3657143 C33.4399452,35.3628807 35.292595,33.5102309 35.2954286,31.224 L35.2954286,16.9182857 C35.2963766,14.6293774 33.442621,12.7725528 31.1537143,12.7697143 Z M24,31.5 C20.9921876,31.5 18.2805438,29.6881375 17.1295039,26.9092813 C15.9784639,24.130425 16.6147054,20.931823 18.7415499,18.8049785 C20.8683944,16.678134 24.0669964,16.0418925 26.8458527,17.1929324 C29.624709,18.3439724 31.4365714,21.0556162 31.4365714,24.0634286 C31.431848,28.1685755 28.1051469,31.4952765 24,31.5 Z M31.6748571,18.1645714 C30.7039141,18.1636246 29.9173996,17.3760868 29.9177152,16.4051434 C29.9180308,15.4342 30.7050571,14.6471737 31.6760006,14.6468581 C32.646944,14.6465425 33.4344818,15.433057 33.4354286,16.404 C33.4354304,17.3759462 32.6485157,18.1643948 31.6765714,18.1662857 L31.6748571,18.1645714 Z" id="Path_188"></path>
                        <path d="M24,19.7708571 C21.6330654,19.7708571 19.7142857,21.6896368 19.7142857,24.0565714 C19.7142857,26.4235061 21.6330654,28.3422857 24,28.3422857 C26.3669346,28.3422857 28.2857143,26.4235061 28.2857143,24.0565714 C28.2781862,21.6927621 26.3638094,19.7783853 24,19.7708571 Z" id="Path_189"></path>
                        <path d="M24,0 C10.745166,-8.11624501e-16 1.623249e-15,10.745166 0,24 C-1.623249e-15,37.254834 10.745166,48 24,48 C37.254834,48 48,37.254834 48,24 C48,17.6348042 45.4714358,11.5303103 40.9705627,7.02943725 C36.4696897,2.52856417 30.3651958,3.8975583e-16 24,0 Z M38.436,31.2171429 C38.4322197,35.2384181 35.1732752,38.4973626 31.152,38.5011429 L16.8462857,38.5011429 C12.82568,38.4964178 9.56777866,35.2377496 9.564,31.2171429 L9.564,16.9114286 C9.56872123,12.8912128 12.8260711,9.63309607 16.8462857,9.62742857 L31.152,9.62742857 C35.1732752,9.63120886 38.4322197,12.8901533 38.436,16.9114286 L38.436,31.2171429 Z" id="Path_190"></path>
                    </g>
                </g>
            </g>
        </g>
    </g>
</svg>