<?xml version="1.0" encoding="UTF-8"?>
<svg width="29px" height="29px" viewBox="0 0 29 29" version="1.1" xmlns="http://www.w3.org/2000/svg" xmlns:xlink="http://www.w3.org/1999/xlink">
    <!-- Generator: Sketch 50.2 (55047) - http://www.bohemiancoding.com/sketch -->
    <title>Group_106-4</title>
    <desc>Created with Sketch.</desc>
    <defs></defs>
    <g id="YesPlz-Mobile-Frontend" stroke="none" stroke-width="1" fill="none" fill-rule="evenodd">
        <g id="YesPlz_Mobile_8" transform="translate(-205.000000, -153.000000)" fill="#6200EE" fill-rule="nonzero">
            <g id="favorite_on" transform="translate(205.000000, 153.000000)">
                <g id="Group_107-4">
                    <g id="Group_106-4">
                        <path d="M15.9935,10.4632 L15.047375,11.4057 C14.866265,11.5864433 14.6057892,11.6628933 14.355725,11.6087 C14.2031822,11.5856453 14.0619708,11.5145317 13.952625,11.4057 L13.010125,10.4632 C11.7414286,9.19726844 9.68739635,9.19726844 8.4187,10.4632 C7.17904026,11.7585092 7.19123439,13.8039133 8.44625,15.08435 C10.3731643,16.9833439 12.3951268,18.7834132 14.50435,20.477625 C16.6137003,18.7832902 18.6358981,16.9832268 20.563175,15.08435 C21.817987,13.803717 21.8298602,11.7583142 20.59,10.4632 C19.3203897,9.19468899 17.2631103,9.19468899 15.9935,10.4632 Z" id="Path_237-4"></path>
                        <path d="M14.5,0 C6.49187113,-4.9035647e-16 9.80712939e-16,6.49187113 0,14.5 C-9.80712939e-16,22.5081289 6.49187113,29 14.5,29 C22.5081289,29 29,22.5081289 29,14.5 C29,10.6543609 27.4723258,6.96622916 24.7530483,4.24695167 C22.0337708,1.52767419 18.3456391,2.35477481e-16 14.5,0 Z M21.6775,16.087025 C20.0361,17.911125 15.196,21.85005 14.990825,22.0168 C14.8535674,22.1314945 14.6787555,22.1914005 14.5,22.185 L14.483325,22.185 C14.3106082,22.1852849 14.1431015,22.1258635 14.009175,22.0168 C13.804,21.85005 8.9639,17.9104 7.323225,16.087025 C5.52303,14.2155952 5.53523024,11.2525421 7.350775,9.396 C9.2073396,7.54312849 12.2135104,7.54312849 14.070075,9.396 L14.5,9.825925 L14.929925,9.396 C16.7868195,7.54392617 19.7923305,7.54392617 21.649225,9.396 C23.4645936,11.2525013 23.4771136,14.2152474 21.6775,16.087025 Z" id="Path_238-4"></path>
                    </g>
                </g>
            </g>
        </g>
    </g>
</svg>