<?xml version="1.0" encoding="UTF-8"?>
<svg width="29px" height="29px" viewBox="0 0 29 29" version="1.1" xmlns="http://www.w3.org/2000/svg" xmlns:xlink="http://www.w3.org/1999/xlink">
    <!-- Generator: Sketch 50.2 (55047) - http://www.bohemiancoding.com/sketch -->
    <title>Shape</title>
    <desc>Created with Sketch.</desc>
    <defs></defs>
    <g id="YesPlz-Mobile-Frontend" stroke="none" stroke-width="1" fill="none" fill-rule="evenodd">
        <g id="Filter_0" transform="translate(-3.000000, 0.000000)" fill="#6200EE" fill-rule="nonzero">
            <g id="favorite_off" transform="translate(3.000000, 0.000000)">
                <path d="M28,14.4997702 C28,7.04432011 21.95541,1 14.4997702,1 C7.04413986,1 1,7.04432011 1,14.4997702 C1,21.9552307 7.04413986,28 14.4997702,28 C21.95541,28 28,21.9552307 28,14.4997702 Z M14.0433798,21.4987392 C13.85221,21.3434906 9.34638023,17.6756592 7.81860018,15.9779596 C6.14349985,14.1159201 6.15447998,11.4378405 7.84406996,9.74824047 C8.70632982,8.88584518 9.83909035,8.45464754 10.9718609,8.45464754 C12.1046324,8.45464754 13.2374153,8.88584518 14.09972,9.74824047 L14.5000401,10.1485596 L14.9006395,9.74796963 C15.7627945,8.88581514 16.8956423,8.45464754 18.0282631,8.45464754 C19.1611614,8.45464754 20.2938347,8.88569498 21.1564693,9.74796963 C22.8456993,11.4379196 22.8566895,14.1160097 21.1818504,15.9777803 C19.6536198,17.6757507 15.1473398,21.3435802 14.9560804,21.4987392 C14.8303232,21.601017 14.6801405,21.6560631 14.5294285,21.6560631 C14.3293104,21.6556206 14.1731596,21.6042309 14.0433798,21.4987392 Z M14.4997702,29 C10.6268196,29 6.98561001,27.4916401 4.24690008,24.7527695 C1.50823998,22.0139599 0,18.3727093 0,14.4997702 C0,10.6268501 1.50825,6.9856801 4.2469101,4.24698997 C6.98559999,1.50827998 10.6267996,0 14.4997702,0 C18.3727608,0 22.01404,1.50827003 24.75284,4.24696994 C27.4916592,6.98569012 29,10.6268702 29,14.4997702 C29,18.3726902 27.4916706,22.0139503 24.7528591,24.7527905 C22.0140305,27.4916401 18.3727398,29 14.4997702,29 Z M10.9718599,9.45464993 C10.0560703,9.45464993 9.19641018,9.81002045 8.55122995,10.4552898 C7.24399996,11.7625303 7.2486701,13.8492203 8.56203985,15.3091602 C9.88324928,16.777317 13.6449642,19.880352 14.4998121,20.5803986 C15.3551464,19.8805923 19.1073246,16.7879095 20.43857,15.3087997 C21.7515602,13.8492699 21.7562103,11.7624798 20.4492092,10.4549303 C19.8040104,9.80998993 18.9441299,9.45464993 18.0282593,9.45464993 C17.1124992,9.45464993 16.2528801,9.80994034 15.6077499,10.45508 L15.20714,10.8556805 L14.5000296,11.5627604 L13.7929296,10.85567 L13.3926096,10.4553499 C12.7473602,9.81002045 11.88766,9.45464993 10.9718599,9.45464993 Z" id="Shape"></path>
            </g>
        </g>
    </g>
</svg>