<?xml version="1.0" encoding="UTF-8"?>
<svg width="23px" height="23px" viewBox="0 0 19 23" version="1.1" xmlns="http://www.w3.org/2000/svg" xmlns:xlink="http://www.w3.org/1999/xlink">
    <!-- Generator: Sketch 53.2 (72643) - https://sketchapp.com -->
    <title>Group</title>
    <desc>Created with Sketch.</desc>
    <g id="Page-1" stroke="none" stroke-width="1" fill="none" fill-rule="evenodd">
        <g id="Yesplz_buttons-(1)" transform="translate(-956.000000, -32.000000)">
            <g id="pants/jeans" transform="translate(798.000000, 23.170200)">
                <g id="spandex" transform="translate(147.000000, 0.000000)">
                    <g id="Group" transform="translate(11.000000, 9.000000)">
                        <path d="M2.488,1.761 C2.488,1.761 6.1,4.169 9.713,4.169 C13.324,4.169 16.936,1.761 16.936,1.761" id="Path" stroke="#414042" stroke-width="1.5" stroke-linecap="round" stroke-linejoin="round"></path>
                        <path d="M16.935,21.024 C16.935,21.024 13.324,18.616 9.712,18.616 C6.1,18.616 2.487,21.024 2.487,21.024" id="Path" stroke="#414042" stroke-width="1.5" stroke-linecap="round" stroke-linejoin="round"></path>
                        <path d="M18.14,5.373 C18.14,5.373 14.528,7.781 14.528,11.393 C14.528,15.005 18.14,17.413 18.14,17.413" id="Path" stroke="#414042" stroke-width="1.5" stroke-linecap="round" stroke-linejoin="round"></path>
                        <path d="M1.284,17.412 C1.284,17.412 4.895,15.004 4.895,11.392 C4.895,7.78 1.284,5.372 1.284,5.372" id="Path" stroke="#414042" stroke-width="1.5" stroke-linecap="round" stroke-linejoin="round"></path>
                        <path d="M15.625,0.451 C15.431,0.257 15.496,0.097 15.771,0.097 L18.098,0.097 C18.373,0.097 18.598,0.322 18.598,0.597 L18.598,2.925 C18.598,3.2 18.439,3.266 18.244,3.071 L15.625,0.451 Z" id="Path" fill="#414042" fill-rule="nonzero"></path>
                        <path d="M3.799,22.386 C3.993,22.58 3.928,22.74 3.653,22.74 L1.324,22.74 C1.049,22.74 0.824,22.515 0.824,22.24 L0.825,19.912 C0.825,19.637 0.984,19.571 1.179,19.766 L3.799,22.386 Z" id="Path" fill="#414042" fill-rule="nonzero"></path>
                    </g>
                </g>
            </g>
        </g>
    </g>
</svg>