<?xml version="1.0" encoding="UTF-8"?>
<svg width="25px" height="25px" viewBox="0 0 24 25" version="1.1" xmlns="http://www.w3.org/2000/svg" xmlns:xlink="http://www.w3.org/1999/xlink">
    <!-- Generator: Sketch 53.2 (72643) - https://sketchapp.com -->
    <title>Group</title>
    <desc>Created with Sketch.</desc>
    <g id="Page-1" stroke="none" stroke-width="1" fill="none" fill-rule="evenodd" stroke-linecap="round" stroke-linejoin="round">
        <g id="Yesplz_buttons-(1)" transform="translate(-807.000000, -35.000000)" stroke="#414042">
            <g id="pants/jeans" transform="translate(798.000000, 23.170200)">
                <g id="denim" transform="translate(0.000000, 2.000000)">
                    <g id="Group" transform="translate(10.000000, 10.000000)">
                        <polygon id="Path" points="10.891 24.035 20.571 19.733 21.646 0.375 10.891 0.375 0.136 0.375 1.211 19.733"></polygon>
                        <g id="Path" transform="translate(3.000000, 3.000000)">
                            <polyline points="5.607 16.416 7.891 17.431 10.175 16.416"></polyline>
                            <polyline points="12.337 15.455 14.621 14.44 14.76 11.944"></polyline>
                            <path d="M14.888,9.634 L15.166,4.629" stroke-dasharray="3.856,2.3136"></path>
                            <polyline points="15.23 3.473 15.368 0.977 12.868 0.977"></polyline>
                            <path d="M10.153,0.977 L7.891,0.977 L4.269,0.977" stroke-dasharray="4.5259,2.7156"></path>
                            <polyline points="2.911 0.977 0.411 0.977 0.55 3.473"></polyline>
                            <path d="M0.679,5.783 L0.957,10.788" stroke-dasharray="3.856,2.3136"></path>
                            <polyline points="1.022 11.944 1.16 14.44 3.445 15.455"></polyline>
                        </g>
                        <g id="Path" transform="translate(0.000000, 6.000000)">
                            <path d="M0.488,0.698 C0.488,0.698 1.475,0.49 2.974,0.489"></path>
                            <path d="M6.16,0.805 C9.915,1.578 14.509,4.051 16.546,11.192" stroke-dasharray="5.3495,3.2097"></path>
                            <path d="M16.936,12.766 C17.101,13.539 17.238,14.361 17.344,15.233"></path>
                        </g>
                    </g>
                </g>
            </g>
        </g>
    </g>
</svg>