<?xml version="1.0" encoding="UTF-8"?>
<svg width="24px" height="17px" viewBox="0 0 24 17" version="1.1" xmlns="http://www.w3.org/2000/svg" xmlns:xlink="http://www.w3.org/1999/xlink">
    <!-- Generator: Sketch 53.2 (72643) - https://sketchapp.com -->
    <title>Group</title>
    <desc>Created with Sketch.</desc>
    <g id="Page-1" stroke="none" stroke-width="1" fill="none" fill-rule="evenodd" stroke-linecap="round" stroke-linejoin="round">
        <g id="Yesplz_buttons-(1)" transform="translate(-538.000000, -48.000000)" stroke="#414042">
            <g id="tops" transform="translate(452.000000, 33.170200)">
                <g id="wrinkle-free" transform="translate(77.500200, 2.000000)">
                    <g id="Group" transform="translate(9.000000, 13.000000)">
                        <g id="Path">
                            <path d="M6.071,1.815 C5.834,1.336 5.35,0.855 4.391,0.855 C2.471,0.855 2.588,2.519 2.096,2.776 C1.606,3.033 0.176,3.169 0.176,1.733"></path>
                            <path d="M16.149,1.815 C16.389,1.336 16.873,0.855 17.832,0.855 C19.752,0.855 19.258,2.771 20.014,2.776 C20.768,2.78 23.43,2.776 23.43,2.776"></path>
                            <path d="M9.431,1.816 C9.191,2.295 8.71,2.776 7.751,2.776 C6.79,2.776 6.312,2.297 6.068,1.816"></path>
                            <path d="M9.431,1.816 C9.671,1.337 10.152,0.855 11.111,0.855 C12.07,0.855 12.55,1.334 12.794,1.815"></path>
                            <path d="M16.149,1.816 C15.912,2.295 15.428,2.776 14.469,2.776 C13.51,2.776 13.03,2.297 12.789,1.816"></path>
                        </g>
                        <g id="Path" transform="translate(0.000000, 7.000000)">
                            <path d="M6.071,1.148 C5.834,0.667 5.35,0.188 4.391,0.188 C2.471,0.188 2.588,1.851 2.096,2.107 C1.606,2.364 0.176,2.5 0.176,1.064"></path>
                            <path d="M9.431,1.148 C9.669,0.667 10.15,0.188 11.111,0.188 C13.031,0.188 12.54,2.104 13.294,2.107 C14.05,2.113 23.431,2.107 23.431,2.107"></path>
                            <path d="M9.431,1.148 C9.191,1.627 8.71,2.107 7.751,2.107 C6.79,2.107 6.312,1.628 6.068,1.148"></path>
                        </g>
                        <g id="Path" transform="translate(0.000000, 13.000000)">
                            <path d="M2.683,1.479 C2.921,1 3.402,0.519 4.363,0.519 C6.281,0.519 5.79,2.435 6.546,2.439 C7.3,2.444 23.431,2.439 23.431,2.439"></path>
                            <path d="M2.659,1.469 C2.423,1.891 2.327,2.321 2.097,2.441 C1.607,2.698 0.177,2.834 0.177,1.398"></path>
                        </g>
                    </g>
                </g>
            </g>
        </g>
    </g>
</svg>