<?xml version="1.0" encoding="UTF-8"?>
<svg width="33px" height="33px" viewBox="0 0 26 33" version="1.1" xmlns="http://www.w3.org/2000/svg" xmlns:xlink="http://www.w3.org/1999/xlink">
    <!-- Generator: Sketch 53.2 (72643) - https://sketchapp.com -->
    <title>Group</title>
    <desc>Created with Sketch.</desc>
    <g id="Page-1" stroke="none" stroke-width="1" fill="none" fill-rule="evenodd">
        <g id="Yesplz_buttons-(1)" transform="translate(-69.000000, -42.000000)">
            <g id="shoes" transform="translate(0.000000, 37.170200)">
                <g id="leather" transform="translate(61.000000, 0.000000)">
                    <g id="Group" transform="translate(9.000000, 6.000000)">
                        <g id="Path" stroke-linecap="round" stroke-linejoin="round" stroke="#414042" stroke-width="1.5">
                            <path d="M12.267,0.063 C12.267,0.063 15.31,4.637 22.15,4.1 L24.171,8.135 C24.171,8.135 17.025,13.526 24.171,22.323 L22.15,26.358 C22.15,26.358 15.517,25.167 12.267,30.395"></path>
                            <path d="M12.267,0.063 C12.267,0.063 9.224,4.637 2.384,4.1 L0.366,8.135 C0.366,8.135 7.511,13.526 0.366,22.323 L2.384,26.358 C2.384,26.358 9.019,25.167 12.267,30.395"></path>
                        </g>
                        <g transform="translate(2.000000, 3.000000)" fill="#414042" fill-rule="nonzero">
                            <g transform="translate(9.000000, 0.000000)">
                                <path d="M1.69,1.519 C1.628,1.519 1.559,1.498 1.502,1.459 C1.256,1.293 1.119,1.188 1.119,1.188 C0.971,1.073 0.94,0.86 1.057,0.709 C1.168,0.563 1.381,0.533 1.535,0.647 C1.539,0.651 1.662,0.747 1.883,0.895 C2.039,0.999 2.08,1.207 1.975,1.366 C1.907,1.469 1.8,1.519 1.69,1.519 Z" id="Path"></path>
                                <path d="M6.472,3.552 C6.452,3.552 6.433,3.547 6.413,3.545 C6.109,3.49 5.816,3.422 5.532,3.349 C5.349,3.297 5.245,3.113 5.294,2.931 C5.343,2.748 5.523,2.644 5.712,2.693 C5.978,2.767 6.253,2.83 6.532,2.881 C6.718,2.914 6.839,3.09 6.803,3.277 C6.776,3.438 6.634,3.552 6.472,3.552 Z M3.979,2.776 C3.932,2.776 3.887,2.766 3.842,2.747 C3.557,2.624 3.285,2.493 3.035,2.366 C2.869,2.28 2.803,2.075 2.889,1.909 C2.973,1.741 3.178,1.68 3.346,1.763 C3.584,1.886 3.842,2.006 4.114,2.125 C4.289,2.199 4.364,2.4 4.293,2.572 C4.235,2.7 4.11,2.776 3.979,2.776 Z" id="Shape"></path>
                                <path d="M8.872,4.054 C8.749,4.054 8.628,3.984 8.566,3.866 L8.468,3.669 C8.388,3.675 8.308,3.682 8.228,3.686 C8.021,3.682 7.884,3.544 7.876,3.36 C7.868,3.172 8.013,3.016 8.2,3.006 C8.343,3.002 8.485,2.99 8.632,2.978 C8.771,2.961 8.907,3.039 8.97,3.164 L9.171,3.568 C9.255,3.736 9.189,3.941 9.021,4.023 C8.976,4.042 8.925,4.054 8.872,4.054 Z" id="Path"></path>
                                <path d="M9.638,6.507 C9.562,6.507 9.488,6.485 9.425,6.434 C9.279,6.317 9.257,6.104 9.374,5.955 C9.431,5.885 9.478,5.824 9.521,5.773 L9.425,5.58 C9.341,5.412 9.409,5.207 9.575,5.125 C9.741,5.039 9.945,5.109 10.029,5.275 L10.228,5.679 C10.294,5.81 10.267,5.97 10.166,6.074 C10.158,6.08 10.055,6.185 9.895,6.381 C9.835,6.464 9.737,6.507 9.638,6.507 Z" id="Path"></path>
                                <path d="M9.157,17.202 C9.032,17.202 8.911,17.132 8.849,17.014 C8.704,16.712 8.575,16.421 8.453,16.136 C8.383,15.96 8.465,15.766 8.637,15.694 C8.809,15.62 9.008,15.704 9.08,15.878 C9.192,16.153 9.317,16.436 9.459,16.718 C9.541,16.891 9.473,17.091 9.303,17.171 C9.259,17.192 9.208,17.202 9.157,17.202 Z M8.171,14.558 C8.019,14.558 7.882,14.454 7.843,14.304 C7.759,13.98 7.693,13.66 7.64,13.355 C7.609,13.167 7.732,12.994 7.917,12.959 C8.105,12.937 8.273,13.056 8.308,13.236 C8.359,13.527 8.421,13.826 8.499,14.132 C8.546,14.316 8.435,14.496 8.255,14.543 C8.226,14.554 8.198,14.558 8.171,14.558 Z M7.825,11.759 C7.825,11.759 7.82,11.759 7.818,11.759 C7.63,11.755 7.48,11.606 7.484,11.415 C7.491,11.075 7.511,10.751 7.548,10.438 C7.569,10.25 7.739,10.116 7.923,10.141 C8.109,10.162 8.243,10.329 8.22,10.518 C8.187,10.807 8.165,11.108 8.161,11.419 C8.163,11.608 8.011,11.759 7.825,11.759 Z M8.3,8.981 C8.265,8.981 8.228,8.975 8.191,8.96 C8.013,8.899 7.92,8.706 7.98,8.53 C8.093,8.2 8.216,7.897 8.345,7.622 C8.425,7.452 8.628,7.378 8.794,7.458 C8.964,7.536 9.038,7.737 8.96,7.907 C8.841,8.163 8.726,8.444 8.62,8.749 C8.573,8.894 8.442,8.981 8.3,8.981 Z" id="Shape"></path>
                                <path d="M10.13,19.647 C10.079,19.647 10.026,19.637 9.982,19.614 C9.812,19.532 9.747,19.329 9.829,19.161 L9.939,18.93 C9.89,18.854 9.843,18.78 9.796,18.701 C9.693,18.543 9.745,18.334 9.9,18.234 C10.058,18.136 10.269,18.183 10.372,18.34 C10.448,18.463 10.525,18.588 10.607,18.713 C10.673,18.817 10.681,18.942 10.628,19.047 L10.431,19.455 C10.376,19.579 10.255,19.647 10.13,19.647 Z" id="Path"></path>
                                <path d="M9.265,21.429 C9.245,21.429 9.228,21.427 9.208,21.42 C9.202,21.42 9.048,21.398 8.786,21.367 C8.598,21.349 8.462,21.183 8.478,20.996 C8.499,20.81 8.644,20.67 8.849,20.693 C8.929,20.701 9.001,20.709 9.062,20.715 L9.157,20.527 C9.234,20.355 9.439,20.285 9.607,20.371 C9.775,20.451 9.845,20.654 9.763,20.822 L9.566,21.23 C9.511,21.356 9.392,21.429 9.265,21.429 Z" id="Path"></path>
                                <path d="M3.06,22.399 C2.945,22.399 2.833,22.337 2.769,22.235 C2.673,22.075 2.724,21.866 2.884,21.77 C3.175,21.594 3.488,21.436 3.818,21.301 C3.99,21.233 4.189,21.315 4.259,21.489 C4.329,21.661 4.245,21.86 4.071,21.93 C3.774,22.051 3.496,22.192 3.233,22.35 C3.181,22.385 3.118,22.399 3.06,22.399 Z M5.854,21.442 C5.69,21.442 5.545,21.323 5.52,21.155 C5.494,20.971 5.621,20.798 5.803,20.768 C6.153,20.71 6.494,20.678 6.819,20.659 C7.012,20.638 7.172,20.79 7.178,20.977 C7.19,21.163 7.047,21.325 6.862,21.333 C6.557,21.354 6.237,21.387 5.91,21.437 C5.89,21.442 5.872,21.442 5.854,21.442 Z" id="Shape"></path>
                                <path d="M1.325,24.095 C1.263,24.095 1.202,24.076 1.142,24.041 C0.984,23.941 0.935,23.732 1.038,23.574 C1.124,23.433 1.216,23.303 1.309,23.177 C1.422,23.027 1.635,22.994 1.787,23.111 C1.934,23.222 1.967,23.435 1.85,23.586 C1.766,23.697 1.686,23.815 1.61,23.939 C1.548,24.038 1.438,24.095 1.325,24.095 Z" id="Path"></path>
                            </g>
                            <g>
                                <path d="M9.843,1.519 C9.736,1.519 9.628,1.468 9.562,1.371 C9.458,1.215 9.5,1.004 9.654,0.9 C9.878,0.752 10.001,0.656 10.007,0.652 C10.153,0.539 10.368,0.568 10.482,0.714 C10.595,0.862 10.568,1.075 10.42,1.193 C10.42,1.193 10.285,1.297 10.037,1.464 C9.976,1.501 9.909,1.519 9.843,1.519 Z" id="Path"></path>
                                <path d="M5.062,3.552 C4.9,3.552 4.757,3.439 4.728,3.273 C4.697,3.086 4.818,2.914 5.001,2.877 C5.282,2.826 5.556,2.767 5.82,2.689 C6.007,2.64 6.187,2.748 6.236,2.927 C6.288,3.109 6.179,3.293 6.001,3.345 C5.716,3.418 5.421,3.49 5.122,3.541 C5.103,3.55 5.081,3.552 5.062,3.552 Z M7.556,2.776 C7.425,2.776 7.3,2.7 7.244,2.573 C7.17,2.401 7.248,2.2 7.42,2.126 C7.691,2.007 7.951,1.887 8.19,1.764 C8.354,1.68 8.559,1.743 8.647,1.91 C8.731,2.076 8.668,2.281 8.501,2.367 C8.251,2.494 7.98,2.625 7.691,2.748 C7.647,2.767 7.601,2.776 7.556,2.776 Z" id="Shape"></path>
                                <path d="M2.661,4.054 C2.607,4.054 2.557,4.039 2.509,4.017 C2.343,3.935 2.275,3.73 2.359,3.562 L2.562,3.158 C2.624,3.033 2.759,2.959 2.9,2.972 C3.046,2.988 3.187,2.996 3.333,3 C3.521,3.013 3.665,3.168 3.656,3.354 C3.646,3.542 3.527,3.678 3.302,3.68 C3.222,3.676 3.144,3.669 3.064,3.663 L2.964,3.86 C2.905,3.983 2.786,4.054 2.661,4.054 Z" id="Path"></path>
                                <path d="M1.897,6.507 C1.797,6.507 1.703,6.464 1.631,6.38 C1.473,6.188 1.371,6.079 1.36,6.073 C1.256,5.969 1.229,5.809 1.298,5.678 L1.501,5.274 C1.585,5.108 1.788,5.038 1.954,5.124 C2.122,5.206 2.187,5.411 2.103,5.579 L2.005,5.772 C2.05,5.823 2.101,5.88 2.157,5.954 C2.271,6.1 2.251,6.313 2.103,6.433 C2.046,6.481 1.972,6.507 1.897,6.507 Z" id="Path"></path>
                                <path d="M2.376,17.202 C2.325,17.202 2.273,17.192 2.228,17.167 C2.06,17.087 1.993,16.884 2.072,16.714 C2.214,16.432 2.341,16.152 2.454,15.874 C2.523,15.7 2.725,15.62 2.894,15.69 C3.068,15.762 3.15,15.96 3.081,16.13 C2.962,16.417 2.831,16.708 2.685,17.01 C2.622,17.132 2.501,17.202 2.376,17.202 Z M3.364,14.558 C3.34,14.558 3.307,14.554 3.28,14.545 C3.098,14.498 2.989,14.316 3.037,14.136 C3.112,13.826 3.18,13.531 3.225,13.24 C3.256,13.056 3.422,12.935 3.621,12.963 C3.805,12.994 3.93,13.17 3.893,13.359 C3.842,13.668 3.774,13.984 3.692,14.308 C3.653,14.456 3.515,14.558 3.364,14.558 Z M3.708,11.759 C3.52,11.759 3.372,11.612 3.368,11.423 C3.361,11.111 3.343,10.811 3.306,10.522 C3.285,10.334 3.417,10.167 3.603,10.145 C3.798,10.122 3.957,10.253 3.98,10.442 C4.017,10.754 4.042,11.079 4.044,11.419 C4.046,11.607 3.896,11.759 3.708,11.766 L3.705,11.766 L3.708,11.759 L3.708,11.759 Z M3.233,8.981 C3.092,8.981 2.962,8.893 2.916,8.752 C2.811,8.447 2.694,8.166 2.578,7.91 C2.498,7.74 2.569,7.539 2.739,7.461 C2.91,7.379 3.11,7.455 3.19,7.625 C3.317,7.9 3.442,8.203 3.553,8.533 C3.615,8.709 3.52,8.902 3.342,8.963 C3.308,8.976 3.271,8.981 3.233,8.981 Z" id="Shape"></path>
                                <path d="M1.405,19.647 C1.28,19.647 1.162,19.579 1.1,19.458 L0.901,19.05 C0.85,18.946 0.858,18.821 0.922,18.716 C1.004,18.591 1.086,18.466 1.162,18.346 C1.262,18.186 1.473,18.139 1.629,18.237 C1.787,18.337 1.836,18.546 1.735,18.704 C1.688,18.78 1.639,18.854 1.59,18.933 L1.705,19.164 C1.787,19.332 1.717,19.535 1.549,19.617 C1.505,19.638 1.456,19.647 1.405,19.647 Z" id="Path"></path>
                                <path d="M2.271,21.429 C2.142,21.429 2.023,21.357 1.966,21.238 L1.769,20.83 C1.687,20.662 1.755,20.459 1.925,20.379 C2.091,20.295 2.296,20.365 2.378,20.535 L2.468,20.723 C2.529,20.712 2.601,20.704 2.683,20.7 C2.886,20.675 3.037,20.817 3.052,21.003 C3.072,21.191 2.935,21.357 2.749,21.374 C2.482,21.401 2.333,21.429 2.327,21.429 C2.308,21.427 2.288,21.429 2.271,21.429 Z" id="Path"></path>
                                <path d="M8.476,22.399 C8.415,22.399 8.355,22.38 8.3,22.35 C8.038,22.192 7.757,22.051 7.462,21.93 C7.288,21.86 7.204,21.659 7.274,21.489 C7.346,21.315 7.545,21.233 7.717,21.301 C8.045,21.436 8.36,21.594 8.651,21.77 C8.811,21.866 8.862,22.075 8.766,22.235 C8.702,22.341 8.591,22.399 8.476,22.399 Z M5.679,21.442 C5.663,21.442 5.646,21.442 5.628,21.438 C5.298,21.387 4.978,21.356 4.673,21.334 C4.485,21.322 4.345,21.16 4.355,20.978 C4.37,20.79 4.543,20.64 4.714,20.66 C5.038,20.681 5.38,20.715 5.732,20.769 C5.92,20.795 6.044,20.972 6.015,21.156 C5.987,21.323 5.843,21.442 5.679,21.442 Z" id="Shape"></path>
                                <path d="M10.208,24.095 C10.097,24.095 9.982,24.035 9.921,23.935 C9.845,23.814 9.765,23.697 9.681,23.582 C9.57,23.435 9.597,23.222 9.747,23.107 C9.893,22.994 10.105,23.023 10.222,23.171 C10.318,23.3 10.41,23.433 10.497,23.57 C10.595,23.728 10.548,23.937 10.388,24.037 C10.333,24.079 10.271,24.095 10.208,24.095 Z" id="Path"></path>
                            </g>
                        </g>
                    </g>
                </g>
            </g>
        </g>
    </g>
</svg>