<?xml version="1.0" encoding="UTF-8"?>
<svg width="40px" height="40px" viewBox="0 0 40 37" version="1.1" xmlns="http://www.w3.org/2000/svg" xmlns:xlink="http://www.w3.org/1999/xlink">
    <!-- Generator: Sketch 53.2 (72643) - https://sketchapp.com -->
    <title>Clipped</title>
    <desc>Created with Sketch.</desc>
    <defs>
        <circle id="path-1" cx="21.445" cy="20.604" r="20.5"></circle>
    </defs>
    <g id="Page-1" stroke="none" stroke-width="1" fill="none" fill-rule="evenodd">
        <g id="Yesplz_buttons-(1)" transform="translate(-454.000000, -43.000000)">
            <g id="tops" transform="translate(452.000000, 33.170200)">
                <g id="silk" transform="translate(0.000000, 5.000000)">
                    <g id="Clipped">
                        <g id="Group-Clipped">
                            <mask id="mask-2" fill="white">
                                <use xlink:href="#path-1"></use>
                            </mask>
                            <g id="path-1"></g>
                            <g id="Group" mask="url(#mask-2)">
                                <g transform="translate(1.000000, 1.000000)" id="Path">
                                    <g>
                                        <path d="M15.589,27.606 C15.568,27.61 15.965,27.502 16.594,27.397 C17.228,27.305 18.14,27.203 19.235,27.23 C19.788,27.227 20.374,27.297 21.005,27.343 C21.622,27.446 22.288,27.518 22.953,27.688 C23.63,27.826 24.309,28.027 24.995,28.271 C25.687,28.479 26.358,28.788 27.029,29.088 C27.707,29.39 28.332,29.78 28.97,30.12 C29.585,30.501 30.151,30.939 30.716,31.331 C31.257,31.759 31.728,32.23 32.195,32.645 C32.67,33.062 33.012,33.554 33.381,33.956 C33.716,34.393 34.056,34.752 34.276,35.144 C34.509,35.521 34.715,35.844 34.873,36.122 C35.19,36.666 35.348,36.992 35.348,36.992 C35.529,37.375 35.365,37.832 34.983,38.013 C34.727,38.13 34.44,38.101 34.222,37.951 L34.16,37.909 C34.16,37.909 33.87,37.71 33.412,37.334 C33.177,37.151 32.911,36.916 32.6,36.653 C32.306,36.376 31.93,36.113 31.54,35.81 C31.145,35.512 30.769,35.138 30.299,34.832 C29.851,34.507 29.378,34.161 28.889,33.809 C28.386,33.481 27.868,33.142 27.337,32.794 C26.785,32.491 26.252,32.13 25.673,31.859 C25.09,31.595 24.529,31.274 23.94,31.054 C23.648,30.934 23.357,30.815 23.071,30.698 C22.777,30.596 22.488,30.496 22.206,30.396 C21.642,30.17 21.064,30.06 20.532,29.887 C19.991,29.764 19.479,29.611 19.001,29.534 C18.042,29.321 17.228,29.235 16.656,29.163 C16.084,29.1 15.798,29.083 15.773,29.085 C15.362,29.139 14.988,28.846 14.938,28.435 C14.885,28.03 15.178,27.656 15.589,27.606 Z" fill="#D1D3D4" fill-rule="nonzero"></path>
                                        <path d="M39.414,41.309 L39.211,39.376 C39.105,38.771 39.04,38.172 38.919,37.576 C38.649,36.388 38.416,35.207 37.951,34.144 C37.521,33.074 37.029,32.062 36.352,31.215 C35.685,30.365 34.954,29.611 34.085,28.986 C33.218,28.363 32.231,27.891 31.199,27.465 C30.159,27.052 29.055,26.71 27.899,26.441 C25.59,25.894 23.136,25.548 20.587,25.151 C19.312,24.954 18.009,24.74 16.677,24.422 C15.343,24.116 13.989,23.685 12.609,23.069 L12.351,22.954 L12.167,22.867 L12.062,22.807 L11.642,22.571 C11.371,22.422 11.081,22.259 10.746,22.045 C10.089,21.65 9.514,21.247 8.951,20.809 C7.828,19.93 6.805,18.933 5.915,17.851 C4.12,15.69 2.808,13.246 1.885,10.735 C1.401,9.486 1.05,8.201 0.745,6.917 C0.449,5.621 0.211,4.358 0.034,3.003 C-0.01,2.669 0.223,2.362 0.558,2.318 C0.728,2.297 0.891,2.346 1.016,2.446 L1.058,2.479 L1.058,2.479 C1.912,2.9 2.761,3.362 3.587,3.822 L6.049,5.218 C7.678,6.149 9.287,7.102 10.968,7.889 C12.634,8.701 14.347,9.401 16.097,9.926 C17.848,10.453 19.64,10.777 21.472,10.823 L21.495,10.824 C21.911,10.835 22.239,11.181 22.225,11.597 C22.215,11.951 21.957,12.243 21.622,12.315 C20.619,12.52 19.59,12.609 18.564,12.586 C18.053,12.569 17.543,12.553 17.038,12.483 C16.531,12.429 16.029,12.346 15.528,12.256 C13.531,11.867 11.618,11.202 9.794,10.39 C7.979,9.553 6.228,8.6 4.606,7.462 C3.796,6.891 3.02,6.274 2.291,5.608 C1.557,4.937 0.867,4.235 0.246,3.418 L0.246,3.417 L1.269,2.896 C1.372,4.091 1.705,5.341 2.12,6.507 C2.539,7.685 3.087,8.81 3.691,9.883 C4.927,12.023 6.541,13.891 8.391,15.343 C9.322,16.067 10.289,16.705 11.311,17.237 C11.83,17.49 12.342,17.764 12.828,17.96 L13.201,18.122 L13.649,18.298 L14.098,18.472 L14.21,18.515 L14.224,18.521 C14.203,18.51 14.295,18.552 14.176,18.499 L14.2,18.509 L14.248,18.524 L14.436,18.586 C15.432,18.94 16.575,19.153 17.747,19.39 C18.923,19.612 20.154,19.809 21.409,20.021 C23.921,20.435 26.55,20.862 29.198,21.651 C31.833,22.422 34.561,23.63 36.821,25.646 C37.931,26.659 38.913,27.848 39.615,29.167 C40.343,30.477 40.804,31.876 41.082,33.269 L41.261,34.314 L41.353,35.354 C41.437,36.042 41.398,36.729 41.397,37.41 C41.375,38.095 41.298,38.782 41.244,39.455 C41.136,40.1 41.033,40.732 40.908,41.371 L40.905,41.387 C40.824,41.796 40.426,42.067 40.012,41.986 C39.688,41.907 39.448,41.63 39.414,41.309 Z" fill="#D1D3D4" fill-rule="nonzero"></path>
                                        <path d="M41.275,38.94 C42.629,18.067 23.315,22.237 14.335,18.311 C2.816,13.278 1.773,0.555 1.773,0.555 C1.773,0.555 11.876,12.571 21.559,11.573" stroke="#414042" stroke-width="1.5" stroke-linecap="round" stroke-linejoin="round"></path>
                                        <path d="M15.68,28.351 C15.68,28.351 29.847,24.646 36.034,36.564" stroke="#414042" stroke-width="1.5" stroke-linecap="round" stroke-linejoin="round"></path>
                                        <path d="M36.031,40.06 C36.031,40.06 20.469,27.246 9.497,40.06 L36.031,40.06 Z" fill="#E6E7E8" fill-rule="nonzero"></path>
                                        <path d="M41.343,21.479 C41.343,21.479 37.187,15.389 25.562,12.514 C25.562,12.515 38.187,5.265 41.343,21.479 Z" fill="#E6E7E8" fill-rule="nonzero"></path>
                                    </g>
                                </g>
                            </g>
                        </g>
                    </g>
                </g>
            </g>
        </g>
    </g>
</svg>