<?xml version="1.0" encoding="UTF-8"?>
<svg width="24px" height="24px" viewBox="0 0 24 24" version="1.1" xmlns="http://www.w3.org/2000/svg" xmlns:xlink="http://www.w3.org/1999/xlink">
    <!-- Generator: Sketch 53.2 (72643) - https://sketchapp.com -->
    <title>Group</title>
    <desc>Created with Sketch.</desc>
    <g id="Page-1" stroke="none" stroke-width="1" fill="none" fill-rule="evenodd" stroke-linecap="round" stroke-linejoin="round">
        <g id="Yesplz_buttons-(1)" transform="translate(-202.000000, -47.000000)" stroke="#414042">
            <g id="shoes" transform="translate(0.000000, 37.170200)">
                <g id="fabric" transform="translate(193.000000, 1.000000)">
                    <g id="Group" transform="translate(9.000000, 9.000000)">
                        <polygon id="Path" points="20.857 7.661 20.857 7.466 23.107 5.217 20.856 2.967 20.856 2.967 18.703 0.816 16.454 3.065 16.261 3.065 14.01 0.816 11.859 2.968 9.704 0.816 7.455 3.065 7.262 3.065 5.012 0.816 2.763 3.065 2.763 3.065 0.611 5.217 2.86 7.466 2.86 7.661 0.611 9.91 2.763 12.063 0.611 14.216 2.86 16.465 2.86 16.66 0.611 18.909 2.861 21.159 2.861 21.159 5.013 23.311 7.261 21.062 7.456 21.062 9.705 23.311 11.859 21.158 14.011 23.311 16.26 21.062 16.454 21.062 18.704 23.311 20.953 21.062 20.953 21.062 23.107 18.909 20.857 16.66 20.857 16.465 23.107 14.216 20.953 12.063 23.107 9.91"></polygon>
                        <g id="Path" opacity="0.3" transform="translate(6.000000, 6.000000)">
                            <g id="Group" transform="translate(2.000000, 4.000000)">
                                <path d="M0.484,3.189 L2.734,0.938" id="Path"></path>
                                <path d="M4.983,3.189 L7.233,0.938" id="Path"></path>
                            </g>
                            <g id="Group">
                                <path d="M0.235,2.689 L2.484,0.44" id="Path"></path>
                                <path d="M4.734,2.689 L6.983,0.44" id="Path"></path>
                                <path d="M9.233,2.689 L11.483,0.44" id="Path"></path>
                            </g>
                            <g id="Group" transform="translate(0.000000, 9.000000)">
                                <path d="M0.235,2.687 L2.484,0.438" id="Path"></path>
                                <path d="M4.734,2.687 L6.983,0.438" id="Path"></path>
                                <path d="M9.233,2.687 L11.483,0.438" id="Path"></path>
                            </g>
                        </g>
                    </g>
                </g>
            </g>
        </g>
    </g>
</svg>