<?xml version="1.0" encoding="UTF-8"?>
<svg width="27px" height="27px" viewBox="0 0 24 27" version="1.1" xmlns="http://www.w3.org/2000/svg" xmlns:xlink="http://www.w3.org/1999/xlink">
    <!-- Generator: Sketch 53.2 (72643) - https://sketchapp.com -->
    <title>Group</title>
    <desc>Created with Sketch.</desc>
    <g id="Page-1" stroke="none" stroke-width="1" fill="none" fill-rule="evenodd" stroke-linecap="round" stroke-linejoin="round">
        <g id="Yesplz_buttons-(1)" transform="translate(-619.000000, -41.000000)" stroke="#414042">
            <g id="tops" transform="translate(452.000000, 33.170200)">
                <g id="100%-Cotton" transform="translate(158.000000, 0.000000)">
                    <g id="Group" transform="translate(9.000000, 8.000000)">
                        <path d="M17.646,9.063 C17.377,9.063 17.119,9.085 16.859,9.125 C17.355,8.292 17.646,7.323 17.646,6.285 C17.646,3.216 15.161,0.728 12.088,0.728 C9.022,0.728 6.533,3.212 6.533,6.285 C6.533,7.323 6.825,8.292 7.317,9.125 C7.059,9.088 6.797,9.063 6.533,9.063 C3.466,9.063 0.974,11.547 0.974,14.619 C0.974,17.691 3.462,20.179 6.533,20.179 C9.596,20.179 14.577,20.179 17.642,20.179 C20.71,20.179 23.201,17.692 23.201,14.619 C23.201,11.552 20.714,9.063 17.646,9.063 Z" id="Path"></path>
                        <path d="M12.088,14.619 L12.088,25.73" id="Path"></path>
                        <path d="M12.088,20.175 C12.088,20.175 17.268,18.756 17.646,15.308" id="Path"></path>
                        <path d="M12.09,20.175 C12.09,20.175 6.91,18.756 6.533,15.308" id="Path"></path>
                    </g>
                </g>
            </g>
        </g>
    </g>
</svg>