<?xml version="1.0" encoding="UTF-8"?>
<svg width="480px" height="393px" viewBox="0 0 480 393" version="1.1" xmlns="http://www.w3.org/2000/svg" xmlns:xlink="http://www.w3.org/1999/xlink">
    <!-- Generator: Sketch 50.2 (55047) - http://www.bohemiancoding.com/sketch -->
    <title>mini_onboarding_thumb_vertical</title>
    <desc>Created with Sketch.</desc>
    <defs>
        <filter x="-4.1%" y="-17.8%" width="107.5%" height="127.6%" filterUnits="objectBoundingBox" id="onb-filter-1">
            <feOffset dx="1" dy="3" in="SourceAlpha" result="shadowOffsetOuter1"></feOffset>
            <feGaussianBlur stdDeviation="3" in="shadowOffsetOuter1" result="shadowBlurOuter1"></feGaussianBlur>
            <feColorMatrix values="0 0 0 0 0   0 0 0 0 0   0 0 0 0 0  0 0 0 0.5 0" type="matrix" in="shadowBlurOuter1"></feColorMatrix>
        </filter>
    </defs>
    <g id="Page-1" stroke="none" stroke-width="1" fill="none" fill-rule="evenodd">
        <g id="mini_onboarding_thumb_vertical" transform="translate(-1.000000, 0.000000)">
            <g id="mini_onboarding_1" transform="translate(7.000000, 63.000000)">
                <g id="popup" transform="translate(0.000000, 43.000000)">
                    <g id="popup-2" transform="translate(180.628426, 55.500000) scale(-1, 1) translate(-180.628426, -55.500000) translate(0.128426, 0.000000)">
                        <g id="onb-path-1-link" fill="#000000" fill-rule="nonzero" filter="url(#onb-filter-1)">
                            <path d="M20.2429907,17.2292838 C23.616825,17.2292838 111.701947,17.2305171 111.701947,17.2305171 L124.399925,-1.13686838e-13 L137.45553,17.2292838 L339.885436,17.2292838 C351.065331,17.2292838 360.128427,27.1683415 360.128427,39.4287905 L360.128427,88.8004933 C360.128427,101.060942 351.065331,111 339.885436,111 L20.2429907,111 C9.06309562,111 -8.31335001e-13,101.060942 -8.31335001e-13,88.8004933 L-8.31335001e-13,39.4287905 C-8.31335001e-13,27.1684963 13.4953271,17.2292838 20.2429907,17.2292838 Z" id="onb-path-1"></path>
                        </g>
                        <g id="onb-path-1-link" fill="#FFFFFF">
                            <path d="M20.2429907,17.2292838 C23.616825,17.2292838 111.701947,17.2305171 111.701947,17.2305171 L124.399925,-1.13686838e-13 L137.45553,17.2292838 L339.885436,17.2292838 C351.065331,17.2292838 359.628426,27.1683415 359.628426,39.4287905 L359.628426,88.8004933 C359.628426,101.060942 351.065331,110.5 339.885436,110.5 L20.2429907,110.5 C9.06309562,110.5 -8.31335001e-13,101.060942 -8.31335001e-13,88.8004933 L-8.31335001e-13,39.4287905 C-8.31335001e-13,27.1684963 13.4953271,17.2292838 20.2429907,17.2292838 Z" id="onb-path-1"></path>
                        </g>
                    </g>
                    <g id="Let’s-change-the-sho" transform="translate(52.000000, 40.000000)" fill="#4A4A4A" font-family="Muli-Regular, Muli" font-size="18" font-weight="normal">
                        <text id="Go-ahead,-tap-the-shoulder.">
                            <tspan x="10" y="33">Go ahead, tap the shoulder.</tspan>
                        </text>
                    </g>
                </g>
                <g id="tap_button" transform="translate(210.000000, 0.000000)">
                    <g id="Group">
                        <g id="Ellipse_17-2">
                            <g id="onb-path-3-link" fill="#000000" fill-rule="nonzero">
                                <circle id="onb-path-3" cx="17.5" cy="17.5" r="17.5"></circle>
                            </g>
                            <g id="onb-path-3-link" fill="#FFFFFF">
                                <circle id="onb-path-3" cx="17.5" cy="17.5" r="17.5"></circle>
                            </g>
                            <g id="tap_button_pulse_1" fill="rgba(99, 0, 238, 1)" fill-rule="nonzero">
                                <circle id="onb-path-3" cx="17.5" cy="17.5" r="17.5"></circle>
                            </g>
                            <g id="tap_button_pulse_2" fill="rgba(99, 0, 238, 1)" fill-rule="nonzero">
                                <circle id="onb-path-3" cx="17.5" cy="17.5" r="17.5"></circle>
                            </g>
                        </g>
                    </g>
                    <g id="tap" transform="translate(9.965185, 5.942222)" fill="#686868" fill-rule="nonzero">
                        <g id="Group_48" transform="translate(0.027963, 5.199444)">
                            <g id="Group_47">
                                <path d="M13.8094444,7.32796296 L8.41037037,5.57407407 L8.41037037,2.02222222 C8.41037037,0.905379728 7.50499064,0 6.38814815,0 C5.27130565,0 4.36592593,0.905379728 4.36592593,2.02222222 L4.36592593,7.99425926 L2.92055556,7.30981481 C2.12891838,6.93505259 1.18653138,7.1058755 0.576802937,7.73465795 C-0.0329255039,8.36344041 -0.174677913,9.31063626 0.224259259,10.0903704 L1.71888889,13.0109259 C3.11405643,15.7389439 6.19675526,17.1556928 9.17556463,16.4378703 C12.154374,15.7200478 14.2533682,13.0546336 14.2527778,9.99055556 L14.2527778,7.93722222 C14.2531689,7.65935124 14.073961,7.41307133 13.8094444,7.32796296 Z" id="Onb-path_41"></path>
                            </g>
                        </g>
                        <g id="Group_50" transform="translate(0.281296, 0.000000)">
                            <g id="Group_49">
                                <path d="M6.13481481,0 C3.72432645,-0.00572891822 1.55857758,1.47177887 0.68457008,3.71824228 C-0.189437409,5.9647057 0.40832965,8.51738507 2.18888889,10.1422222 C2.4511325,10.3525083 2.83145193,10.3236977 3.05902476,10.0763062 C3.28659758,9.8289147 3.28362433,9.44751716 3.05222222,9.2037037 C1.66613263,7.93282571 1.20227688,5.94144224 1.88411218,4.18887959 C2.56594748,2.43631693 4.25364141,1.28199486 6.13416667,1.28199486 C8.01469192,1.28199486 9.7023859,2.43631693 10.3842212,4.18887959 C11.0660565,5.94144224 10.6022007,7.93282571 9.2161111,9.2037037 C9.0477662,9.35815491 8.97460786,9.59068464 9.0241941,9.81370119 C9.0737803,10.0367177 9.2385778,10.2163396 9.4565089,10.2849049 C9.6744401,10.3534702 9.9123959,10.3005623 10.0807407,10.1461111 C11.8642718,8.52180352 12.4639954,5.96722562 11.5896122,3.7189347 C10.7152289,1.47064379 8.54713772,-0.00750272505 6.13481481,0 Z" id="Onb-path_42"></path>
                            </g>
                        </g>
                    </g>
                </g>
            </g>
            <g id="mini_onboarding_2" transform="translate(0, 100)">
                <g id="popup">
                    <g id="popup-2" transform="translate(185.500000, 47.000000) scale(-1, 1) translate(-185.500000, -47.000000) ">
                        <g id="onb-path-5-link" fill="#000000" fill-rule="nonzero" filter="url(#onb-filter-1)">
                            <path d="M30.2919822,0.2292838 C33.6739818,0.2292838 141.136935,0.2305171 141.136935,0.2305171 L166.952846,0.2292838 L350.708018,0.2292838 C361.91497,0.2292838 371,10.1683415 371,22.4287905 L371,71.8004933 C371,84.060942 361.91497,94 350.708018,94 L30.2919822,94 C19.0850299,94 10,84.060942 10,71.8004933 C10,65.2224963 10,60.2889985 10,57 L0.5,47.634531 L10,37.0118794 C10,34.0784079 10,29.2173783 10,22.4287905 C10,10.1684963 23.5279881,0.2292838 30.2919822,0.2292838 Z" id="onb-path-5"></path>
                        </g>
                        <g id="onb-path-5-link" transform="translate(1.000000, 0.000000)" fill="#FFFFFF">
                            <path d="M29.2919822,0.2292838 C32.6739818,0.2292838 140.136935,0.2305171 140.136935,0.2305171 L165.952846,0.2292838 L349.708018,0.2292838 C360.91497,0.2292838 369.5,9.1683415 369.5,21.4287905 L369.5,70.8004933 C369.5,83.060942 360.91497,93.5 349.708018,93.5 L29.2919822,93.5 C18.0850299,93.5 9,84.060942 9,71.8004933 C9.33333333,65.2224963 9.5,60.2889985 9.5,57 L0,47.5 L9,36.8824195 C9,33.9717268 9.16666667,29.1538504 9.5,22.4287905 C9.5,10.1684963 22.5279881,0.2292838 29.2919822,0.2292838 Z" id="onb-path-5"></path>
                        </g>
                    </g>
                    <text id="tap-these-thumbnails." fill="#4A4A4A" font-family="Muli-Regular, Muli" font-size="18" font-weight="normal">
                        <tspan x="88" y="52.4">Or tap the thumbnail.</tspan>
                    </text>
                </g>
                <g id="tap_button" transform="translate(382.000000, 25.000000)">
                    <g id="Group">
                        <g id="Ellipse_17-2">
                            <g id="onb-path-7-link" fill="#000000" fill-rule="nonzero" filter="url(#onb-filter-1)">
                                <circle id="onb-path-7" cx="17.5" cy="17.5" r="17.5"></circle>
                            </g>
                            <g id="onb-path-7-link" fill="#FFFFFF">
                                <circle id="onb-path-7" cx="17.5" cy="17.5" r="17.5"></circle>
                            </g>
                            <g id="tap_button_pulse_1" fill="rgba(99, 0, 238, 1)" fill-rule="nonzero">
                                <circle id="onb-path-3" cx="17.5" cy="17.5" r="17.5"></circle>
                            </g>
                            <g id="tap_button_pulse_2" fill="rgba(99, 0, 238, 1)" fill-rule="nonzero">
                                <circle id="onb-path-3" cx="17.5" cy="17.5" r="17.5"></circle>
                            </g>
                        </g>
                    </g>
                    <g id="tap" transform="translate(9.965185, 5.942222)" fill="#686868" fill-rule="nonzero">
                        <g id="Group_48" transform="translate(0.027963, 5.199444)">
                            <g id="Group_47">
                                <path d="M13.8094444,7.32796296 L8.41037037,5.57407407 L8.41037037,2.02222222 C8.41037037,0.905379728 7.50499064,0 6.38814815,0 C5.27130565,0 4.36592593,0.905379728 4.36592593,2.02222222 L4.36592593,7.99425926 L2.92055556,7.30981481 C2.12891838,6.93505259 1.18653138,7.1058755 0.576802937,7.73465795 C-0.0329255039,8.36344041 -0.174677913,9.31063626 0.224259259,10.0903704 L1.71888889,13.0109259 C3.11405643,15.7389439 6.19675526,17.1556928 9.17556463,16.4378703 C12.154374,15.7200478 14.2533682,13.0546336 14.2527778,9.99055556 L14.2527778,7.93722222 C14.2531689,7.65935124 14.073961,7.41307133 13.8094444,7.32796296 Z" id="Onb-path_41"></path>
                            </g>
                        </g>
                        <g id="Group_50" transform="translate(0.281296, 0.000000)">
                            <g id="Group_49">
                                <path d="M6.13481481,0 C3.72432645,-0.00572891822 1.55857758,1.47177887 0.68457008,3.71824228 C-0.189437409,5.9647057 0.40832965,8.51738507 2.18888889,10.1422222 C2.4511325,10.3525083 2.83145193,10.3236977 3.05902476,10.0763062 C3.28659758,9.8289147 3.28362433,9.44751716 3.05222222,9.2037037 C1.66613263,7.93282571 1.20227688,5.94144224 1.88411218,4.18887959 C2.56594748,2.43631693 4.25364141,1.28199486 6.13416667,1.28199486 C8.01469192,1.28199486 9.7023859,2.43631693 10.3842212,4.18887959 C11.0660565,5.94144224 10.6022007,7.93282571 9.2161111,9.2037037 C9.0477662,9.35815491 8.97460786,9.59068464 9.0241941,9.81370119 C9.0737803,10.0367177 9.2385778,10.2163396 9.4565089,10.2849049 C9.6744401,10.3534702 9.9123959,10.3005623 10.0807407,10.1461111 C11.8642718,8.52180352 12.4639954,5.96722562 11.5896122,3.7189347 C10.7152289,1.47064379 8.54713772,-0.00750272505 6.13481481,0 Z" id="Onb-path_42"></path>
                            </g>
                        </g>
                    </g>
                </g>
            </g>
            <g id="mini_onboarding_3" transform="translate(5.000000, 109.000000)">
                <g id="popup-2" transform="translate(180.500000, 55.500000) translate(-180.500000, -55.500000) translate(0.000000, -0.000000)">
                    <g id="onb-path-35-link" fill="#000000" fill-rule="nonzero" filter="url(#onb-filter-1)">
                        <path d="M20.2919822,1.13686838e-13 C22.5466486,1.13686838e-13 129.351994,1.5476509e-13 340.708018,2.36921593e-13 C351.91497,2.33840725e-13 361,11.7652445 361,26.2784091 L361,84.7215909 C361,99.2347555 351.91497,111 340.708018,111 L20.2919822,111 C9.08502989,111 -8.52651283e-13,99.2347555 -8.52651283e-13,84.7215909 L-8.52651283e-13,26.2784091 C-8.52651283e-13,11.7654277 13.5279881,1.13686838e-13 20.2919822,1.13686838e-13 Z" id="onb-path-35"></path>
                    </g>
                    <g id="onb-path-35-link" fill="#FFFFFF">
                        <path d="M20.2919822,0.5 C22.5499878,0.5 129.351994,1.523226e-13 340.708018,2.34479103e-13 C351.91497,2.31398235e-13 360.5,11.7652445 360.5,26.2784091 L360.5,84.7215909 C360.5,99.2347555 351.91497,110.5 340.708018,110.5 L20.2919822,110.5 C9.08502989,110.5 0.5,99.2347555 0.5,84.7215909 L0.5,26.2784091 C0.5,11.7654277 13.5279881,0.5 20.2919822,0.5 Z" id="onb-path-35"></path>
                    </g>
                </g>
                <g id="That’s-it!" transform="translate(140.000000, 22.000000)" fill="#4A4A4A" font-family="Muli-Bold, Muli" font-size="18" font-weight="bold">
                    <text>
                        <tspan x="0" y="18.140625">That’s it!</tspan>
                    </text>
                </g>
                <g id="Let’s-go-find-your-f" transform="translate(50.000000, 63.000000)" fill="#4A4A4A" font-family="Muli-Regular, Muli" font-size="18" font-weight="normal">
                    <text id="Let’s-go-find-your-favorite-tops.">
                        <tspan x="0" y="18">Let’s go find your favorite tops.</tspan>
                    </text>
                </g>
            </g>
            <rect id="mini_onboarding_touch" fill-opacity="0" fill="#800000" fill-rule="nonzero" x="1" y="0" width="480" height="440"></rect>
        </g>
    </g>
</svg>