<?xml version="1.0" encoding="UTF-8"?>
<svg width="30px" height="31px" viewBox="0 0 30 31" version="1.1" xmlns="http://www.w3.org/2000/svg" xmlns:xlink="http://www.w3.org/1999/xlink">
    <!-- Generator: Sketch 50.2 (55047) - http://www.bohemiancoding.com/sketch -->
    <title>pattern_icon</title>
    <desc>Created with Sketch.</desc>
    <defs></defs>
    <g id="Page-1" stroke="none" stroke-width="1" fill="none" fill-rule="evenodd">
        <g id="Home-–-Semi-final" transform="translate(-337.000000, -2882.000000)" fill="#E4E4E4" fill-rule="nonzero" stroke="#707070" stroke-width="0.1">
            <g id="Home_Semi_final_" transform="translate(-1.000000, 0.000000)">
                <g id="editor's-pick-lists" transform="translate(298.000000, 2392.000000)">
                    <g id="Group_567" transform="translate(40.000000, 446.000000)">
                        <g id="Group_564-2" transform="translate(0.000000, 1.000000)">
                            <g id="pattern_0-2" transform="translate(0.000000, 44.000000)">
                                <path d="M1,20.172 C1.819,13.688 5.235,11.608 8.293,9.764 C11.416,7.882 14.117,6.228 13.793,0.037 C12.3693728,0.134479059 10.966243,0.429644512 9.624,0.914 C9.761,5.831 7.353,7.289 5.018,8.7 C2.551,10.185 0.225,11.59 0.075,17.138 C0.268021498,18.180958 0.578324974,19.1987534 1,20.172 Z" id="Path_23-2"></path>
                                <path d="M4.3,7.593 C6.48,6.28 8.24,5.2 8.279,1.474 C4.30710241,3.33171042 1.36942262,6.86249801 0.265,11.106 C1.3014173,9.62169493 2.68715596,8.41522655 4.3,7.593 Z" id="Path_24-2"></path>
                                <path d="M4.7,25.272 C5.23,18.361 8.364,15.948 11.4,13.614 C14.7,11.077 17.82,8.674 17.645,0.242 C16.8152705,0.0934025665 15.9748386,0.0124696094 15.132,1.72761805e-15 C15.48,6.941 12.194,8.944 9.006,10.869 C5.771,12.819 2.433,14.843 2.176,22.34 C2.88530972,23.4236436 3.7339031,24.4094106 4.7,25.272 Z" id="Path_25-2"></path>
                                <path d="M20.816,17.675 C23.831,15.333 26.675,13.104 26.524,5.333 C25.706749,4.37210171 24.7713381,3.51833764 23.74,2.792 C23.699,11.282 20.289,13.93 16.984,16.501 C13.873,18.917 10.937,21.201 10.722,28.555 C11.9904448,28.9077149 13.2986197,29.0975733 14.615,29.12 C14.969,22.236 17.937,19.913 20.816,17.675 Z" id="Path_26-2"></path>
                                <path d="M25.87,20.713 C23.711,21.986 21.838,23.105 21.62,27.577 C25.789065,25.5841195 28.7755783,21.7435226 29.68,17.212 C28.7829114,18.7290837 27.4573692,19.9471213 25.87,20.713 Z" id="Path_27-2"></path>
                                <path d="M25.169,19.6 C27.482,18.235 29.669,16.948 29.401,10.961 L29.47,10.961 C29.1165481,9.62186428 28.5690845,8.34164151 27.845,7.161 C27.523,14.107 24.552,16.441 21.659,18.688 C18.906,20.824 16.308,22.86 15.959,29.08 C17.4244619,28.9823621 18.8684209,28.6755881 20.247,28.169 C20.333,22.454 22.9,20.938 25.169,19.6 Z" id="Path_28-2"></path>
                                <path d="M16.139,15.487 C19.449,12.92 22.573,10.487 22.39,1.942 C21.3199426,1.34416507 20.1817363,0.877466939 19,0.552 C19.1,9.367 15.612,12.044 12.238,14.636 C9.172,17 6.272,19.238 6,26.3 C7.05155619,27.047359 8.19409952,27.6576116 9.4,28.116 C9.732,20.486 12.987,17.938 16.139,15.487 Z" id="Path_29-2"></path>
                            </g>
                        </g>
                    </g>
                </g>
            </g>
        </g>
    </g>
</svg>
