<?xml version="1.0" encoding="UTF-8"?>
<svg width="43px" height="43px" viewBox="0 0 43 43" version="1.1" xmlns="http://www.w3.org/2000/svg" xmlns:xlink="http://www.w3.org/1999/xlink">
    <!-- Generator: Sketch 50.2 (55047) - http://www.bohemiancoding.com/sketch -->
    <title>Pattern-Icon-On</title>
    <desc>Created with Sketch.</desc>
    <defs></defs>
    <g id="Page-1" stroke="none" stroke-width="1" fill="none" fill-rule="evenodd">
        <g id="Presets-Copy-2" transform="translate(-525.000000, -642.000000)" fill="#FFFFFF" fill-rule="nonzero">
            <g id="Preset-1" transform="translate(131.000000, 483.000000)">
                <g id="Website-Preset-Filters-On" transform="translate(387.000000, 91.000000)">
                    <g id="Preset-Patterns-Off" transform="translate(1.000000, 63.591002)">
                        <g id="Pattern-Icon-On" transform="translate(6.000000, 4.408998)">
                            <path d="M1.37208147,29.5996833 C2.5603563,20.0846274 7.51773909,17.0324843 11.954277,14.3267595 C16.4859393,11.56457 20.4047511,9.1381163 19.9338076,0.0534125034 C17.8665145,0.19797913 15.8310597,0.631722758 13.889512,1.34141687 C14.0875578,8.55668305 10.5944664,10.6962353 7.20585593,12.7625362 C3.62543728,14.9448185 0.250861521,17.0065411 0.0325433104,25.1481327 C0.310990924,26.675543 0.76020264,28.1683625 1.37208147,29.5996833 Z" id="Path_23"></path>
                            <path d="M6.16728502,11.1418482 C9.3266614,9.21441987 11.8809845,7.6318837 11.9371234,2.16244335 C6.11566926,4.95910851 1.857983,10.1343099 0.308559905,16.2969178 C1.79756447,14.1323675 3.81014433,12.3615062 6.16728502,11.1418482 Z" id="Path_24"></path>
                            <path d="M6.75050652,37.0835381 C7.5192985,26.9427928 12.0665549,23.4023069 16.4765828,19.9762763 C21.2671081,16.2541878 25.7925327,12.7274365 25.5383479,0.354048594 C24.3317087,0.135872956 23.1084507,0.0174390123 21.8815179,0 C22.3867686,10.1850014 17.6180751,13.1242151 12.9928479,15.9489735 C8.2990064,18.8103576 3.45546096,21.7800928 3.08276059,32.7815425 C4.10853248,34.3658417 5.34156408,35.8120969 6.75050652,37.0835381 Z" id="Path_25"></path>
                            <path d="M30.129268,25.9355856 C34.5049887,22.4988725 38.6312029,19.2285012 38.4113252,7.82569479 C37.2312882,6.42105828 35.8741915,5.16835715 34.3724384,4.09750205 C34.3131806,16.5548239 29.3651543,20.4417281 24.5683913,24.2141769 C20.0538826,27.7592411 15.7935587,31.1135463 15.4816755,41.9013459 C17.3197346,42.4184424 19.2192338,42.697044 21.1314389,42.7300027 C21.6444867,32.6289353 25.9515931,29.2196915 30.129268,25.9355856 Z" id="Path_26"></path>
                            <path d="M37.4632004,30.3932405 C34.3303341,32.2611521 31.6122724,33.903205 31.295711,40.4653126 C37.4068371,37.4607175 41.7330138,31.8350141 42.9913294,25.2564838 C41.7076548,27.4656012 39.7840115,29.2530573 37.4632004,30.3932405 Z" id="Path_27"></path>
                            <path d="M36.4464613,28.7633961 C39.8023241,26.7611903 42.9741758,24.8719137 42.5874407,16.08632 L42.6872433,16.08632 C42.1772961,14.125514 41.3833061,12.2461923 40.3294067,10.5054764 C39.8615819,20.6981081 35.5513567,24.1226126 31.3534094,27.4204532 C27.3581861,30.5550041 23.5890782,33.5430521 23.0885057,42.6689599 C25.2183825,42.5249464 27.3149371,42.0744925 29.3105747,41.3321212 C29.4290903,32.9478842 33.156094,30.724398 36.4464613,28.7633961 Z" id="Path_28"></path>
                            <path d="M23.3426905,22.7247311 C28.1456911,18.9583866 32.6789128,15.3873792 32.4138121,2.84917554 C30.8681684,1.97478561 29.2183626,1.29002037 27.5016524,0.81034398 C27.6419998,13.7453262 22.5848144,17.6734343 17.6898083,21.4764046 C13.2329979,24.9390609 9.02569415,28.2292711 8.6249243,38.597401 C10.1463113,39.6910953 11.8064231,40.5867621 13.5635941,41.2619219 C14.0454536,30.0605569 18.768924,26.3216817 23.3426905,22.7247311 Z" id="Path_29"></path>
                        </g>
                    </g>
                </g>
            </g>
        </g>
    </g>
</svg>