<?xml version="1.0" encoding="UTF-8"?>
<svg width="18px" height="30px" viewBox="0 0 18 30" version="1.1" xmlns="http://www.w3.org/2000/svg" xmlns:xlink="http://www.w3.org/1999/xlink">
    <!-- Generator: Sketch 53.2 (72643) - https://sketchapp.com -->
    <title>icons8-jeans</title>
    <desc>Created with Sketch.</desc>
    <g id="👖-main-flow-" stroke="none" stroke-width="1" fill="none" fill-rule="evenodd">
        <g id="07-Jeans" transform="translate(-311.000000, -721.000000)" fill="#FFFFFF">
            <g id="btn/floating-filter" transform="translate(283.000000, 700.000000)">
                <g id="icons/top" transform="translate(13.000000, 12.000000)">
                    <g id="icons8-jeans" transform="translate(15.000000, 9.000000)">
                        <path d="M17.25,7.5 L18,7.5 L18,0 L0,0 L0,7.5 L0.744141,7.5 C1.130859,7.494141 4.5,7.365234 4.5,3.75 L4.5,3 L6,3 L6,3.75 C6,7.9042965 2.566407,9 0.75,9 L0.005859,9 L0,30 L7.5,30 L7.5,12 C7.5,11.1738285 8.1738285,10.5 9,10.5 C9.8261715,10.5 10.5,11.1738285 10.5,12 L10.5,30 L18,30 L18,9 L17.25,9 C15.4335945,9 12,7.9042965 12,3.75 L12,3 L13.5,3 L13.5,3.75 C13.5,7.458984 17.097657,7.5 17.25,7.5 Z" id="Path"></path>
                    </g>
                </g>
            </g>
        </g>
    </g>
</svg>