<?xml version="1.0" encoding="UTF-8"?>
<svg width="26px" height="23px" viewBox="0 0 26 23" version="1.1" xmlns="http://www.w3.org/2000/svg" xmlns:xlink="http://www.w3.org/1999/xlink">
    <!-- Generator: Sketch 53.2 (72643) - https://sketchapp.com -->
    <title>Path</title>
    <desc>Created with Sketch.</desc>
    <g id="👖-main-flow-" stroke="none" stroke-width="1" fill="none" fill-rule="evenodd">
        <g id="08-Shoes" transform="translate(-305.000000, -724.000000)" fill="#FFFFFF">
            <g id="btn/floating-filter" transform="translate(283.000000, 700.000000)">
                <g id="icons/top" transform="translate(13.000000, 12.000000)">
                    <g id="icon/shoes">
                        <path d="M31.0025,12 L30.69375,12.2759351 C28.7965628,14.016761 27.2142189,17.4192838 25.965,20.6676076 C24.7157811,23.9159314 23.8260939,27.0202013 23.5275,28.0042343 C23.4442189,28.2761118 23.1415628,28.763056 22.65,29.1404375 C22.1584378,29.5178196 21.4860939,29.805928 20.635,29.805928 C18.3742189,29.805928 17.255,27.858151 17.255,27.858151 L17.01125,27.4685956 L16.605,27.6471418 C16.605,27.6471418 15.2440628,28.2274173 13.72875,28.9456598 C12.2134378,29.6639029 10.5823439,30.4511294 9.8125,31.1531404 C9.07921888,31.822689 9,32.6383204 9,33.1171489 L9,33.5553987 L9.4225,33.6365561 C9.4225,33.6365561 16.19875,35 21.48,35 C23.9276561,35 25.4835939,33.8719125 26.42,32.3867325 C27.3564061,30.9015526 27.760625,29.0998589 28.175,27.6146789 C28.5995311,26.0909491 29.0423439,25.0318456 29.475,24.4008469 C29.9076561,23.7698481 30.2448439,23.5730416 30.69375,23.5730416 C31.0045311,23.5730416 31.1914061,23.601447 31.37625,23.7353564 C31.5610939,23.8692663 31.8007811,24.1715774 32.02625,24.8877911 C32.4771878,26.3222478 32.80625,29.2885496 32.80625,35 L33.91125,35 C33.91125,22.755381 35,21.7672903 35,18.9633028 C35,14.7897849 31.34375,12.2434721 31.34375,12.2434721 L31.0025,12 Z" id="Path"></path>
                    </g>
                </g>
            </g>
        </g>
    </g>
</svg>