<?xml version="1.0" encoding="UTF-8"?>
<svg width="121px" height="47px" viewBox="0 0 121 47" version="1.1" xmlns="http://www.w3.org/2000/svg" xmlns:xlink="http://www.w3.org/1999/xlink">
    <!-- Generator: Sketch 50.2 (55047) - http://www.bohemiancoding.com/sketch -->
    <title>Group-6-Copy</title>
    <desc>Created with Sketch.</desc>
    <defs>
        <polygon id="path-1" points="0 0.863088746 62.8168113 0.863088746 62.8168113 103.99967 0 103.99967"></polygon>
    </defs>
    <g id="Page-1" stroke="none" stroke-width="1" fill="none" fill-rule="evenodd">
        <g id="demo-VF-page-desktop-1" transform="translate(-970.000000, -418.000000)">
            <g id="Group-6-Copy" transform="translate(1029.428941, 432.601752) scale(-1, 1) rotate(-116.000000) translate(-1029.428941, -432.601752) translate(990.428941, 376.601752)">
                <g id="Group-3" transform="translate(0.000000, 7.473000)">
                    <g id="Fill-1-Clipped">
                        <mask id="mask-2" fill="white">
                            <use xlink:href="#path-1"></use>
                        </mask>
                        <g id="path-25"></g>
                        <path d="M61.7393,3.5306 C61.7393,3.5306 61.2273,3.6346 60.2673,3.8316 C59.3133,4.0296 57.8913,4.3116 56.1313,4.7316 C55.2813,4.9896 54.3423,5.2756 53.3183,5.5866 C52.2943,5.8976 51.1843,6.2206 50.0343,6.7286 C48.8763,7.1986 47.6433,7.6976 46.3433,8.2236 C45.0903,8.8516 43.7713,9.5116 42.3953,10.2016 C39.7123,11.7036 36.8563,13.4366 34.0453,15.5646 C31.1953,17.6336 28.3943,20.0946 25.7253,22.8476 L24.7033,23.8656 L23.7483,24.9646 C23.1153,25.7026 22.4783,26.4466 21.8383,27.1946 C21.1723,27.9216 20.6223,28.7506 20.0243,29.5456 C19.4353,30.3446 18.8443,31.1496 18.2513,31.9576 C17.1693,33.6446 16.0983,35.3566 15.0793,37.0966 L13.6813,39.7896 C13.2133,40.6856 12.7303,41.5726 12.3643,42.5176 C11.5963,44.3866 10.7053,46.1986 10.1323,48.1236 C9.8103,49.0706 9.4893,50.0156 9.1703,50.9576 C8.8803,51.9076 8.6623,52.8756 8.4053,53.8266 C8.1713,54.7826 7.8823,55.7206 7.6943,56.6766 C7.5273,57.6346 7.3603,58.5886 7.1953,59.5366 L6.9343,60.9496 L6.8693,61.3016 L6.8363,61.4756 C6.8563,61.3376 6.8393,61.4646 6.8423,61.4456 L6.8363,61.4916 L6.8263,61.5856 L6.7403,62.3276 C6.6333,63.3066 6.4873,64.3296 6.4613,65.1946 C6.2053,68.7826 6.2473,72.4486 6.6583,75.7716 C7.0153,79.1266 7.6853,82.2376 8.5433,85.0166 C9.4043,87.7916 10.3743,90.2926 11.5173,92.3516 C11.6483,92.6176 11.7773,92.8796 11.9043,93.1366 C12.0513,93.3816 12.1953,93.6216 12.3363,93.8566 C12.6233,94.3316 12.8983,94.7876 13.1633,95.2266 C13.7533,96.0706 14.2943,96.8456 14.7833,97.5476 C15.3353,98.1956 15.8283,98.7856 16.2503,99.3146 C16.6653,99.8516 17.1113,100.2086 17.4183,100.5656 C18.0653,101.2546 18.4103,101.6216 18.4103,101.6216 L18.5123,101.7306 C19.0223,102.2726 18.9963,103.1256 18.4533,103.6346 C18.0083,104.0536 17.3503,104.1096 16.8483,103.8146 C16.8483,103.8146 16.3733,103.5356 15.4813,103.0116 C14.5633,102.5086 13.3363,101.6086 11.8203,100.3556 C11.1303,99.6726 10.3023,98.9536 9.5083,98.0756 C9.1273,97.6216 8.7313,97.1486 8.3213,96.6596 C8.1173,96.4116 7.9093,96.1596 7.6973,95.9026 C7.5073,95.6326 7.3123,95.3576 7.1153,95.0786 C5.4853,92.8626 4.0633,90.0946 2.8503,86.9666 C1.6533,83.8286 0.7733,80.2866 0.3423,76.5026 C-0.0607,72.6936 -0.1467,68.7516 0.2953,64.5376 C0.3823,63.4466 0.5513,62.5176 0.6943,61.5246 L0.8053,60.7856 L0.8443,60.5236 L0.8863,60.3316 L0.9703,59.9476 L1.3073,58.4066 C1.5423,57.3806 1.7793,56.3466 2.0163,55.3076 C2.2813,54.2776 2.6483,53.2706 2.9623,52.2466 C3.3023,51.2296 3.5863,50.1906 3.9793,49.1876 C4.3953,48.1946 4.8133,47.1986 5.2313,46.2006 C6.0023,44.1786 7.0883,42.2956 8.0633,40.3696 C8.5323,39.3956 9.1163,38.4856 9.6853,37.5706 L11.3843,34.8316 C12.6013,33.0686 13.8663,31.3486 15.1353,29.6676 C15.8133,28.8586 16.4873,28.0526 17.1583,27.2516 C17.8373,26.4586 18.4673,25.6316 19.2103,24.9116 C19.9263,24.1706 20.6383,23.4336 21.3453,22.7026 L22.3923,21.6036 L23.5073,20.5886 C25.0043,19.2616 26.3923,17.8676 27.9483,16.7296 C29.4633,15.5486 30.8813,14.3106 32.4273,13.3256 C35.3983,11.1916 38.4033,9.4666 41.2193,7.9806 C42.6483,7.2726 44.0173,6.5946 45.3193,5.9496 C46.6683,5.4066 47.9473,4.8916 49.1493,4.4076 C50.3323,3.8846 51.5173,3.5546 52.5953,3.2076 C53.6753,2.8606 54.6653,2.5426 55.5603,2.2546 C57.3433,1.7886 58.7413,1.5056 59.6923,1.2576 C60.6433,1.0256 61.1513,0.9016 61.1513,0.9016 C61.8743,0.7256 62.6023,1.1696 62.7783,1.8916 C62.9543,2.6146 62.5103,3.3436 61.7883,3.5186 C61.7743,3.5226 61.7543,3.5266 61.7393,3.5306" id="Fill-1" fill="#582ADF" fill-rule="nonzero" mask="url(#mask-2)"></path>
                    </g>
                </g>
                <path d="M60.2591,1.2649 L61.0121,1.9619 C61.5531,2.4129 62.1131,2.8429 62.7041,3.2299 C63.2931,3.6189 63.9111,3.9599 64.5381,4.2829 C65.1691,4.5969 65.8231,4.8589 66.4771,5.1109 C67.1411,5.3439 67.8131,5.5439 68.4941,5.6999 C69.1771,5.8539 69.8711,5.9419 70.5571,6.0249 C71.2461,6.0939 71.9391,6.0989 72.6221,6.0969 C73.3071,6.0809 73.9831,6.0339 74.6511,5.9649 C75.9451,5.8319 77.1021,6.7729 77.2361,8.0669 C77.3121,8.8069 77.0371,9.5029 76.5461,9.9879 L75.9851,10.5349 L73.1721,13.2789 C72.2331,14.1779 71.2921,15.0639 70.3321,15.9289 C69.3811,16.8029 68.3751,17.6159 67.2701,18.3529 C66.7171,18.7209 66.1451,19.0759 65.5311,19.4009 C65.2101,19.5509 64.9091,19.7209 64.5761,19.8659 C64.5081,19.8809 64.3531,20.0029 64.4321,19.8449 C64.4351,19.7449 64.5391,19.6339 64.5501,19.1199 C64.5481,18.8679 64.4311,18.5029 64.2401,18.2849 C63.9491,17.9249 64.1601,18.1869 64.0961,18.1079 L64.1001,18.1209 L64.1011,18.1299 L64.0371,18.0699 C63.8261,17.8619 63.4881,17.7359 63.3451,17.7179 C62.9391,17.6479 62.6951,17.7339 62.5131,17.8149 C62.1941,17.9889 62.0971,18.1079 61.9301,18.4079 C61.8761,18.5929 61.6621,18.8199 61.8781,19.5399 C61.9421,19.7089 62.0531,19.8769 62.1831,20.0029 C62.2921,20.1089 62.3951,20.1809 62.5211,20.2439 C62.6691,20.3119 62.7061,20.3159 62.7781,20.3359 C62.8471,20.3509 62.9161,20.3609 62.9831,20.3639 C62.2441,20.2869 61.7071,19.6239 61.7841,18.8849 C61.8621,18.1449 62.5241,17.6079 63.2641,17.6849 C63.3421,17.6909 63.4221,17.7029 63.5001,17.7209 C63.5831,17.7429 63.6301,17.7479 63.7871,17.8229 C63.9211,17.8909 64.0351,17.9689 64.1511,18.0819 C64.2871,18.2169 64.4031,18.3939 64.4741,18.5719 C64.7031,19.3329 64.4721,19.6029 64.3981,19.8249 C64.1871,20.1959 64.0231,20.3739 63.6271,20.5819 C63.4041,20.6759 63.1181,20.7729 62.6711,20.6919 C62.5061,20.6719 62.1501,20.5319 61.9221,20.3139 L61.8491,20.2459 L61.8451,20.2449 L61.8361,20.2419 L61.8271,20.2389 C61.7571,20.1559 61.9661,20.4169 61.6731,20.0539 C61.4341,19.7659 61.2961,19.3149 61.2981,18.9789 C61.3181,18.2949 61.5111,18.0289 61.6121,17.7919 C61.7901,17.4979 61.7571,17.4999 61.8001,17.3869 C61.9231,17.0309 62.0691,16.6919 62.2101,16.3459 C62.5151,15.6749 62.8731,15.0449 63.2681,14.4439 C64.0591,13.2429 65.0051,12.1739 66.0591,11.2239 C66.7564333,10.5859 67.5901,9.91956667 68.5601,9.2249 L67.4611,8.7509 L66.3831,8.2499 L65.3241,7.7199 C64.6231,7.3619 63.9471,6.9619 63.2721,6.5649 C62.6021,6.1579 61.9561,5.7199 61.3091,5.2829 C60.6751,4.8259 60.0461,4.3639 59.4331,3.8799 L58.4981,3.1189 C58.2191,2.8729 57.9331,2.6359 57.6431,2.4009 C57.0631,1.9309 56.9741,1.0809 57.4431,0.5009 C57.9131,-0.0781 58.7641,-0.1681 59.3431,0.3019 C59.3971,0.3449 59.4521,0.3979 59.4971,0.4479 C59.7461,0.7249 59.9991,0.9989 60.2591,1.2649 Z" id="Fill-4" fill="#582ADF" fill-rule="nonzero"></path>
            </g>
        </g>
    </g>
</svg>