<?xml version="1.0" encoding="UTF-8"?>
<svg width="164px" height="187px" viewBox="0 0 164 187" version="1.1" xmlns="http://www.w3.org/2000/svg" xmlns:xlink="http://www.w3.org/1999/xlink">
    <!-- Generator: Sketch 50.2 (55047) - http://www.bohemiancoding.com/sketch -->
    <title>Group 2</title>
    <desc>Created with Sketch.</desc>
    <defs>
        <polygon id="path-1" points="0 0.02375 130.985157 0.02375 130.985157 67.9496338 0 67.9496338"></polygon>
        <polygon id="path-3" points="0.361518692 0.963066901 24.4421926 0.963066901 24.4421926 29 0.361518692 29"></polygon>
        <polygon id="path-5" points="0 0.0230514706 126.98561 0.0230514706 126.98561 65.9511151 0 65.9511151"></polygon>
        <polygon id="path-7" points="0.347057945 0.929857698 23.4645049 0.929857698 23.4645049 28 0.347057945 28"></polygon>
    </defs>
    <g id="Page-1" stroke="none" stroke-width="1" fill="none" fill-rule="evenodd">
        <g id="demo-VF-page-desktop-2" transform="translate(-922.000000, -399.000000)">
            <g id="Group-2" transform="translate(921.000000, 354.000000)">
                <g id="Group-7" transform="translate(82.627088, 73.083223) rotate(-32.000000) translate(-82.627088, -73.083223) translate(11.127088, 31.583223)">
                    <g id="Group-3">
                        <g id="Fill-1-Clipped">
                            <mask id="mask-2" fill="white">
                                <use xlink:href="#path-1"></use>
                            </mask>
                            <g id="path-25"></g>
                            <path d="M0.898223333,1.44682813 C0.898223333,1.44682813 1.48990667,1.36807813 2.602315,1.22042188 C3.71909,1.08917188 5.32274833,0.800421875 7.449315,0.634171875 C9.56278167,0.394640625 12.1205567,0.255734375 15.0560483,0.098234375 C16.52434,0.074171875 18.0886983,0.050109375 19.737115,0.022765625 C21.38444,0.073078125 23.1180067,0.086203125 24.924715,0.173703125 C28.533765,0.369484375 32.450665,0.640734375 36.550965,1.26964063 C40.6567233,1.84604688 44.9567983,2.67401563 49.3540317,3.75135938 C53.7599983,4.80354688 58.24129,6.17729688 62.73459,7.75995313 C67.2431733,9.30651563 71.69499,11.2358906 76.080215,13.3063594 C80.4774483,15.3658906 84.6858233,17.8071406 88.76429,20.3074531 C92.8536733,22.8033906 96.6559483,25.6055781 100.255173,28.4143281 C102.02149,29.8602656 103.768157,31.2733906 105.387098,32.7630781 C107.044248,34.2079219 108.594415,35.6997969 110.096548,37.1610469 C111.598682,38.6201094 112.952348,40.1491719 114.318023,41.5688594 C115.623657,43.0443281 116.871432,44.4837031 118.020957,45.9033906 C119.137732,47.3515156 120.274157,48.6847969 121.223907,50.0552656 C122.176932,51.4213594 123.115765,52.6901094 123.93124,53.9282344 C124.722698,55.1816719 125.462848,56.3552656 126.148415,57.4391719 C126.811057,58.5372969 127.36344,59.5807344 127.889623,60.5027656 C128.419082,61.4237031 128.868848,62.2593281 129.220365,63.0074531 C129.581707,63.7501094 129.889557,64.3801094 130.139548,64.8919844 C130.62534,65.9179219 130.884065,66.4658906 130.884065,66.4658906 C131.130782,66.9843281 130.910265,67.6033906 130.392815,67.8494844 C129.935407,68.0660469 129.40049,67.9194844 129.11229,67.5246406 L129.087182,67.4896406 C129.087182,67.4896406 128.735665,67.0072969 128.075207,66.1038594 C127.406015,65.2091719 126.51194,63.8452656 125.249973,62.1958906 C124.633182,61.3646406 123.949798,60.4447969 123.205282,59.4429219 C122.435657,58.4629219 121.603807,57.4030781 120.716282,56.2710469 C118.934682,54.0146406 116.839773,51.5438594 114.519982,48.8860469 C113.350807,47.5658906 112.070282,46.2468281 110.807223,44.8271406 C109.466657,43.4818281 108.141373,42.0293281 106.670898,40.6446406 C103.821648,37.7801094 100.62634,34.9604219 97.2574567,32.1199531 C96.4135983,31.4112031 95.5315317,30.7352656 94.6603817,30.0330781 C93.7892317,29.3265156 92.9017067,28.6308906 91.9814317,27.9691719 C91.0720733,27.2899531 90.1572567,26.6052656 89.2380733,25.9172969 C88.2970567,25.2588594 87.3516733,24.5971406 86.4019233,23.9332344 C82.5636233,21.3388594 78.56594,18.8232344 74.4023233,16.5996406 C70.244165,14.3738594 66.0019483,12.2705781 61.6778567,10.5391719 C57.3559483,8.81760938 53.03404,7.24807813 48.7394233,6.10948438 C47.67614,5.79120313 46.6095817,5.51448438 45.5462983,5.26729688 C44.48629,5.01245313 43.4361067,4.75870313 42.39684,4.50932813 C40.2964733,4.10792188 38.2528733,3.64964063 36.23329,3.37073438 C32.2159567,2.68495313 28.37329,2.35573438 24.826465,2.10417188 C23.0503233,2.00573438 21.34514,1.99698438 19.7261983,1.94229688 C18.106165,1.96526563 16.5680067,1.98714063 15.1237317,2.00792188 C13.68164,2.08995313 12.33234,2.16651563 11.084565,2.23870313 C9.83569833,2.31198438 8.706915,2.47823438 7.67965667,2.57557813 C5.634965,2.76370313 3.99855667,3.06010938 2.89379,3.22745313 C1.78574833,3.40354688 1.19624833,3.49760938 1.19624833,3.49760938 C0.631856667,3.58729688 0.102398333,3.20120313 0.0128816667,2.63682813 C-0.076635,2.07135938 0.308723333,1.54089063 0.873115,1.45120313 C0.878573333,1.45010938 0.890581667,1.44792188 0.898223333,1.44682813" id="Fill-1" fill="#582ADF" fill-rule="nonzero" mask="url(#mask-2)"></path>
                        </g>
                    </g>
                    <g id="Group-6" transform="translate(118.000000, 54.000000)">
                        <g id="Fill-4-Clipped">
                            <mask id="mask-4" fill="white">
                                <use xlink:href="#path-3"></use>
                            </mask>
                            <g id="path-27"></g>
                            <path d="M21.0843478,5.22483333 C21.0365217,6.25916667 21.0213043,7.29672222 21.0169565,8.3332037 C21.0158696,10.4083148 21.1702174,12.4791296 21.4147826,14.5359815 C21.5463043,15.5649444 21.7126087,16.587463 21.8897826,17.6067593 C22.0745652,18.6249815 22.3104348,19.633537 22.5463043,20.6388704 C23.0517391,22.6441667 23.6626087,24.6161667 24.3397826,26.5570185 C24.6756522,27.5183148 24.1582609,28.5676852 23.1843478,28.8995741 C22.7767391,29.0370556 22.3528261,29.029537 21.9745652,28.9017222 L21.6832609,28.8029074 L19.0093478,27.897463 C18.1234783,27.5870556 17.2256522,27.3035 16.3441304,26.9823519 C15.4626087,26.6644259 14.5713043,26.3690556 13.6919565,26.0468333 L11.0506522,25.0866111 C9.29086957,24.4432407 7.55826087,23.7300556 5.84847826,22.9341667 C4.14195652,22.1253889 2.45065217,21.2672037 0.825652174,20.154463 C0.335434783,19.8193519 0.214782609,19.0965 0.553913043,18.6120926 C0.759347826,18.3199444 1.08652174,18.0943889 1.4223913,18.0943889 L1.44304348,18.0943889 C2.44630435,18.0943889 3.41152174,18.2608704 4.38,18.3725741 C5.3376087,18.5207963 6.29521739,18.7033889 7.23326087,18.9203519 C9.1126087,19.3413889 10.9517391,19.9063519 12.7473913,20.5744259 C14.5408696,21.2478704 16.3213043,21.9632037 18.0658696,22.7505 C19.8126087,23.5335 19.8126087,22.1833889 19.7017391,21.1146852 C19.5876087,20.0481296 19.5126087,18.9794259 19.4245652,17.9139444 C19.3408696,16.848463 19.2854348,15.7829815 19.2321739,14.7164259 C19.1767391,13.6520185 19.1528261,12.586537 19.1267391,11.5232037 L19.1071739,8.33105556 C19.1136957,7.26664815 19.0452174,6.20438889 19.0854348,5.13998148 L19.1191304,1.95964815 L19.1191304,1.93924074 C19.1191304,1.3775 19.7234783,0.940351852 20.2930435,0.963981481 C20.8615217,0.987611111 21.353913,1.46235185 21.331087,2.02409259 C21.328913,2.05416667 21.3767391,2.08746296 21.3723913,2.11646296 C21.231087,3.16690741 21.1615217,4.20338889 21.0843478,5.22483333 Z" id="Fill-4" fill="#582ADF" fill-rule="nonzero" mask="url(#mask-4)"></path>
                        </g>
                    </g>
                </g>
                <g id="Group-7-Copy-10" transform="translate(76.757042, 181.554791) scale(-1, 1) rotate(120.000000) translate(-76.757042, -181.554791) translate(6.257042, 140.554791)">
                    <g id="Group-3" transform="translate(0.945221, 0.886637)">
                        <g id="Fill-1-Clipped">
                            <mask id="mask-6" fill="white">
                                <use xlink:href="#path-5"></use>
                            </mask>
                            <g id="path-29"></g>
                            <path d="M0.870796667,1.40427436 C0.870796667,1.40427436 1.44441333,1.32784053 2.522855,1.18452711 C3.60553,1.05713741 5.16022167,0.776880055 7.221855,0.615519761 C9.27078833,0.383033548 11.7504633,0.248212776 14.5963217,0.0953451287 C16.01978,0.0719903493 17.5363717,0.0486355699 19.134455,0.0220960478 C20.73148,0.0709287684 22.4121133,0.083667739 24.163655,0.16859421 C27.662505,0.358617188 31.459805,0.621889246 35.434905,1.23229825 C39.4152967,1.79175138 43.5840717,2.59536811 47.8470383,3.64102528 C52.1184717,4.66226608 56.46293,5.99561167 60.81903,7.53171921 C65.1899467,9.03279458 69.50583,10.9054233 73.757155,12.9149959 C78.0201217,14.9139527 82.0999967,17.2834012 86.05393,19.7101751 C90.0184467,22.1327027 93.7046217,24.8524729 97.1939467,27.5786126 C98.90633,28.9820225 100.599663,30.353585 102.169172,31.7994582 C103.775722,33.2018065 105.278555,34.6498028 106.734822,36.0680749 C108.191088,37.4842238 109.503422,38.9683139 110.827397,40.3462459 C112.093163,41.7783185 113.302838,43.1753589 114.417263,44.5532909 C115.499938,45.958824 116.601663,47.2528911 117.522413,48.5830519 C118.446338,49.9089665 119.356505,51.1404003 120.14708,52.3421098 C120.914372,53.5586815 121.631922,54.6977578 122.296555,55.7497845 C122.938963,56.8156117 123.47448,57.8283598 123.984597,58.7232725 C124.497888,59.6171236 124.933922,60.4281714 125.274705,61.1542927 C125.625013,61.8751062 125.923463,62.4865767 126.165822,62.9833966 C126.63678,63.9791595 126.887605,64.5110115 126.887605,64.5110115 C127.126788,65.0142008 126.913005,65.6150556 126.411355,65.8539113 C125.967913,66.0641043 125.44933,65.9218525 125.16993,65.5386218 L125.145588,65.5046512 C125.145588,65.5046512 124.804805,65.036494 124.164513,64.1596282 C123.515755,63.2912551 122.64898,61.9674637 121.425547,60.3665997 C120.827588,59.5597983 120.165072,58.6670087 119.443288,57.6946006 C118.697163,56.7434242 117.890713,55.7147523 117.030288,54.6160161 C115.303088,52.4259747 113.272147,50.0278635 111.023188,47.448222 C109.889713,46.1668938 108.648288,44.8866273 107.423797,43.5086953 C106.124163,42.2029508 104.839347,40.7931714 103.413772,39.44921 C100.651522,36.6689297 97.55378,33.9321742 94.2877633,31.1752486 C93.4696717,30.4873442 92.6145383,29.8312872 91.7699883,29.1497523 C90.9254383,28.463971 90.0650133,27.7888056 89.1728383,27.1465492 C88.2912467,26.4873074 87.4043633,25.8227578 86.5132467,25.1550234 C85.6009633,24.5159517 84.6844467,23.8736953 83.7636967,23.2293157 C80.0425967,20.7112459 76.16698,18.2696098 72.1304967,16.1114159 C68.099305,13.9510988 63.9866217,11.9096788 59.7945633,10.2291962 C55.6046217,8.55826792 51.41468,7.03489936 47.2511967,5.92979366 C46.22038,5.62087362 45.1863883,5.35229366 44.1555717,5.11237638 C43.12793,4.86502803 42.1098133,4.61874127 41.10228,4.37670083 C39.0660467,3.98710064 37.0848467,3.54229825 35.12693,3.27159513 C31.2322633,2.60598392 27.50693,2.28644807 24.068405,2.04228447 C22.3464967,1.94674219 20.69338,1.93824954 19.1238717,1.8851705 C17.553305,1.90746369 16.0621133,1.92869531 14.6619383,1.94886535 C13.26388,2.02848392 11.95578,2.10279458 10.746105,2.17285892 C9.53537167,2.24398483 8.441055,2.40534513 7.44516333,2.49982583 C5.462905,2.68241774 3.87646333,2.97010616 2.80543,3.13252803 C1.73122167,3.30344256 1.15972167,3.39473851 1.15972167,3.39473851 C0.612563333,3.48178814 0.0992716667,3.10705009 0.0124883333,2.55927436 C-0.074295,2.01043704 0.299296667,1.49557031 0.846455,1.40852068 C0.851746667,1.4074591 0.863388333,1.40533594 0.870796667,1.40427436" id="Fill-1" fill="#582ADF" fill-rule="nonzero" mask="url(#mask-6)"></path>
                        </g>
                    </g>
                    <g id="Group-6" transform="translate(116.253971, 53.123565)">
                        <g id="Fill-4-Clipped">
                            <mask id="mask-8" fill="white">
                                <use xlink:href="#path-7"></use>
                            </mask>
                            <g id="path-31"></g>
                            <path d="M20.2409739,5.04466667 C20.1950609,6.04333333 20.1804522,7.04511111 20.1762783,8.04585185 C20.1752348,10.0494074 20.3234087,12.0488148 20.5581913,14.0347407 C20.6844522,15.0282222 20.8441043,16.0154815 21.0141913,16.9996296 C21.1915826,17.9827407 21.4180174,18.9565185 21.6444522,19.9271852 C22.1296696,21.8633333 22.7161043,23.7673333 23.3661913,25.6412593 C23.6886261,26.5694074 23.1919304,27.5825926 22.2569739,27.903037 C21.8656696,28.0357778 21.458713,28.0285185 21.0955826,27.9051111 L20.8159304,27.8097037 L18.2489739,26.9354815 C17.3985391,26.6357778 16.5366261,26.362 15.6903652,26.0519259 C14.8441043,25.744963 13.9884522,25.4597778 13.1442783,25.1486667 L10.6086261,24.2215556 C8.91923478,23.6003704 7.25593043,22.9117778 5.61453913,22.1433333 C3.97627826,21.3624444 2.35262609,20.5338519 0.792626087,19.4594815 C0.322017391,19.1359259 0.206191304,18.438 0.531756522,17.9702963 C0.728973913,17.6882222 1.04306087,17.4704444 1.36549565,17.4704444 L1.38532174,17.4704444 C2.34845217,17.4704444 3.27506087,17.6311852 4.2048,17.739037 C5.12410435,17.8821481 6.0434087,18.0584444 6.94393043,18.2679259 C8.74810435,18.6744444 10.5136696,19.2199259 12.2374957,19.864963 C13.9592348,20.5151852 15.6684522,21.2058519 17.3432348,21.966 C19.0201043,22.722 19.0201043,21.4184444 18.9136696,20.3865926 C18.8041043,19.3568148 18.7321043,18.324963 18.6475826,17.2962222 C18.5672348,16.2674815 18.5140174,15.2387407 18.462887,14.208963 C18.4096696,13.1812593 18.386713,12.1525185 18.3616696,11.1258519 L18.342887,8.04377778 C18.3491478,7.01607407 18.2834087,5.99044444 18.3220174,4.96274074 L18.3543652,1.89207407 L18.3543652,1.87237037 C18.3543652,1.33 18.9345391,0.907925926 19.4813217,0.930740741 C20.0270609,0.953555556 20.4997565,1.41192593 20.4778435,1.9542963 C20.4757565,1.98333333 20.5216696,2.01548148 20.5174957,2.04348148 C20.3818435,3.0577037 20.3150609,4.05844444 20.2409739,5.04466667 Z" id="Fill-4" fill="#582ADF" fill-rule="nonzero" mask="url(#mask-8)"></path>
                        </g>
                    </g>
                </g>
            </g>
        </g>
    </g>
</svg>