<svg xmlns="http://www.w3.org/2000/svg" width="418" height="314" viewBox="0 0 418 314">
    <defs>
        <radialGradient id="a" r="39.293%" fx="50%" fy="50%" gradientTransform="matrix(1 0 0 .98933 0 .005)">
            <stop offset="0%" stop-color="#EEE"/>
            <stop offset="100%" stop-color="#EEE" stop-opacity="0"/>
        </radialGradient>
        <linearGradient id="b" x1="50%" x2="50%" y1="100%" y2="0%">
            <stop offset="0%" stop-color="#FFF" stop-opacity="0"/>
            <stop offset="100%" stop-color="#F5F5F5"/>
        </linearGradient>
        <linearGradient id="c" x1="50%" x2="50%" y1="100%" y2="0%">
            <stop offset="0%" stop-color="#FFF" stop-opacity="0"/>
            <stop offset="68.02%" stop-color="#F5F5F5" stop-opacity=".68"/>
            <stop offset="100%" stop-color="#EEE"/>
        </linearGradient>
        <linearGradient id="d" x1="50%" x2="50%" y1="100%" y2="0%">
            <stop offset="0%" stop-color="#FFF" stop-opacity="0"/>
            <stop offset="42.95%" stop-color="#F5F5F5" stop-opacity=".429"/>
            <stop offset="100%" stop-color="#E0E0E0"/>
        </linearGradient>
        <radialGradient id="e" cx="48.685%" cy="-49.992%" r="136.557%" fx="48.685%" fy="-49.992%" gradientTransform="matrix(.3005 -.0029 .00087 1 .341 .001)">
            <stop offset="8.94%" stop-color="#FFF" stop-opacity="0"/>
            <stop offset="87.13%" stop-color="#FFF" stop-opacity=".859"/>
            <stop offset="100%" stop-color="#FFF"/>
        </radialGradient>
        <linearGradient id="f" x1="-19.144%" x2="77.697%" y1="66.236%" y2="37.313%">
            <stop offset="0%" stop-color="#FFF" stop-opacity="0"/>
            <stop offset="100%" stop-color="#1D1D1B" stop-opacity=".1"/>
        </linearGradient>
    </defs>
    <g fill="none" fill-rule="evenodd">
        <path fill="#FFF" d="M0 0h418v314H0z"/>
        <g transform="translate(204 32)">
            <ellipse cx="87.429" cy="88.372" fill="url(#a)" rx="87.429" ry="88.372"/>
            <ellipse cx="87.325" cy="88.267" fill="#FFF" rx="30.184" ry="30.509"/>
        </g>
        <path fill="#FFF" d="M365.07 143.176v76.53H47.287v-76.373c8.987 0 16.355-3.195 17.504-7.28 1.15 4.085 8.517 7.28 17.504 7.28 8.464 0 15.518-2.828 17.242-6.6 1.724 3.772 8.778 6.6 17.243 6.6 8.987 0 16.354-3.195 17.504-7.28 1.149 4.085 8.516 7.28 17.503 7.28s16.355-3.195 17.504-7.28c1.15 4.085 8.517 7.28 17.504 7.28 8.987 0 16.354-3.195 17.504-7.28 1.149 4.085 8.516 7.28 17.503 7.28s16.355-3.195 17.504-7.28c1.15 4.085 8.517 7.28 17.504 7.28 8.987 0 16.354-3.195 17.503-7.28 1.15 4.085 8.517 7.28 17.504 7.28 8.987 0 16.355-3.195 17.504-7.28 1.15 4.085 8.517 7.28 17.504 7.28 8.987 0 16.354-3.195 17.503-7.28 1.15 4.085 8.517 7.28 17.504 7.28 1.097 0 2.195-.052 3.24-.157z"/>
        <path fill="url(#b)" d="M365.07 7.176v76.53H47.287V7.333c8.987 0 16.355-3.195 17.504-7.28 1.15 4.085 8.517 7.28 17.504 7.28 8.464 0 15.518-2.828 17.242-6.6 1.724 3.772 8.778 6.6 17.243 6.6 8.987 0 16.354-3.195 17.504-7.28 1.149 4.085 8.516 7.28 17.503 7.28s16.355-3.195 17.504-7.28c1.15 4.085 8.517 7.28 17.504 7.28 8.987 0 16.354-3.195 17.504-7.28 1.149 4.085 8.516 7.28 17.503 7.28s16.355-3.195 17.504-7.28c1.15 4.085 8.517 7.28 17.504 7.28 8.987 0 16.354-3.195 17.503-7.28 1.15 4.085 8.517 7.28 17.504 7.28 8.987 0 16.355-3.195 17.504-7.28 1.15 4.085 8.517 7.28 17.504 7.28 8.987 0 16.354-3.195 17.503-7.28 1.15 4.085 8.517 7.28 17.504 7.28 1.097 0 2.195-.052 3.24-.157z" transform="translate(0 136)"/>
        <path fill="url(#c)" d="M365.07 28.13v76.53H47.287V28.285c8.987 0 16.355-3.195 17.504-7.28 1.15 4.085 8.517 7.28 17.504 7.28 8.464 0 15.518-2.828 17.242-6.6 1.724 3.772 8.778 6.6 17.243 6.6 8.987 0 16.354-3.195 17.504-7.28 1.149 4.085 8.516 7.28 17.503 7.28s16.355-3.195 17.504-7.28c1.15 4.085 8.517 7.28 17.504 7.28 8.987 0 16.354-3.195 17.504-7.28 1.149 4.085 8.516 7.28 17.503 7.28s16.355-3.195 17.504-7.28c1.15 4.085 8.517 7.28 17.504 7.28 8.987 0 16.354-3.195 17.503-7.28 1.15 4.085 8.517 7.28 17.504 7.28 8.987 0 16.355-3.195 17.504-7.28 1.15 4.085 8.517 7.28 17.504 7.28 8.987 0 16.354-3.195 17.503-7.28 1.15 4.085 8.517 7.28 17.504 7.28 1.097 0 2.195-.052 3.24-.157z" transform="translate(0 136)"/>
        <path fill="url(#d)" d="M365.07 49.082v76.53H47.287V49.24c8.987 0 16.355-3.195 17.504-7.281 1.15 4.086 8.517 7.281 17.504 7.281 8.464 0 15.518-2.829 17.242-6.6 1.724 3.771 8.778 6.6 17.243 6.6 8.987 0 16.354-3.195 17.504-7.281 1.149 4.086 8.516 7.281 17.503 7.281s16.355-3.195 17.504-7.281c1.15 4.086 8.517 7.281 17.504 7.281 8.987 0 16.354-3.195 17.504-7.281 1.149 4.086 8.516 7.281 17.503 7.281s16.355-3.195 17.504-7.281c1.15 4.086 8.517 7.281 17.504 7.281 8.987 0 16.354-3.195 17.503-7.281 1.15 4.086 8.517 7.281 17.504 7.281 8.987 0 16.355-3.195 17.504-7.281 1.15 4.086 8.517 7.281 17.504 7.281 8.987 0 16.354-3.195 17.503-7.281 1.15 4.086 8.517 7.281 17.504 7.281 1.097 0 2.195-.052 3.24-.157z" transform="translate(0 136)"/>
        <path fill="url(#e)" d="M361.831 7.333c-8.987 0-16.354-3.195-17.504-7.28-1.149 4.085-8.516 7.28-17.503 7.28S310.469 4.138 309.32.053c-1.15 4.085-8.517 7.28-17.504 7.28-8.987 0-16.354-3.195-17.503-7.28-1.15 4.085-8.517 7.28-17.504 7.28-8.987 0-16.355-3.195-17.504-7.28-1.15 4.085-8.517 7.28-17.504 7.28-8.987 0-16.354-3.195-17.503-7.28-1.15 4.085-8.517 7.28-17.504 7.28-8.987 0-16.355-3.195-17.504-7.28-1.15 4.085-8.517 7.28-17.504 7.28-8.987 0-16.354-3.195-17.504-7.28-1.149 4.085-8.516 7.28-17.503 7.28-8.465 0-15.519-2.828-17.243-6.6-1.724 3.772-8.778 6.6-17.242 6.6-8.987 0-16.355-3.195-17.504-7.28C63.64 4.19 8.987 7.332 0 7.332v118.331h418V7.176s-55.072.157-56.169.157z" transform="translate(0 136)"/>
        <g fill="#F5F5F5">
            <path d="M91.157 91.83S88.022 66.8 112 69.476c0 0 3.657-19.73 27.113-16.004 0 0-19.8 3.201-20.844 17.579 0 0-3.134 6.401-9.35 10.127l1.044-6.402c-.052 0-13.635 0-18.806 17.054zM341.75 55.151s13.269-1.626 12.799 11.754c0 0 10.29.525 7.731 15.48 0 0-2.769-11.65-9.769-12.279 0 0-2.612-1.207-4.649-4.827l3.082.524c0 .053.105-7.608-9.194-10.652z"/>
        </g>
        <g>
            <path fill="#E9E9E9" d="M281 137.151a8.55 8.55 0 0 0 3.433-1.705c.528 1.189 4.384 3.978 13.469 4.133l-.898 2.583c-3.328.93-6.55.775-9.983.672-1.69-.103-3.38-.517-4.753-1.498-.687-1.292-1.11-2.79-1.268-4.185z"/>
            <path fill="#FF808B" d="M292.62 108.221l.423-2.221c.264.672.686 1.033 1.478 1.033 1.004 0 1.585-.516 2.324-.516.846 0 1.11.155 1.585.516-.95-.051-1.268.104-2.271.93-.317.258-1.004.672-1.796.672a5.396 5.396 0 0 1-1.743-.414zM288.711 109.1c-1.743.258-3.063 1.808-2.957 3.513 0 .723.21 1.498.528 2.17l11.62 2.066c-.845-.724-1.585-1.343-1.585-3.1 0-1.55.793-2.273 1.585-3.048l-9.19-1.601zM283.64 122.996c-.527-.671-1.055-1.911-1.055-2.996 0-1.343.686-3.255 2.693-3.771l12.624 2.221c-1.004.775-1.585 1.757-1.585 3.565 0 1.498.845 2.79 2.113 3.564l-14.79-2.583zM284.17 124.598c-1.797.723-3.17 2.324-3.17 4.184 0 2.893 1.585 4.081 1.585 4.081l16.373 2.945s-2.64-.93-2.64-4.494c0-2.273 1.108-3.307 2.112-4.133l-14.26-2.583z"/>
        </g>
        <g>
            <path fill="#A1887F" d="M182.54 197.294l-5.735 52.97-7.821 6.294-7.822 2.098-9.907 3.671-11.992 1.05-16.686.524H72v-25.175l54.227-6.293 14.079-9.965 14.078-.525 9.385-9.44 9.907 2.098z"/>
            <path fill="#D7CCC8" d="M87.121 200.965l13.557-1.574 9.907-3.146L149.17 191l13.557 5.245 19.813 1.049-8.864 17.307-9.907-2.098-9.385 9.44-14.078.525-14.079 9.965L72 238.726z"/>
            <path fill="#A1887F" d="M182.54 197.294l-5.735 52.97-7.821 6.294 4.692-41.957z"/>
            <path fill="#8D6E63" d="M173.676 214.601l-4.692 41.957-7.822 2.098 2.607-46.153zM122.577 263.9H72v-25.174l54.227-6.293z"/>
            <path fill="#A1887F" d="M163.77 212.503l-2.608 46.153-9.907 3.671 3.129-40.384z"/>
            <path fill="#8D6E63" d="M154.384 221.943l-3.129 40.384-11.992 1.05 1.043-40.909z"/>
            <path fill="#A1887F" d="M140.306 222.468l-1.043 40.908-16.686.525 3.65-31.468z"/>
        </g>
        <g>
            <path fill="#1565C0" d="M129.363 142.926l2.774-.052c-.21-4.14-.21-8.28 0-12.367l1.57-9.747-1.78-8.699-4.71 6.446c-1.308 9.642-1.465 11.056-1.36 12.052.418 3.354 2.616 9.747 3.506 12.367zM101.833 162c0 .786.314 2.935 4.606 6.184 7.38 5.554 15.91 7.755 26.326 7.755h13.608c-.209-3.773-7.85-7.336-16.8-12.262-23.815-13.048-27.74-2.672-27.74-1.677z"/>
            <path fill="#FAD6B7" d="M132.19 170.175l-7.276-3.563s-1.256 5.607-1.727 9.38a64.072 64.072 0 0 0-.837 8.384c-.105 3.773-.733 7.546-1.727 11.214-.157.629 3.925 1.467 4.03.733.418-2.043 1.884-7.65 3.716-13.52 3.035-9.432 3.82-12.628 3.82-12.628z"/>
            <path fill="#1E88E5" d="M129.05 119.45c.366 2.41.575 4.873.523 7.336-.053 2.935 1.57 4.192 1.57 4.192v2.62c4.396 3.72 13.608 1.1 13.608 1.1v-3.196c.628-.838 1.151-1.729 1.518-2.672.523-1.572.89-5.45 1.099-9.695.052-1.362-1.518-.524-1.937-3.3-.418-2.778.367-4.245.367-4.245l-3.455-1.258-5.914-2.568-7.38 11.686z"/>
            <path fill="#FAD6B7" d="M141.14 187.258c-2.408-12.943-2.146-14.149-2.146-14.149 5.966-2.62 7.327 2.83 7.327 2.83v2.62s0 4.192-.052 5.922c-.21 5.083-.471 13.991-.471 14.515 0 .524.89 1.362 1.308 1.572 1.151.576 2.146-.524.89 2.463a8.676 8.676 0 0 0-5.496.89 9.036 9.036 0 0 1-.21-2.043c0-.42 0-.838.158-1.258.733-3.353-.733-10.375-1.309-13.362z"/>
            <path fill="#1E88E5" d="M131.143 133.441c-2.984 4.507-4.71 4.507-11.776 8.332-13.085 7.127-16.33 15.197-17.115 18.393-.21.786-.419 1.939-.419 1.939.157-.838.837-1.939 3.14-1.939 4.345 0 8.636 1.258 14.394 5.03 4.972 3.302 9.159 7.599 13.346 7.599 12.457-.052 13.608 3.144 13.608 3.144s1.57-14.672 1.57-22.533c0-6.288.21-12.68-3.14-18.864-1.1-2.044-4.03 0-6.595-.105-2.721-.157-5.966-2.463-7.013-.996z"/>
            <path fill="#1976D2" d="M131.143 130.873v2.62s1.047 2.62 6.804 2.62c4.553 0 6.804-1.571 6.804-1.571v-3.144s-1.309 1.572-7.537 1.572c-3.978 0-6.071-2.097-6.071-2.097z"/>
            <path fill="#42A5F5" d="M159.301 108.603c-2.094-4.192-7.118-9.747-7.746-10.219l-1.884 1.258c1.099 3.092 5.024 9.904 5.024 10.585 0 .681-.47.629-.628.734l-8.479.524s-2.198 1.153-1.047 5.764c.524 2.096 1.728 2.62 2.617 2.62 1.937 0 9.683-3.144 11.463-5.188 1.465-1.677 1.727-4.087.68-6.078z"/>
            <path fill="#6D4C41" d="M145.588 97.546l-9.002-1.415a8.41 8.41 0 0 0-7.799 5.974c-1.465 4.402-1.308 5.188-4.239 6.55-2.93 1.363-5.443 2.149-6.49 5.45-1.308 4.087.052 7.284 1.047 9.956.314.839.47 1.73.523 2.62 0 1.834-1.047 3.564-1.047 4.507 0 .524.314.734 1.047.734 7.328 0 7.642-6.341 11.253-7.599 9.683-3.406 10.625-7.755 12.3-10.742.89-1.625 2.617-4.716 2.617-11.005.052-1.676-.053-3.353-.21-5.03z"/>
            <path fill="#EA244A" d="M149.2 98.437s1.151 1.572-1.466 3.773c-1.518 1.31-4.344 1.939-7.013 1.939-9.003 0-12.77-4.193-12.77-7.284 0-3.092 3.401-4.664 8.007-4.14l12.09 4.402 1.152 1.31z"/>
            <path fill="#EF2E4A" d="M144.75 92.777c-.994-1.31-2.511-2.777-6.07-2.777-3.298 0-5.653 2.568-6.595 4.192-.262.472-2.146 3.93 4.658 5.398 5.234 1.152 9.16-.944 9.578-1.677.419-.734-.157-3.197-1.57-5.136zM120.204 197.948s-.052-4.192 2.565-4.192c2.25 0 2.093 2.358 2.093 2.41a9.18 9.18 0 0 1-.628 2.882l-4.03-1.1z"/>
            <path fill="#BBDEFB" d="M145.222 96.026c-.262.367-.367.681-.314 1.1-.628.42-2.46 1.258-5.025 1.258-.89 0-1.832-.104-2.774-.314-1.57-.367-2.512-.786-3.035-1.153-.105-.052-1.675-.943-1.832-2.882-.052.052-.052.105-.105.157-.262.472-2.146 3.93 4.658 5.398 1.1.262 2.146.366 3.088.366 3.612 0 6.124-1.414 6.49-1.99.105-.21.157-.473.157-.84 0-.209.419-.576 1.047-.995-.837.052-1.622 0-2.355-.105z"/>
            <path fill="#FAD6B7" d="M149.67 96.288c-.68-.681-.784-2.096-3.61-2.096-2.67 0-2.88.996-2.88 2.096s1.623 1.572 3.141 1.572c1.675 0 2.25.262 2.722.734.209.314.418.681.628.996l1.884-1.258s-1.518-1.677-1.884-2.044z"/>
            <path fill="#90CAF9" d="M134.806 98.384s-3.402-.262-9.264 4.245c-2.04 1.52-3.663 2.044-5.129 2.044-3.245 0-5.286-2.62-8.897-2.62-5.13 0-6.543 2.62-6.543 2.62l1.047 5.24c1.413-1.625 3.507-2.568 5.653-2.62 2.041 0 5.757 2.777 9.735 2.41 2.041-.21 3.088-2.777 5.862-5.397a63.563 63.563 0 0 1 7.536-5.922z"/>
            <path fill="#C9E5FC" d="M134.806 98.384s-4.082 0-9.473 7.651c-1.413 2.044-3.088 2.83-4.658 2.83-2.826.052-6.28-2.096-6.28-2.096l-2.618 5.24s4.083 2.62 8.165 2.62c4.606 0 7.17-2.096 8.688-6.288 2.617-7.022 6.176-9.957 6.176-9.957z"/>
            <path fill="url(#f)" d="M47.262 112.664l4.658 1.258-14.131 8.75c1.57.577 5.181 2.83 5.181 2.83l27.32-11.947 8.113-.262-29.728 15.825s5.81 2.987 6.28 4.507l-18.684 9.956L0 147.773l11.357-28.297c1.728-1.205 3.455-2.41 4.502-2.987 4.815-2.777 16.486 2.883 16.486 2.883s6.7-2.62 14.917-6.708z" transform="translate(72 90)"/>
            <path fill="#AF1738" d="M120.204 197.896a2.136 2.136 0 0 1 2.146-2.044c1.047-.053 1.936.838 1.989 1.886v.21a16.31 16.31 0 0 1-.314 2.306c-.21 1.1.157 1.676.314 2.253.104.472-.053.943-.314 1.362-.314.315-1.675.367-3.821.262-.576-.104-.994-.628-1.047-1.205 0-.21.053-.42.105-.576.419-1.415.785-2.935.942-4.454z"/>
            <path fill="#EF2E4A" d="M149.932 200.83l-2.774-.262s1.57.42.68 1.624c-.418.367-.941.525-1.517.525-1.518-.053-1.727-1.573-3.978-1.573-.157 0-.418 1.73-.052 3.302.105.524.576.89 1.465.89.785-.104 1.518-.314 2.25-.576 1.466-.367 2.88-.838 4.293-1.362 1.413-.681 2.04-2.306-.367-2.568z"/>
        </g>
    </g>
</svg>
