<svg xmlns="http://www.w3.org/2000/svg" width="418" height="313" viewBox="0 0 418 313">
    <defs>
        <radialGradient id="a" cx="49.996%" cy="55.051%" r="71.273%" fx="49.996%" fy="55.051%" gradientTransform="matrix(.62083 0 0 1 .19 0)">
            <stop offset="0%" stop-color="#F2F2F2"/>
            <stop offset="67.2%" stop-color="#F4F4F4"/>
            <stop offset="92.13%" stop-color="#FBFBFB"/>
            <stop offset="100%" stop-color="#FFF"/>
        </radialGradient>
        <radialGradient id="b" cx="49.813%" cy="93.97%" r="71.455%" fx="49.813%" fy="93.97%" gradientTransform="matrix(.58333 0 0 1 .208 0)">
            <stop offset="0%" stop-color="#FFF" stop-opacity="0"/>
            <stop offset="100%" stop-color="#FFF"/>
        </radialGradient>
        <linearGradient id="c" x1="50%" x2="50%" y1="100.183%" y2=".183%">
            <stop offset="0%" stop-color="#FFF"/>
            <stop offset="100%" stop-color="#E0E0E0"/>
        </linearGradient>
    </defs>
    <g fill="none" fill-rule="evenodd">
        <path fill="#FFF" d="M0 0h415.899v312.975H0z"/>
        <path fill="url(#a)" d="M0 42.773h415.899v258.204H0z"/>
        <path fill="#FFF" d="M0 225.916h415.899v87.059H0z"/>
        <path fill="#FAFAFA" d="M132.866 65.693h152.268V225.7H132.866z"/>
        <path fill="#E5E5E5" d="M291.657 225.699h-8.871V68.056H135.214V225.7h-8.87V59.129h165.313z"/>
        <path fill="#FAFAFA" d="M316.032 88.813h66.725v105.942h-66.725z"/>
        <path fill="#E5E5E5" fill-rule="nonzero" d="M389.278 201.182h-79.245V82.334h79.245v118.848zm-70.898-8.811h62.03V91.145h-62.03v101.226z"/>
        <path fill="#FAFAFA" d="M36.717 88.813h66.725v105.942H36.717z"/>
        <path fill="#E5E5E5" fill-rule="nonzero" d="M109.911 201.182H30.718V82.334h79.245v118.848h-.052zm-70.846-8.811h62.03V91.145h-62.03v101.226z"/>
        <path fill="url(#b)" d="M2.101 2.101H418v242.608H2.101z"/>
        <path fill="url(#c)" d="M340.281 237.357c0 5.776-4.688 10.502-10.418 10.502H89.188c-5.783 0-10.42-4.726-10.42-10.502h261.513z" opacity=".2"/>
        <g>
            <path fill="#704020" d="M195.22 239.845c-1.288 1.663-2.112 2.546-2.318 3.794 0 .104 0 .208-.051.312-.052 1.403 1.184 2.442 2.574 2.39 1.597-.104 4.069-.675 5.098-3.43.927-2.39 2.215-2.183 2.524-4.054.154-1.143-.155-3.17-.155-3.17s-.72.52-3.141.156c-1.854-.312-1.75-.883-1.75-.883s.05 1.247-2.782 4.885z"/>
            <path fill="#CCB491" d="M197.434 167.345l12.72-.104v13.773s-3.142 21.412-4.326 24.998c.051 11.225-1.906 30.767-1.906 30.767h-8.033s-.618-21.828.618-31.235c0 0-2.37-31.183.927-38.199z"/>
            <path fill="#704020" d="M200.626 175.505l-4.686-1.196.927-3.534c.103-.468.567-.727 1.03-.623l3.038.78c.464.103.721.57.618 1.039l-.927 3.534zM224.727 239.949c1.287 1.715 2.06 2.598 2.214 3.846v.312c0 1.403-1.236 2.442-2.626 2.338-1.597-.104-4.017-.78-5.047-3.534-.875-2.442-2.163-2.235-2.42-4.106-.155-1.143.206-3.17.206-3.17s.72.52 3.141.208c1.854-.26 1.75-.883 1.75-.883s0 1.247 2.782 4.989z"/>
            <path fill="#E2B698" d="M243.162 138.709s2.318.364 3.45-2.858c.619-1.767 3.142-7.692 3.193-9.927 0-.935-1.133-1.351-1.7-.624l-8.135 11.59"/>
            <path fill="#000" d="M218.187 106.435s-5.253-3.274-8.137-3.274c-3.296 0-8.033 3.17-8.033 3.17 0 6.496-1.236 35.028-1.236 35.028s2.42 2.859 9.218 2.859h.103c6.849 0 8.6-2.183 8.6-2.183s-.515-29.104-.515-35.6z"/>
            <path fill="#E2B698" d="M209.793 121.662l-3.605-.623s-1.39 3.17-3.862 3.794c0 0-1.854 15.643 7.467 15.643v-18.814z"/>
            <path fill="#E2B698" d="M209.793 121.662l3.45-.52s1.545 3.015 4.017 3.639c0 0 1.854 15.643-7.467 15.643v-18.762z"/>
            <path fill="#000" d="M202.892 127.015s0-21.672 6.489-21.672l.618-5.145-5.716 1.455-3.09 10.966-.927 14.396h2.626z"/>
            <path fill="#000" d="M217.363 127.431s-1.648-22.088-7.982-22.088l.618-5.145 5.716 1.455 3.038 11.018.927 14.76h-2.317z"/>
            <path fill="#CCB491" d="M222.512 167.553l-12.72-.26v13.772s3.142 21.413 4.326 24.999c.052 12.837 1.906 30.767 1.906 30.767h8.085s.618-26.194-.618-31.235c-.052-.052 2.317-31.027-.979-38.043z"/>
            <path fill="#2662A3" d="M244.913 138.969l-3.502-4.106-8.033 10.966s-4.84-19.645-10.866-20.06l-5.407 20.268 6.437-3.482s3.862 13.356 8.085 13.512c5.82.26 13.286-17.098 13.286-17.098z"/>
            <path fill="#51453C" d="M209.947 123.845c6.798 0 6.025.468 6.025.468l6.54 1.455c0 5.82-.978 41.577-13.389 41.577l.824-43.5z"/>
            <path fill="#704020" d="M221.43 163.343s-1.801.624-11.483.624c-9.63 0 0 4.573 0 4.573 9.527 0 12.565-.987 12.565-.987.103 0-.772-4.21-1.081-4.21z"/>
            <path fill="#7E4F2E" d="M220.916 165.526c-.206-1.091-1.184-1.923-2.317-1.819-1.751.156-4.43.26-8.652.26-9.63 0-11.792-.624-11.792-.624-.31 0-.979 4.002-.721 4.002 0 0-.721 3.898.824 4.47 1.853.623 5.613-3.275 11.638-3.275 0 0 7.106-.207 9.063-.415a2.172 2.172 0 0 0 1.957-2.599z"/>
            <path fill="#87593A" d="M217.26 164.539c-2.42.26-6.283.156-6.283.156l-1.648 1.61 1.803 1.404s2.883.26 6.282-.156l-.154-3.014z"/>
            <path fill="#A06E4D" d="M215.097 169.008a.518.518 0 0 1-.515-.52l-.206-4.573c0-.312.206-.52.515-.52.309 0 .515.208.515.52l.206 4.573c0 .26-.206.468-.515.52z"/>
            <path fill="#78909C" d="M217.414 167.865c-.154 0-.257-.104-.309-.26 0-.156.103-.312.258-.312l1.802-.104-.103-2.442-1.802.103c-.155 0-.31-.103-.31-.26 0-.155.104-.311.258-.311l2.112-.104c.154 0 .309.104.309.26l.154 3.014c0 .156-.103.312-.257.312l-2.112.104z"/>
            <path fill="#704020" d="M218.444 165.578l.052.832h-.412c-.258 0-.412-.156-.464-.416 0-.26.155-.416.412-.468.206.052.412.052.412.052z"/>
            <path fill="#B0BEC5" d="M218.084 166.254c-.103 0-.206-.104-.258-.208 0-.104.103-.26.206-.26l1.39-.052c.155 0 .258.104.258.208s-.103.26-.206.26l-1.39.052z"/>
            <path fill="#326EC0" d="M209.947 123.845l7.673.936 5.87 1.247c.207 5.82.464 11.33 0 16.527 0 2.287-.669 15.903-2.11 20.788 0 0-1.751 1.144-11.484 1.144l.051-40.642z"/>
            <path fill="#E2B698" d="M173.127 136.318s-2.317-.415-2.368-3.794c-.052-1.87-.567-8.315.103-10.446.257-.883 1.493-.883 1.802-.052l4.068 13.617"/>
            <path fill="#2662A3" d="M171.686 136.838l4.943-3.118 6.128 7.743s8.446-12.369 12.977-14.811l1.442 4.053 5.304 15.28-6.437-4.002s-10.865 9.979-13.131 9.979c-4.635.052-11.226-15.124-11.226-15.124z"/>
            <path fill="#326EC0" d="M209.947 123.845l-8.188 1.04-6.025 1.819c-.72 3.222-.463 11.745.31 15.331 0 2.287.978 16.89 2.11 21.308 0 0 3.193 1.144 11.793 1.144v-40.642z"/>
            <path fill="#3E7ECC" d="M206.343 137.358h-8.497l.309 7.795 4.016 1.767 4.12-1.87z"/>
            <path fill="#4A91D8" d="M206.343 137.358h-8.497l.103 2.754 4.222 1.092 4.172-1.352z"/>
            <path fill="#3E7ECC" d="M221.791 137.358h-8.496l.308 7.795 4.017 1.767 4.12-1.87z"/>
            <path fill="#4A91D8" d="M221.791 137.358h-8.496l.103 2.754 4.222 1.092 4.171-1.352z"/>
            <path stroke="#2662A3" stroke-width="3" d="M209.947 164.487v-40.642"/>
            <g transform="translate(189.71 161.576)">
                <path fill="#8E5128" d="M10.35 16.163l-6.642-1.715-.412-.104c-.412-.104-.876.364-.876.364.36-1.455 2.884-.52 3.502-2.131l4.944 1.3-.515 2.286z"/>
                <path fill="#8E5A36" d="M10.608 13.824L5.922 12.63l.927-3.534c.103-.468.566-.728 1.03-.624l3.038.78c.464.104.721.572.618 1.04l-.927 3.533z"/>
                <path fill="#839BA5" d="M7.86 17.716l-2.012 8.576-.916-.264 2.013-8.576z"/>
                <path fill="#58747F" fill-rule="nonzero" d="M5.51 8.835l-.67-.156c-.257.468-.772.728-1.338.676h-.103c-.67-.052-1.236.416-1.288 1.04l-.103.83c-.051.624.31 1.144.876 1.3.051 0 .103 0 .154.052.567.052 1.03.468 1.185 1.04l.051.155L5.51 8.835zM2.523 11.07l.052-.572c.051-.416.412-.727.824-.675l.36.052c.206 0 .36.207.31.415l-.155 1.352a.33.33 0 0 1-.412.311l-.36-.052a.755.755 0 0 1-.619-.831z"/>
                <path fill="#58747F" d="M10.608 11.174c-.103-.52.206-.988.567-1.248.206-.103.412-.26.566-.415.155-.156.155-.364 0-.52-.103.312-.463.468-.67.468-.463 0-1.184.416-1.441.831-.155-.208.978.884.978.884z"/>
                <path fill="#A6B1B2" d="M6.812 12.04l3.19.836z"/>
                <path fill="#B0BEC5" d="M6.489 26.453l.411-1.715.618.208c.36.156.515.572.31.884-.258.52-.773.727-1.34.623z"/>
                <path fill="#90A4AE" d="M9.01 18.023L6.592 28.316l-.983-.283L8.028 17.74z"/>
                <path fill="#78909C" d="M11.175 11.901a.59.59 0 0 0-.155-.571c-.309-.312-.875-.78-1.236-1.144-.206-.208-.515-.363-.875-.467-.206-.052-.464-.052-.67-.052.052-.364-.154-.728-.463-.936l.154-.52-.257-.052-2.78.468-.722 6.34c-.103.728.31 1.456.927 1.768.412.208.721.571.824 1.04l3.038.779c.31.104.618-.104.721-.416l1.494-6.237z"/>
                <path fill="#757575" d="M1.133 1.56L.515 3.95c-.155.675.206 1.3.875 1.455 1.545.312 3.966 1.143 3.4 3.274l1.39.364a1.135 1.135 0 0 0 1.39-.832c.309-1.195.927-3.741-3.347-6.444L2.883.935C2.215.415 1.34.78 1.134 1.56z"/>
                <path fill="#616161" fill-rule="nonzero" d="M7.621 8.16c.31-1.196.927-3.742-3.347-6.445L2.472.624C2.008.312 1.39.572 1.287 1.09L.567 3.95c-.155.623.257 1.3.875 1.455 1.545.312 3.914 1.143 3.399 3.274l1.39.364c.566.104 1.184-.26 1.39-.884zM5.304 7.12a1.562 1.562 0 0 0-.206-.416c-.36-.623-1.442-1.195-2.369-1.61a2.201 2.201 0 0 1-1.236-2.34l.206-1.09a.693.693 0 0 1 .36-.417.604.604 0 0 1 .516.052l1.339.832c2.163 1.351 2.832 3.066 3.038 4.417.154 1.092-1.236 1.56-1.648.572 0 .052 0 .052 0 0z"/>
                <path fill="#B0BEC5" d="M10.093 13.149l-3.296-.832-1.03 3.95 3.296.883zM9.218 11.122l-.67-.156c-.72-.208-1.442.26-1.648.987l3.296.884c.155-.78-.257-1.507-.978-1.715z"/>
                <path fill="#90A4AE" d="M8.703 13.876c.051-.26-.103-.571-.36-.623-.258-.052-.567.104-.619.363l-.772 2.963 1.03.26.72-2.963zM6.283 16.37l-.515-.155.875-3.43c.257.156.412.468.309.78l-.67 2.806zM9.063 17.15l-.515-.155.721-2.807c.103-.312.36-.52.67-.52l-.876 3.482z"/>
                <ellipse cx="6.283" cy="10.342" fill="#B0BEC5" rx="1" ry="1"/>
                <path fill="#704020" d="M9.784 17.099l-5.15-2.703-1.287-.208a.767.767 0 0 0-.927.572c-.36 1.87.721 6.704.155 10.706-.052.312-.103.572-.155.883-.051.156-.051.26-.103.416v-.052c-.103.364.103.728.515.832 1.39.364 4.583.571 4.583.571L9.785 17.1z"/>
                <path fill="#7E4F2E" d="M10.557 14.136l-.36-.104c-.928-.26-2.01.208-3.451.52-1.236.26-2.266-.468-3.09-.104-2.008.935.927 6.185-.875 13.097A7.76 7.76 0 0 0 6.9 28.74a.45.45 0 0 0 .411-.312l3.554-13.772c.051-.26-.052-.468-.31-.52z"/>
                <path fill="#A06E4D" d="M8.857 23.023L2.523 21.62c-.309-.052-.515-.364-.515-.676.052-.415.412-.675.773-.623l6.334 1.403c.103 0 .154.104.103.208l-.206.987c.051.052-.052.104-.155.104z"/>
                <ellipse cx="4.274" cy="21.308" fill="#B0BEC5" rx="1" ry="1"/>
            </g>
            <path fill="#4482CC" d="M206.034 121.558l-3.863 3.067 4.48 4.105 3.296-4.885z"/>
            <path fill="#4482CC" d="M213.449 121.558l3.656 2.91-4.068 4.262-3.296-4.885z"/>
            <path fill="#FFC043" d="M217.62 124.78l-4.171-3.222s-.772.52-3.605.52c-3.038 0-3.81-.52-3.81-.52l-4.275 3.275s2.009 6.184 7.982 6.184c6.437 0 7.88-6.236 7.88-6.236z"/>
            <path fill="#FFB92E" d="M216.487 124.573s-1.545-2.91-3.038-3.015c0 0-.772.52-3.605.52-3.038 0-3.81-.52-3.81-.52-1.597.312-3.039 3.015-3.039 3.015s2.215 3.326 6.798 3.326c4.737 0 6.694-3.326 6.694-3.326z"/>
            <path fill="#FFCC5A" d="M217.62 124.78s-2.678-3.118-4.171-3.222c0 0-2.163 3.17-3.45 5.51-2.987-1.716-3.914-5.51-3.914-5.51-1.596.312-4.274 3.275-4.274 3.275s3.45 3.066 7.982 3.066c4.737 0 7.827-3.118 7.827-3.118z"/>
            <path fill="#FFCC5A" d="M208.145 129.302c.36-1.04.978-1.351.257-1.767-.72-.364-2.78 0-3.14 2.65-.773 5.406.823 13.201.823 13.201s.258-8.679 2.06-14.084z"/>
            <path fill="#FFD176" d="M206.806 129.25c.257-1.04.72-1.715 1.596-1.715.979 0 .773.572.67 2.131-.36 5.405-2.987 13.72-2.987 13.72s-.618-8.16.721-14.136z"/>
            <path fill="#FFCC5A" d="M211.029 129.354c-.515-.935-1.236-1.091-.567-1.663.618-.52 2.73-.572 3.605 1.975 1.802 5.145 1.75 13.097 1.75 13.097s-1.956-8.472-4.788-13.409z"/>
            <path fill="#FFD176" d="M212.316 129.042c-.412-.987-1.03-1.507-1.905-1.35-.927.207-.618.727-.206 2.234 1.442 5.249 5.613 12.837 5.613 12.837s-1.03-8.16-3.502-13.72z"/>
            <path fill="#FFE094" d="M210.462 129.718h-1.442c-.67 0-1.236-.572-1.236-1.247v-.364c0-.676.567-1.247 1.236-1.247h1.442c.67 0 1.236.571 1.236 1.247v.364c0 .675-.566 1.247-1.236 1.247z"/>
            <path fill="#EAC0A0" d="M218.444 108.877c0 4.054-2.987 13.565-8.6 13.565-5.922 0-8.497-9.51-8.497-13.565 0-4.053 3.811-7.327 8.549-7.327 4.737 0 8.548 3.222 8.548 7.327z"/>
            <g>
                <path fill="#D3BEA7" d="M222.512 99.938c-2.317 0-10.968 2.443-10.968 4.782 0 5.3 2.008 3.118-1.442 3.118s-1.442 2.495-1.442-3.118c0-2.339-7.88-4.782-10.196-4.782-2.318 0-4.12 1.82-4.12 4.262 0 5.405 2.987 12.265 15.81 12.265 12.822 0 15.809-6.964 15.809-12.265-.103-2.443-1.133-4.262-3.45-4.262z"/>
                <path fill="#C9AD91" d="M201.708 105.447s1.339-4.21 2.111-6.288c.515-1.975 2.369-3.274 3.502-3.274 1.133 0 2.111 1.091 2.78 1.091.67 0 1.649-1.091 2.782-1.091 1.132 0 2.935 1.195 3.501 3.274.464 2.027 1.957 6.288 1.957 6.288l-8.033 3.742-8.6-3.742z"/>
                <path fill="#BC9471" d="M207.321 95.885c.412 0 .927.156 1.339.312a3.946 3.946 0 0 0 2.884 0 3.329 3.329 0 0 1 1.339-.312c.463 0 .051 1.195-.67 2.546-.927 1.871-3.605 1.82-4.48-.104-.515-1.35-.876-2.442-.412-2.442z"/>
                <path fill="#7E4F2E" d="M218.187 104.564c1.236 4.054-1.597 6.132-8.085 6.132-6.489 0-9.476-1.87-8.085-6.236 0 0 1.081 2.079 8.085 2.079 7.003 0 8.085-1.975 8.085-1.975z"/>
            </g>
        </g>
        <g>
            <path fill="#6D4F47" d="M236.566 96.727h3.164v105.555h-3.164zM282.1 178.468l-2.955 1.04v-48.41l2.956.468z"/>
            <path fill="#60423D" d="M276.292 153.197l-33.71 2.392.311-3.64.104-1.352 32.88-1.092.104.988z"/>
            <path fill="#000" d="M275.981 150.493l-33.088 1.456.104-1.352 32.88-1.092z" opacity=".1"/>
            <path fill="#60423D" d="M276.292 144.929l-33.71-.468.311-3.588.104-1.352 32.88 1.664.104 1.04z"/>
            <path fill="#000" d="M275.981 142.225l-33.088-1.352.104-1.352 32.88 1.664z" opacity=".1"/>
            <path fill="#6D4F47" d="M276.292 149.037l-33.71.988.415-4.94 32.88.26zM276.292 157.304l-33.71 3.848.415-4.991 32.88-2.496z"/>
            <path fill="#000" d="M275.981 146.333l-33.088.104.104-1.352 32.88.26zM275.981 154.653l-33.088 2.86.104-1.352 32.88-2.496z" opacity=".1"/>
            <path fill="#60423D" d="M276.292 136.661l-33.71-3.275.311-3.588.104-1.352 32.88 4.42.104 1.04z"/>
            <path fill="#000" d="M275.981 133.905l-33.088-4.107.104-1.352 32.88 4.42z" opacity=".1"/>
            <path fill="#6D4F47" d="M276.292 140.77l-33.71-1.873.415-4.888 32.88 3.016z"/>
            <path fill="#000" d="M275.981 138.065l-33.088-2.756.104-1.3 32.88 3.016z" opacity=".1"/>
            <path fill="#60423D" d="M276.292 169.732l-33.71 8.112.311-3.692.104-1.352 32.88-6.708.104.988z"/>
            <path fill="#000" d="M275.981 167.08l-33.088 7.072.104-1.352 32.88-6.708z" opacity=".1"/>
            <path fill="#60423D" d="M276.292 161.464l-33.71 5.252.311-3.64.104-1.352 32.88-3.9.104.988z"/>
            <path fill="#000" d="M275.981 158.812l-33.088 4.264.104-1.352 32.88-3.9z" opacity=".1"/>
            <path fill="#6D4F47" d="M276.292 165.572l-33.71 6.708.415-5.044 32.88-5.304zM276.292 173.84l-33.71 9.567.415-5.095 32.88-8.06z"/>
            <path fill="#000" d="M275.981 162.92l-33.088 5.668.104-1.352 32.88-5.304zM275.981 171.24l-33.088 8.475.104-1.403 32.88-8.06z" opacity=".1"/>
            <path fill="#60423D" d="M276.292 178l-33.71 10.971.311-3.744.104-1.352 32.88-9.463.104.988z"/>
            <path fill="#000" d="M275.981 175.4l-33.088 9.827.104-1.352 32.88-9.463z" opacity=".1"/>
            <path fill="#6D4F47" d="M276.292 182.107l-33.71 12.428.415-5.148 32.88-10.815z"/>
            <path fill="#000" d="M275.981 179.56l-33.088 11.231.104-1.404 32.88-10.815z" opacity=".1"/>
            <path fill="#6D4F47" d="M276.292 132.502l-33.71-4.68.415-4.888 32.88 5.824z"/>
            <path fill="#000" d="M275.981 129.746l-33.088-5.512.104-1.3 32.88 5.824z" opacity=".1"/>
            <path fill="#82655B" fill-rule="nonzero" d="M278.263 124.338c-3.89-.884-8.298-1.872-14.625-6.708l-.882-.728c-6.275-5.2-11.358-9.255-18.67-11.907v-.78c0-3.276-1.919-6.604-4.305-7.488v105.556l38.534-16.068c.467-.208.882-.78.882-1.248V125.43c-.052-.468-.467-.988-.934-1.092zm-3.475 58.81l-30.754 11.439v-72.173l30.754 5.616v55.117z"/>
            <path fill="#755952" d="M281.634 145.189l-3.319-.052v-7.228l3.32.26c.57.052 1.088.572 1.088 1.144v4.784c-.052.624-.518 1.092-1.089 1.092zM281.634 172.384l-3.319.936v-7.228l3.32-.676c.57-.104 1.088.26 1.088.832v4.784c-.052.572-.518 1.196-1.089 1.352z"/>
        </g>
        <g>
            <path fill="#6D4F47" d="M169.079 96.728h3.112v105.657h-3.112zM137.247 178.87l2.244 1.046v-48.649l-2.244.47z"/>
            <path fill="#60423D" d="M141.583 153.475l25.353 2.456-.255-3.605-.051-1.359-24.69-1.202-.102 1.045z"/>
            <path fill="#000" d="M141.838 150.81l24.843 1.516-.051-1.359-24.69-1.202z" opacity=".1"/>
            <path fill="#60423D" d="M141.583 145.167l25.353-.314-.255-3.605-.051-1.359-24.69 1.516-.102 1.045z"/>
            <path fill="#000" d="M141.838 142.45l24.843-1.202-.051-1.359-24.69 1.516z" opacity=".1"/>
            <path fill="#6D4F47" d="M141.583 149.295l25.353 1.097-.306-4.964-24.69.157zM141.583 157.656l25.353 3.814-.306-5.016-24.69-2.508z"/>
            <path fill="#000" d="M141.838 146.63l24.843.157-.051-1.359-24.69.157zM141.838 154.938l24.843 2.874-.051-1.358-24.69-2.508z" opacity=".1"/>
            <path fill="#60423D" d="M141.583 136.859l25.353-3.083-.255-3.554-.051-1.358-24.69 4.232-.102.993z"/>
            <path fill="#000" d="M141.838 134.09l24.843-3.868-.051-1.358-24.69 4.232z" opacity=".1"/>
            <path fill="#6D4F47" d="M141.583 140.987l25.353-1.672-.306-4.912-24.69 2.874z"/>
            <path fill="#000" d="M141.838 138.27l24.843-2.561-.051-1.306-24.69 2.874z" opacity=".1"/>
            <path fill="#60423D" d="M141.583 170.092l25.353 7.995-.255-3.658-.051-1.41-24.69-6.532-.102.992z"/>
            <path fill="#000" d="M141.838 167.48l24.843 6.95-.051-1.412-24.69-6.531z" opacity=".1"/>
            <path fill="#60423D" d="M141.583 161.784l25.353 5.225-.255-3.658-.051-1.358-24.69-3.867-.102.993z"/>
            <path fill="#000" d="M141.838 159.119l24.843 4.232-.051-1.358-24.69-3.867z" opacity=".1"/>
            <path fill="#6D4F47" d="M141.583 165.964l25.353 6.584-.306-5.016-24.69-5.226zM141.583 174.272l25.353 9.354-.306-5.069-24.69-7.89z"/>
            <path fill="#000" d="M141.838 163.3l24.843 5.59-.051-1.358-24.69-5.226zM141.838 171.66l24.843 8.256-.051-1.359-24.69-7.89z" opacity=".1"/>
            <path fill="#60423D" d="M141.583 178.4l25.353 10.765-.255-3.71-.051-1.359-24.69-9.249-.102.94z"/>
            <path fill="#000" d="M141.838 175.788l24.843 9.667-.051-1.359-24.69-9.249z" opacity=".1"/>
            <path fill="#6D4F47" d="M141.583 182.58l25.353 12.124-.306-5.121-24.69-10.608z"/>
            <path fill="#000" d="M141.838 179.968l24.843 11.026-.051-1.411-24.69-10.608z" opacity=".1"/>
            <path fill="#6D4F47" d="M141.583 132.678l25.353-4.441-.306-4.86-24.69 5.539z"/>
            <path fill="#000" d="M141.838 129.961l24.843-5.278-.051-1.306-24.69 5.539z" opacity=".1"/>
            <path fill="#82655B" fill-rule="nonzero" d="M139.491 124.945v60.51c0 .47.306 1.045.664 1.254l28.923 15.676V96.728c-1.785.783-3.264 4.075-3.264 7.367v.784c-5.51 2.508-9.336 6.48-14.029 11.6l-.663.732c-4.744 4.808-8.06 5.748-10.967 6.636-.358.105-.664.627-.664 1.098zm3.214 3.24l23.058-5.383v71.954l-23.058-11.182v-55.39z"/>
            <path fill="#755952" d="M137.604 145.428h2.5v-7.263l-2.5.261c-.46.052-.816.575-.816 1.15v4.807c.05.575.408 1.045.816 1.045zM137.604 172.757l2.5.94v-7.263l-2.5-.731c-.46-.105-.816.261-.816.836v4.807c.05.627.408 1.254.816 1.411z"/>
        </g>
    </g>
</svg>
