<svg xmlns="http://www.w3.org/2000/svg" width="297" height="222" viewBox="0 0 297 222">
    <defs>
        <radialGradient id="a" cx="49.996%" cy="55.051%" r="71.513%" fx="49.996%" fy="55.051%" gradientTransform="matrix(.61875 0 0 1 .19 0)">
            <stop offset="0%" stop-color="#F2F2F2"/>
            <stop offset="67.2%" stop-color="#F4F4F4"/>
            <stop offset="92.13%" stop-color="#FBFBFB"/>
            <stop offset="100%" stop-color="#FFF"/>
        </radialGradient>
        <radialGradient id="b" cx="49.813%" cy="93.97%" r="71.732%" fx="49.813%" fy="93.97%" gradientTransform="matrix(.58108 0 0 1 .209 0)">
            <stop offset="0%" stop-color="#FFF" stop-opacity="0"/>
            <stop offset="100%" stop-color="#FFF"/>
        </radialGradient>
        <linearGradient id="c" x1="50%" x2="50%" y1="100.183%" y2=".183%">
            <stop offset="0%" stop-color="#FFF"/>
            <stop offset="100%" stop-color="#E0E0E0"/>
        </linearGradient>
    </defs>
    <g fill="none" fill-rule="evenodd">
        <path fill="#FFF" d="M0 0h296v222H0z"/>
        <path fill="url(#a)" d="M0 30.34h296v183.15H0z"/>
        <path fill="#FFF" d="M0 160.247h296V222H0z"/>
        <path fill="#FAFAFA" d="M94.861 46.861h108.278v113.065H94.861z"/>
        <path fill="#E5E5E5" d="M207.777 159.926h-6.308V48.53H96.531v111.395h-6.308V42.223h117.554z"/>
        <path fill="#FAFAFA" d="M224.433 62.894h47.649v75.212h-47.649z"/>
        <path fill="#E5E5E5" fill-rule="nonzero" d="M276.74 142.669h-56.591V58.294h56.59v84.375zm-50.63-6.256h44.296V64.55H226.11v71.863z"/>
        <path fill="#FAFAFA" d="M25.471 62.894H73.12v75.212H25.471z"/>
        <path fill="#E5E5E5" fill-rule="nonzero" d="M77.74 142.669H21.185V58.294h56.59v84.375h-.037zm-50.593-6.256h44.296V64.55H27.147v71.863z"/>
        <path fill="url(#b)" d="M1 1h296v172H1z"/>
        <path fill="url(#c)" d="M242 169c0 3.85-3.335 7-7.41 7H63.41c-4.112 0-7.41-3.15-7.41-7h186z" opacity=".2"/>
        <g>
            <path fill="#704020" d="M138.909 170.027c-.92 1.187-1.508 1.818-1.655 2.71 0 .073 0 .148-.037.222-.036 1.002.846 1.744 1.84 1.707 1.14-.074 2.904-.482 3.64-2.45.662-1.707 1.581-1.558 1.802-2.894.11-.817-.11-2.264-.11-2.264s-.515.37-2.244.111c-1.324-.223-1.25-.63-1.25-.63s.037.89-1.986 3.488z"/>
            <path fill="#CCB491" d="M140.49 118.254l9.084-.075v9.835s-2.244 15.291-3.09 17.852c.037 8.016-1.36 21.971-1.36 21.971h-5.737s-.441-15.588.441-22.305c0 0-1.691-22.268.662-27.278z"/>
            <path fill="#704020" d="M142.77 124.08l-3.346-.853.662-2.524c.073-.334.404-.52.735-.445l2.17.556c.33.075.515.409.441.743l-.662 2.523zM159.98 170.101c.92 1.225 1.472 1.856 1.582 2.746v.223c0 1.002-.883 1.744-1.876 1.67-1.14-.074-2.868-.556-3.603-2.524-.626-1.744-1.545-1.595-1.729-2.931-.11-.817.147-2.264.147-2.264s.515.37 2.244.148c1.323-.185 1.25-.63 1.25-.63s0 .89 1.986 3.562z"/>
            <path fill="#E2B698" d="M173.146 97.804s1.655.26 2.464-2.041c.441-1.262 2.243-5.493 2.28-7.089 0-.668-.81-.965-1.214-.445l-5.81 8.276"/>
            <path fill="#000" d="M155.31 74.757s-3.75-2.338-5.81-2.338c-2.354 0-5.737 2.263-5.737 2.263 0 4.64-.882 25.015-.882 25.015s1.728 2.041 6.582 2.041h.074c4.89 0 6.141-1.559 6.141-1.559s-.368-20.783-.368-25.422z"/>
            <path fill="#E2B698" d="M149.316 85.63l-2.574-.444s-.993 2.263-2.758 2.709c0 0-1.324 11.171 5.332 11.171V85.631zM149.316 85.63l2.464-.37s1.103 2.152 2.868 2.598c0 0 1.324 11.17-5.332 11.17V85.632z"/>
            <path fill="#000" d="M144.388 89.454s0-15.477 4.634-15.477l.441-3.674-4.082 1.04-2.206 7.83-.662 10.28h1.875zM154.722 89.75s-1.177-15.773-5.7-15.773l.441-3.674 4.082 1.04 2.17 7.867.662 10.54h-1.655z"/>
            <path fill="#CCB491" d="M158.4 118.402l-9.084-.186v9.836s2.243 15.29 3.09 17.851c.036 9.167 1.36 21.971 1.36 21.971h5.773s.442-18.705-.44-22.305c-.038-.037 1.654-22.157-.7-27.167z"/>
            <path fill="#2662A3" d="M174.396 97.99l-2.5-2.932-5.737 7.83s-3.457-14.028-7.76-14.325l-3.86 14.474 4.596-2.486s2.758 9.538 5.773 9.649c4.156.186 9.488-12.21 9.488-12.21z"/>
            <path fill="#51453C" d="M149.426 87.19c4.855 0 4.303.334 4.303.334l4.67 1.039c0 4.157-.698 29.69-9.56 29.69l.587-31.063z"/>
            <path fill="#704020" d="M157.627 115.396s-1.287.445-8.2.445c-6.877 0 0 3.266 0 3.266 6.803 0 8.972-.705 8.972-.705.074 0-.551-3.006-.772-3.006z"/>
            <path fill="#7E4F2E" d="M157.26 116.955c-.148-.78-.846-1.374-1.655-1.3-1.25.112-3.163.186-6.179.186-6.876 0-8.42-.445-8.42-.445-.221 0-.7 2.858-.516 2.858 0 0-.515 2.783.589 3.191 1.324.446 4.008-2.338 8.31-2.338 0 0 5.076-.148 6.473-.297a1.551 1.551 0 0 0 1.397-1.855z"/>
            <path fill="#87593A" d="M154.648 116.25c-1.728.185-4.486.11-4.486.11l-1.177 1.151 1.287 1.002s2.06.186 4.487-.11l-.11-2.154z"/>
            <path fill="#A06E4D" d="M153.104 119.441a.37.37 0 0 1-.368-.37l-.147-3.267c0-.223.147-.371.368-.371.22 0 .368.148.368.371l.147 3.266c0 .186-.147.334-.368.371z"/>
            <path fill="#78909C" d="M154.759 118.625c-.11 0-.184-.074-.22-.186 0-.111.073-.223.183-.223l1.287-.074-.074-1.744-1.287.074c-.11 0-.22-.074-.22-.185 0-.112.073-.223.184-.223l1.507-.074c.11 0 .221.074.221.185l.11 2.153c0 .111-.073.223-.184.223l-1.507.074z"/>
            <path fill="#704020" d="M155.494 116.992l.037.594h-.294c-.184 0-.294-.112-.331-.297 0-.186.11-.297.294-.334.147.037.294.037.294.037z"/>
            <path fill="#B0BEC5" d="M155.237 117.474c-.074 0-.147-.074-.184-.148 0-.074.073-.186.147-.186l.993-.037c.11 0 .184.074.184.149 0 .074-.074.185-.147.185l-.993.037z"/>
            <path fill="#326EC0" d="M149.426 87.19l5.48.668 4.192.89c.147 4.157.331 8.091 0 11.803 0 1.633-.478 11.356-1.508 14.845 0 0-1.25.816-8.2.816l.036-29.022z"/>
            <path fill="#E2B698" d="M123.133 96.097s-1.655-.297-1.692-2.71c-.036-1.335-.404-5.938.074-7.46.184-.63 1.066-.63 1.287-.036l2.905 9.723"/>
            <path fill="#2662A3" d="M122.103 96.468l3.53-2.227 4.377 5.53s6.03-8.833 9.267-10.577l1.03 2.895L144.093 103l-4.597-2.858s-7.759 7.126-9.377 7.126c-3.31.037-8.017-10.8-8.017-10.8z"/>
            <path fill="#326EC0" d="M149.426 87.19l-5.847.742-4.302 1.299c-.515 2.301-.331 8.388.22 10.948 0 1.633.7 12.062 1.508 15.217 0 0 2.28.816 8.421.816V87.19z"/>
            <path fill="#3E7ECC" d="M146.852 96.84h-6.067l.22 5.566 2.869 1.262 2.941-1.336z"/>
            <path fill="#4A91D8" d="M146.852 96.84h-6.067l.073 1.966 3.016.78 2.978-.965z"/>
            <path fill="#3E7ECC" d="M157.885 96.84h-6.068l.22 5.566 2.869 1.262 2.942-1.336z"/>
            <path fill="#4A91D8" d="M157.885 96.84h-6.068l.073 1.966 3.016.78 2.979-.965z"/>
            <path stroke="#2662A3" stroke-width="3" d="M149.426 116.212V87.19"/>
            <g transform="translate(134.974 114.134)">
                <path fill="#8E5128" d="M7.392 11.542l-4.744-1.224-.294-.075c-.295-.074-.626.26-.626.26.258-1.04 2.06-.371 2.501-1.522l3.53.928-.367 1.633z"/>
                <path fill="#8E5A36" d="M7.575 9.872L4.23 9.02l.662-2.524c.074-.334.404-.52.735-.446l2.17.557c.331.074.515.408.441.742l-.662 2.524z"/>
                <path fill="#839BA5" d="M5.614 12.651l-1.438 6.124-.654-.188 1.437-6.124z"/>
                <path fill="#58747F" fill-rule="nonzero" d="M3.935 6.31l-.478-.112c-.184.334-.552.52-.956.482h-.074c-.478-.037-.882.297-.92.743l-.073.593c-.037.446.22.817.625.928.037 0 .074 0 .11.037.405.038.736.334.846.743l.037.111.883-3.526zM1.802 7.904l.037-.408c.036-.297.294-.52.588-.483l.258.038c.147 0 .257.148.22.296l-.11.965c0 .149-.147.26-.294.223L2.243 8.5a.54.54 0 0 1-.441-.594z"/>
                <path fill="#58747F" d="M7.575 7.98c-.073-.372.148-.706.405-.891.147-.075.294-.186.405-.297.11-.112.11-.26 0-.371-.074.222-.331.334-.479.334-.33 0-.845.297-1.03.593-.11-.148.7.631.7.631z"/>
                <path fill="#A6B1B2" d="M4.865 8.597l2.277.598z"/>
                <path fill="#B0BEC5" d="M4.634 18.89l.294-1.224.441.148c.257.112.368.409.22.631-.183.371-.55.52-.955.446z"/>
                <path fill="#90A4AE" d="M6.434 12.87l-1.727 7.351-.701-.202 1.727-7.35z"/>
                <path fill="#78909C" d="M7.98 8.499a.421.421 0 0 0-.11-.408c-.221-.223-.625-.557-.883-.817-.147-.148-.368-.26-.625-.334-.147-.037-.331-.037-.478-.037.037-.26-.11-.52-.331-.668l.11-.371-.184-.037-1.985.334-.515 4.528c-.074.52.22 1.039.662 1.262.294.148.514.408.588.742l2.17.556c.22.075.441-.074.515-.296L7.98 8.499z"/>
                <path fill="#757575" d="M.809 1.113L.368 2.821c-.11.482.147.927.625 1.039 1.103.222 2.832.816 2.427 2.338l.993.26a.81.81 0 0 0 .993-.594c.22-.854.662-2.672-2.39-4.602L2.058.668C1.581.297.956.557.81 1.113z"/>
                <path fill="#616161" fill-rule="nonzero" d="M5.443 5.827c.22-.854.662-2.672-2.39-4.602L1.764.445A.547.547 0 0 0 .92.78L.405 2.821A.881.881 0 0 0 1.03 3.86c1.103.222 2.795.816 2.427 2.338l.993.26c.404.074.845-.186.993-.631zm-1.655-.742a1.115 1.115 0 0 0-.147-.297c-.258-.446-1.03-.854-1.692-1.15a1.572 1.572 0 0 1-.883-1.671l.148-.78A.495.495 0 0 1 1.47.892a.432.432 0 0 1 .368.037l.956.594c1.544.965 2.022 2.19 2.17 3.154.11.78-.883 1.114-1.177.409 0 .037 0 .037 0 0z"/>
                <path fill="#B0BEC5" d="M7.208 9.39l-2.354-.594-.735 2.82 2.353.631zM6.583 7.942l-.478-.111c-.515-.149-1.03.185-1.177.705l2.353.631c.11-.557-.184-1.076-.698-1.225z"/>
                <path fill="#90A4AE" d="M6.215 9.91c.037-.186-.074-.409-.258-.446-.183-.037-.404.074-.44.26l-.552 2.115.735.186.515-2.116zM4.486 11.69l-.367-.11.625-2.45a.479.479 0 0 1 .22.557l-.478 2.004zM6.472 12.247l-.367-.11.514-2.005c.074-.223.258-.371.478-.371l-.625 2.486z"/>
                <ellipse cx="4.486" cy="7.386" fill="#B0BEC5" rx="1" ry="1"/>
                <path fill="#704020" d="M6.987 12.21L3.31 10.28l-.92-.148a.548.548 0 0 0-.662.408c-.257 1.336.515 4.788.11 7.646-.036.222-.073.408-.11.63-.036.112-.036.186-.073.297v-.037c-.074.26.073.52.368.594.992.26 3.272.408 3.272.408l1.692-7.868z"/>
                <path fill="#7E4F2E" d="M7.539 10.095l-.258-.074c-.662-.186-1.434.148-2.464.37-.882.186-1.618-.333-2.206-.073-1.434.668.662 4.416-.625 9.352a5.542 5.542 0 0 0 2.942.854.32.32 0 0 0 .294-.223l2.537-9.835c.037-.186-.036-.334-.22-.371z"/>
                <path fill="#A06E4D" d="M6.325 16.441L1.802 15.44c-.22-.037-.368-.26-.368-.482a.495.495 0 0 1 .552-.446l4.523 1.002c.074 0 .11.075.074.149l-.148.705c.037.037-.036.074-.11.074z"/>
                <ellipse cx="3.052" cy="15.216" fill="#B0BEC5" rx="1" ry="1"/>
            </g>
            <path fill="#4482CC" d="M146.632 85.557l-2.758 2.19 3.199 2.931 2.353-3.488z"/>
            <path fill="#4482CC" d="M151.927 85.557l2.611 2.078-2.905 3.043-2.354-3.488z"/>
            <path fill="#FFC043" d="M154.906 87.858l-2.979-2.301s-.552.37-2.574.37c-2.17 0-2.721-.37-2.721-.37l-3.053 2.338s1.435 4.416 5.7 4.416c4.597 0 5.627-4.453 5.627-4.453z"/>
            <path fill="#FFB92E" d="M154.097 87.71s-1.103-2.08-2.17-2.153c0 0-.552.37-2.574.37-2.17 0-2.721-.37-2.721-.37-1.14.222-2.17 2.152-2.17 2.152s1.581 2.376 4.854 2.376c3.383 0 4.78-2.376 4.78-2.376z"/>
            <path fill="#FFCC5A" d="M154.906 87.858s-1.912-2.227-2.979-2.301c0 0-1.544 2.264-2.464 3.934-2.133-1.225-2.795-3.934-2.795-3.934-1.14.222-3.052 2.338-3.052 2.338s2.464 2.19 5.7 2.19c3.383 0 5.59-2.227 5.59-2.227z"/>
            <path fill="#FFCC5A" d="M148.14 91.087c.257-.743.698-.965.183-1.262-.515-.26-1.986 0-2.243 1.893-.552 3.86.588 9.426.588 9.426s.184-6.198 1.471-10.057z"/>
            <path fill="#FFD176" d="M147.183 91.05c.184-.743.515-1.225 1.14-1.225.699 0 .552.408.478 1.521-.257 3.86-2.133 9.798-2.133 9.798s-.44-5.826.515-10.095z"/>
            <path fill="#FFCC5A" d="M150.199 91.124c-.368-.668-.883-.78-.405-1.188.441-.371 1.95-.408 2.574 1.41 1.287 3.675 1.25 9.353 1.25 9.353s-1.397-6.05-3.42-9.575z"/>
            <path fill="#FFD176" d="M151.118 90.901c-.294-.705-.735-1.076-1.36-.965-.663.149-.442.52-.148 1.596 1.03 3.748 4.009 9.167 4.009 9.167s-.736-5.827-2.5-9.798z"/>
            <path fill="#FFE094" d="M149.794 91.384h-1.03a.899.899 0 0 1-.882-.891v-.26c0-.482.404-.89.883-.89h1.03c.477 0 .882.408.882.89v.26c0 .482-.405.89-.883.89z"/>
            <path fill="#EAC0A0" d="M155.494 76.501c0 2.895-2.133 9.687-6.141 9.687-4.23 0-6.068-6.792-6.068-9.687 0-2.895 2.721-5.233 6.105-5.233 3.383 0 6.104 2.301 6.104 5.233z"/>
            <g>
                <path fill="#D3BEA7" d="M158.4 70.118c-1.655 0-7.834 1.744-7.834 3.414 0 3.786 1.435 2.227-1.03 2.227-2.463 0-1.029 1.781-1.029-2.227 0-1.67-5.626-3.414-7.281-3.414-1.655 0-2.942 1.298-2.942 3.043 0 3.86 2.133 8.759 11.29 8.759 9.156 0 11.29-4.974 11.29-8.76-.074-1.744-.81-3.042-2.465-3.042z"/>
                <path fill="#C9AD91" d="M143.543 74.052s.956-3.007 1.507-4.491c.368-1.41 1.692-2.338 2.501-2.338.809 0 1.508.78 1.986.78s1.177-.78 1.986-.78c.809 0 2.096.853 2.5 2.338.331 1.447 1.398 4.49 1.398 4.49l-5.737 2.673-6.141-2.672z"/>
                <path fill="#BC9471" d="M147.551 67.223c.294 0 .662.111.956.222.662.26 1.398.26 2.06 0 .33-.148.661-.222.956-.222.33 0 .036.853-.478 1.818-.662 1.336-2.575 1.3-3.2-.074-.368-.965-.625-1.744-.294-1.744z"/>
                <path fill="#7E4F2E" d="M155.31 73.42c.883 2.895-1.14 4.38-5.773 4.38-4.634 0-6.767-1.336-5.774-4.454 0 0 .772 1.485 5.774 1.485 5.001 0 5.773-1.41 5.773-1.41z"/>
            </g>
        </g>
        <g>
            <path fill="#6D4F47" d="M168.183 69.074h2.237v74.632h-2.237zM200.377 126.868l-2.09.735V93.375l2.09.33z"/>
            <path fill="#60423D" d="M196.27 109l-23.833 1.691.22-2.573.073-.956 23.247-.772.073.698z"/>
            <path fill="#000" d="M196.05 107.088l-23.393 1.03.073-.956 23.247-.772z" opacity=".1"/>
            <path fill="#60423D" d="M196.27 103.154l-23.833-.33.22-2.537.073-.956 23.247 1.176.073.736z"/>
            <path fill="#000" d="M196.05 101.243l-23.393-.956.073-.956 23.247 1.176z" opacity=".1"/>
            <path fill="#6D4F47" d="M196.27 106.059l-23.833.698.293-3.492 23.247.184zM196.27 111.904l-23.833 2.721.293-3.53 23.247-1.764z"/>
            <path fill="#000" d="M196.05 104.147l-23.393.074.073-.956 23.247.184zM196.05 110.03l-23.393 2.021.073-.955 23.247-1.765z" opacity=".1"/>
            <path fill="#60423D" d="M196.27 97.309l-23.833-2.316.22-2.537.073-.956 23.247 3.125.073.735z"/>
            <path fill="#000" d="M196.05 95.36l-23.393-2.904.073-.956 23.247 3.125z" opacity=".1"/>
            <path fill="#6D4F47" d="M196.27 100.213l-23.833-1.323.293-3.456 23.247 2.132z"/>
            <path fill="#000" d="M196.05 98.301l-23.393-1.948.073-.92 23.247 2.133z" opacity=".1"/>
            <path fill="#60423D" d="M196.27 120.691l-23.833 5.735.22-2.61.073-.956 23.247-4.742.073.698z"/>
            <path fill="#000" d="M196.05 118.816l-23.393 5 .073-.956 23.247-4.742z" opacity=".1"/>
            <path fill="#60423D" d="M196.27 114.846l-23.833 3.713.22-2.574.073-.956 23.247-2.757.073.699z"/>
            <path fill="#000" d="M196.05 112.97l-23.393 3.015.073-.956 23.247-2.757z" opacity=".1"/>
            <path fill="#6D4F47" d="M196.27 117.75l-23.833 4.743.293-3.567 23.247-3.75zM196.27 123.596l-23.833 6.764.293-3.603 23.247-5.698z"/>
            <path fill="#000" d="M196.05 115.875l-23.393 4.007.073-.956 23.247-3.75zM196.05 121.757l-23.393 5.993.073-.993 23.247-5.698z" opacity=".1"/>
            <path fill="#60423D" d="M196.27 126.537l-23.833 7.757.22-2.647.073-.956L195.977 124l.073.699z"/>
            <path fill="#000" d="M196.05 124.699l-23.393 6.948.073-.956L195.977 124z" opacity=".1"/>
            <path fill="#6D4F47" d="M196.27 129.441l-23.833 8.787.293-3.64 23.247-7.647z"/>
            <path fill="#000" d="M196.05 127.64l-23.393 7.94.073-.992 23.247-7.647z" opacity=".1"/>
            <path fill="#6D4F47" d="M196.27 94.368l-23.833-3.31.293-3.455 23.247 4.118z"/>
            <path fill="#000" d="M196.05 92.42l-23.393-3.898.073-.92 23.247 4.119z" opacity=".1"/>
            <path fill="#82655B" fill-rule="nonzero" d="M197.663 88.596c-2.75-.625-5.866-1.324-10.34-4.743l-.623-.515c-4.437-3.676-8.03-6.544-13.2-8.419v-.551c0-2.317-1.357-4.67-3.043-5.294v74.632l27.243-11.36c.33-.147.623-.552.623-.883V89.368c-.036-.331-.33-.699-.66-.772zm-2.456 41.58l-21.744 8.089v-51.03l21.744 3.97v38.971z"/>
            <path fill="#755952" d="M200.047 103.338l-2.347-.037v-5.11l2.347.184c.403.037.77.404.77.809v3.382c-.037.441-.367.772-.77.772zM200.047 122.566l-2.347.662v-5.11l2.347-.478c.403-.074.77.184.77.588v3.382c-.037.405-.367.846-.77.956z"/>
        </g>
        <g>
            <path fill="#6D4F47" d="M119.697 69.074h2.266v74.704h-2.266zM96.52 127.153l1.634.739V93.495l-1.634.333z"/>
            <path fill="#60423D" d="M99.677 109.197l18.46 1.736-.186-2.549-.037-.96-17.977-.85-.074.739z"/>
            <path fill="#000" d="M99.863 107.313l18.088 1.071-.037-.96-17.977-.85z" opacity=".1"/>
            <path fill="#60423D" d="M99.677 103.323l18.46-.222-.186-2.55-.037-.96-17.977 1.072-.074.738z"/>
            <path fill="#000" d="M99.863 101.401l18.088-.85-.037-.96-17.977 1.072z" opacity=".1"/>
            <path fill="#6D4F47" d="M99.677 106.241l18.46.776-.223-3.51-17.977.111zM99.677 112.153l18.46 2.697-.223-3.547-17.977-1.773z"/>
            <path fill="#000" d="M99.863 104.357l18.088.111-.037-.96-17.977.11zM99.863 110.232l18.088 2.032-.037-.961-17.977-1.773z" opacity=".1"/>
            <path fill="#60423D" d="M99.677 97.448l18.46-2.18-.186-2.512-.037-.96-17.977 2.992-.074.702z"/>
            <path fill="#000" d="M99.863 95.49l18.088-2.734-.037-.96-17.977 2.992z" opacity=".1"/>
            <path fill="#6D4F47" d="M99.677 100.367l18.46-1.182-.223-3.473-17.977 2.032z"/>
            <path fill="#000" d="M99.863 98.446l18.088-1.81-.037-.924-17.977 2.032z" opacity=".1"/>
            <path fill="#60423D" d="M99.677 120.946l18.46 5.653-.186-2.587-.037-.997-17.977-4.618-.074.702z"/>
            <path fill="#000" d="M99.863 119.099l18.088 4.913-.037-.997-17.977-4.618z" opacity=".1"/>
            <path fill="#60423D" d="M99.677 115.071l18.46 3.695-.186-2.586-.037-.96-17.977-2.735-.074.702z"/>
            <path fill="#000" d="M99.863 113.187l18.088 2.993-.037-.96-17.977-2.735z" opacity=".1"/>
            <path fill="#6D4F47" d="M99.677 118.027l18.46 4.655-.223-3.547-17.977-3.694zM99.677 123.901l18.46 6.614-.223-3.584-17.977-5.579z"/>
            <path fill="#000" d="M99.863 116.143l18.088 3.953-.037-.96-17.977-3.695zM99.863 122.054l18.088 5.838-.037-.961-17.977-5.579z" opacity=".1"/>
            <path fill="#60423D" d="M99.677 126.82l18.46 7.611-.186-2.623-.037-.96-17.977-6.54-.074.665z"/>
            <path fill="#000" d="M99.863 124.973l18.088 6.835-.037-.96-17.977-6.54z" opacity=".1"/>
            <path fill="#6D4F47" d="M99.677 129.776l18.46 8.571-.223-3.62-17.977-7.5z"/>
            <path fill="#000" d="M99.863 127.929l18.088 7.795-.037-.997-17.977-7.5z" opacity=".1"/>
            <path fill="#6D4F47" d="M99.677 94.493l18.46-3.14-.223-3.437-17.977 3.917z"/>
            <path fill="#000" d="M99.863 92.571l18.088-3.731-.037-.924-17.977 3.917z" opacity=".1"/>
            <path fill="#82655B" fill-rule="nonzero" d="M98.154 89.025v42.783c0 .332.223.739.483.887l21.06 11.083V69.074c-1.3.554-2.377 2.882-2.377 5.21v.553c-4.011 1.774-6.797 4.582-10.214 8.202l-.483.518c-3.454 3.399-5.869 4.064-7.986 4.692-.26.074-.483.443-.483.776zm2.34 2.29l16.789-3.805v50.874l-16.789-7.906V91.315z"/>
            <path fill="#755952" d="M96.78 103.507h1.82v-5.135l-1.82.185c-.334.037-.594.406-.594.812v3.4c.037.406.297.738.594.738zM96.78 122.83l1.82.665v-5.135l-1.82-.518c-.334-.074-.594.185-.594.591v3.4c.037.443.297.886.594.997z"/>
        </g>
    </g>
</svg>
