<svg xmlns="http://www.w3.org/2000/svg" width="295" height="222" viewBox="0 0 295 222">
    <defs>
        <radialGradient id="a" r="39.293%" fx="50%" fy="50%" gradientTransform="matrix(1 0 0 .99662 0 .002)">
            <stop offset="0%" stop-color="#EEE"/>
            <stop offset="100%" stop-color="#EEE" stop-opacity="0"/>
        </radialGradient>
        <linearGradient id="b" x1="50%" x2="50%" y1="100%" y2="0%">
            <stop offset="0%" stop-color="#FFF" stop-opacity="0"/>
            <stop offset="100%" stop-color="#F5F5F5"/>
        </linearGradient>
        <linearGradient id="c" x1="50%" x2="50%" y1="100%" y2="0%">
            <stop offset="0%" stop-color="#FFF" stop-opacity="0"/>
            <stop offset="68.02%" stop-color="#F5F5F5" stop-opacity=".68"/>
            <stop offset="100%" stop-color="#EEE"/>
        </linearGradient>
        <linearGradient id="d" x1="50%" x2="50%" y1="100%" y2="0%">
            <stop offset="0%" stop-color="#FFF" stop-opacity="0"/>
            <stop offset="42.95%" stop-color="#F5F5F5" stop-opacity=".429"/>
            <stop offset="100%" stop-color="#E0E0E0"/>
        </linearGradient>
        <radialGradient id="e" cx="48.685%" cy="-49.992%" r="136.439%" fx="48.685%" fy="-49.992%" gradientTransform="matrix(.30076 -.0029 .00087 1 .34 .001)">
            <stop offset="8.94%" stop-color="#FFF" stop-opacity="0"/>
            <stop offset="87.13%" stop-color="#FFF" stop-opacity=".859"/>
            <stop offset="100%" stop-color="#FFF"/>
        </radialGradient>
        <linearGradient id="f" x1="-19.144%" x2="77.697%" y1="130.966%" y2="-13.266%">
            <stop offset="0%" stop-color="#FFF" stop-opacity="0"/>
            <stop offset="100%" stop-color="#1D1D1B" stop-opacity=".1"/>
        </linearGradient>
    </defs>
    <g fill="none" fill-rule="evenodd">
        <path fill="#FFF" d="M0 0h295v222H0z"/>
        <g transform="translate(143.813 22.94)">
            <ellipse cx="61.95" cy="62.16" fill="url(#a)" rx="61.95" ry="62.16"/>
            <ellipse cx="61.876" cy="62.086" fill="#FFF" rx="21.387" ry="21.46"/>
        </g>
        <path fill="#FFF" d="M257.646 100.899v54.057H33.372V101.01c6.342 0 11.542-2.257 12.353-5.143.811 2.886 6.01 5.143 12.353 5.143 5.974 0 10.952-1.998 12.169-4.662 1.217 2.664 6.195 4.662 12.169 4.662 6.342 0 11.541-2.257 12.353-5.143.811 2.886 6.01 5.143 12.353 5.143 6.342 0 11.542-2.257 12.353-5.143.811 2.886 6.01 5.143 12.353 5.143s11.542-2.257 12.353-5.143c.811 2.886 6.01 5.143 12.353 5.143s11.542-2.257 12.353-5.143c.812 2.886 6.011 5.143 12.354 5.143 6.342 0 11.541-2.257 12.353-5.143.811 2.886 6.01 5.143 12.353 5.143 6.342 0 11.542-2.257 12.353-5.143.811 2.886 6.01 5.143 12.353 5.143s11.542-2.257 12.353-5.143c.811 2.886 6.01 5.143 12.353 5.143.775 0 1.55-.037 2.287-.111z"/>
        <path fill="url(#b)" d="M257.646 5.069v54.057H33.372V5.18c6.342 0 11.542-2.257 12.353-5.143.811 2.886 6.01 5.143 12.353 5.143 5.974 0 10.952-1.998 12.169-4.662 1.217 2.664 6.195 4.662 12.169 4.662 6.342 0 11.541-2.257 12.353-5.143.811 2.886 6.01 5.143 12.353 5.143 6.342 0 11.542-2.257 12.353-5.143.811 2.886 6.01 5.143 12.353 5.143S143.37 2.923 144.181.037c.811 2.886 6.01 5.143 12.353 5.143s11.542-2.257 12.353-5.143c.812 2.886 6.011 5.143 12.354 5.143 6.342 0 11.541-2.257 12.353-5.143.811 2.886 6.01 5.143 12.353 5.143 6.342 0 11.542-2.257 12.353-5.143.811 2.886 6.01 5.143 12.353 5.143s11.542-2.257 12.353-5.143c.811 2.886 6.01 5.143 12.353 5.143.775 0 1.55-.037 2.287-.111z" transform="translate(0 95.83)"/>
        <path fill="url(#c)" d="M257.646 19.869v54.057H33.372V19.98c6.342 0 11.542-2.257 12.353-5.143.811 2.886 6.01 5.143 12.353 5.143 5.974 0 10.952-1.998 12.169-4.662 1.217 2.664 6.195 4.662 12.169 4.662 6.342 0 11.541-2.257 12.353-5.143.811 2.886 6.01 5.143 12.353 5.143 6.342 0 11.542-2.257 12.353-5.143.811 2.886 6.01 5.143 12.353 5.143s11.542-2.257 12.353-5.143c.811 2.886 6.01 5.143 12.353 5.143s11.542-2.257 12.353-5.143c.812 2.886 6.011 5.143 12.354 5.143 6.342 0 11.541-2.257 12.353-5.143.811 2.886 6.01 5.143 12.353 5.143 6.342 0 11.542-2.257 12.353-5.143.811 2.886 6.01 5.143 12.353 5.143s11.542-2.257 12.353-5.143c.811 2.886 6.01 5.143 12.353 5.143.775 0 1.55-.037 2.287-.111z" transform="translate(0 95.83)"/>
        <path fill="url(#d)" d="M257.646 34.669v54.057H33.372V34.78c6.342 0 11.542-2.257 12.353-5.143.811 2.886 6.01 5.143 12.353 5.143 5.974 0 10.952-1.998 12.169-4.662 1.217 2.664 6.195 4.662 12.169 4.662 6.342 0 11.541-2.257 12.353-5.143.811 2.886 6.01 5.143 12.353 5.143 6.342 0 11.542-2.257 12.353-5.143.811 2.886 6.01 5.143 12.353 5.143s11.542-2.257 12.353-5.143c.811 2.886 6.01 5.143 12.353 5.143s11.542-2.257 12.353-5.143c.812 2.886 6.011 5.143 12.354 5.143 6.342 0 11.541-2.257 12.353-5.143.811 2.886 6.01 5.143 12.353 5.143 6.342 0 11.542-2.257 12.353-5.143.811 2.886 6.01 5.143 12.353 5.143s11.542-2.257 12.353-5.143c.811 2.886 6.01 5.143 12.353 5.143.775 0 1.55-.037 2.287-.111z" transform="translate(0 95.83)"/>
        <path fill="url(#e)" d="M255.36 5.18c-6.343 0-11.543-2.257-12.354-5.143-.811 2.886-6.01 5.143-12.353 5.143-6.342 0-11.542-2.257-12.353-5.143-.811 2.886-6.01 5.143-12.353 5.143S194.405 2.923 193.594.037c-.811 2.886-6.01 5.143-12.353 5.143S169.699 2.923 168.887.037c-.81 2.886-6.01 5.143-12.353 5.143-6.342 0-11.541-2.257-12.353-5.143-.811 2.886-6.01 5.143-12.353 5.143-6.342 0-11.542-2.257-12.353-5.143-.811 2.886-6.01 5.143-12.353 5.143S95.58 2.923 94.769.037c-.812 2.886-6.01 5.143-12.353 5.143-5.974 0-10.952-1.998-12.17-4.662C69.03 3.182 64.053 5.18 58.079 5.18c-6.342 0-11.542-2.257-12.353-5.143C44.914 2.96 6.342 5.18 0 5.18v83.583h295V5.069s-38.866.111-39.64.111z" transform="translate(0 95.83)"/>
        <g fill="#F5F5F5">
            <path d="M63.904 64.75s-2.212-17.649 14.713-15.762c0 0 2.582-13.912 19.139-11.285 0 0-13.976 2.257-14.713 12.395 0 0-2.213 4.514-6.601 7.141l.737-4.514c-.036 0-9.624 0-13.275 12.025zM240.794 38.887s9.366-1.147 9.034 8.288c0 0 7.264.37 5.458 10.915 0 0-1.955-8.214-6.896-8.658 0 0-1.844-.851-3.282-3.404l2.176.37c0 .037.073-5.365-6.49-7.511z"/>
        </g>
        <g>
            <path fill="#E9E9E9" d="M198.387 97.051a5.912 5.912 0 0 0 2.397-1.221c.37.851 3.061 2.849 9.403 2.96l-.626 1.85c-2.324.666-4.573.555-6.97.481-1.18-.074-2.36-.37-3.319-1.073-.479-.925-.774-1.998-.885-2.997z"/>
            <path fill="#FF808B" d="M206.5 76.331l.295-1.591c.184.481.48.74 1.032.74.701 0 1.107-.37 1.623-.37.59 0 .774.111 1.106.37-.664-.037-.885.074-1.585.666-.222.185-.701.481-1.254.481-.664-.037-1.217-.296-1.217-.296zM203.771 76.96c-1.217.185-2.139 1.295-2.065 2.516 0 .518.148 1.073.369 1.554l8.113 1.48c-.59-.518-1.107-.962-1.107-2.22 0-1.11.553-1.628 1.107-2.183l-6.417-1.147zM200.231 86.913c-.369-.481-.737-1.369-.737-2.146 0-.962.48-2.331 1.88-2.701l8.813 1.591c-.7.555-1.106 1.258-1.106 2.553 0 1.073.59 1.998 1.475 2.553l-10.325-1.85zM200.6 88.06c-1.254.518-2.212 1.665-2.212 2.997 0 2.072 1.106 2.923 1.106 2.923l11.431 2.109s-1.844-.666-1.844-3.219c0-1.628.775-2.368 1.475-2.96l-9.956-1.85z"/>
        </g>
        <g>
            <path fill="#A1887F" d="M128.694 138.75l-4.056 37.37-5.532 4.44-5.531 1.48-7.006 2.59-8.482.74-11.8.37H50.52v-17.76l38.35-4.44 9.956-7.03 9.956-.37 6.638-6.66 7.006 1.48z"/>
            <path fill="#D7CCC8" d="M61.212 141.34l9.588-1.11 7.006-2.22 27.288-3.7 9.587 3.7 14.013.74-6.269 12.21-7.006-1.48-6.638 6.66-9.956.37-9.956 7.03-38.35 4.44z"/>
            <path fill="#A1887F" d="M128.694 138.75l-4.056 37.37-5.532 4.44 3.319-29.6z"/>
            <path fill="#8D6E63" d="M122.425 150.96l-3.319 29.6-5.531 1.48 1.844-32.56zM86.287 185.74H50.52v-17.76l38.35-4.44z"/>
            <path fill="#A1887F" d="M115.419 149.48l-1.844 32.56-7.006 2.59 2.212-28.49z"/>
            <path fill="#8D6E63" d="M108.781 156.14l-2.212 28.49-8.482.74.738-28.86z"/>
            <path fill="#A1887F" d="M98.825 156.51l-.738 28.86-11.8.37 2.582-22.2z"/>
        </g>
        <g>
            <path fill="#1565C0" d="M90.934 101.01l1.954-.037a86.21 86.21 0 0 1 0-8.732l1.106-6.882-1.253-6.142-3.32 4.551c-.921 6.808-1.032 7.807-.958 8.51.295 2.368 1.844 6.882 2.47 8.732zM71.537 114.478c0 .555.222 2.072 3.245 4.366 5.2 3.922 11.21 5.476 18.549 5.476h9.587c-.147-2.664-5.531-5.18-11.837-8.658-16.778-9.213-19.543-1.887-19.543-1.184z"/>
            <path fill="#FAD6B7" d="M92.925 120.25l-5.126-2.516s-.885 3.959-1.217 6.623a45.335 45.335 0 0 0-.59 5.92c-.073 2.664-.516 5.328-1.216 7.918-.111.444 2.765 1.036 2.839.518.295-1.443 1.328-5.402 2.618-9.546 2.139-6.66 2.692-8.917 2.692-8.917z"/>
            <path fill="#1E88E5" d="M90.713 84.434c.258 1.702.405 3.441.368 5.18-.037 2.072 1.107 2.96 1.107 2.96v1.85c3.097 2.627 9.587.777 9.587.777v-2.257a8 8 0 0 0 1.07-1.887c.368-1.11.626-3.848.774-6.845.037-.962-1.07-.37-1.365-2.331-.295-1.961.259-2.997.259-2.997l-2.434-.888-4.167-1.813-5.2 8.251z"/>
            <path fill="#FAD6B7" d="M99.23 132.312c-1.696-9.139-1.511-9.99-1.511-9.99 4.204-1.85 5.162 1.998 5.162 1.998v1.85s0 2.96-.037 4.181a765.56 765.56 0 0 0-.331 10.249c0 .37.626.962.921 1.11.812.407 1.512-.37.627 1.739a6.1 6.1 0 0 0-3.872.629 6.393 6.393 0 0 1-.147-1.443c0-.296 0-.592.11-.888.517-2.368-.516-7.326-.921-9.435z"/>
            <path fill="#1E88E5" d="M92.188 94.313c-2.102 3.182-3.32 3.182-8.297 5.883-9.22 5.032-11.505 10.73-12.059 12.987a21.709 21.709 0 0 0-.294 1.369c.11-.592.59-1.369 2.212-1.369 3.06 0 6.084.888 10.14 3.552 3.504 2.331 6.454 5.365 9.404 5.365 8.776-.037 9.587 2.22 9.587 2.22s1.106-10.36 1.106-15.91c0-4.44.148-8.954-2.212-13.32-.774-1.443-2.84 0-4.646-.074-1.918-.111-4.204-1.739-4.942-.703z"/>
            <path fill="#1976D2" d="M92.188 92.5v1.85s.737 1.85 4.793 1.85c3.208 0 4.794-1.11 4.794-1.11v-2.22s-.922 1.11-5.31 1.11c-2.803 0-4.278-1.48-4.278-1.48z"/>
            <path fill="#42A5F5" d="M112.026 76.775c-1.475-2.96-5.015-6.882-5.457-7.215l-1.328.888c.775 2.183 3.54 6.993 3.54 7.474 0 .481-.332.444-.442.518l-5.974.37s-1.549.814-.737 4.07c.368 1.48 1.216 1.85 1.843 1.85 1.365 0 6.822-2.22 8.076-3.663 1.032-1.184 1.217-2.886.48-4.292z"/>
            <path fill="#6D4C41" d="M102.365 68.968l-6.343-.999a5.928 5.928 0 0 0-5.494 4.218c-1.032 3.108-.922 3.663-2.987 4.625-2.065.962-3.835 1.517-4.572 3.848-.922 2.886.037 5.143.737 7.03.221.592.332 1.221.369 1.85 0 1.295-.738 2.516-.738 3.182 0 .37.222.518.738.518 5.162 0 5.384-4.477 7.928-5.365 6.822-2.405 7.486-5.476 8.666-7.585.627-1.147 1.843-3.33 1.843-7.77.037-1.184-.036-2.368-.147-3.552z"/>
            <path fill="#EA244A" d="M104.91 69.597s.81 1.11-1.033 2.664c-1.07.925-3.06 1.369-4.941 1.369-6.343 0-8.998-2.96-8.998-5.143s2.397-3.293 5.642-2.923l8.518 3.108.811.925z"/>
            <path fill="#EF2E4A" d="M101.775 65.601c-.7-.925-1.77-1.961-4.278-1.961-2.323 0-3.982 1.813-4.646 2.96-.184.333-1.512 2.775 3.282 3.811 3.688.814 6.453-.666 6.748-1.184.295-.518-.11-2.257-1.106-3.626zM84.48 139.86s-.036-2.96 1.807-2.96c1.586 0 1.475 1.665 1.475 1.702a6.494 6.494 0 0 1-.442 2.035l-2.84-.777z"/>
            <path fill="#BBDEFB" d="M102.107 67.895c-.184.259-.258.481-.221.777-.443.296-1.733.888-3.54.888-.627 0-1.291-.074-1.955-.222-1.106-.259-1.77-.555-2.138-.814-.074-.037-1.18-.666-1.291-2.035-.037.037-.037.074-.074.111-.184.333-1.512 2.775 3.282 3.811a9.391 9.391 0 0 0 2.176.259c2.544 0 4.314-.999 4.572-1.406.074-.148.11-.333.11-.592 0-.148.296-.407.738-.703-.59.037-1.143 0-1.66-.074z"/>
            <path fill="#FAD6B7" d="M105.241 68.08c-.48-.481-.553-1.48-2.544-1.48-1.88 0-2.028.703-2.028 1.48s1.143 1.11 2.212 1.11c1.18 0 1.586.185 1.918.518.147.222.295.481.442.703l1.328-.888s-1.07-1.184-1.328-1.443z"/>
            <path fill="#90CAF9" d="M94.769 69.56s-2.397-.185-6.527 2.997C86.804 73.63 85.66 74 84.628 74c-2.286 0-3.724-1.85-6.269-1.85-3.613 0-4.609 1.85-4.609 1.85l.737 3.7c.996-1.147 2.471-1.813 3.983-1.85 1.438 0 4.056 1.961 6.859 1.702 1.438-.148 2.175-1.961 4.13-3.811a44.797 44.797 0 0 1 5.31-4.181z"/>
            <path fill="#C9E5FC" d="M94.769 69.56s-2.877 0-6.675 5.402c-.995 1.443-2.175 1.998-3.281 1.998-1.992.037-4.426-1.48-4.426-1.48l-1.843 3.7s2.876 1.85 5.752 1.85c3.245 0 5.052-1.48 6.121-4.44 1.844-4.958 4.352-7.03 4.352-7.03z"/>
            <path fill="url(#f)" d="M33.298 79.55l3.282.888-9.956 6.179c1.106.407 3.65 1.998 3.65 1.998l19.25-8.436 5.715-.185-20.945 11.174s4.093 2.109 4.425 3.182l-13.165 7.03L0 104.34l8.002-19.98c1.217-.851 2.434-1.702 3.171-2.109 3.393-1.961 11.616 2.035 11.616 2.035s4.72-1.85 10.51-4.736z" transform="translate(50.519 63.64)"/>
            <path fill="#AF1738" d="M84.48 139.823c.038-.814.701-1.443 1.513-1.443.737-.037 1.364.592 1.4 1.332v.148a11.54 11.54 0 0 1-.22 1.628c-.148.777.11 1.184.22 1.591.075.333-.036.666-.22.962-.222.222-1.18.259-2.692.185-.406-.074-.701-.444-.738-.851 0-.148.037-.296.074-.407.295-.999.553-2.072.664-3.145z"/>
            <path fill="#EF2E4A" d="M105.426 141.895l-1.955-.185s1.106.296.48 1.147c-.295.259-.664.37-1.07.37-1.07-.037-1.217-1.11-2.802-1.11-.11 0-.295 1.221-.037 2.331.074.37.406.629 1.032.629a7.677 7.677 0 0 0 1.586-.407 28.718 28.718 0 0 0 3.024-.962c.995-.481 1.438-1.628-.258-1.813z"/>
        </g>
    </g>
</svg>
